<svg xmlns="http://www.w3.org/2000/svg" width="512" height="512" viewBox="0 0 512 512" version="1.1"><path d="" stroke="none" fill="#080404" fill-rule="evenodd"/><path d="M 48.362 1.981 C 30.324 6.710, 15.209 19.095, 6.546 36.246 C -0.199 49.599, -0.104 48.011, 0.214 142 L 0.500 226.500 3.179 233.835 C 10.243 253.171, 24.635 267.778, 43.266 274.519 L 49.500 276.775 50 297.637 C 50.339 311.776, 50.907 319.212, 51.763 320.709 C 53.680 324.061, 59.067 327.751, 63.148 328.508 C 69.989 329.776, 73.775 326.949, 98.492 302.107 L 121.484 279 140.688 279 L 159.892 279 160.261 343.250 C 160.674 415.348, 160.367 412.131, 168.315 427.500 C 175.598 441.583, 188.880 452.872, 205.165 458.821 L 212.500 461.500 301.500 461.773 L 390.500 462.047 414.500 485.918 C 427.700 499.047, 439.483 510.286, 440.684 510.894 C 444.425 512.788, 451.363 512.228, 455.102 509.730 C 461.392 505.528, 461.997 502.957, 461.998 480.408 L 462 460.317 466.250 459.044 C 487.219 452.765, 504.946 433.651, 510.476 411.356 C 512.748 402.195, 512.761 242.423, 510.490 233.460 C 505.246 212.760, 488.667 194.196, 469.477 187.536 C 457.524 183.388, 451.874 183.015, 400.798 183.008 L 352.095 183 351.740 118.750 C 351.419 60.573, 351.216 53.933, 349.596 48.500 C 344.013 29.775, 331.880 14.988, 315.500 6.947 C 300.470 -0.431, 309.102 -0.006, 175.540 0.055 C 61.561 0.107, 55.140 0.205, 48.362 1.981 M 59.650 31.049 C 48.009 33.002, 37.296 41.681, 32.804 52.798 L 30.500 58.500 30.500 139 L 30.500 219.500 32.896 225.449 C 35.783 232.614, 42.679 240.297, 49.183 243.593 C 51.780 244.909, 57.795 246.608, 62.549 247.370 C 76.374 249.584, 79.929 253.307, 80.747 266.434 L 81.289 275.115 93.919 262.619 C 100.865 255.746, 107.804 249.645, 109.339 249.061 C 111.024 248.420, 121.596 248, 136.020 248 L 159.909 248 160.490 244.250 C 163.748 223.213, 168.652 213.167, 181.555 201.098 C 189.467 193.696, 195.937 189.850, 206.500 186.269 L 214.500 183.557 267.750 183.215 L 321 182.874 321 122.647 C 321 72.569, 320.749 61.458, 319.513 56.711 C 315.908 42.872, 305.328 33.395, 290.862 31.047 C 283.217 29.807, 67.044 29.808, 59.650 31.049 M 218.344 215.041 C 208.506 216.988, 198.803 224.920, 194.170 234.804 L 191.500 240.500 191.500 322.500 L 191.500 404.500 194.405 410.791 C 198.053 418.692, 205.798 426.032, 213.541 428.929 C 218.985 430.966, 220.522 431, 307.788 431.006 C 369.122 431.009, 397.734 431.350, 400.500 432.110 C 403.613 432.965, 407.406 436.081, 417.605 446.163 L 430.711 459.118 431.241 450.611 C 432.102 436.812, 435.661 432.988, 449.424 431.074 C 459.047 429.735, 465.047 426.940, 471.043 421 C 476.518 415.576, 479.737 409.246, 481.028 401.364 C 482.357 393.252, 482.289 252.374, 480.953 244.138 C 478.605 229.672, 469.128 219.092, 455.289 215.487 C 450.386 214.210, 433.552 214.015, 336.040 214.110 C 273.593 214.170, 220.630 214.589, 218.344 215.041 M 383.500 273.147 C 382.400 273.745, 367.453 288.225, 350.285 305.326 L 319.069 336.419 305.235 322.802 C 294.066 311.809, 290.590 308.967, 287.200 308.054 C 274.664 304.678, 264.167 317.189, 269.390 329.282 C 270.154 331.052, 279.716 341.348, 290.640 352.161 C 306.942 368.300, 311.222 372.014, 314.532 372.891 C 323.159 375.177, 323.043 375.267, 364.355 334.164 C 385.627 312.999, 402.820 295.090, 403.605 293.282 C 405.520 288.864, 405.355 285.365, 403 280.500 C 399.659 273.598, 389.631 269.817, 383.500 273.147" stroke="none" fill="#040404" fill-rule="evenodd"/></svg>