<svg width="24" height="24" viewBox="0 0 24 24" fill="none" xmlns="http://www.w3.org/2000/svg">
<path fill-rule="evenodd" clip-rule="evenodd" d="M9.2093 3C9.5096 3 9.77621 3.19068 9.87117 3.47338L14.7907 18.1184L16.9195 11.7811C17.0145 11.4984 17.2811 11.3077 17.5814 11.3077H21.3023C21.6876 11.3077 22 11.6176 22 12C22 12.3824 21.6876 12.6923 21.3023 12.6923H18.0843L15.4526 20.5266C15.3576 20.8093 15.091 21 14.7907 21C14.4904 21 14.2238 20.8093 14.1288 20.5266L9.2093 5.88158L7.08048 12.2189C6.98551 12.5016 6.7189 12.6923 6.4186 12.6923H2.69767C2.31236 12.6923 2 12.3824 2 12C2 11.6176 2.31236 11.3077 2.69767 11.3077H5.91575L8.54743 3.47338C8.64239 3.19068 8.909 3 9.2093 3Z" fill="#151515"/>
</svg>
