<svg width="24" height="24" viewBox="0 0 24 24" fill="none" xmlns="http://www.w3.org/2000/svg">
<path fill-rule="evenodd" clip-rule="evenodd" d="M2 5.77778C2 5.34822 2.3444 5 2.76923 5H21.2308C21.6556 5 22 5.34822 22 5.77778C22 6.20733 21.6556 6.55556 21.2308 6.55556H2.76923C2.3444 6.55556 2 6.20733 2 5.77778ZM5.07692 9.92593C5.07692 9.49637 5.42132 9.14815 5.84615 9.14815H18.1538C18.5787 9.14815 18.9231 9.49637 18.9231 9.92593C18.9231 10.3555 18.5787 10.7037 18.1538 10.7037H5.84615C5.42132 10.7037 5.07692 10.3555 5.07692 9.92593ZM2 14.0741C2 13.6445 2.3444 13.2963 2.76923 13.2963H21.2308C21.6556 13.2963 22 13.6445 22 14.0741C22 14.5036 21.6556 14.8519 21.2308 14.8519H2.76923C2.3444 14.8519 2 14.5036 2 14.0741ZM5.07692 18.2222C5.07692 17.7927 5.42132 17.4444 5.84615 17.4444H18.1538C18.5787 17.4444 18.9231 17.7927 18.9231 18.2222C18.9231 18.6518 18.5787 19 18.1538 19H5.84615C5.42132 19 5.07692 18.6518 5.07692 18.2222Z" fill="#151515"/>
</svg>
