<svg width="24" height="24" viewBox="0 0 24 24" fill="none" xmlns="http://www.w3.org/2000/svg">
<path fill-rule="evenodd" clip-rule="evenodd" d="M2 5.77778C2 5.34822 2.3444 5 2.76923 5H21.2308C21.6556 5 22 5.34822 22 5.77778C22 6.20733 21.6556 6.55556 21.2308 6.55556H2.76923C2.3444 6.55556 2 6.20733 2 5.77778ZM6.10256 9.92593C6.10256 9.49637 6.44696 9.14815 6.8718 9.14815H21.2308C21.6556 9.14815 22 9.49637 22 9.92593C22 10.3555 21.6556 10.7037 21.2308 10.7037H6.8718C6.44696 10.7037 6.10256 10.3555 6.10256 9.92593ZM2 14.0741C2 13.6445 2.3444 13.2963 2.76923 13.2963H21.2308C21.6556 13.2963 22 13.6445 22 14.0741C22 14.5036 21.6556 14.8519 21.2308 14.8519H2.76923C2.3444 14.8519 2 14.5036 2 14.0741ZM6.10256 18.2222C6.10256 17.7927 6.44696 17.4444 6.8718 17.4444H21.2308C21.6556 17.4444 22 17.7927 22 18.2222C22 18.6518 21.6556 19 21.2308 19H6.8718C6.44696 19 6.10256 18.6518 6.10256 18.2222Z" fill="#151515"/>
</svg>
