<svg width="24" height="24" viewBox="0 0 24 24" fill="none" xmlns="http://www.w3.org/2000/svg">
<path fill-rule="evenodd" clip-rule="evenodd" d="M12 3.39535C10.8441 3.39535 9.90698 4.33243 9.90698 5.48837C9.90698 6.64432 10.8441 7.5814 12 7.5814C13.1559 7.5814 14.093 6.64432 14.093 5.48837C14.093 4.33243 13.1559 3.39535 12 3.39535ZM8.51163 5.48837C8.51163 3.5618 10.0734 2 12 2C13.9266 2 15.4884 3.5618 15.4884 5.48837C15.4884 7.17602 14.2899 8.58375 12.6977 8.90696V20.5763C14.7243 20.4116 16.636 19.5328 18.0844 18.0844C19.5328 16.636 20.4116 14.7243 20.5763 12.6977H18.5116C18.1263 12.6977 17.814 12.3853 17.814 12C17.814 11.6147 18.1263 11.3023 18.5116 11.3023H21.3023C21.6876 11.3023 22 11.6147 22 12C22 14.6522 20.9464 17.1957 19.0711 19.0711C17.1957 20.9464 14.6522 22 12 22C9.34784 22 6.8043 20.9464 4.92893 19.0711C3.05357 17.1957 2 14.6522 2 12C2 11.815 2.0735 11.6375 2.20434 11.5067C2.33518 11.3758 2.51264 11.3023 2.69767 11.3023H5.48837C5.87369 11.3023 6.18605 11.6147 6.18605 12C6.18605 12.3853 5.87369 12.6977 5.48837 12.6977H3.42366C3.58845 14.7243 4.46717 16.636 5.91559 18.0844C7.36402 19.5328 9.27566 20.4116 11.3023 20.5763V8.90696C9.71006 8.58375 8.51163 7.17602 8.51163 5.48837Z" fill="#151515"/>
</svg>
