<svg width="24" height="24" viewBox="0 0 24 24" fill="none" xmlns="http://www.w3.org/2000/svg">
<path fill-rule="evenodd" clip-rule="evenodd" d="M4.47998 7.81476C3.78905 9.05358 3.39535 10.4808 3.39535 12C3.39535 13.0639 3.58843 14.0827 3.94146 15.0233H8.64264L7.10752 12.3649C7.10128 12.3547 7.09532 12.3444 7.08962 12.3339L4.47998 7.81476ZM3.91062 6.11986C2.70895 7.77018 2 9.8023 2 12C2 13.4037 2.2892 14.7398 2.81128 15.952C2.82273 15.9847 2.83653 16.0162 2.85249 16.0464C4.25507 19.2125 7.25317 21.5143 10.8268 21.9319C10.8627 21.9388 10.8988 21.9428 10.9348 21.9439C11.2848 21.981 11.6402 22 12 22C15.2731 22 18.179 20.4275 20.0032 17.9967C20.0362 17.9606 20.065 17.9215 20.0894 17.8801C21.291 16.2298 22 14.1977 22 12C22 10.5963 21.7108 9.26021 21.1887 8.04797C21.1773 8.01535 21.1635 7.98383 21.1475 7.95363C19.7449 4.78752 16.7468 2.48569 13.1732 2.06809C13.1373 2.06122 13.1012 2.05724 13.0652 2.05607C12.7152 2.01901 12.3598 2 12 2C8.72688 2 5.82105 3.57253 3.99679 6.0033C3.96378 6.03935 3.93499 6.07846 3.91062 6.11986ZM5.35271 6.53578L7.70239 10.6047L9.24546 7.9326C9.24619 7.93132 9.24693 7.93005 9.24767 7.92877L11.865 3.39639C9.24229 3.43674 6.90427 4.65046 5.35271 6.53578ZM13.4104 3.51038L11.0596 7.5814H14.1354C14.1439 7.58124 14.1524 7.58124 14.1609 7.5814H19.385C18.1117 5.45774 15.9482 3.92885 13.4104 3.51038ZM20.0585 8.97674H15.3574L16.8925 11.6351C16.8987 11.6453 16.9047 11.6557 16.9104 11.6661L19.52 16.1852C20.211 14.9464 20.6047 13.5192 20.6047 12C20.6047 10.9361 20.4116 9.91731 20.0585 8.97674ZM18.6473 17.4642L16.2976 13.3953L14.7544 16.0676C14.7538 16.0687 14.7531 16.0699 14.7524 16.071L12.135 20.6036C14.7577 20.5633 17.0957 19.3495 18.6473 17.4642ZM10.5896 20.4896L12.9404 16.4186H9.86455C9.85605 16.4188 9.84756 16.4188 9.83908 16.4186H4.61498C5.88835 18.5423 8.05177 20.0712 10.5896 20.4896ZM10.2539 15.0233H13.7462L15.492 12.0001L13.7461 8.97674H10.2538L8.50804 11.9999L10.2539 15.0233Z" fill="#151515"/>
</svg>
