<svg width="24" height="24" viewBox="0 0 24 24" fill="none" xmlns="http://www.w3.org/2000/svg">
<path fill-rule="evenodd" clip-rule="evenodd" d="M2 3.69227C2 3.30994 2.31236 3 2.69767 3H21.3023C21.6876 3 22 3.30994 22 3.69227V8.30743C22 8.68976 21.6876 8.9997 21.3023 8.9997H20.307V20.3077C20.307 20.6901 19.9947 21 19.6093 21H4.38735C4.00204 21 3.68968 20.6901 3.68968 20.3077V8.9997H2.69767C2.31236 8.9997 2 8.68976 2 8.30743V3.69227ZM5.08503 8.9997V19.6155H18.9117V8.9997H5.08503ZM3.39535 4.38455V7.61515H20.6047V4.38455H3.39535ZM9.44186 11.9995C9.44186 11.6172 9.75422 11.3073 10.1395 11.3073H13.8605C14.2458 11.3073 14.5581 11.6172 14.5581 11.9995C14.5581 12.3819 14.2458 12.6918 13.8605 12.6918H10.1395C9.75422 12.6918 9.44186 12.3819 9.44186 11.9995Z" fill="#151515"/>
</svg>
