<svg width="24" height="24" viewBox="0 0 24 24" fill="none" xmlns="http://www.w3.org/2000/svg">
<path fill-rule="evenodd" clip-rule="evenodd" d="M12.1494 4.4601C10.5016 4.22821 8.82253 4.53394 7.36513 5.33121C5.90774 6.12847 4.751 7.37408 4.06923 8.88034C3.38746 10.3866 3.21759 12.0719 3.58523 13.6822C3.95287 15.2926 4.83808 16.7408 6.10749 17.8086C7.3769 18.8764 8.96172 19.506 10.6231 19.6024C12.2846 19.6988 13.9326 19.2569 15.3188 18.3432C16.7051 17.4296 17.7544 16.0937 18.3088 14.5368C18.4372 14.1763 18.8359 13.9873 19.1992 14.1147C19.5626 14.242 19.7531 14.6375 19.6247 14.998C18.9695 16.838 17.7294 18.4168 16.0911 19.4966C14.4528 20.5763 12.5051 21.0986 10.5416 20.9846C8.57814 20.8707 6.70517 20.1267 5.20496 18.8647C3.70475 17.6028 2.65858 15.8913 2.2241 13.9881C1.78962 12.0849 1.99038 10.0932 2.7961 8.31312C3.60183 6.53301 4.96888 5.06092 6.69126 4.1187C8.41364 3.17648 10.398 2.81516 12.3454 3.0892C14.2892 3.36274 16.091 4.25452 17.4803 5.63048L20.6044 8.54918V4.61358C20.6044 4.23123 20.9168 3.92127 21.3022 3.92127C21.6876 3.92127 22 4.23123 22 4.61358V10.152C22 10.5344 21.6876 10.8443 21.3022 10.8443H15.7198C15.3344 10.8443 15.022 10.5344 15.022 10.152C15.022 9.76969 15.3344 9.45973 15.7198 9.45973H19.5433L16.516 6.63146C16.5108 6.62665 16.5057 6.62177 16.5008 6.61682C15.3243 5.44891 13.7972 4.69198 12.1494 4.4601Z" fill="#151515"/>
</svg>
