<svg width="24" height="24" viewBox="0 0 24 24" fill="none" xmlns="http://www.w3.org/2000/svg">
<path d="M8 6C8.44183 6 8.8 6.35039 8.8 6.78261V15.328L10.6343 13.5336C10.9467 13.2279 11.4533 13.2279 11.7657 13.5336C12.0781 13.8392 12.0781 14.3347 11.7657 14.6403L8.56568 17.7708C8.25327 18.0764 7.74673 18.0764 7.43432 17.7708L4.23431 14.6403C3.9219 14.3347 3.9219 13.8392 4.23431 13.5336C4.54673 13.2279 5.05327 13.2279 5.36569 13.5336L7.2 15.328V6.78261C7.2 6.35039 7.55817 6 8 6Z" fill="#151515"/>
<path d="M16 18C15.5582 18 15.2 17.6496 15.2 17.2174L15.2 8.67199L13.3657 10.4664C13.0533 10.7721 12.5467 10.7721 12.2343 10.4664C11.9219 10.1608 11.9219 9.66528 12.2343 9.35966L15.4343 6.22922C15.7467 5.92359 16.2533 5.92359 16.5657 6.22922L19.7657 9.35966C20.0781 9.66528 20.0781 10.1608 19.7657 10.4664C19.4533 10.7721 18.9467 10.7721 18.6343 10.4664L16.8 8.67199L16.8 17.2174C16.8 17.6496 16.4418 18 16 18Z" fill="#151515"/>
</svg>
