<svg width="24" height="24" viewBox="0 0 24 24" fill="none" xmlns="http://www.w3.org/2000/svg">
<path d="M8.53033 3.46967C8.23744 3.17678 7.76256 3.17678 7.46967 3.46967L2.6967 8.24264C2.40381 8.53553 2.40381 9.01041 2.6967 9.3033C2.98959 9.59619 3.46447 9.59619 3.75736 9.3033L8 5.06066L12.2426 9.3033C12.5355 9.59619 13.0104 9.59619 13.3033 9.3033C13.5962 9.01041 13.5962 8.53553 13.3033 8.24264L8.53033 3.46967ZM7.25 18C7.25 18.4142 7.58579 18.75 8 18.75C8.41421 18.75 8.75 18.4142 8.75 18H7.25ZM7.25 4V18H8.75V4H7.25Z" fill="#151515"/>
<path d="M16.75 6C16.75 5.58579 16.4142 5.25 16 5.25C15.5858 5.25 15.25 5.58579 15.25 6H16.75ZM15.4697 20.5303C15.7626 20.8232 16.2374 20.8232 16.5303 20.5303L21.3033 15.7574C21.5962 15.4645 21.5962 14.9896 21.3033 14.6967C21.0104 14.4038 20.5355 14.4038 20.2426 14.6967L16 18.9393L11.7574 14.6967C11.4645 14.4038 10.9896 14.4038 10.6967 14.6967C10.4038 14.9896 10.4038 15.4645 10.6967 15.7574L15.4697 20.5303ZM15.25 6V20H16.75V6H15.25Z" fill="#151515"/>
</svg>
