<svg width="24" height="24" viewBox="0 0 24 24" fill="none" xmlns="http://www.w3.org/2000/svg">
<path fill-rule="evenodd" clip-rule="evenodd" d="M11.5151 2.20434C11.7829 1.93189 12.2171 1.93189 12.4849 2.20434L16.142 5.92527C16.4098 6.19773 16.4098 6.63948 16.142 6.91194C15.8742 7.18439 15.4401 7.18439 15.1723 6.91194L12.6857 4.38201V14.7907C12.6857 15.176 12.3787 15.4884 12 15.4884C11.6213 15.4884 11.3143 15.176 11.3143 14.7907V4.38201L8.82773 6.91194C8.55994 7.18439 8.12577 7.18439 7.85798 6.91194C7.5902 6.63948 7.5902 6.19773 7.85798 5.92527L11.5151 2.20434ZM4.68571 11.3023C5.06442 11.3023 5.37143 11.6147 5.37143 12V19.4419C5.37143 19.7503 5.49184 20.046 5.70616 20.2641C5.92049 20.4821 6.21118 20.6047 6.51429 20.6047H17.4857C17.7888 20.6047 18.0795 20.4821 18.2938 20.2641C18.5082 20.046 18.6286 19.7503 18.6286 19.4419V12C18.6286 11.6147 18.9356 11.3023 19.3143 11.3023C19.693 11.3023 20 11.6147 20 12V19.4419C20 20.1203 19.7351 20.771 19.2636 21.2507C18.7921 21.7305 18.1525 22 17.4857 22H6.51429C5.84746 22 5.20794 21.7305 4.73642 21.2507C4.2649 20.771 4 20.1203 4 19.4419V12C4 11.6147 4.307 11.3023 4.68571 11.3023Z" fill="#151515"/>
</svg>
