<svg width="24" height="24" viewBox="0 0 24 24" fill="none" xmlns="http://www.w3.org/2000/svg">
<path fill-rule="evenodd" clip-rule="evenodd" d="M12 3.39535C7.24778 3.39535 3.39535 7.24778 3.39535 12C3.39535 16.7522 7.24778 20.6047 12 20.6047C16.7522 20.6047 20.6047 16.7522 20.6047 12C20.6047 7.24778 16.7522 3.39535 12 3.39535ZM2 12C2 6.47715 6.47715 2 12 2C17.5228 2 22 6.47715 22 12C22 17.5228 17.5228 22 12 22C6.47715 22 2 17.5228 2 12ZM11.5067 8.7724C11.2342 8.49994 11.2342 8.0582 11.5067 7.78574C11.7791 7.51328 12.2209 7.51328 12.4933 7.78574L16.2143 11.5067C16.4867 11.7791 16.4867 12.2209 16.2143 12.4933L12.4933 16.2143C12.2209 16.4867 11.7791 16.4867 11.5067 16.2143C11.2342 15.9418 11.2342 15.5001 11.5067 15.2276L14.0366 12.6977H8.27907C7.89375 12.6977 7.5814 12.3853 7.5814 12C7.5814 11.6147 7.89375 11.3023 8.27907 11.3023H14.0366L11.5067 8.7724Z" fill="#151515"/>
</svg>
