<svg width="24" height="24" viewBox="0 0 24 24" fill="none" xmlns="http://www.w3.org/2000/svg">
<path fill-rule="evenodd" clip-rule="evenodd" d="M12 3.39535C7.24778 3.39535 3.39535 7.24778 3.39535 12C3.39535 16.7522 7.24778 20.6047 12 20.6047C16.7522 20.6047 20.6047 16.7522 20.6047 12C20.6047 7.24778 16.7522 3.39535 12 3.39535ZM2 12C2 6.47715 6.47715 2 12 2C17.5228 2 22 6.47715 22 12C22 17.5228 17.5228 22 12 22C6.47715 22 2 17.5228 2 12ZM12 7.5814C12.3853 7.5814 12.6977 7.89375 12.6977 8.27907V14.0366L15.2276 11.5067C15.5001 11.2342 15.9418 11.2342 16.2143 11.5067C16.4867 11.7791 16.4867 12.2209 16.2143 12.4933L12.4933 16.2143C12.2209 16.4867 11.7791 16.4867 11.5067 16.2143L7.78574 12.4933C7.51328 12.2209 7.51328 11.7791 7.78574 11.5067C8.0582 11.2342 8.49994 11.2342 8.7724 11.5067L11.3023 14.0366V8.27907C11.3023 7.89375 11.6147 7.5814 12 7.5814Z" fill="#151515"/>
</svg>
