<svg width="24" height="24" viewBox="0 0 24 24" fill="none" xmlns="http://www.w3.org/2000/svg">
<path fill-rule="evenodd" clip-rule="evenodd" d="M11.6659 3.08779C13.6133 2.81593 15.5969 3.17941 17.3179 4.12343C19.039 5.06746 20.4042 6.54091 21.2079 8.32177C22.0116 10.1026 22.2102 12.0944 21.7739 13.997C21.3375 15.8996 20.2898 17.61 18.7886 18.8704C17.2874 20.1308 15.4141 20.873 13.4508 20.9851C11.4875 21.0972 9.54074 20.5732 7.90372 19.492C6.2667 18.4108 5.02815 16.831 4.37469 14.9907C4.24664 14.63 4.43746 14.2347 4.80091 14.1076C5.16435 13.9806 5.56278 14.1699 5.69083 14.5306C6.24376 16.0878 7.29176 17.4246 8.67694 18.3394C10.0621 19.2543 11.7094 19.6977 13.3706 19.6028C15.0318 19.5079 16.617 18.8799 17.8872 17.8134C19.1575 16.7469 20.044 15.2997 20.4132 13.6898C20.7824 12.0799 20.6144 10.3945 19.9343 8.88765C19.2543 7.38077 18.0991 6.13401 16.6428 5.33521C15.1865 4.53642 13.5081 4.22887 11.8603 4.4589C10.2126 4.68893 8.68483 5.44408 7.50723 6.61057C7.50225 6.6155 7.4972 6.62036 7.49207 6.62514L4.45914 9.45297H8.27948C8.66482 9.45297 8.9772 9.76293 8.9772 10.1453C8.9772 10.5276 8.66482 10.8376 8.27948 10.8376H2.69772C2.31238 10.8376 2 10.5276 2 10.1453V4.60682C2 4.22447 2.31238 3.91451 2.69772 3.91451C3.08306 3.91451 3.39544 4.22447 3.39544 4.60682V8.54475L6.52896 5.62313C7.91963 4.24884 9.72214 3.35915 11.6659 3.08779Z" fill="#151515"/>
</svg>
