<svg width="24" height="24" viewBox="0 0 24 24" fill="none" xmlns="http://www.w3.org/2000/svg">
<path fill-rule="evenodd" clip-rule="evenodd" d="M11.5 3.39535C8.63937 3.39535 6.34483 5.7472 6.34483 8.61739C6.34483 11.4876 8.63937 13.8394 11.5 13.8394C12.5065 13.8394 13.443 13.5483 14.234 13.0458C14.234 13.0458 12.9774 13.9004 14.3625 12.9615C15.7477 12.0225 16.6552 10.4224 16.6552 8.61739C16.6552 5.7472 14.3606 3.39535 11.5 3.39535ZM15.378 13.9282C16.967 12.7243 18 10.798 18 8.61739C18 4.94884 15.0763 2 11.5 2C7.92366 2 5 4.94884 5 8.61739C5 10.7984 6.0334 12.7251 7.62297 13.9289L6.67113 21.2085C6.63652 21.4732 6.75058 21.7351 6.96486 21.8831C7.17915 22.0311 7.45606 22.0392 7.67801 21.9039L11.5 19.5744L15.322 21.9039C15.5439 22.0392 15.8208 22.0311 16.0351 21.8831C16.2494 21.7352 16.3635 21.4733 16.3289 21.2086L15.378 13.9282ZM14.1185 14.6754C13.3164 15.0352 12.4303 15.2348 11.5 15.2348C10.57 15.2348 9.68422 15.0354 8.88246 14.6758L8.18973 19.9737L11.1594 18.1637C11.3697 18.0356 11.6303 18.0356 11.8406 18.1637L14.8105 19.9739L14.1185 14.6754Z" fill="#151515"/>
</svg>
