<svg width="24" height="24" viewBox="0 0 24 24" fill="none" xmlns="http://www.w3.org/2000/svg">
<path fill-rule="evenodd" clip-rule="evenodd" d="M19.5612 3.07614C19.8294 3.2046 20 3.47489 20 3.77143V20.2286C20 20.5251 19.8294 20.7954 19.5612 20.9238C19.2929 21.0523 18.9746 21.0162 18.7422 20.8309L8.41959 12.6024C8.23594 12.456 8.12903 12.2343 8.12903 12C8.12903 11.7656 8.23594 11.544 8.41959 11.3976L18.7422 3.16904C18.9746 2.9838 19.2929 2.94768 19.5612 3.07614ZM10.1425 12L18.4516 18.6235V5.37648L10.1425 12ZM4.77419 4.02857C5.20177 4.02857 5.54839 4.37395 5.54839 4.8V19.2C5.54839 19.626 5.20177 19.9714 4.77419 19.9714C4.34662 19.9714 4 19.626 4 19.2V4.8C4 4.37395 4.34662 4.02857 4.77419 4.02857Z" fill="#151515"/>
</svg>
