<svg width="24" height="24" viewBox="0 0 24 24" fill="none" xmlns="http://www.w3.org/2000/svg">
<path fill-rule="evenodd" clip-rule="evenodd" d="M11.3763 4.07872C11.6157 4.20863 11.7674 4.4785 11.7674 4.77419V19.2258C11.7674 19.5215 11.6157 19.7914 11.3763 19.9213C11.1369 20.0512 10.8518 20.0184 10.6414 19.8369L2.26934 12.6111C2.0994 12.4644 2 12.2389 2 12C2 11.7611 2.0994 11.5356 2.26934 11.3889L10.6414 4.16308C10.8518 3.98154 11.1369 3.94881 11.3763 4.07872ZM21.6089 4.07872C21.8482 4.20863 22 4.4785 22 4.77419V19.2258C22 19.5215 21.8482 19.7914 21.6089 19.9213C21.3695 20.0512 21.0843 20.0184 20.874 19.8369L12.5019 12.6111C12.332 12.4644 12.2326 12.2389 12.2326 12C12.2326 11.7611 12.332 11.5356 12.5019 11.3889L20.874 4.16308C21.0843 3.98154 21.3695 3.94881 21.6089 4.07872ZM3.83406 12L10.3721 17.6428V6.35714L3.83406 12ZM14.0666 12L20.6047 17.6428V6.35714L14.0666 12Z" fill="#151515"/>
</svg>
