<svg width="24" height="24" viewBox="0 0 24 24" fill="none" xmlns="http://www.w3.org/2000/svg">
<path fill-rule="evenodd" clip-rule="evenodd" d="M4.38901 7.44444C3.90131 7.44444 3.39535 7.91704 3.39535 8.64815V16.3519C3.39535 17.083 3.90131 17.5556 4.38901 17.5556H16.2283C16.716 17.5556 17.222 17.083 17.222 16.3519V8.64815C17.222 7.91704 16.716 7.44444 16.2283 7.44444H4.38901ZM2 8.64815C2 7.25193 3.00851 6 4.38901 6H16.2283C17.6088 6 18.6173 7.25193 18.6173 8.64815V16.3519C18.6173 17.7481 17.6088 19 16.2283 19H4.38901C3.00851 19 2 17.7481 2 16.3519V8.64815ZM21.3023 10.8148C21.6876 10.8148 22 11.1382 22 11.537V13.463C22 13.8618 21.6876 14.1852 21.3023 14.1852C20.917 14.1852 20.6047 13.8618 20.6047 13.463V11.537C20.6047 11.1382 20.917 10.8148 21.3023 10.8148Z" fill="#151515"/>
</svg>
