<svg width="24" height="24" viewBox="0 0 24 24" fill="none" xmlns="http://www.w3.org/2000/svg">
<path fill-rule="evenodd" clip-rule="evenodd" d="M11.4568 6.1213C11.7774 6.34255 11.864 6.79095 11.6503 7.12283L8.65245 11.7777H12.9302C13.1875 11.7777 13.4239 11.9243 13.5454 12.1591C13.6668 12.394 13.6535 12.6789 13.5107 12.9005L9.7898 18.6782C9.57607 19.0101 9.1429 19.0998 8.8223 18.8786C8.5017 18.6573 8.41507 18.2089 8.6288 17.877L11.6266 13.2221H7.34884C7.09154 13.2221 6.85512 13.0755 6.73372 12.8407C6.61231 12.6059 6.62561 12.3209 6.76834 12.0993L10.4893 6.3216C10.703 5.98972 11.1362 5.90004 11.4568 6.1213ZM4.38901 7.44443C4.14809 7.44443 3.9019 7.55279 3.70929 7.77211C3.51467 7.99372 3.39535 8.30784 3.39535 8.64812V16.3517C3.39535 16.692 3.51467 17.0061 3.70929 17.2277C3.9019 17.4471 4.14809 17.5554 4.38901 17.5554H6.08034C6.46565 17.5554 6.77801 17.8788 6.77801 18.2776C6.77801 18.6765 6.46565 18.9998 6.08034 18.9998H4.38901C3.73278 18.9998 3.11858 18.7024 2.67682 18.1994C2.23707 17.6986 2 17.033 2 16.3517V8.64812C2 7.96683 2.23706 7.30123 2.67682 6.80048C3.11858 6.29745 3.73278 6 4.38901 6H7.08668C7.472 6 7.78436 6.32335 7.78436 6.72221C7.78436 7.12108 7.472 7.44443 7.08668 7.44443H4.38901ZM13.8393 6.72221C13.8393 6.32335 14.1517 6 14.537 6H16.2283C16.8846 6 17.4988 6.29745 17.9405 6.80048C18.3803 7.30123 18.6173 7.96683 18.6173 8.64812V16.3517C18.6173 17.033 18.3803 17.6986 17.9405 18.1994C17.4988 18.7024 16.8846 18.9998 16.2283 18.9998H13.5307C13.1453 18.9998 12.833 18.6765 12.833 18.2776C12.833 17.8788 13.1453 17.5554 13.5307 17.5554H16.2283C16.4692 17.5554 16.7154 17.4471 16.908 17.2277C17.1027 17.0061 17.222 16.692 17.222 16.3517V8.64812C17.222 8.30784 17.1027 7.99372 16.908 7.77211C16.7154 7.55279 16.4692 7.44443 16.2283 7.44443H14.537C14.1517 7.44443 13.8393 7.12108 13.8393 6.72221ZM21.3023 10.8148C21.6876 10.8148 22 11.1381 22 11.537V13.4629C22 13.8617 21.6876 14.1851 21.3023 14.1851C20.917 14.1851 20.6047 13.8617 20.6047 13.4629V11.537C20.6047 11.1381 20.917 10.8148 21.3023 10.8148Z" fill="#151515"/>
</svg>
