<svg width="24" height="24" viewBox="0 0 24 24" fill="none" xmlns="http://www.w3.org/2000/svg">
<path fill-rule="evenodd" clip-rule="evenodd" d="M11.6975 2.00717C12.8336 1.95236 13.9633 2.20722 14.9659 2.74452C15.9685 3.28181 16.8063 4.08137 17.3899 5.05778C17.9734 6.03419 18.2808 7.15077 18.2791 8.28827L18.2791 8.29838C18.255 9.80282 18.444 11.3031 18.8405 12.7545C18.942 13.1262 18.723 13.5099 18.3513 13.6114C17.9796 13.7129 17.596 13.4939 17.4944 13.1222C17.0637 11.5454 16.8581 9.91567 16.8837 8.28133C16.8842 7.3983 16.6452 6.53163 16.1921 5.77359C15.7383 5.01416 15.0866 4.39229 14.3068 3.97439C13.527 3.55649 12.6484 3.35827 11.7647 3.4009C10.881 3.44353 10.0255 3.72541 9.28954 4.21643C8.96901 4.43028 8.53582 4.3438 8.32197 4.02328C8.10812 3.70275 8.19459 3.26956 8.51512 3.05571C9.46134 2.4244 10.5613 2.06198 11.6975 2.00717ZM2.20434 2.2125C2.4768 1.94005 2.91855 1.94005 3.191 2.2125L7.3148 6.3363C7.31951 6.34088 7.32414 6.34551 7.32869 6.35019L21.7957 20.8172C22.0681 21.0896 22.0681 21.5314 21.7957 21.8038C21.5232 22.0763 21.0815 22.0763 20.809 21.8038L16.3622 17.357H3.62791C3.32046 17.357 3.04926 17.1557 2.96017 16.8615C2.87181 16.5697 2.98323 16.2546 3.23461 16.0831L3.24264 16.0772C3.25312 16.0694 3.27307 16.0541 3.30118 16.0307C3.35738 15.9839 3.4463 15.9044 3.55747 15.7871C3.77946 15.5527 4.09208 15.1653 4.41077 14.5811C5.04618 13.4161 5.72082 11.4406 5.72093 8.28802C5.72091 8.28018 5.72089 8.27229 5.72087 8.26435C5.7202 8.00971 5.7194 7.70713 5.78846 7.39874C5.82355 7.24205 5.87464 7.09018 5.94481 6.93963L2.20434 3.19917C1.93189 2.92671 1.93189 2.48496 2.20434 2.2125ZM7.11666 8.11148C7.11616 8.16368 7.11613 8.22127 7.11628 8.28559L7.11628 8.28723C7.11628 11.6458 6.39563 13.8561 5.63574 15.2492C5.48962 15.5171 5.3426 15.7537 5.19983 15.9616H14.9668L7.11666 8.11148ZM10.0406 19.7768C10.3739 19.5834 10.8008 19.6969 10.9942 20.0302C11.0964 20.2064 11.2431 20.3527 11.4196 20.4543C11.5962 20.556 11.7963 20.6095 12 20.6095C12.2037 20.6095 12.4038 20.556 12.5804 20.4543C12.7569 20.3527 12.9036 20.2064 13.0058 20.0302C13.1992 19.6969 13.6261 19.5834 13.9594 19.7768C14.2927 19.9701 14.4061 20.397 14.2128 20.7303C13.9879 21.118 13.6651 21.4398 13.2768 21.6634C12.8885 21.8871 12.4482 22.0049 12 22.0049C11.5518 22.0049 11.1115 21.8871 10.7232 21.6634C10.3349 21.4398 10.0121 21.118 9.78721 20.7303C9.59387 20.397 9.70733 19.9701 10.0406 19.7768Z" fill="#151515"/>
</svg>
