<svg width="24" height="24" viewBox="0 0 24 24" fill="none" xmlns="http://www.w3.org/2000/svg">
<path fill-rule="evenodd" clip-rule="evenodd" d="M7.10467 3.93137C8.403 2.69473 10.1639 2 12 2C13.8361 2 15.597 2.69473 16.8953 3.93137C18.1936 5.16801 18.923 6.84524 18.923 8.59411C18.923 11.9053 19.6669 13.9803 20.3676 15.2037C20.7189 15.8173 21.0636 16.2242 21.3084 16.4702C21.4309 16.5935 21.529 16.6769 21.591 16.7261C21.6219 16.7507 21.6439 16.7667 21.6555 16.7749L21.6644 16.7811C21.9415 16.9612 22.0644 17.2921 21.9669 17.5986C21.8687 17.9076 21.5697 18.1189 21.2307 18.1189H2.76929C2.43031 18.1189 2.13129 17.9076 2.03307 17.5986C1.93565 17.2921 2.0585 16.9612 2.33565 16.7811L2.3445 16.7749C2.35606 16.7667 2.37806 16.7507 2.40905 16.7261C2.47102 16.6769 2.56905 16.5935 2.69163 16.4702C2.93638 16.2242 3.28106 15.8173 3.63244 15.2037C4.33307 13.9803 5.07696 11.9053 5.07696 8.59411C5.07696 6.84524 5.80635 5.16801 7.10467 3.93137ZM4.50242 16.6536H19.4976C19.3402 16.4352 19.1781 16.1867 19.017 15.9054C18.1791 14.4424 17.3846 12.1212 17.3846 8.59411C17.3846 7.23388 16.8173 5.92936 15.8075 4.96753C14.7977 4.00571 13.4281 3.46536 12 3.46536C10.5719 3.46536 9.20233 4.00571 8.19252 4.96753C7.18272 5.92936 6.61542 7.23388 6.61542 8.59411C6.61542 12.1212 5.82086 14.4424 4.98304 15.9054C4.82194 16.1867 4.65984 16.4352 4.50242 16.6536ZM9.83968 20.6601C10.2072 20.4571 10.6779 20.5762 10.891 20.9262C11.0037 21.1113 11.1655 21.2649 11.3601 21.3717C11.5547 21.4784 11.7754 21.5346 12 21.5346C12.2246 21.5346 12.4453 21.4784 12.6399 21.3717C12.8345 21.2649 12.9963 21.1113 13.109 20.9262C13.3221 20.5762 13.7928 20.4571 14.1603 20.6601C14.5278 20.8632 14.6529 21.3115 14.4397 21.6615C14.1918 22.0686 13.8359 22.4065 13.4077 22.6415C12.9796 22.8764 12.4941 23 12 23C11.5059 23 11.0204 22.8764 10.5923 22.6415C10.1641 22.4065 9.80821 22.0686 9.56027 21.6615C9.3471 21.3115 9.4722 20.8632 9.83968 20.6601Z" fill="#151515"/>
</svg>
