<svg width="24" height="24" viewBox="0 0 24 24" fill="none" xmlns="http://www.w3.org/2000/svg">
<path fill-rule="evenodd" clip-rule="evenodd" d="M11.7005 2.05311C11.9929 1.94513 12.3296 2.00482 12.5534 2.20435L17.7708 6.8555C18.0764 7.12796 18.0764 7.5697 17.7708 7.84216L13.1068 12L17.7708 16.1578C18.0764 16.4303 18.0764 16.872 17.7708 17.1445L12.5534 21.7956C12.3296 21.9952 11.9929 22.0548 11.7005 21.9469C11.4081 21.8389 11.2174 21.5845 11.2174 21.3023V13.6843L7.336 17.1445C7.03037 17.4169 6.53485 17.4169 6.22922 17.1445C5.92359 16.872 5.92359 16.4303 6.22922 16.1578L10.8932 12L6.22922 7.84216C5.92359 7.5697 5.92359 7.12796 6.22922 6.8555C6.53485 6.58304 7.03037 6.58304 7.336 6.8555L11.2174 10.3157V2.69768C11.2174 2.4155 11.4081 2.1611 11.7005 2.05311ZM12.7826 13.6843L16.1106 16.6511L12.7826 19.618V13.6843ZM12.7826 10.3157V4.38201L16.1106 7.34883L12.7826 10.3157Z" fill="#151515"/>
</svg>
