<svg width="24" height="24" viewBox="0 0 24 24" fill="none" xmlns="http://www.w3.org/2000/svg">
<path fill-rule="evenodd" clip-rule="evenodd" d="M5 3.77143C5 3.34538 5.34822 3 5.77778 3H13.4359C14.6787 3 15.8567 3.53104 16.715 4.45323C17.5713 5.37334 18.0427 6.60898 18.0427 7.88571C18.0427 9.16245 17.5713 10.3981 16.715 11.3182C16.5944 11.4478 16.4674 11.5697 16.3349 11.6834C16.8304 11.9276 17.284 12.2647 17.6722 12.6818C18.5286 13.6019 19 14.8376 19 16.1143C19 17.391 18.5286 18.6267 17.6722 19.5468C16.814 20.469 15.636 21 14.3932 21H5.77778C5.34822 21 5 20.6546 5 20.2286V3.77143ZM6.55556 4.54286V11.2286H13.4359C14.2241 11.2286 14.994 10.8927 15.5719 10.2717C16.1518 9.64867 16.4872 8.79133 16.4872 7.88571C16.4872 6.98009 16.1518 6.12276 15.5719 5.49972C14.994 4.87875 14.2241 4.54286 13.4359 4.54286H6.55556ZM6.55556 12.7714V19.4571H14.3932C15.1814 19.4571 15.9513 19.1212 16.5292 18.5003C17.1091 17.8772 17.4444 17.0199 17.4444 16.1143C17.4444 15.2087 17.1091 14.3513 16.5292 13.7283C15.9513 13.1073 15.1814 12.7714 14.3932 12.7714H6.55556Z" fill="#151515"/>
</svg>
