<svg width="24" height="24" viewBox="0 0 24 24" fill="none" xmlns="http://www.w3.org/2000/svg">
<path fill-rule="evenodd" clip-rule="evenodd" d="M6.97143 3.39535C6.54708 3.39535 6.14012 3.56686 5.84006 3.87215C5.54 4.17744 5.37143 4.59151 5.37143 5.02326V16.4292C5.84553 16.121 6.4 15.9535 6.97143 15.9535H18.6286V3.39535H6.97143ZM20 2.69767C20 2.31236 19.693 2 19.3143 2H6.97143C6.18336 2 5.42756 2.31852 4.87031 2.88549C4.31306 3.45246 4 4.22144 4 5.02326V18.9767C4 19.7786 4.31306 20.5475 4.87031 21.1145C5.42756 21.6815 6.18336 22 6.97143 22H19.3143C19.693 22 20 21.6876 20 21.3023V2.69767ZM18.6286 17.3488H6.97143C6.54708 17.3488 6.14012 17.5203 5.84006 17.8256C5.54 18.1309 5.37143 18.545 5.37143 18.9767C5.37143 19.4085 5.54 19.8226 5.84006 20.1278C6.14012 20.4331 6.54708 20.6047 6.97143 20.6047H18.6286V17.3488Z" fill="#151515"/>
</svg>
