<svg width="24" height="24" viewBox="0 0 24 24" fill="none" xmlns="http://www.w3.org/2000/svg">
<path fill-rule="evenodd" clip-rule="evenodd" d="M2 3.69231C2 3.30996 2.31236 3 2.69767 3H8.27907C9.45096 3 10.5748 3.46195 11.4035 4.28422C11.6302 4.5092 11.8297 4.7561 12 5.0199C12.1703 4.7561 12.3698 4.5092 12.5965 4.28422C13.4252 3.46195 14.549 3 15.7209 3H21.3023C21.6876 3 22 3.30996 22 3.69231V17.5385C22 17.9208 21.6876 18.2308 21.3023 18.2308H14.7907C14.2356 18.2308 13.7032 18.4496 13.3107 18.8391C12.9182 19.2286 12.6977 19.7569 12.6977 20.3077C12.6977 20.69 12.3853 21 12 21C11.6147 21 11.3023 20.69 11.3023 20.3077C11.3023 19.7569 11.0818 19.2286 10.6893 18.8391C10.2968 18.4496 9.76441 18.2308 9.2093 18.2308H2.69767C2.31236 18.2308 2 17.9208 2 17.5385V3.69231ZM11.3023 17.5384C10.702 17.0917 9.96843 16.8462 9.2093 16.8462H3.39535V4.38462H8.27907C9.08089 4.38462 9.84986 4.70069 10.4168 5.26329C10.9838 5.8259 11.3023 6.58897 11.3023 7.38462V17.5384ZM12.6977 17.5384C13.298 17.0917 14.0316 16.8462 14.7907 16.8462H20.6047V4.38462H15.7209C14.9191 4.38462 14.1501 4.70069 13.5832 5.26329C13.0162 5.8259 12.6977 6.58897 12.6977 7.38462V17.5384Z" fill="#151515"/>
</svg>
