<svg width="24" height="24" viewBox="0 0 24 24" fill="none" xmlns="http://www.w3.org/2000/svg">
<path fill-rule="evenodd" clip-rule="evenodd" d="M6.83871 3.53846C6.49649 3.53846 6.1683 3.67353 5.92631 3.91397C5.68433 4.1544 5.54839 4.48049 5.54839 4.82051V19.736L11.55 15.4766C11.8192 15.2856 12.1808 15.2856 12.45 15.4766L18.4516 19.736V4.82051C18.4516 4.48049 18.3157 4.1544 18.0737 3.91397C17.8317 3.67353 17.5035 3.53846 17.1613 3.53846H6.83871ZM4.83144 2.82611C5.3638 2.29716 6.08584 2 6.83871 2H17.1613C17.9142 2 18.6362 2.29716 19.1686 2.82611C19.7009 3.35506 20 4.07247 20 4.82051V21.2308C20 21.5189 19.8379 21.7829 19.5801 21.9147C19.3222 22.0466 19.0118 22.0242 18.7758 21.8567L12 17.0479L5.22418 21.8567C4.9882 22.0242 4.6778 22.0466 4.41994 21.9147C4.16208 21.7829 4 21.5189 4 21.2308V4.82051C4 4.07247 4.29908 3.35506 4.83144 2.82611Z" fill="#151515"/>
</svg>
