<svg width="24" height="24" viewBox="0 0 24 24" fill="none" xmlns="http://www.w3.org/2000/svg">
<path fill-rule="evenodd" clip-rule="evenodd" d="M8.33066 3.7435C8.8104 3.26744 9.46107 3 10.1395 3H13.8605C14.5389 3 15.1896 3.26744 15.6693 3.7435C16.1491 4.21955 16.4186 4.86522 16.4186 5.53846V6.69231H19.4419C20.8547 6.69231 22 7.82882 22 9.23077V18.4615C22 19.8635 20.8547 21 19.4419 21H4.55814C3.14532 21 2 19.8635 2 18.4615V9.23077C2 7.82882 3.14532 6.69231 4.55814 6.69231H7.5814V5.53846C7.5814 4.86522 7.85091 4.21955 8.33066 3.7435ZM7.5814 8.07692H4.55814C3.91595 8.07692 3.39535 8.59352 3.39535 9.23077V18.4615C3.39535 19.0988 3.91595 19.6154 4.55814 19.6154H7.5814V8.07692ZM8.97674 19.6154V8.07692H15.0233V19.6154H8.97674ZM16.4186 19.6154H19.4419C20.0841 19.6154 20.6047 19.0988 20.6047 18.4615V9.23077C20.6047 8.59352 20.0841 8.07692 19.4419 8.07692H16.4186V19.6154ZM15.0233 6.69231H8.97674V5.53846C8.97674 5.23244 9.09925 4.93896 9.31732 4.72257C9.53538 4.50618 9.83114 4.38462 10.1395 4.38462H13.8605C14.1689 4.38462 14.4646 4.50618 14.6827 4.72257C14.9007 4.93896 15.0233 5.23244 15.0233 5.53846V6.69231Z" fill="#151515"/>
</svg>
