<svg width="24" height="24" viewBox="0 0 24 24" fill="none" xmlns="http://www.w3.org/2000/svg">
<path fill-rule="evenodd" clip-rule="evenodd" d="M8.30769 2C8.69004 2 9 2.31236 9 2.69767V3.86047H15V2.69767C15 2.31236 15.31 2 15.6923 2C16.0747 2 16.3846 2.31236 16.3846 2.69767V3.86047H18.4615C19.8635 3.86047 21 5.00578 21 6.4186V19.4419C21 20.8547 19.8635 22 18.4615 22H5.53846C4.13651 22 3 20.8547 3 19.4419V6.4186C3 5.00578 4.13651 3.86047 5.53846 3.86047H7.61538V2.69767C7.61538 2.31236 7.92534 2 8.30769 2ZM7.61538 5.25581H5.53846C4.90121 5.25581 4.38462 5.77641 4.38462 6.4186V9.44186H19.6154V6.4186C19.6154 5.77641 19.0988 5.25581 18.4615 5.25581H16.3846V6.4186C16.3846 6.80392 16.0747 7.11628 15.6923 7.11628C15.31 7.11628 15 6.80392 15 6.4186V5.25581H9V6.4186C9 6.80392 8.69004 7.11628 8.30769 7.11628C7.92534 7.11628 7.61538 6.80392 7.61538 6.4186V5.25581ZM19.6154 10.8372H4.38462V19.4419C4.38462 20.0841 4.90121 20.6047 5.53846 20.6047H18.4615C19.0988 20.6047 19.6154 20.0841 19.6154 19.4419V10.8372Z" fill="#151515"/>
</svg>
