<svg width="24" height="24" viewBox="0 0 24 24" fill="none" xmlns="http://www.w3.org/2000/svg">
<path fill-rule="evenodd" clip-rule="evenodd" d="M8.86635 3.35201C8.9928 3.13348 9.21904 3 9.463 3H14.537C14.781 3 15.0072 3.13348 15.1336 3.35201L16.6213 5.92308H19.611C20.2672 5.92308 20.8814 6.22405 21.3232 6.73304C21.7629 7.23972 22 7.91321 22 8.60256V19.3205C22 20.0099 21.7629 20.6834 21.3232 21.19C20.8814 21.699 20.2672 22 19.611 22H4.38901C3.73278 22 3.11858 21.699 2.67682 21.19C2.23707 20.6834 2 20.0099 2 19.3205V8.60256C2 7.91321 2.23707 7.23972 2.67682 6.73304C3.11858 6.22405 3.73278 5.92308 4.38901 5.92308H7.3787L8.86635 3.35201ZM9.85597 4.46154L8.36832 7.03261C8.24187 7.25114 8.01563 7.38462 7.77167 7.38462H4.38901C4.14809 7.38462 3.9019 7.49426 3.70929 7.71618C3.51467 7.94042 3.39535 8.25826 3.39535 8.60256V19.3205C3.39535 19.6648 3.51467 19.9827 3.70929 20.2069C3.9019 20.4288 4.14809 20.5385 4.38901 20.5385H19.611C19.8519 20.5385 20.0981 20.4288 20.2907 20.2069C20.4853 19.9827 20.6047 19.6648 20.6047 19.3205V8.60256C20.6047 8.25826 20.4853 7.94042 20.2907 7.71618C20.0981 7.49426 19.8519 7.38462 19.611 7.38462H16.2283C15.9844 7.38462 15.7581 7.25114 15.6317 7.03261L14.144 4.46154H9.85597ZM12 10.3077C10.3303 10.3077 8.97674 11.7255 8.97674 13.4744C8.97674 15.2233 10.3303 16.641 12 16.641C13.6697 16.641 15.0233 15.2233 15.0233 13.4744C15.0233 11.7255 13.6697 10.3077 12 10.3077ZM7.5814 13.4744C7.5814 10.9183 9.55967 8.84615 12 8.84615C14.4403 8.84615 16.4186 10.9183 16.4186 13.4744C16.4186 16.0304 14.4403 18.1026 12 18.1026C9.55967 18.1026 7.5814 16.0304 7.5814 13.4744Z" fill="#151515"/>
</svg>
