<svg width="24" height="24" viewBox="0 0 24 24" fill="none" xmlns="http://www.w3.org/2000/svg">
<path fill-rule="evenodd" clip-rule="evenodd" d="M8.81972 3.40969C8.93423 3.16034 9.18718 3 9.46605 3H14.534C14.7821 3 15.0122 3.12728 15.1406 3.33556L16.6231 5.74092H19.6019C20.2616 5.74092 20.8784 6.025 21.3215 6.50435C21.7626 6.98144 22 7.61514 22 8.26332V16.7967C22 17.0856 21.8178 17.3444 21.5424 17.4467C21.2669 17.5491 20.9556 17.4737 20.7604 17.2574L8.93526 4.15584C8.75043 3.95106 8.70522 3.65904 8.81972 3.40969ZM11.0401 4.39025L20.5823 14.9626V8.26332C20.5823 7.94226 20.4638 7.6464 20.2712 7.43813C20.0808 7.23212 19.8382 7.13117 19.6019 7.13117H16.2233C15.9751 7.13117 15.745 7.00389 15.6166 6.7956L14.1341 4.39025H11.0401ZM4.41463 3.78641C4.7013 3.52497 5.14982 3.54093 5.41642 3.82206L7.40061 5.9144C7.42042 5.93151 7.43933 5.94978 7.45724 5.96915L7.64014 6.16699L21.5467 20.8315C21.8133 21.1126 21.797 21.5525 21.5103 21.8139C21.2236 22.0753 20.7751 22.0594 20.5085 21.7782L19.6146 20.8356C19.6104 20.8357 19.6061 20.8358 19.6019 20.8358H4.39814C3.73844 20.8358 3.12163 20.5517 2.67848 20.0723C2.23741 19.5952 2 18.9615 2 18.3134V8.26332C2 7.61514 2.23741 6.98144 2.67848 6.50435C3.12163 6.025 3.73844 5.74092 4.39814 5.74092H5.30013L4.37827 4.76881C4.11167 4.48768 4.12795 4.04785 4.41463 3.78641ZM6.61795 7.13117H4.39814C4.16179 7.13117 3.91923 7.23212 3.72877 7.43813C3.53623 7.6464 3.41768 7.94226 3.41768 8.26332V18.3134C3.41768 18.6344 3.53623 18.9303 3.72877 19.1386C3.91923 19.3446 4.16179 19.4455 4.39814 19.4455H18.0024L14.8101 15.9924C14.5901 16.2167 14.3458 16.4155 14.0808 16.5841C13.5613 16.9146 12.9761 17.12 12.367 17.1812C11.7578 17.2425 11.1447 17.1574 10.573 16.9342C10.0016 16.7111 9.4886 16.3569 9.06795 15.9019C8.6475 15.4471 8.32884 14.9021 8.13049 14.3077C7.93216 13.7133 7.85787 13.0808 7.91168 12.4544C7.9655 11.8279 8.14645 11.219 8.44446 10.671C8.61879 10.3504 8.83114 10.0544 9.07652 9.79055L6.61795 7.13117ZM10.0352 10.8275C9.90743 10.9785 9.79331 11.1451 9.6954 11.3251C9.49005 11.7028 9.3624 12.1282 9.32436 12.5711C9.28632 13.0139 9.33915 13.4596 9.47787 13.8753C9.61658 14.2911 9.83664 14.6635 10.1182 14.9681C10.3997 15.2725 10.7348 15.501 11.0973 15.6425C11.4594 15.7839 11.8431 15.8364 12.2225 15.7982C12.6019 15.7601 12.973 15.6317 13.3092 15.4178C13.5072 15.2918 13.6907 15.1377 13.8546 14.9588L10.0352 10.8275Z" fill="#151515"/>
</svg>
