<svg width="24" height="24" viewBox="0 0 24 24" fill="none" xmlns="http://www.w3.org/2000/svg">
<path fill-rule="evenodd" clip-rule="evenodd" d="M2 4.55814C2 3.14532 3.14532 2 4.55814 2H19.4419C20.8547 2 22 3.14532 22 4.55814V19.4419C22 20.8547 20.8547 22 19.4419 22H4.55814C3.14532 22 2 20.8547 2 19.4419V4.55814ZM4.55814 3.39535C3.91595 3.39535 3.39535 3.91595 3.39535 4.55814V19.4419C3.39535 20.0841 3.91595 20.6047 4.55814 20.6047H19.4419C20.0841 20.6047 20.6047 20.0841 20.6047 19.4419V4.55814C20.6047 3.91595 20.0841 3.39535 19.4419 3.39535H4.55814ZM18.0823 7.79339C18.3505 8.07 18.3437 8.5117 18.0671 8.77993L10.3927 16.2218C10.122 16.4842 9.69191 16.4842 9.42129 16.2218L5.93292 12.8391C5.6563 12.5709 5.64951 12.1292 5.91774 11.8526C6.18598 11.576 6.62767 11.5692 6.90429 11.8374L9.90698 14.7491L17.0957 7.77821C17.3723 7.50997 17.814 7.51677 18.0823 7.79339Z" fill="#151515"/>
</svg>
