<svg width="24" height="24" viewBox="0 0 24 24" fill="none" xmlns="http://www.w3.org/2000/svg">
<path fill-rule="evenodd" clip-rule="evenodd" d="M5.22781 6.22922C5.53155 5.92359 6.02401 5.92359 6.32775 6.22922L11.5129 11.4466C11.8167 11.7522 11.8167 12.2478 11.5129 12.5534L6.32775 17.7708C6.02401 18.0764 5.53155 18.0764 5.22781 17.7708C4.92406 17.4652 4.92406 16.9696 5.22781 16.664L9.86302 12L5.22781 7.336C4.92406 7.03037 4.92406 6.53485 5.22781 6.22922ZM12.4871 6.22922C12.7908 5.92359 13.2833 5.92359 13.587 6.22922L18.7722 11.4466C19.0759 11.7522 19.0759 12.2478 18.7722 12.5534L13.587 17.7708C13.2833 18.0764 12.7908 18.0764 12.4871 17.7708C12.1833 17.4652 12.1833 16.9696 12.4871 16.664L17.1223 12L12.4871 7.336C12.1833 7.03037 12.1833 6.53485 12.4871 6.22922Z" fill="#151515"/>
</svg>
