<svg width="24" height="24" viewBox="0 0 24 24" fill="none" xmlns="http://www.w3.org/2000/svg">
<path fill-rule="evenodd" clip-rule="evenodd" d="M6.22922 5.22781C6.53485 4.92406 7.03037 4.92406 7.336 5.22781L12 9.86302L16.664 5.22781C16.9696 4.92406 17.4652 4.92406 17.7708 5.22781C18.0764 5.53155 18.0764 6.02401 17.7708 6.32775L12.5534 11.5129C12.2478 11.8167 11.7522 11.8167 11.4466 11.5129L6.22922 6.32775C5.92359 6.02401 5.92359 5.53155 6.22922 5.22781ZM6.22922 12.4871C6.53485 12.1833 7.03037 12.1833 7.336 12.4871L12 17.1223L16.664 12.4871C16.9696 12.1833 17.4652 12.1833 17.7708 12.4871C18.0764 12.7908 18.0764 13.2833 17.7708 13.587L12.5534 18.7722C12.2478 19.0759 11.7522 19.0759 11.4466 18.7722L6.22922 13.587C5.92359 13.2833 5.92359 12.7908 6.22922 12.4871Z" fill="#151515"/>
</svg>
