<svg width="24" height="24" viewBox="0 0 24 24" fill="none" xmlns="http://www.w3.org/2000/svg">
<path fill-rule="evenodd" clip-rule="evenodd" d="M11.4466 5.47781C11.7522 5.17406 12.2478 5.17406 12.5534 5.47781L17.7708 10.663C18.0764 10.9667 18.0764 11.4592 17.7708 11.7629C17.4652 12.0667 16.9696 12.0667 16.664 11.7629L12 7.12772L7.336 11.7629C7.03037 12.0667 6.53485 12.0667 6.22922 11.7629C5.92359 11.4592 5.92359 10.9667 6.22922 10.663L11.4466 5.47781ZM6.22922 17.9223L11.4466 12.7371C11.7522 12.4333 12.2478 12.4333 12.5534 12.7371L17.7708 17.9223C18.0764 18.226 18.0764 18.7185 17.7708 19.0222C17.4652 19.3259 16.9696 19.3259 16.664 19.0222L12 14.387L7.336 19.0222C7.03037 19.3259 6.53485 19.3259 6.22922 19.0222C5.92359 18.7185 5.92359 18.226 6.22922 17.9223Z" fill="#151515"/>
</svg>
