<svg width="24" height="24" viewBox="0 0 24 24" fill="none" xmlns="http://www.w3.org/2000/svg">
<path fill-rule="evenodd" clip-rule="evenodd" d="M11.5129 6.22922C11.8167 6.53485 11.8167 7.03037 11.5129 7.336L6.87772 12L11.5129 16.664C11.8167 16.9696 11.8167 17.4652 11.5129 17.7708C11.2092 18.0764 10.7167 18.0764 10.413 17.7708L5.22781 12.5534C4.92406 12.2478 4.92406 11.7522 5.22781 11.4466L10.413 6.22922C10.7167 5.92359 11.2092 5.92359 11.5129 6.22922ZM18.7722 6.22922C19.0759 6.53485 19.0759 7.03037 18.7722 7.336L14.137 12L18.7722 16.664C19.0759 16.9696 19.0759 17.4652 18.7722 17.7708C18.4685 18.0764 17.976 18.0764 17.6723 17.7708L12.4871 12.5534C12.1833 12.2478 12.1833 11.7522 12.4871 11.4466L17.6723 6.22922C17.976 5.92359 18.4685 5.92359 18.7722 6.22922Z" fill="#151515"/>
</svg>
