<svg width="24" height="24" viewBox="0 0 24 24" fill="none" xmlns="http://www.w3.org/2000/svg">
<path fill-rule="evenodd" clip-rule="evenodd" d="M9.25714 3.39535C9.13091 3.39535 9.02857 3.49947 9.02857 3.62791V5.48837C9.02857 5.61681 9.13091 5.72093 9.25714 5.72093H14.7429C14.8691 5.72093 14.9714 5.61681 14.9714 5.48837V3.62791C14.9714 3.49947 14.8691 3.39535 14.7429 3.39535H9.25714ZM16.3429 3.86047V3.62791C16.3429 2.72884 15.6265 2 14.7429 2H9.25714C8.37349 2 7.65714 2.72884 7.65714 3.62791V3.86047H6.51429C5.84746 3.86047 5.20794 4.12998 4.73642 4.60973C4.2649 5.08947 4 5.74014 4 6.4186V19.4419C4 20.1203 4.2649 20.771 4.73642 21.2507C5.20794 21.7305 5.84746 22 6.51429 22H17.4857C18.1525 22 18.7921 21.7305 19.2636 21.2507C19.7351 20.771 20 20.1203 20 19.4419V6.4186C20 5.74014 19.7351 5.08947 19.2636 4.60973C18.7921 4.12998 18.1525 3.86047 17.4857 3.86047H16.3429ZM16.3429 5.25581V5.48837C16.3429 6.38744 15.6265 7.11628 14.7429 7.11628H9.25714C8.37349 7.11628 7.65714 6.38744 7.65714 5.48837V5.25581H6.51429C6.21118 5.25581 5.92049 5.37832 5.70616 5.59639C5.49184 5.81445 5.37143 6.11021 5.37143 6.4186V19.4419C5.37143 19.7503 5.49184 20.046 5.70616 20.2641C5.92049 20.4821 6.21118 20.6047 6.51429 20.6047H17.4857C17.7888 20.6047 18.0795 20.4821 18.2938 20.2641C18.5082 20.046 18.6286 19.7503 18.6286 19.4419V6.4186C18.6286 6.11021 18.5082 5.81445 18.2938 5.59639C18.0795 5.37832 17.7888 5.25581 17.4857 5.25581H16.3429Z" fill="#151515"/>
</svg>
