<svg width="24" height="24" viewBox="0 0 24 24" fill="none" xmlns="http://www.w3.org/2000/svg">
<path fill-rule="evenodd" clip-rule="evenodd" d="M8.7724 5.22781C9.04486 5.53155 9.04486 6.02401 8.7724 6.32775L3.68434 12L8.7724 17.6723C9.04486 17.976 9.04486 18.4685 8.7724 18.7722C8.49994 19.0759 8.0582 19.0759 7.78574 18.7722L2.20434 12.55C1.93189 12.2462 1.93189 11.7538 2.20434 11.45L7.78574 5.22781C8.0582 4.92406 8.49994 4.92406 8.7724 5.22781ZM15.2276 5.22781C15.5001 4.92406 15.9418 4.92406 16.2143 5.22781L21.7957 11.45C22.0681 11.7538 22.0681 12.2462 21.7957 12.55L16.2143 18.7722C15.9418 19.0759 15.5001 19.0759 15.2276 18.7722C14.9551 18.4685 14.9551 17.976 15.2276 17.6723L20.3157 12L15.2276 6.32775C14.9551 6.02401 14.9551 5.53155 15.2276 5.22781Z" fill="#151515"/>
</svg>
