<svg width="24" height="24" viewBox="0 0 24 24" fill="none" xmlns="http://www.w3.org/2000/svg">
<path fill-rule="evenodd" clip-rule="evenodd" d="M6.4186 2C6.80392 2 7.11628 2.31236 7.11628 2.69767V5.48837C7.11628 5.87369 6.80392 6.18605 6.4186 6.18605C6.03329 6.18605 5.72093 5.87369 5.72093 5.48837V2.69767C5.72093 2.31236 6.03329 2 6.4186 2ZM10.1395 2C10.5248 2 10.8372 2.31236 10.8372 2.69767V5.48837C10.8372 5.87369 10.5248 6.18605 10.1395 6.18605C9.75422 6.18605 9.44186 5.87369 9.44186 5.48837V2.69767C9.44186 2.31236 9.75422 2 10.1395 2ZM13.8605 2C14.2458 2 14.5581 2.31236 14.5581 2.69767V5.48837C14.5581 5.87369 14.2458 6.18605 13.8605 6.18605C13.4752 6.18605 13.1628 5.87369 13.1628 5.48837V2.69767C13.1628 2.31236 13.4752 2 13.8605 2ZM2 9.2093C2 8.82399 2.31236 8.51163 2.69767 8.51163H17.7586C18.8948 8.51163 19.9771 8.98586 20.7696 9.81798C21.561 10.649 22 11.769 22 12.9302C22 14.0914 21.561 15.2115 20.7696 16.0425C19.9771 16.8746 18.8948 17.3488 17.7586 17.3488H17.5703V17.5814C17.5703 18.7426 17.1313 19.8627 16.3399 20.6936C15.5474 21.5258 14.4651 22 13.3289 22H6.24142C5.10524 22 4.0229 21.5258 3.2304 20.6936C2.439 19.8627 2 18.7426 2 17.5814V9.2093ZM16.175 16.6522C16.175 16.6519 16.175 16.6515 16.175 16.6512C16.175 16.6508 16.175 16.6505 16.175 16.6501L16.175 9.90698H3.39535V17.5814C3.39535 18.3939 3.70306 19.1667 4.24083 19.7313C4.77749 20.2948 5.49788 20.6047 6.24142 20.6047H13.3289C14.0724 20.6047 14.7928 20.2948 15.3295 19.7313C15.8673 19.1667 16.175 18.3939 16.175 17.5814V16.6522ZM17.5703 9.90698V15.9535H17.7586C18.5021 15.9535 19.2225 15.6437 19.7592 15.0802C20.2969 14.5155 20.6047 13.7427 20.6047 12.9302C20.6047 12.1177 20.2969 11.3449 19.7592 10.7803C19.2225 10.2168 18.5021 9.90698 17.7586 9.90698H17.5703Z" fill="#151515"/>
</svg>
