<svg width="24" height="24" viewBox="0 0 24 24" fill="none" xmlns="http://www.w3.org/2000/svg">
<path fill-rule="evenodd" clip-rule="evenodd" d="M19.896 4.10055C18.9481 3.16028 17.4805 3.16028 16.5325 4.10055L12.1901 8.40769L15.5455 11.7359L19.896 7.4207C20.8409 6.48355 20.8409 5.0377 19.896 4.10055ZM15.5499 3.10988L11.1994 7.42503L10.1275 6.36186L9.14492 7.35254L10.5174 8.71387C10.5525 8.79803 10.604 8.87531 10.67 8.94077L15.0162 13.2516C15.0838 13.3186 15.1616 13.369 15.2446 13.4027L16.6935 14.8398L17.6761 13.8491L16.5363 12.7185L20.8787 8.41137C22.3738 6.92841 22.3738 4.59284 20.8787 3.10988C19.3867 1.63004 17.0419 1.63004 15.5499 3.10988ZM9.14492 9.61398L4.26505 14.4542C3.42231 15.2901 3.03337 16.4962 3.22907 17.675L2.66385 18.2356C1.77872 19.1136 1.77872 20.466 2.66385 21.3439C3.54582 22.2187 4.89944 22.2187 5.78141 21.3439L6.34673 20.7832C7.48644 20.9748 8.68582 20.5755 9.5697 19.7785C9.57791 19.7711 9.58595 19.7635 9.59381 19.7557L14.4737 14.9155L13.491 13.9248L8.62361 18.7527C7.94142 19.3611 7.05261 19.5691 6.33248 19.3494C6.08683 19.2744 5.81986 19.3404 5.63752 19.5213L4.79879 20.3532C4.4608 20.6885 3.98446 20.6885 3.64647 20.3532C3.31163 20.0211 3.31163 19.5584 3.64647 19.2263L4.4852 18.3944C4.66619 18.2149 4.73486 17.9509 4.6643 17.7059C4.43022 16.8933 4.66531 16.0225 5.24767 15.4449L10.1275 10.6047L9.14492 9.61398Z" fill="#151515"/>
</svg>
