<svg width="24" height="24" viewBox="0 0 24 24" fill="none" xmlns="http://www.w3.org/2000/svg">
<path fill-rule="evenodd" clip-rule="evenodd" d="M2.80981 2.80981C3.32832 2.2913 4.03157 2 4.76486 2H19.2351C19.9684 2 20.6717 2.2913 21.1902 2.80981C21.7087 3.32832 22 4.03157 22 4.76486V19.2351C22 19.9684 21.7087 20.6717 21.1902 21.1902C20.6717 21.7087 19.9684 22 19.2351 22H4.76486C4.03157 22 3.32832 21.7087 2.80981 21.1902C2.2913 20.6717 2 19.9684 2 19.2351V4.76486C2 4.03157 2.2913 3.32832 2.80981 2.80981ZM4.76486 3.39535C4.40164 3.39535 4.0533 3.53964 3.79647 3.79647C3.53964 4.0533 3.39535 4.40164 3.39535 4.76486V19.2351C3.39535 19.5984 3.53964 19.9467 3.79647 20.2035C4.0533 20.4604 4.40164 20.6047 4.76486 20.6047H11.3023V3.39535H4.76486ZM12.6977 3.39535V20.6047H19.2351C19.5984 20.6047 19.9467 20.4604 20.2035 20.2035C20.4604 19.9467 20.6047 19.5984 20.6047 19.2351V4.76486C20.6047 4.40164 20.4604 4.0533 20.2035 3.79647C19.9467 3.53964 19.5984 3.39535 19.2351 3.39535H12.6977Z" fill="#151515"/>
</svg>
