<svg width="24" height="24" viewBox="0 0 24 24" fill="none" xmlns="http://www.w3.org/2000/svg">
<path fill-rule="evenodd" clip-rule="evenodd" d="M9.08504 4.32564C9.04184 4.3476 9.00006 4.36884 8.95939 4.38916C7.63921 5.04864 6.52869 6.06252 5.75242 7.31714C4.97615 8.57176 4.56469 10.0176 4.56412 11.4928L4.56411 11.4945C4.5609 12.7264 4.84887 13.9417 5.40458 15.0413C5.49704 15.2243 5.51258 15.4366 5.44772 15.6311L3.98551 20.0156L8.37214 18.5541C8.56671 18.4892 8.77913 18.5048 8.9622 18.5972C10.0624 19.1526 11.2783 19.4404 12.5108 19.4372L12.5125 19.4372C13.9884 19.4367 15.435 19.0254 16.6902 18.2495C17.9455 17.4736 18.9598 16.3638 19.6196 15.0442L19.6211 15.0413C20.1768 13.9417 20.4647 12.7264 20.4615 11.4945L20.4615 11.0016C20.3493 9.0615 19.5278 7.22995 18.1526 5.85547C16.7739 4.47747 14.9356 3.65562 12.989 3.54686C11.7895 3.49947 10.9258 3.64403 10.3046 3.82464C9.75792 3.9836 9.38677 4.17227 9.08504 4.32564ZM9.87487 2.34815C10.663 2.11899 11.6948 1.95618 13.0564 2.01063L13.068 2.01109C15.3949 2.1394 17.5926 3.12113 19.2405 4.76816C20.8883 6.41518 21.8704 8.61185 21.9988 10.9376C21.9996 10.9517 22 10.9658 22 10.9799L22 11.4905C22.0037 12.9638 21.6594 14.4179 20.995 15.7331C20.2075 17.3074 18.9971 18.6316 17.4994 19.5573C16.0014 20.4832 14.2752 20.9741 12.514 20.9749C11.1482 20.9784 9.7996 20.6832 8.56221 20.1116L3.0125 21.9606C2.73609 22.0527 2.43135 21.9808 2.22532 21.7749C2.0193 21.5689 1.94736 21.2644 2.0395 20.9881L3.8894 15.4411C3.31757 14.2043 3.02222 12.8564 3.02566 11.4913C3.0265 9.73096 3.51759 8.00557 4.44395 6.50836C5.37045 5.01095 6.69574 3.80092 8.27139 3.0138C8.30546 2.99677 8.34289 2.97767 8.38349 2.95696C8.68939 2.80089 9.18171 2.5497 9.87487 2.34815Z" fill="#151515"/>
</svg>
