<svg width="24" height="24" viewBox="0 0 24 24" fill="none" xmlns="http://www.w3.org/2000/svg">
<path fill-rule="evenodd" clip-rule="evenodd" d="M12 3.39535C7.24778 3.39535 3.39535 7.24778 3.39535 12C3.39535 16.7522 7.24778 20.6047 12 20.6047C16.7522 20.6047 20.6047 16.7522 20.6047 12C20.6047 7.24778 16.7522 3.39535 12 3.39535ZM2 12C2 6.47715 6.47715 2 12 2C17.5228 2 22 6.47715 22 12C22 17.5228 17.5228 22 12 22C6.47715 22 2 17.5228 2 12ZM16.4375 7.56248C16.6244 7.74934 16.6896 8.02574 16.6061 8.27644L14.634 14.1927C14.5645 14.401 14.401 14.5645 14.1927 14.634L8.27644 16.6061C8.02574 16.6896 7.74934 16.6244 7.56248 16.4375C7.37562 16.2507 7.31038 15.9743 7.39394 15.7236L9.36603 9.80728C9.43548 9.59895 9.59895 9.43548 9.80728 9.36603L15.7236 7.39394C15.9743 7.31038 16.2507 7.37562 16.4375 7.56248ZM10.5795 10.5795L9.15893 14.8411L13.4205 13.4205L14.8411 9.15893L10.5795 10.5795Z" fill="#151515"/>
</svg>
