<svg width="24" height="24" viewBox="0 0 24 24" fill="none" xmlns="http://www.w3.org/2000/svg">
<path fill-rule="evenodd" clip-rule="evenodd" d="M14.5402 3.22595C14.8415 2.92468 15.3299 2.92468 15.6312 3.22595L20.7741 8.3688C21.0753 8.67007 21.0753 9.15851 20.7741 9.45977L15.6312 14.6026C15.3299 14.9039 14.8415 14.9039 14.5402 14.6026C14.239 14.3014 14.239 13.8129 14.5402 13.5117L18.3662 9.68571H7.88571C6.99913 9.68571 6.14886 10.0379 5.52196 10.6648C4.89505 11.2917 4.54286 12.142 4.54286 13.0286V20.2286C4.54286 20.6546 4.19748 21 3.77143 21C3.34538 21 3 20.6546 3 20.2286V13.0286C3 11.7328 3.51474 10.4901 4.43099 9.57385C5.34724 8.6576 6.58994 8.14286 7.88571 8.14286H18.3662L14.5402 4.31691C14.239 4.01565 14.239 3.52721 14.5402 3.22595Z" fill="#151515"/>
</svg>
