<svg width="24" height="24" viewBox="0 0 24 24" fill="none" xmlns="http://www.w3.org/2000/svg">
<path fill-rule="evenodd" clip-rule="evenodd" d="M8.3688 3.22595C8.67007 2.92468 9.15851 2.92468 9.45977 3.22595L14.6026 8.3688C14.9039 8.67007 14.9039 9.15851 14.6026 9.45977C14.3014 9.76103 13.8129 9.76103 13.5117 9.45977L9.68571 5.63382V16.1143C9.68571 17.0009 10.0379 17.8511 10.6648 18.478C11.2917 19.1049 12.142 19.4571 13.0286 19.4571H20.2286C20.6546 19.4571 21 19.8025 21 20.2286C21 20.6546 20.6546 21 20.2286 21H13.0286C11.7328 21 10.4901 20.4853 9.57385 19.569C8.6576 18.6528 8.14286 17.4101 8.14286 16.1143V5.63382L4.31691 9.45977C4.01565 9.76103 3.52721 9.76103 3.22595 9.45977C2.92468 9.15851 2.92468 8.67007 3.22595 8.3688L8.3688 3.22595Z" fill="#151515"/>
</svg>
