<svg width="24" height="24" viewBox="0 0 24 24" fill="none" xmlns="http://www.w3.org/2000/svg">
<path fill-rule="evenodd" clip-rule="evenodd" d="M3.77143 3C4.19748 3 4.54286 3.34538 4.54286 3.77143V10.9714C4.54286 11.858 4.89505 12.7083 5.52196 13.3352C6.14886 13.9621 6.99913 14.3143 7.88571 14.3143H18.3662L14.5402 10.4883C14.239 10.1871 14.239 9.69864 14.5402 9.39738C14.8415 9.09611 15.3299 9.09611 15.6312 9.39738L20.7741 14.5402C21.0753 14.8415 21.0753 15.3299 20.7741 15.6312L15.6312 20.7741C15.3299 21.0753 14.8415 21.0753 14.5402 20.7741C14.239 20.4728 14.239 19.9844 14.5402 19.6831L18.3662 15.8571H7.88571C6.58994 15.8571 5.34724 15.3424 4.43099 14.4262C3.51474 13.5099 3 12.2672 3 10.9714V3.77143C3 3.34538 3.34538 3 3.77143 3Z" fill="#151515"/>
</svg>
