<svg width="24" height="24" viewBox="0 0 24 24" fill="none" xmlns="http://www.w3.org/2000/svg">
<path fill-rule="evenodd" clip-rule="evenodd" d="M20.2286 3C20.6546 3 21 3.34538 21 3.77143V10.9714C21 12.2672 20.4853 13.5099 19.569 14.4262C18.6528 15.3424 17.4101 15.8571 16.1143 15.8571H5.63382L9.45977 19.6831C9.76103 19.9844 9.76103 20.4728 9.45977 20.7741C9.15851 21.0753 8.67007 21.0753 8.3688 20.7741L3.22595 15.6312C2.92468 15.3299 2.92468 14.8415 3.22595 14.5402L8.3688 9.39738C8.67007 9.09611 9.15851 9.09611 9.45977 9.39738C9.76103 9.69864 9.76103 10.1871 9.45977 10.4883L5.63382 14.3143H16.1143C17.0009 14.3143 17.8511 13.9621 18.478 13.3352C19.1049 12.7083 19.4571 11.858 19.4571 10.9714V3.77143C19.4571 3.34538 19.8025 3 20.2286 3Z" fill="#151515"/>
</svg>
