<svg width="24" height="24" viewBox="0 0 24 24" fill="none" xmlns="http://www.w3.org/2000/svg">
<path fill-rule="evenodd" clip-rule="evenodd" d="M3 3.77143C3 3.34538 3.34538 3 3.77143 3H10.9714C12.2672 3 13.5099 3.51474 14.4262 4.43099C15.3424 5.34724 15.8571 6.58994 15.8571 7.88571V18.3662L19.6831 14.5402C19.9844 14.239 20.4728 14.239 20.7741 14.5402C21.0753 14.8415 21.0753 15.3299 20.7741 15.6312L15.6312 20.7741C15.3299 21.0753 14.8415 21.0753 14.5402 20.7741L9.39738 15.6312C9.09611 15.3299 9.09611 14.8415 9.39738 14.5402C9.69864 14.239 10.1871 14.239 10.4883 14.5402L14.3143 18.3662V7.88571C14.3143 6.99913 13.9621 6.14886 13.3352 5.52196C12.7083 4.89505 11.858 4.54286 10.9714 4.54286H3.77143C3.34538 4.54286 3 4.19748 3 3.77143Z" fill="#151515"/>
</svg>
