<svg width="24" height="24" viewBox="0 0 24 24" fill="none" xmlns="http://www.w3.org/2000/svg">
<path fill-rule="evenodd" clip-rule="evenodd" d="M14.5402 3.22595C14.8415 2.92468 15.3299 2.92468 15.6312 3.22595L20.7741 8.3688C21.0753 8.67007 21.0753 9.15851 20.7741 9.45977C20.4728 9.76103 19.9844 9.76103 19.6831 9.45977L15.8571 5.63382V16.1143C15.8571 17.4101 15.3424 18.6528 14.4262 19.569C13.5099 20.4853 12.2672 21 10.9714 21H3.77143C3.34538 21 3 20.6546 3 20.2286C3 19.8025 3.34538 19.4571 3.77143 19.4571H10.9714C11.858 19.4571 12.7083 19.1049 13.3352 18.478C13.9621 17.8511 14.3143 17.0009 14.3143 16.1143V5.63382L10.4883 9.45977C10.1871 9.76103 9.69864 9.76103 9.39738 9.45977C9.09611 9.15851 9.09611 8.67007 9.39738 8.3688L14.5402 3.22595Z" fill="#151515"/>
</svg>
