<svg width="24" height="24" viewBox="0 0 24 24" fill="none" xmlns="http://www.w3.org/2000/svg">
<path fill-rule="evenodd" clip-rule="evenodd" d="M9.45977 3.22595C9.76103 3.52721 9.76103 4.01565 9.45977 4.31691L5.63382 8.14286H16.1143C17.4101 8.14286 18.6528 8.6576 19.569 9.57385C20.4853 10.4901 21 11.7328 21 13.0286V20.2286C21 20.6546 20.6546 21 20.2286 21C19.8025 21 19.4571 20.6546 19.4571 20.2286V13.0286C19.4571 12.142 19.1049 11.2917 18.478 10.6648C17.8511 10.0379 17.0009 9.68571 16.1143 9.68571H5.63382L9.45977 13.5117C9.76103 13.8129 9.76103 14.3014 9.45977 14.6026C9.15851 14.9039 8.67007 14.9039 8.3688 14.6026L3.22595 9.45977C2.92468 9.15851 2.92468 8.67007 3.22595 8.3688L8.3688 3.22595C8.67007 2.92468 9.15851 2.92468 9.45977 3.22595Z" fill="#151515"/>
</svg>
