<svg width="24" height="24" viewBox="0 0 24 24" fill="none" xmlns="http://www.w3.org/2000/svg">
<path fill-rule="evenodd" clip-rule="evenodd" d="M9.57385 4.43099C10.4901 3.51474 11.7328 3 13.0286 3H20.2286C20.6546 3 21 3.34538 21 3.77143C21 4.19748 20.6546 4.54286 20.2286 4.54286H13.0286C12.142 4.54286 11.2917 4.89505 10.6648 5.52196C10.0379 6.14886 9.68571 6.99913 9.68571 7.88571V18.3662L13.5117 14.5402C13.8129 14.239 14.3014 14.239 14.6026 14.5402C14.9039 14.8415 14.9039 15.3299 14.6026 15.6312L9.45977 20.7741C9.15851 21.0753 8.67007 21.0753 8.3688 20.7741L3.22595 15.6312C2.92468 15.3299 2.92468 14.8415 3.22595 14.5402C3.52721 14.239 4.01565 14.239 4.31691 14.5402L8.14286 18.3662V7.88571C8.14286 6.58994 8.6576 5.34724 9.57385 4.43099Z" fill="#151515"/>
</svg>
