<svg width="24" height="24" viewBox="0 0 24 24" fill="none" xmlns="http://www.w3.org/2000/svg">
<path fill-rule="evenodd" clip-rule="evenodd" d="M7.04199 2.00003C7.42729 2.00337 7.73693 2.31842 7.73359 2.70372L7.70247 6.29487L15.3827 6.2283C16.0163 6.2283 16.6239 6.48003 17.0719 6.92805C17.52 7.37608 17.7717 7.98373 17.7717 8.61734V16.3763H21.3023C21.6876 16.3763 22 16.6887 22 17.074C22 17.4593 21.6876 17.7717 21.3023 17.7717H17.7717V21.3023C17.7717 21.6876 17.4593 22 17.074 22C16.6887 22 16.3763 21.6876 16.3763 21.3023V17.7717H8.61734C7.98373 17.7717 7.37608 17.52 6.92805 17.0719C6.48003 16.6239 6.22833 16.0163 6.22833 15.3827V15.3766L6.29487 7.70247L2.70372 7.73359C2.31842 7.73693 2.00337 7.42729 2.00003 7.04199C1.99669 6.65669 2.30633 6.34163 2.69163 6.33829L6.30696 6.30696L6.33829 2.69163C6.34163 2.30633 6.65669 1.99669 7.04199 2.00003ZM7.69037 7.69037L7.62368 15.3853C7.62438 15.6479 7.72899 15.8996 7.91471 16.0853C8.10106 16.2716 8.3538 16.3763 8.61734 16.3763H16.3763V8.61734C16.3763 8.3538 16.2716 8.10106 16.0853 7.91471C15.8996 7.72899 15.6479 7.62438 15.3853 7.62368L7.69037 7.69037Z" fill="#151515"/>
</svg>
