<svg width="24" height="24" viewBox="0 0 24 24" fill="none" xmlns="http://www.w3.org/2000/svg">
<path fill-rule="evenodd" clip-rule="evenodd" d="M3.42322 11.3023H6.4186C6.80392 11.3023 7.11628 11.6147 7.11628 12C7.11628 12.3853 6.80392 12.6977 6.4186 12.6977H3.42322C3.75989 16.8935 7.10651 20.2401 11.3023 20.5768V17.5814C11.3023 17.1961 11.6147 16.8837 12 16.8837C12.3853 16.8837 12.6977 17.1961 12.6977 17.5814V20.5768C16.8935 20.2401 20.2401 16.8935 20.5768 12.6977H17.5814C17.1961 12.6977 16.8837 12.3853 16.8837 12C16.8837 11.6147 17.1961 11.3023 17.5814 11.3023H20.5768C20.2401 7.10651 16.8935 3.75989 12.6977 3.42322V6.4186C12.6977 6.80392 12.3853 7.11628 12 7.11628C11.6147 7.11628 11.3023 6.80392 11.3023 6.4186V3.42322C7.10651 3.75989 3.75989 7.10651 3.42322 11.3023ZM2 12C2 6.47715 6.47715 2 12 2C17.5228 2 22 6.47715 22 12C22 17.5228 17.5228 22 12 22C6.47715 22 2 17.5228 2 12Z" fill="#151515"/>
</svg>
