<svg width="24" height="24" viewBox="0 0 24 24" fill="none" xmlns="http://www.w3.org/2000/svg">
<path fill-rule="evenodd" clip-rule="evenodd" d="M11.4418 2.2253C11.7501 1.9249 12.2499 1.9249 12.5582 2.2253L16.7688 6.32787C17.0771 6.62827 17.0771 7.11532 16.7688 7.41572C16.4605 7.71613 15.9606 7.71613 15.6523 7.41572L12.7895 4.62632V15.0769C12.7895 15.5018 12.436 15.8462 12 15.8462C11.564 15.8462 11.2105 15.5018 11.2105 15.0769V4.62632L8.34772 7.41572C8.03941 7.71613 7.53954 7.71613 7.23123 7.41572C6.92292 7.11532 6.92292 6.62827 7.23123 6.32787L11.4418 2.2253ZM12 19.9487C11.8547 19.9487 11.7368 20.0635 11.7368 20.2051C11.7368 20.3467 11.8547 20.4615 12 20.4615C12.1453 20.4615 12.2632 20.3467 12.2632 20.2051C12.2632 20.0635 12.1453 19.9487 12 19.9487ZM10.1579 20.2051C10.1579 19.2139 10.9826 18.4103 12 18.4103C13.0174 18.4103 13.8421 19.2139 13.8421 20.2051C13.8421 21.1964 13.0174 22 12 22C10.9826 22 10.1579 21.1964 10.1579 20.2051Z" fill="#151515"/>
</svg>
