<svg width="24" height="24" viewBox="0 0 24 24" fill="none" xmlns="http://www.w3.org/2000/svg">
<path fill-rule="evenodd" clip-rule="evenodd" d="M7.3749 3.2912C7.51388 3.10721 7.72495 3 7.9482 3H19.4915C20.1806 3 20.8255 3.31772 21.2893 3.85503C21.7511 4.3899 22 5.10086 22 5.82857V18.1714C22 18.8991 21.7511 19.6101 21.2893 20.145C20.8255 20.6823 20.1806 21 19.4915 21H7.9482C7.72495 21 7.51388 20.8928 7.3749 20.7088L1.15926 12.4802C0.946914 12.1991 0.946914 11.8009 1.15926 11.5198L7.3749 3.2912ZM8.30154 4.54286L2.66861 12L8.30154 19.4571H19.4915C19.7445 19.4571 20.003 19.3414 20.2052 19.1071C20.4096 18.8704 20.5349 18.5349 20.5349 18.1714V5.82857C20.5349 5.46511 20.4096 5.12959 20.2052 4.89287C20.003 4.6586 19.7445 4.54286 19.4915 4.54286H8.30154ZM10.982 8.3688C11.2681 8.06754 11.7319 8.06754 12.018 8.3688L14.4302 10.909L16.8425 8.3688C17.1285 8.06754 17.5924 8.06754 17.8785 8.3688C18.1645 8.67007 18.1645 9.15851 17.8785 9.45977L15.4662 12L17.8785 14.5402C18.1645 14.8415 18.1645 15.3299 17.8785 15.6312C17.5924 15.9325 17.1285 15.9325 16.8425 15.6312L14.4302 13.091L12.018 15.6312C11.7319 15.9325 11.2681 15.9325 10.982 15.6312C10.6959 15.3299 10.6959 14.8415 10.982 14.5402L13.3942 12L10.982 9.45977C10.6959 9.15851 10.6959 8.67007 10.982 8.3688Z" fill="#151515"/>
</svg>
