<svg width="24" height="24" viewBox="0 0 24 24" fill="none" xmlns="http://www.w3.org/2000/svg">
<path fill-rule="evenodd" clip-rule="evenodd" d="M9.94872 2.53488C9.6087 2.53488 9.2826 2.66964 9.04217 2.90951C8.80174 3.14939 8.66667 3.47472 8.66667 3.81395V5.09302H15.3333V3.81395C15.3333 3.47472 15.1983 3.14939 14.9578 2.90951C14.7174 2.66964 14.3913 2.53488 14.0513 2.53488H9.94872ZM16.8718 5.09302V3.81395C16.8718 3.06765 16.5746 2.35191 16.0457 1.82419C15.5167 1.29647 14.7993 1 14.0513 1H9.94872C9.20067 1 8.48326 1.29647 7.95431 1.82419C7.42537 2.35191 7.12821 3.06765 7.12821 3.81395V5.09302H2.76923C2.3444 5.09302 2 5.43662 2 5.86047C2 6.28431 2.3444 6.62791 2.76923 6.62791H4.05128V20.186C4.05128 20.9324 4.34844 21.6481 4.87739 22.1758C5.40634 22.7035 6.12375 23 6.8718 23H17.1282C17.8763 23 18.5937 22.7035 19.1226 22.1758C19.6516 21.6481 19.9487 20.9324 19.9487 20.186V6.62791H21.2308C21.6556 6.62791 22 6.28431 22 5.86047C22 5.43662 21.6556 5.09302 21.2308 5.09302H16.8718ZM5.58974 6.62791V20.186C5.58974 20.5253 5.72482 20.8506 5.96525 21.0905C6.20568 21.3304 6.53177 21.4651 6.8718 21.4651H17.1282C17.4682 21.4651 17.7943 21.3304 18.0348 21.0905C18.2752 20.8506 18.4103 20.5253 18.4103 20.186V6.62791H5.58974ZM9.94872 10.2093C10.3736 10.2093 10.7179 10.5529 10.7179 10.9767V17.1163C10.7179 17.5401 10.3736 17.8837 9.94872 17.8837C9.52388 17.8837 9.17949 17.5401 9.17949 17.1163V10.9767C9.17949 10.5529 9.52388 10.2093 9.94872 10.2093ZM14.0513 10.2093C14.4761 10.2093 14.8205 10.5529 14.8205 10.9767V17.1163C14.8205 17.5401 14.4761 17.8837 14.0513 17.8837C13.6264 17.8837 13.2821 17.5401 13.2821 17.1163V10.9767C13.2821 10.5529 13.6264 10.2093 14.0513 10.2093Z" fill="#151515"/>
</svg>
