<svg width="24" height="24" viewBox="0 0 24 24" fill="none" xmlns="http://www.w3.org/2000/svg">
<path fill-rule="evenodd" clip-rule="evenodd" d="M3.79487 5.37143C3.65326 5.37143 3.53846 5.47376 3.53846 5.6V14.7429C3.53846 14.8691 3.65326 14.9714 3.79487 14.9714H20.2051C20.3467 14.9714 20.4615 14.8691 20.4615 14.7429V5.6C20.4615 5.47376 20.3467 5.37143 20.2051 5.37143H3.79487ZM15.8462 16.3429H20.2051C21.1964 16.3429 22 15.6265 22 14.7429V5.6C22 4.71634 21.1964 4 20.2051 4H3.79487C2.80359 4 2 4.71634 2 5.6V14.7429C2 15.6265 2.80359 16.3429 3.79487 16.3429H8.15385V18.6286H6.8718C6.44696 18.6286 6.10256 18.9356 6.10256 19.3143C6.10256 19.693 6.44696 20 6.8718 20H17.1282C17.553 20 17.8974 19.693 17.8974 19.3143C17.8974 18.9356 17.553 18.6286 17.1282 18.6286H15.8462V16.3429ZM14.3077 16.3429H9.69231V18.6286H14.3077V16.3429ZM8.92308 7.65714C9.34791 7.65714 9.69231 7.96415 9.69231 8.34286V12C9.69231 12.3787 9.34791 12.6857 8.92308 12.6857C8.49824 12.6857 8.15385 12.3787 8.15385 12V8.34286C8.15385 7.96415 8.49824 7.65714 8.92308 7.65714ZM15.0769 9.48571C15.5018 9.48571 15.8462 9.79272 15.8462 10.1714V12C15.8462 12.3787 15.5018 12.6857 15.0769 12.6857C14.6521 12.6857 14.3077 12.3787 14.3077 12V10.1714C14.3077 9.79272 14.6521 9.48571 15.0769 9.48571ZM12 10.4C12.4248 10.4 12.7692 10.707 12.7692 11.0857V12C12.7692 12.3787 12.4248 12.6857 12 12.6857C11.5752 12.6857 11.2308 12.3787 11.2308 12V11.0857C11.2308 10.707 11.5752 10.4 12 10.4Z" fill="#151515"/>
</svg>
