<svg width="24" height="24" viewBox="0 0 24 24" fill="none" xmlns="http://www.w3.org/2000/svg">
<path fill-rule="evenodd" clip-rule="evenodd" d="M12 4.54286C11.2874 4.54286 10.7097 5.11849 10.7097 5.82857C10.7097 6.53865 11.2874 7.11429 12 7.11429C12.7126 7.11429 13.2903 6.53865 13.2903 5.82857C13.2903 5.11849 12.7126 4.54286 12 4.54286ZM9.16129 5.82857C9.16129 4.26639 10.4322 3 12 3C13.5678 3 14.8387 4.26639 14.8387 5.82857C14.8387 7.39075 13.5678 8.65714 12 8.65714C10.4322 8.65714 9.16129 7.39075 9.16129 5.82857ZM4 12C4 11.574 4.34662 11.2286 4.77419 11.2286H19.2258C19.6534 11.2286 20 11.574 20 12C20 12.426 19.6534 12.7714 19.2258 12.7714H4.77419C4.34662 12.7714 4 12.426 4 12ZM12 16.8857C11.2874 16.8857 10.7097 17.4613 10.7097 18.1714C10.7097 18.8815 11.2874 19.4571 12 19.4571C12.7126 19.4571 13.2903 18.8815 13.2903 18.1714C13.2903 17.4613 12.7126 16.8857 12 16.8857ZM9.16129 18.1714C9.16129 16.6093 10.4322 15.3429 12 15.3429C13.5678 15.3429 14.8387 16.6093 14.8387 18.1714C14.8387 19.7336 13.5678 21 12 21C10.4322 21 9.16129 19.7336 9.16129 18.1714Z" fill="#151515"/>
</svg>
