<svg width="24" height="24" viewBox="0 0 24 24" fill="none" xmlns="http://www.w3.org/2000/svg">
<path fill-rule="evenodd" clip-rule="evenodd" d="M12 2C12.4296 2 12.7778 2.31236 12.7778 2.69767V4.7907H17.1852C17.6147 4.7907 17.963 5.10306 17.963 5.48837C17.963 5.87369 17.6147 6.18605 17.1852 6.18605H12.7778V11.3023H14.5926C15.7615 11.3023 16.8826 11.7189 17.7091 12.4603C18.5357 13.2017 19 14.2073 19 15.2558C19 16.3043 18.5357 17.3099 17.7091 18.0514C16.8826 18.7928 15.7615 19.2093 14.5926 19.2093H12.7778V21.3023C12.7778 21.6876 12.4296 22 12 22C11.5704 22 11.2222 21.6876 11.2222 21.3023V19.2093H5.77778C5.34822 19.2093 5 18.8969 5 18.5116C5 18.1263 5.34822 17.814 5.77778 17.814H11.2222V12.6977H9.40741C8.23849 12.6977 7.11745 12.2811 6.2909 11.5397C5.46435 10.7983 5 9.79272 5 8.74419C5 7.69566 5.46435 6.69007 6.2909 5.94865C7.11745 5.20723 8.23849 4.7907 9.40741 4.7907H11.2222V2.69767C11.2222 2.31236 11.5704 2 12 2ZM11.2222 6.18605H9.40741C8.65105 6.18605 7.92567 6.45556 7.39084 6.93531C6.85602 7.41505 6.55556 8.06573 6.55556 8.74419C6.55556 9.42265 6.85602 10.0733 7.39084 10.5531C7.92567 11.0328 8.65105 11.3023 9.40741 11.3023H11.2222V6.18605ZM12.7778 12.6977V17.814H14.5926C15.349 17.814 16.0743 17.5444 16.6092 17.0647C17.144 16.5849 17.4444 15.9343 17.4444 15.2558C17.4444 14.5774 17.144 13.9267 16.6092 13.4469C16.0743 12.9672 15.349 12.6977 14.5926 12.6977H12.7778Z" fill="#151515"/>
</svg>
