<svg width="24" height="24" viewBox="0 0 24 24" fill="none" xmlns="http://www.w3.org/2000/svg">
<path fill-rule="evenodd" clip-rule="evenodd" d="M11.9951 2C12.1812 1.99992 12.3593 2.07679 12.4886 2.21297L17.6633 7.6636C18.7808 8.83988 19.5394 10.3359 19.8468 11.9613C20.1541 13.5866 19.9971 15.2716 19.3947 16.8042C18.7922 18.337 17.7702 19.651 16.4542 20.5773C15.138 21.5038 13.5879 22 12 22C10.4121 22 8.86198 21.5038 7.54576 20.5773C6.22984 19.651 5.20781 18.337 4.60534 16.8042C4.00294 15.2716 3.84592 13.5866 4.15324 11.9613C4.46056 10.3361 5.2191 8.84009 6.33643 7.66385C6.33651 7.66376 6.33636 7.66393 6.33643 7.66385L11.5018 2.21341C11.631 2.07711 11.809 2.00008 11.9951 2ZM11.9959 3.70234L7.32334 8.63274C6.394 9.61099 5.75786 10.8611 5.49998 12.2249C5.24207 13.5889 5.37419 15.0025 5.87871 16.2861C6.38316 17.5695 7.2361 18.6626 8.32605 19.4298C9.41569 20.1969 10.6942 20.6047 12 20.6047C13.3058 20.6047 14.5843 20.1969 15.674 19.4298C16.7639 18.6626 17.6168 17.5695 18.1213 16.2861C18.6258 15.0025 18.7579 13.5889 18.5 12.2249C18.2421 10.8611 17.6066 9.61159 16.6772 8.63334L11.9959 3.70234Z" fill="#151515"/>
</svg>
