<svg width="24" height="24" viewBox="0 0 24 24" fill="none" xmlns="http://www.w3.org/2000/svg">
<path fill-rule="evenodd" clip-rule="evenodd" d="M19.3409 3.39535C19.0057 3.39535 18.6843 3.52849 18.4473 3.76549L9.80002 12.4128L9.20428 14.7957L11.5872 14.2L20.2345 5.5527C20.4715 5.3157 20.6047 4.99426 20.6047 4.6591C20.6047 4.32393 20.4715 4.00249 20.2345 3.76549C19.9975 3.52849 19.6761 3.39535 19.3409 3.39535ZM17.4606 2.77883C17.9593 2.28015 18.6357 2 19.3409 2C20.0461 2 20.7225 2.28015 21.2212 2.77883C21.7198 3.27751 22 3.95386 22 4.6591C22 5.36433 21.7198 6.04068 21.2212 6.53936L12.4372 15.3233C12.3478 15.4127 12.2358 15.4761 12.1131 15.5068L8.41463 16.4314C8.17688 16.4909 7.92538 16.4212 7.75209 16.2479C7.5788 16.0746 7.50914 15.8231 7.56857 15.5854L8.4932 11.8869C8.52387 11.7642 8.5873 11.6522 8.67671 11.5627L17.4606 2.77883ZM2.74598 4.70741C3.22362 4.22977 3.87144 3.96144 4.54692 3.96144H11.0193C11.4046 3.96144 11.717 4.2738 11.717 4.65911C11.717 5.04443 11.4046 5.35679 11.0193 5.35679H4.54692C4.24151 5.35679 3.9486 5.47811 3.73264 5.69407C3.51667 5.91004 3.39535 6.20294 3.39535 6.50836V19.4531C3.39535 19.7585 3.51667 20.0514 3.73264 20.2674C3.9486 20.4833 4.24151 20.6047 4.54692 20.6047H17.4917C17.7971 20.6047 18.09 20.4833 18.3059 20.2674C18.5219 20.0514 18.6432 19.7585 18.6432 19.4531V12.9807C18.6432 12.5954 18.9556 12.283 19.3409 12.283C19.7262 12.283 20.0386 12.5954 20.0386 12.9807V19.4531C20.0386 20.1286 19.7702 20.7764 19.2926 21.254C18.815 21.7317 18.1671 22 17.4917 22H4.54692C3.87144 22 3.22362 21.7317 2.74598 21.254C2.26834 20.7764 2 20.1286 2 19.4531V6.50836C2 5.83287 2.26834 5.18505 2.74598 4.70741Z" fill="#151515"/>
</svg>
