<svg width="24" height="24" viewBox="0 0 24 24" fill="none" xmlns="http://www.w3.org/2000/svg">
<path fill-rule="evenodd" clip-rule="evenodd" d="M14.3077 2.76923C14.3077 2.3444 14.6521 2 15.0769 2H21.2308C21.6556 2 22 2.3444 22 2.76923V8.92308C22 9.34791 21.6556 9.69231 21.2308 9.69231C20.8059 9.69231 20.4615 9.34791 20.4615 8.92308V4.62632L10.4926 14.5952C10.1922 14.8956 9.70519 14.8956 9.40479 14.5952C9.10439 14.2948 9.10439 13.8078 9.40479 13.5074L19.3737 3.53846H15.0769C14.6521 3.53846 14.3077 3.19407 14.3077 2.76923ZM4.82051 6.61539C4.48049 6.61539 4.1544 6.75046 3.91397 6.99089C3.67353 7.23132 3.53846 7.55742 3.53846 7.89744V19.1795C3.53846 19.5195 3.67353 19.8456 3.91397 20.086C4.1544 20.3265 4.48049 20.4615 4.82051 20.4615H16.1026C16.4426 20.4615 16.7687 20.3265 17.0091 20.086C17.2495 19.8456 17.3846 19.5195 17.3846 19.1795V13.0256C17.3846 12.6008 17.729 12.2564 18.1538 12.2564C18.5787 12.2564 18.9231 12.6008 18.9231 13.0256V19.1795C18.9231 19.9275 18.6259 20.6449 18.097 21.1739C17.568 21.7028 16.8506 22 16.1026 22H4.82051C4.07247 22 3.35506 21.7028 2.82611 21.1739C2.29716 20.6449 2 19.9275 2 19.1795V7.89744C2 7.14939 2.29716 6.43198 2.82611 5.90303C3.35506 5.37408 4.07247 5.07692 4.82051 5.07692H10.9744C11.3992 5.07692 11.7436 5.42132 11.7436 5.84615C11.7436 6.27099 11.3992 6.61539 10.9744 6.61539H4.82051Z" fill="#151515"/>
</svg>
