<svg width="24" height="24" viewBox="0 0 24 24" fill="none" xmlns="http://www.w3.org/2000/svg">
<path fill-rule="evenodd" clip-rule="evenodd" d="M3.14738 2.19186C3.42674 1.92648 3.86833 1.9378 4.13372 2.21715L21.8081 20.8218C22.0735 21.1012 22.0622 21.5428 21.7828 21.8081C21.5035 22.0735 21.0619 22.0622 20.7965 21.7828L17.3529 18.158C15.8124 19.4071 13.9461 20.1047 12.0125 20.1394L12 20.1397V20.1396C8.73445 20.1396 6.23205 18.0908 4.59797 16.1735C3.77187 15.2042 3.14112 14.2383 2.71707 13.5161C2.50459 13.1542 2.34286 12.8515 2.23342 12.6374C2.17867 12.5304 2.13693 12.4454 2.1084 12.386C2.09413 12.3564 2.08316 12.3331 2.07551 12.3168L2.06652 12.2974L2.0639 12.2917L2.06306 12.2899L2.06276 12.2892C2.06264 12.289 2.06254 12.2887 2.69767 12L2.06254 12.2887C1.97641 12.0992 1.97938 11.8812 2.07063 11.6941C3.07791 9.62926 4.44656 7.80031 6.09977 6.31259L3.12209 3.1782C2.85671 2.89885 2.86803 2.45725 3.14738 2.19186ZM6.92172 7.45108C5.53592 8.72301 4.36744 10.2645 3.47621 12.003C3.57488 12.1959 3.72351 12.4743 3.92035 12.8096C4.31554 13.4827 4.90043 14.3772 5.65995 15.2684C7.19593 17.0706 9.34253 18.7416 11.9938 18.7442C13.4097 18.7175 14.7933 18.2642 15.9959 17.4327L13.7483 14.9603C13.5995 15.0687 13.4417 15.1641 13.2763 15.2452C12.8753 15.4418 12.4393 15.5488 11.995 15.5574C11.5507 15.5661 11.1111 15.476 10.7033 15.2948C10.2957 15.1137 9.93019 14.8463 9.62655 14.5123C9.32304 14.1784 9.08701 13.7844 8.92944 13.3553C8.7719 12.9262 8.69516 12.4686 8.70253 12.0092C8.7099 11.5498 8.80127 11.0951 8.97271 10.6719C9.05985 10.4568 9.16702 10.2514 9.29267 10.0591L6.92172 7.45108ZM10.2849 11.1506C10.2784 11.1655 10.2721 11.1806 10.266 11.1958C10.1601 11.4572 10.1023 11.7416 10.0977 12.0316C10.093 12.3216 10.1416 12.6084 10.2393 12.8743C10.3369 13.1402 10.4807 13.3775 10.659 13.5737C10.8372 13.7696 11.0456 13.92 11.2698 14.0196C11.4938 14.1192 11.731 14.167 11.9679 14.1624C12.2049 14.1578 12.4409 14.1008 12.6622 13.9923C12.7089 13.9694 12.7548 13.9443 12.7998 13.917L10.2849 11.1506ZM11.6076 5.26692L19.4149 13.8629C19.822 13.2699 20.1926 12.6468 20.5241 11.9976C20.4254 11.8047 20.2767 11.5261 20.0796 11.1905C19.6845 10.5174 19.0996 9.62282 18.34 8.73164C16.8029 6.92802 14.6541 5.25584 12 5.25584L11.9982 5.25584C11.8679 5.2555 11.7376 5.2592 11.6076 5.26692ZM21.3023 12L21.9375 11.7113C22.0234 11.9005 22.0206 12.1181 21.9298 12.305C21.3964 13.4026 20.7598 14.4371 20.0298 15.3914C19.9041 15.5557 19.7119 15.6558 19.5051 15.6645C19.2983 15.6732 19.0984 15.5897 18.9592 15.4365L9.70765 5.25049C9.54327 5.06951 9.48562 4.81568 9.5557 4.58144C9.62578 4.34721 9.81336 4.16675 10.0501 4.10578C10.689 3.94128 11.3438 3.85887 12.0009 3.86049C12.0012 3.86049 12.0015 3.86049 12.0018 3.86049L12 4.55816V3.86049C12.0003 3.86049 12.0006 3.86049 12.0009 3.86049C15.266 3.86087 17.7681 5.90941 19.402 7.82655C20.2281 8.79584 20.8589 9.76175 21.2829 10.484C21.4954 10.8459 21.6571 11.1486 21.7666 11.3626C21.8213 11.4697 21.8631 11.5547 21.8916 11.614C21.9059 11.6437 21.9168 11.6669 21.9245 11.6833L21.9335 11.7026L21.9361 11.7083L21.9369 11.7102L21.9372 11.7108C21.9374 11.7111 21.9375 11.7113 21.3023 12Z" fill="#151515"/>
</svg>
