<svg width="24" height="24" viewBox="0 0 24 24" fill="none" xmlns="http://www.w3.org/2000/svg">
<path fill-rule="evenodd" clip-rule="evenodd" d="M3.47468 12C3.47504 12.0007 3.4754 12.0014 3.47576 12.0021C3.57443 12.1917 3.72322 12.4656 3.92036 12.7957C4.31556 13.4572 4.90045 14.3365 5.65997 15.2124C7.19716 16.9851 9.34593 18.6286 12.0001 18.6286C14.6542 18.6286 16.803 16.9851 18.3401 15.2124C19.0997 14.3365 19.6846 13.4572 20.0798 12.7957C20.2769 12.4656 20.4257 12.1917 20.5243 12.0021C20.5247 12.0014 20.5251 12.0007 20.5254 12C20.5251 11.9993 20.5247 11.9986 20.5243 11.9979C20.4257 11.8083 20.2769 11.5344 20.0798 11.2043C19.6846 10.5428 19.0997 9.66354 18.3401 8.78765C16.803 7.01495 14.6542 5.37143 12.0001 5.37143C9.34593 5.37143 7.19716 7.01495 5.65997 8.78765C4.90045 9.66354 4.31556 10.5428 3.92036 11.2043C3.72322 11.5344 3.57443 11.8083 3.47576 11.9979C3.4754 11.9986 3.47504 11.9993 3.47468 12ZM21.3024 12C21.9376 11.7162 21.9375 11.716 21.9374 11.7158L21.9362 11.7133L21.9336 11.7077L21.9246 11.6887C21.917 11.6726 21.906 11.6497 21.8917 11.6206C21.8632 11.5623 21.8214 11.4787 21.7667 11.3735C21.6573 11.1632 21.4955 10.8656 21.283 10.51C20.859 9.80009 20.2282 8.85074 19.4021 7.89807C17.768 6.01362 15.2656 4 12.0001 4C8.73449 4 6.23207 6.01362 4.59799 7.89807C3.77188 8.85074 3.14112 9.80009 2.71707 10.51C2.5046 10.8656 2.34286 11.1632 2.23342 11.3735C2.17867 11.4787 2.13693 11.5623 2.1084 11.6206C2.09413 11.6497 2.08316 11.6726 2.07551 11.6887L2.06653 11.7077L2.0639 11.7133L2.06306 11.7151C2.06294 11.7154 2.06254 11.7162 2.69768 12L2.06254 11.7162C1.97915 11.8965 1.97915 12.1035 2.06254 12.2838L2.69768 12C2.06254 12.2838 2.06242 12.2835 2.06254 12.2838L2.06306 12.2849L2.0639 12.2867L2.06653 12.2923L2.07551 12.3113C2.08316 12.3274 2.09413 12.3503 2.1084 12.3794C2.13693 12.4377 2.17867 12.5213 2.23342 12.6265C2.34286 12.8368 2.5046 13.1344 2.71707 13.49C3.14112 14.1999 3.77188 15.1493 4.59799 16.1019C6.23207 17.9864 8.73449 20 12.0001 20C15.2656 20 17.768 17.9864 19.4021 16.1019C20.2282 15.1493 20.859 14.1999 21.283 13.49C21.4955 13.1344 21.6573 12.8368 21.7667 12.6265C21.8214 12.5213 21.8632 12.4377 21.8917 12.3794C21.906 12.3503 21.917 12.3274 21.9246 12.3113L21.9336 12.2923L21.9362 12.2867L21.937 12.2849C21.9372 12.2846 21.9376 12.2838 21.3024 12ZM21.3024 12L21.9376 12.2838C22.021 12.1035 22.0207 11.8961 21.9374 11.7158L21.3024 12ZM12.0001 9.94286C10.8441 9.94286 9.90702 10.8639 9.90702 12C9.90702 13.1361 10.8441 14.0571 12.0001 14.0571C13.156 14.0571 14.0931 13.1361 14.0931 12C14.0931 10.8639 13.156 9.94286 12.0001 9.94286ZM8.51166 12C8.51166 10.1065 10.0735 8.57143 12.0001 8.57143C13.9266 8.57143 15.4884 10.1065 15.4884 12C15.4884 13.8935 13.9266 15.4286 12.0001 15.4286C10.0735 15.4286 8.51166 13.8935 8.51166 12Z" fill="#151515"/>
</svg>
