<svg width="24" height="24" viewBox="0 0 24 24" fill="none" xmlns="http://www.w3.org/2000/svg">
<path fill-rule="evenodd" clip-rule="evenodd" d="M2.39115 4.07872C2.63052 3.94881 2.91567 3.98154 3.12601 4.16308L11.4981 11.3889C11.668 11.5356 11.7674 11.7611 11.7674 12C11.7674 12.2389 11.668 12.4644 11.4981 12.6111L3.12601 19.8369C2.91567 20.0184 2.63052 20.0512 2.39115 19.9213C2.15178 19.7914 2 19.5215 2 19.2258V4.77419C2 4.4785 2.15178 4.20863 2.39115 4.07872ZM12.6237 4.07872C12.8631 3.94881 13.1482 3.98154 13.3586 4.16308L21.7307 11.3889C21.9006 11.5356 22 11.7611 22 12C22 12.2389 21.9006 12.4644 21.7307 12.6111L13.3586 19.8369C13.1482 20.0184 12.8631 20.0512 12.6237 19.9213C12.3843 19.7914 12.2326 19.5215 12.2326 19.2258V4.77419C12.2326 4.4785 12.3843 4.20863 12.6237 4.07872ZM3.39535 6.35714V17.6428L9.93338 12L3.39535 6.35714ZM13.6279 6.35714V17.6428L20.1659 12L13.6279 6.35714Z" fill="#151515"/>
</svg>
