<svg width="24" height="24" viewBox="0 0 24 24" fill="none" xmlns="http://www.w3.org/2000/svg">
<path fill-rule="evenodd" clip-rule="evenodd" d="M11.2748 3.84015C12.4531 2.66192 14.0511 2 15.7173 2C17.3836 2 18.9816 2.66192 20.1599 3.84015C21.3381 5.01838 22 6.61639 22 8.28266C22 9.94886 21.3381 11.5468 20.16 12.725C20.1599 12.7251 20.16 12.725 20.16 12.725L17.6502 15.2423C17.6256 15.2714 17.5986 15.2984 17.5696 15.3231L13.8903 19.0133C13.7594 19.1446 13.5816 19.2184 13.3962 19.2184H5.76989L3.1911 21.7972C2.91862 22.0697 2.47684 22.0697 2.20436 21.7972C1.93188 21.5247 1.93188 21.0829 2.20436 20.8104L4.79091 18.2239V10.6131C4.79091 10.428 4.86442 10.2506 4.99527 10.1197L11.2748 3.84015ZM7.16535 17.8229H13.1066L15.4332 15.4894H9.49887L7.16535 17.8229ZM10.8943 14.094L16.2154 8.77292C16.4878 8.50044 16.4878 8.05867 16.2154 7.78619C15.9429 7.51371 15.5011 7.51371 15.2286 7.78619L6.18637 16.8284V10.9021L12.2616 4.82689C13.1781 3.91036 14.4212 3.39546 15.7173 3.39546C17.0135 3.39546 18.2566 3.91036 19.1731 4.82689C20.0896 5.74341 20.6045 6.98649 20.6045 8.28266C20.6045 9.57883 20.0896 10.8219 19.1731 11.7384L16.8246 14.094H10.8943Z" fill="#151515"/>
</svg>
