<svg width="24" height="24" viewBox="0 0 24 24" fill="none" xmlns="http://www.w3.org/2000/svg">
<path fill-rule="evenodd" clip-rule="evenodd" d="M6.47019 2.74926C6.94994 2.26952 7.60061 2 8.27907 2H16.6512C16.8362 2 17.0137 2.0735 17.1445 2.20434L21.7957 6.85551C21.9265 6.98635 22 7.1638 22 7.34884V19.4419C22 20.1203 21.7305 20.771 21.2507 21.2507C20.771 21.7305 20.1203 22 19.4419 22H8.27907C7.60061 22 6.94994 21.7305 6.47019 21.2507C5.99045 20.771 5.72093 20.1203 5.72093 19.4419V17.4029H7.11628V19.4419C7.11628 19.7503 7.23879 20.046 7.45685 20.2641C7.67492 20.4821 7.97068 20.6047 8.27907 20.6047H19.4419C19.7503 20.6047 20.046 20.4821 20.2641 20.2641C20.4821 20.046 20.6047 19.7503 20.6047 19.4419V8.04651H16.6512C16.2658 8.04651 15.9535 7.73415 15.9535 7.34884V3.39535H8.27907C7.97068 3.39535 7.67492 3.51786 7.45685 3.73592C7.23879 3.95399 7.11628 4.24975 7.11628 4.55814V8.51163H16.186C17.342 8.51163 18.2791 9.44871 18.2791 10.6047V15.2558C18.2791 16.4118 17.342 17.3488 16.186 17.3488H4.09302C2.93708 17.3488 2 16.4118 2 15.2558V10.6047C2 9.44871 2.93708 8.51163 4.09302 8.51163H5.72093V4.55814C5.72093 3.87968 5.99045 3.22901 6.47019 2.74926ZM17.3488 4.38201L19.618 6.65116H17.3488V4.38201ZM4.09302 9.90698C3.70771 9.90698 3.39535 10.2193 3.39535 10.6047V15.2558C3.39535 15.6411 3.70771 15.9535 4.09302 15.9535H16.186C16.5714 15.9535 16.8837 15.6411 16.8837 15.2558V10.6047C16.8837 10.2193 16.5714 9.90698 16.186 9.90698H4.09302Z" fill="#151515"/>
<path d="M5.95349 14.5491V11.3113H7.06815C7.26779 11.3113 7.44386 11.3576 7.59636 11.4501C7.75164 11.5395 7.87364 11.6659 7.96237 11.8294C8.0511 11.9928 8.09546 12.1824 8.09546 12.3983C8.09546 12.608 8.0511 12.793 7.96237 12.9534C7.87364 13.1137 7.75164 13.2386 7.59636 13.328C7.44386 13.4174 7.26779 13.4622 7.06815 13.4622H6.45259V14.5491H5.95349ZM7.02656 11.8201H6.45259V12.9765H7.02656C7.19015 12.9765 7.32186 12.9241 7.42168 12.8192C7.52427 12.7144 7.57557 12.5741 7.57557 12.3983C7.57557 12.2225 7.52427 12.0822 7.42168 11.9774C7.32186 11.8725 7.19015 11.8201 7.02656 11.8201Z" fill="#151515"/>
<path d="M8.69552 14.5491V11.2882H8.90348L10.5672 13.3928V11.3113H11.0455V14.5723H10.8375L9.17383 12.4677V14.5491H8.69552Z" fill="#151515"/>
<path d="M11.7053 12.9302C11.7053 12.6928 11.7413 12.4723 11.8134 12.2688C11.8855 12.0653 11.9867 11.888 12.1171 11.7369C12.2474 11.5858 12.4013 11.4686 12.5787 11.3853C12.7562 11.299 12.9503 11.2558 13.161 11.2558C13.4022 11.2558 13.6171 11.3067 13.8057 11.4085C13.9942 11.5071 14.144 11.6428 14.2549 11.8155L13.8473 12.1393C13.7724 12.019 13.674 11.9296 13.552 11.871C13.43 11.8093 13.2997 11.7785 13.161 11.7785C12.9808 11.7785 12.82 11.8278 12.6785 11.9265C12.5371 12.0252 12.4262 12.1609 12.3458 12.3335C12.2654 12.5062 12.2252 12.7051 12.2252 12.9302C12.2252 13.1523 12.264 13.3512 12.3417 13.5269C12.4193 13.6996 12.5288 13.8353 12.6702 13.934C12.8116 14.0326 12.9766 14.082 13.1652 14.082C13.3094 14.082 13.4383 14.0619 13.552 14.0218C13.6657 13.9787 13.7572 13.9247 13.8265 13.86V13.3465H13.2026V12.8377H14.3256V14.0681C14.2064 14.2192 14.0441 14.3472 13.839 14.452C13.6365 14.5538 13.412 14.6047 13.1652 14.6047C12.9489 14.6047 12.7506 14.563 12.5704 14.4798C12.393 14.3934 12.2391 14.2747 12.1087 14.1236C11.9812 13.9725 11.8814 13.7952 11.8093 13.5917C11.74 13.3882 11.7053 13.1677 11.7053 12.9302Z" fill="#151515"/>
</svg>
