<svg width="24" height="24" viewBox="0 0 24 24" fill="none" xmlns="http://www.w3.org/2000/svg">
<path fill-rule="evenodd" clip-rule="evenodd" d="M6.47019 2.74926C6.94994 2.26952 7.60061 2 8.27907 2H16.6512C16.8362 2 17.0137 2.0735 17.1445 2.20434L21.7957 6.85551C21.9265 6.98635 22 7.1638 22 7.34884V19.4419C22 20.1203 21.7305 20.771 21.2507 21.2507C20.771 21.7305 20.1203 22 19.4419 22H8.27907C7.60061 22 6.94994 21.7305 6.47019 21.2507C5.99045 20.771 5.72093 20.1203 5.72093 19.4419V17.4029H7.11628V19.4419C7.11628 19.7503 7.23879 20.046 7.45685 20.2641C7.67492 20.4821 7.97068 20.6047 8.27907 20.6047H19.4419C19.7503 20.6047 20.046 20.4821 20.2641 20.2641C20.4821 20.046 20.6047 19.7503 20.6047 19.4419V8.04651H16.6512C16.2658 8.04651 15.9535 7.73415 15.9535 7.34884V3.39535H8.27907C7.97068 3.39535 7.67492 3.51786 7.45685 3.73592C7.23879 3.95399 7.11628 4.24975 7.11628 4.55814V8.51163H16.186C17.342 8.51163 18.2791 9.44871 18.2791 10.6047V15.2558C18.2791 16.4118 17.342 17.3488 16.186 17.3488H4.09302C2.93708 17.3488 2 16.4118 2 15.2558V10.6047C2 9.44871 2.93708 8.51163 4.09302 8.51163H5.72093V4.55814C5.72093 3.87968 5.99045 3.22901 6.47019 2.74926ZM17.3488 4.38201L19.618 6.65116H17.3488V4.38201ZM4.09302 9.90698C3.70771 9.90698 3.39535 10.2193 3.39535 10.6047V15.2558C3.39535 15.6411 3.70771 15.9535 4.09302 15.9535H16.186C16.5714 15.9535 16.8837 15.6411 16.8837 15.2558V10.6047C16.8837 10.2193 16.5714 9.90698 16.186 9.90698H4.09302Z" fill="#151515"/>
<path d="M5.95349 14.6047V11.2558H7.18099C7.40084 11.2558 7.59473 11.3037 7.76267 11.3993C7.93367 11.4918 8.06802 11.6226 8.16573 11.7916C8.26344 11.9607 8.3123 12.1568 8.3123 12.3801C8.3123 12.5969 8.26344 12.7883 8.16573 12.9542C8.06802 13.12 7.93367 13.2492 7.76267 13.3417C7.59473 13.4342 7.40084 13.4804 7.18099 13.4804H6.50311V14.6047H5.95349ZM7.13518 11.7821H6.50311V12.9781H7.13518C7.31534 12.9781 7.46038 12.9239 7.5703 12.8154C7.68328 12.707 7.73977 12.5619 7.73977 12.3801C7.73977 12.1983 7.68328 12.0532 7.5703 11.9447C7.46038 11.8363 7.31534 11.7821 7.13518 11.7821Z" fill="#151515"/>
<path d="M8.9731 14.6047V11.2558H9.94869C10.1869 11.2558 10.4052 11.2973 10.6037 11.3802C10.8052 11.4631 10.9777 11.5795 11.1212 11.7294C11.2678 11.8793 11.3808 12.0563 11.4602 12.2605C11.5426 12.4646 11.5838 12.6878 11.5838 12.9302C11.5838 13.1726 11.5426 13.3959 11.4602 13.6C11.3808 13.8041 11.2678 13.9811 11.1212 14.131C10.9777 14.2809 10.8052 14.3973 10.6037 14.4803C10.4052 14.5632 10.1869 14.6047 9.94869 14.6047H8.9731ZM9.92579 11.7821H9.52273V14.0784H9.92579C10.1487 14.0784 10.3411 14.029 10.5029 13.9301C10.6647 13.828 10.7899 13.6909 10.8785 13.5187C10.967 13.3464 11.0113 13.1503 11.0113 12.9302C11.0113 12.7102 10.967 12.514 10.8785 12.3418C10.7899 12.1664 10.6647 12.0292 10.5029 11.9304C10.3411 11.8315 10.1487 11.7821 9.92579 11.7821Z" fill="#151515"/>
<path d="M12.3103 14.6047V11.2558H14.3256V11.7821H12.8599V12.7532H14.1378V13.2555H12.8599V14.6047H12.3103Z" fill="#151515"/>
</svg>
