<svg width="24" height="24" viewBox="0 0 24 24" fill="none" xmlns="http://www.w3.org/2000/svg">
<path fill-rule="evenodd" clip-rule="evenodd" d="M6.47019 2.74926C6.94994 2.26952 7.60061 2 8.27907 2H16.6512C16.8362 2 17.0137 2.0735 17.1445 2.20434L21.7957 6.85551C21.9265 6.98635 22 7.1638 22 7.34884V19.4419C22 20.1203 21.7305 20.771 21.2507 21.2507C20.771 21.7305 20.1203 22 19.4419 22H8.27907C7.60061 22 6.94994 21.7305 6.47019 21.2507C5.99045 20.771 5.72093 20.1203 5.72093 19.4419V17.4029H7.11628V19.4419C7.11628 19.7503 7.23879 20.046 7.45685 20.2641C7.67492 20.4821 7.97068 20.6047 8.27907 20.6047H19.4419C19.7503 20.6047 20.046 20.4821 20.2641 20.2641C20.4821 20.046 20.6047 19.7503 20.6047 19.4419V8.04651H16.6512C16.2658 8.04651 15.9535 7.73415 15.9535 7.34884V3.39535H8.27907C7.97068 3.39535 7.67492 3.51786 7.45685 3.73592C7.23879 3.95399 7.11628 4.24975 7.11628 4.55814V8.51163H16.186C17.342 8.51163 18.2791 9.44871 18.2791 10.6047V15.2558C18.2791 16.4118 17.342 17.3488 16.186 17.3488H4.09302C2.93708 17.3488 2 16.4118 2 15.2558V10.6047C2 9.44871 2.93708 8.51163 4.09302 8.51163H5.72093V4.55814C5.72093 3.87968 5.99045 3.22901 6.47019 2.74926ZM17.3488 4.38201L19.618 6.65116H17.3488V4.38201ZM4.09302 9.90698C3.70771 9.90698 3.39535 10.2193 3.39535 10.6047V15.2558C3.39535 15.6411 3.70771 15.9535 4.09302 15.9535H16.186C16.5714 15.9535 16.8837 15.6411 16.8837 15.2558V10.6047C16.8837 10.2193 16.5714 9.90698 16.186 9.90698H4.09302Z" fill="#151515"/>
<path d="M4.55814 14.4592L5.65909 12.8953L4.61608 11.4013H5.25793L5.99338 12.4584L6.711 11.4013H7.32611L6.28756 12.8822L7.38405 14.4592H6.7422L5.95327 13.319L5.17324 14.4592H4.55814Z" fill="#151515"/>
<path d="M7.95723 14.4592V11.4013H8.4921V13.9787H9.87386V14.4592H7.95723Z" fill="#151515"/>
<path d="M10.18 14.0923L10.5099 13.7166C10.6228 13.8098 10.7535 13.8869 10.9021 13.9481C11.0536 14.0093 11.2186 14.0398 11.3969 14.0398C11.6257 14.0398 11.7891 14.0034 11.8872 13.9306C11.9852 13.8549 12.0342 13.7646 12.0342 13.6598C12.0342 13.5899 12.0164 13.5273 11.9808 13.4719C11.9451 13.4166 11.8782 13.3642 11.7802 13.3147C11.6851 13.2652 11.5469 13.2171 11.3657 13.1705C11.0982 13.1006 10.8872 13.0191 10.7327 12.9259C10.5782 12.8298 10.4683 12.7235 10.4029 12.607C10.3375 12.4905 10.3048 12.3638 10.3048 12.2269C10.3048 12.0667 10.3509 11.9211 10.443 11.7901C10.5351 11.6561 10.6629 11.5498 10.8263 11.4712C10.9898 11.3896 11.1784 11.3488 11.3924 11.3488C11.6153 11.3488 11.8084 11.3794 11.9718 11.4406C12.1353 11.5017 12.2868 11.5833 12.4265 11.6852L12.1011 12.0609C12.009 11.991 11.9035 11.9328 11.7846 11.8862C11.6687 11.8396 11.541 11.8163 11.4013 11.8163C11.2082 11.8163 11.0655 11.857 10.9734 11.9386C10.8813 12.0172 10.8352 12.1017 10.8352 12.192C10.8352 12.2589 10.8546 12.3201 10.8932 12.3754C10.9348 12.4308 11.0046 12.4832 11.1027 12.5327C11.2037 12.5793 11.3434 12.6259 11.5217 12.6725C11.908 12.7715 12.1784 12.9011 12.3329 13.0613C12.4874 13.2186 12.5647 13.4049 12.5647 13.6205C12.5647 13.7865 12.5171 13.9364 12.422 14.0704C12.3269 14.2044 12.1902 14.3121 12.012 14.3937C11.8366 14.4723 11.6257 14.5116 11.379 14.5116C11.1562 14.5116 10.9422 14.4752 10.7372 14.4024C10.5321 14.3267 10.3464 14.2233 10.18 14.0923Z" fill="#151515"/>
<path d="M12.895 14.4592L13.996 12.8953L12.953 11.4013H13.5948L14.3303 12.4584L15.0479 11.4013H15.663L14.6244 12.8822L15.7209 14.4592H15.0791L14.2901 13.319L13.5101 14.4592H12.895Z" fill="#151515"/>
</svg>
