<svg width="24" height="24" viewBox="0 0 24 24" fill="none" xmlns="http://www.w3.org/2000/svg">
<path fill-rule="evenodd" clip-rule="evenodd" d="M6.47019 2.74926C6.94994 2.26952 7.60061 2 8.27907 2H16.6512C16.8362 2 17.0137 2.0735 17.1445 2.20434L21.7957 6.85551C21.9265 6.98635 22 7.1638 22 7.34884V19.4419C22 20.1203 21.7305 20.771 21.2507 21.2507C20.771 21.7305 20.1203 22 19.4419 22H8.27907C7.60061 22 6.94994 21.7305 6.47019 21.2507C5.99045 20.771 5.72093 20.1203 5.72093 19.4419V17.4029H7.11628V19.4419C7.11628 19.7503 7.23879 20.046 7.45685 20.2641C7.67492 20.4821 7.97068 20.6047 8.27907 20.6047H19.4419C19.7503 20.6047 20.046 20.4821 20.2641 20.2641C20.4821 20.046 20.6047 19.7503 20.6047 19.4419V8.04651H16.6512C16.2658 8.04651 15.9535 7.73415 15.9535 7.34884V3.39535H8.27907C7.97068 3.39535 7.67492 3.51786 7.45685 3.73592C7.23879 3.95399 7.11628 4.24975 7.11628 4.55814V8.51163H16.186C17.342 8.51163 18.2791 9.44871 18.2791 10.6047V15.2558C18.2791 16.4118 17.342 17.3488 16.186 17.3488H4.09302C2.93708 17.3488 2 16.4118 2 15.2558V10.6047C2 9.44871 2.93708 8.51163 4.09302 8.51163H5.72093V4.55814C5.72093 3.87968 5.99045 3.22901 6.47019 2.74926ZM17.3488 4.38201L19.618 6.65116H17.3488V4.38201ZM4.09302 9.90698C3.70771 9.90698 3.39535 10.2193 3.39535 10.6047V15.2558C3.39535 15.6411 3.70771 15.9535 4.09302 15.9535H16.186C16.5714 15.9535 16.8837 15.6411 16.8837 15.2558V10.6047C16.8837 10.2193 16.5714 9.90698 16.186 9.90698H4.09302Z" fill="#151515"/>
<path d="M5.95349 14.5491L7.1047 12.8932L6.01408 11.3113H6.68523L7.45426 12.4306L8.20465 11.3113H8.84784L7.76188 12.8793L8.90843 14.5491H8.23728L7.41232 13.3419L6.59668 14.5491H5.95349Z" fill="#151515"/>
<path d="M9.50778 14.5491V11.3113H10.0671V14.0403H11.5119V14.5491H9.50778Z" fill="#151515"/>
<path d="M11.8321 14.1606L12.177 13.7628C12.295 13.8614 12.4317 13.9432 12.5871 14.0079C12.7456 14.0727 12.918 14.1051 13.1045 14.1051C13.3437 14.1051 13.5146 14.0665 13.6171 13.9894C13.7197 13.9092 13.7709 13.8137 13.7709 13.7026C13.7709 13.6286 13.7523 13.5623 13.715 13.5037C13.6777 13.4452 13.6078 13.3897 13.5053 13.3372C13.4059 13.2848 13.2614 13.2339 13.0718 13.1846C12.7922 13.1106 12.5716 13.0242 12.41 12.9256C12.2484 12.8238 12.1335 12.7112 12.0651 12.5879C11.9967 12.4646 11.9626 12.3304 11.9626 12.1855C11.9626 12.0159 12.0107 11.8617 12.107 11.7229C12.2034 11.5811 12.337 11.4685 12.5079 11.3853C12.6788 11.2989 12.8761 11.2558 13.0998 11.2558C13.3328 11.2558 13.5348 11.2881 13.7057 11.3529C13.8766 11.4177 14.0351 11.504 14.1811 11.6119L13.8409 12.0097C13.7445 11.9357 13.6342 11.874 13.5099 11.8247C13.3888 11.7754 13.2552 11.7507 13.1091 11.7507C12.9071 11.7507 12.758 11.7939 12.6617 11.8802C12.5654 11.9635 12.5172 12.0529 12.5172 12.1485C12.5172 12.2194 12.5374 12.2842 12.5778 12.3428C12.6213 12.4013 12.6943 12.4568 12.7968 12.5093C12.9025 12.5586 13.0485 12.6079 13.235 12.6573C13.6389 12.7621 13.9216 12.8994 14.0832 13.069C14.2448 13.2355 14.3256 13.4328 14.3256 13.661C14.3256 13.8368 14.2759 13.9956 14.1764 14.1374C14.077 14.2793 13.9341 14.3934 13.7476 14.4797C13.5643 14.563 13.3437 14.6046 13.0858 14.6046C12.8528 14.6046 12.6291 14.5661 12.4147 14.489C12.2003 14.4088 12.0061 14.2993 11.8321 14.1606Z" fill="#151515"/>
</svg>
