<svg width="24" height="24" viewBox="0 0 24 24" fill="none" xmlns="http://www.w3.org/2000/svg">
<path fill-rule="evenodd" clip-rule="evenodd" d="M5.53846 3.39535C5.25739 3.39535 4.97101 3.51972 4.74762 3.76986C4.52207 4.02242 4.38462 4.3793 4.38462 4.76486V19.2351C4.38462 19.6207 4.52207 19.9776 4.74762 20.2301C4.97101 20.4803 5.25739 20.6047 5.53846 20.6047H11.5385C11.9208 20.6047 12.2308 20.917 12.2308 21.3023C12.2308 21.6876 11.9208 22 11.5385 22H5.53846C4.84027 22 4.1875 21.6888 3.71845 21.1636C3.25156 20.6408 3 19.9461 3 19.2351V4.76486C3 4.05391 3.25156 3.3592 3.71845 2.83642C4.1875 2.31121 4.84027 2 5.53846 2H12C12.1963 2 12.3833 2.08395 12.5146 2.23095L17.13 7.39891C17.2444 7.52702 17.3077 7.69328 17.3077 7.86563V9.93282C17.3077 10.3181 16.9977 10.6305 16.6154 10.6305C16.233 10.6305 15.9231 10.3181 15.9231 9.93282V8.56331H12.9231C12.4697 8.56331 12.0517 8.36099 11.7558 8.02962C11.462 7.70067 11.3077 7.26886 11.3077 6.83204V3.39535H5.53846ZM12.6923 4.51578L15.0609 7.16796H12.9231C12.8868 7.16796 12.8352 7.15248 12.785 7.09618C12.7325 7.03746 12.6923 6.94347 12.6923 6.83204V4.51578ZM15.9231 13.7088C14.6 14.0238 13.6154 15.2216 13.6154 16.6512C13.6154 18.3209 14.9585 19.6744 16.6154 19.6744C18.034 19.6744 19.2226 18.6822 19.5351 17.3488H16.6154C16.233 17.3488 15.9231 17.0365 15.9231 16.6512V13.7088ZM17.3077 13.7088V15.9535H19.5351C19.2751 14.8441 18.4085 13.9709 17.3077 13.7088ZM12.2308 16.6512C12.2308 14.2108 14.1938 12.2326 16.6154 12.2326C19.0369 12.2326 21 14.2108 21 16.6512C21 19.0915 19.0369 21.0698 16.6154 21.0698C14.1938 21.0698 12.2308 19.0915 12.2308 16.6512Z" fill="#151515"/>
</svg>
