<svg width="24" height="24" viewBox="0 0 24 24" fill="none" xmlns="http://www.w3.org/2000/svg">
<path fill-rule="evenodd" clip-rule="evenodd" d="M6.74286 3.39535C6.36496 3.39535 6.01097 3.53869 5.75674 3.78072C5.50405 4.02127 5.37143 4.33723 5.37143 4.65606V18.3647C5.37143 18.6836 5.50405 18.9995 5.75674 19.2401C6.01097 19.4821 6.36496 19.6255 6.74286 19.6255H11.3714C11.7501 19.6255 12.0571 19.9378 12.0571 20.3231C12.0571 20.7084 11.7501 21.0208 11.3714 21.0208H6.74286C6.02957 21.0208 5.33709 20.7515 4.81974 20.259C4.30084 19.765 4 19.0847 4 18.3647V4.65606C4 3.93609 4.30084 3.25581 4.81974 2.76183C5.33709 2.26932 6.02957 2 6.74286 2H13.9429C14.1168 2 14.2843 2.06729 14.4114 2.18823L19.5542 7.08419C19.6928 7.21611 19.7714 7.40056 19.7714 7.59363V12.4896C19.7714 12.8749 19.4644 13.1873 19.0857 13.1873C18.707 13.1873 18.4 12.8749 18.4 12.4896V8.29131H14.9714C14.5309 8.29131 14.1001 8.12516 13.7756 7.81628C13.4496 7.50593 13.2571 7.07471 13.2571 6.61444V3.39535H6.74286ZM14.6286 4.30592L17.3492 6.89596H14.9714C14.8663 6.89596 14.774 6.85578 14.7126 6.79739C14.6528 6.74047 14.6286 6.67357 14.6286 6.61444V4.30592ZM15.7279 14.9505C15.9866 14.6691 16.4205 14.6545 16.6971 14.9177L19.7828 17.8553C19.9214 17.9872 20 18.1717 20 18.3647C20 18.5578 19.9214 18.7423 19.7828 18.8742L16.6971 21.8118C16.4205 22.075 15.9866 22.0604 15.7279 21.779C15.4691 21.4976 15.4835 21.0561 15.7601 20.7929L17.5778 19.0624H12.1143C11.7356 19.0624 11.4286 18.7501 11.4286 18.3647C11.4286 17.9794 11.7356 17.6671 12.1143 17.6671H17.5778L15.7601 15.9366C15.4835 15.6734 15.4691 15.2319 15.7279 14.9505Z" fill="#151515"/>
</svg>
