<svg width="24" height="24" viewBox="0 0 24 24" fill="none" xmlns="http://www.w3.org/2000/svg">
<path fill-rule="evenodd" clip-rule="evenodd" d="M4.73642 2.74926C5.20794 2.26952 5.84746 2 6.51429 2H12.9143C13.0961 2 13.2706 2.0735 13.3992 2.20434L19.7992 8.71597C19.9278 8.84681 20 9.02427 20 9.2093V19.4419C20 20.1203 19.7351 20.771 19.2636 21.2507C18.7921 21.7305 18.1525 22 17.4857 22H6.51429C5.84746 22 5.20794 21.7305 4.73642 21.2507C4.2649 20.771 4 20.1203 4 19.4419V4.55814C4 3.87968 4.2649 3.22901 4.73642 2.74926ZM6.51429 3.39535C6.21118 3.39535 5.92049 3.51786 5.70616 3.73592C5.49184 3.95399 5.37143 4.24975 5.37143 4.55814V19.4419C5.37143 19.7503 5.49184 20.046 5.70616 20.2641C5.92049 20.4821 6.21118 20.6047 6.51429 20.6047H17.4857C17.7888 20.6047 18.0795 20.4821 18.2938 20.2641C18.5082 20.046 18.6286 19.7503 18.6286 19.4419V9.90698H12.9143C12.5356 9.90698 12.2286 9.59462 12.2286 9.2093V3.39535H6.51429ZM13.6 4.38201L17.6588 8.51163H13.6V4.38201Z" fill="#151515"/>
</svg>
