<svg width="24" height="24" viewBox="0 0 24 24" fill="none" xmlns="http://www.w3.org/2000/svg">
<path fill-rule="evenodd" clip-rule="evenodd" d="M6.47019 2.74926C6.94994 2.26952 7.60061 2 8.27907 2H16.6512C16.8362 2 17.0137 2.0735 17.1445 2.20434L21.7957 6.85551C21.9265 6.98635 22 7.1638 22 7.34884V19.4419C22 20.1203 21.7305 20.771 21.2507 21.2507C20.771 21.7305 20.1203 22 19.4419 22H8.27907C7.60061 22 6.94994 21.7305 6.47019 21.2507C5.99045 20.771 5.72093 20.1203 5.72093 19.4419V17.4029H7.11628V19.4419C7.11628 19.7503 7.23879 20.046 7.45685 20.2641C7.67492 20.4821 7.97068 20.6047 8.27907 20.6047H19.4419C19.7503 20.6047 20.046 20.4821 20.2641 20.2641C20.4821 20.046 20.6047 19.7503 20.6047 19.4419V8.04651H16.6512C16.2658 8.04651 15.9535 7.73415 15.9535 7.34884V3.39535H8.27907C7.97068 3.39535 7.67492 3.51786 7.45685 3.73592C7.23879 3.95399 7.11628 4.24975 7.11628 4.55814V8.51163H16.186C17.342 8.51163 18.2791 9.44871 18.2791 10.6047V15.2558C18.2791 16.4118 17.342 17.3488 16.186 17.3488H4.09302C2.93708 17.3488 2 16.4118 2 15.2558V10.6047C2 9.44871 2.93708 8.51163 4.09302 8.51163H5.72093V4.55814C5.72093 3.87968 5.99045 3.22901 6.47019 2.74926ZM17.3488 4.38201L19.618 6.65116H17.3488V4.38201ZM4.09302 9.90698C3.70771 9.90698 3.39535 10.2193 3.39535 10.6047V15.2558C3.39535 15.6411 3.70771 15.9535 4.09302 15.9535H16.186C16.5714 15.9535 16.8837 15.6411 16.8837 15.2558V10.6047C16.8837 10.2193 16.5714 9.90698 16.186 9.90698H4.09302Z" fill="#151515"/>
<path d="M5.95349 12.9302C5.95349 12.6927 5.98991 12.4723 6.06274 12.2687C6.13849 12.0652 6.24192 11.8879 6.37303 11.7368C6.50704 11.5857 6.66437 11.4685 6.845 11.3853C7.02855 11.2989 7.22667 11.2558 7.43935 11.2558C7.68408 11.2558 7.90113 11.3066 8.0905 11.4084C8.28279 11.5071 8.43429 11.6428 8.545 11.8154L8.11672 12.1392C8.04389 12.019 7.94629 11.9295 7.82392 11.871C7.70447 11.8093 7.57628 11.7784 7.43935 11.7784C7.25871 11.7784 7.09702 11.8278 6.95426 11.9265C6.8115 12.0251 6.69933 12.1608 6.61775 12.3335C6.53909 12.5062 6.49976 12.7051 6.49976 12.9302C6.49976 13.1522 6.53909 13.3511 6.61775 13.5269C6.69933 13.6996 6.8115 13.8352 6.95426 13.9339C7.09702 14.0326 7.25871 14.0819 7.43935 14.0819C7.57919 14.0819 7.71175 14.0511 7.83703 13.9894C7.96523 13.9277 8.06574 13.8383 8.13858 13.7211L8.56685 14.0449C8.45906 14.2053 8.3061 14.3394 8.10798 14.4473C7.91278 14.5522 7.6899 14.6046 7.43935 14.6046C7.22667 14.6046 7.02855 14.563 6.845 14.4797C6.66437 14.3934 6.50704 14.2747 6.37303 14.1236C6.24192 13.9725 6.13849 13.7952 6.06274 13.5916C5.98991 13.3881 5.95349 13.1676 5.95349 12.9302Z" fill="#151515"/>
<path d="M8.88857 14.1606L9.21197 13.7628C9.32268 13.8614 9.45087 13.9432 9.59654 14.0079C9.74513 14.0727 9.90682 14.1051 10.0816 14.1051C10.306 14.1051 10.4662 14.0665 10.5623 13.9894C10.6585 13.9092 10.7066 13.8137 10.7066 13.7026C10.7066 13.6286 10.6891 13.5623 10.6541 13.5037C10.6192 13.4452 10.5536 13.3896 10.4575 13.3372C10.3642 13.2848 10.2288 13.2339 10.051 13.1846C9.78883 13.1106 9.58197 13.0242 9.43047 12.9256C9.27898 12.8238 9.17118 12.7112 9.10708 12.5879C9.04298 12.4646 9.01094 12.3304 9.01094 12.1855C9.01094 12.0159 9.0561 11.8617 9.14641 11.7229C9.23673 11.5811 9.36201 11.4685 9.52225 11.3853C9.68249 11.2989 9.86749 11.2558 10.0773 11.2558C10.2958 11.2558 10.4851 11.2881 10.6454 11.3529C10.8056 11.4177 10.9542 11.504 11.0911 11.6119L10.7721 12.0097C10.6818 11.9357 10.5784 11.874 10.4618 11.8247C10.3482 11.7754 10.2229 11.7507 10.086 11.7507C9.89663 11.7507 9.75678 11.7939 9.66646 11.8802C9.57615 11.9635 9.53099 12.0529 9.53099 12.1485C9.53099 12.2194 9.54993 12.2842 9.5878 12.3428C9.62859 12.4013 9.69705 12.4568 9.7932 12.5093C9.89226 12.5586 10.0292 12.6079 10.204 12.6573C10.5827 12.7621 10.8479 12.8994 10.9994 13.069C11.1509 13.2355 11.2266 13.4328 11.2266 13.661C11.2266 13.8368 11.18 13.9956 11.0868 14.1374C10.9935 14.2793 10.8595 14.3934 10.6847 14.4797C10.5128 14.563 10.306 14.6046 10.0641 14.6046C9.84564 14.6046 9.63587 14.5661 9.43484 14.489C9.23382 14.4088 9.05173 14.2993 8.88857 14.1606Z" fill="#151515"/>
<path d="M12.7742 14.5722L11.5068 11.3113H12.0793L12.9184 13.5778L13.7793 11.3113H14.3256L13.0582 14.5722H12.7742Z" fill="#151515"/>
</svg>
