<svg width="24" height="24" viewBox="0 0 24 24" fill="none" xmlns="http://www.w3.org/2000/svg">
<path fill-rule="evenodd" clip-rule="evenodd" d="M6.47019 2.74926C6.94994 2.26952 7.60061 2 8.27907 2H16.6512C16.8362 2 17.0137 2.0735 17.1445 2.20434L21.7957 6.85551C21.9265 6.98635 22 7.1638 22 7.34884V19.4419C22 20.1203 21.7305 20.771 21.2507 21.2507C20.771 21.7305 20.1203 22 19.4419 22H8.27907C7.60061 22 6.94994 21.7305 6.47019 21.2507C5.99045 20.771 5.72093 20.1203 5.72093 19.4419V17.4029H7.11628V19.4419C7.11628 19.7503 7.23879 20.046 7.45685 20.2641C7.67492 20.4821 7.97068 20.6047 8.27907 20.6047H19.4419C19.7503 20.6047 20.046 20.4821 20.2641 20.2641C20.4821 20.046 20.6047 19.7503 20.6047 19.4419V8.04651H16.6512C16.2658 8.04651 15.9535 7.73415 15.9535 7.34884V3.39535H8.27907C7.97068 3.39535 7.67492 3.51786 7.45685 3.73592C7.23879 3.95399 7.11628 4.24975 7.11628 4.55814V8.51163H16.186C17.342 8.51163 18.2791 9.44871 18.2791 10.6047V15.2558C18.2791 16.4118 17.342 17.3488 16.186 17.3488H4.09302C2.93708 17.3488 2 16.4118 2 15.2558V10.6047C2 9.44871 2.93708 8.51163 4.09302 8.51163H5.72093V4.55814C5.72093 3.87968 5.99045 3.22901 6.47019 2.74926ZM17.3488 4.38201L19.618 6.65116H17.3488V4.38201ZM4.09302 9.90698C3.70771 9.90698 3.39535 10.2193 3.39535 10.6047V15.2558C3.39535 15.6411 3.70771 15.9535 4.09302 15.9535H16.186C16.5714 15.9535 16.8837 15.6411 16.8837 15.2558V10.6047C16.8837 10.2193 16.5714 9.90698 16.186 9.90698H4.09302Z" fill="#151515"/>
<path d="M5.95349 14.0912L6.36572 13.7674C6.41053 13.863 6.47177 13.9401 6.54944 13.9987C6.63009 14.0542 6.72419 14.082 6.83173 14.082C6.99304 14.082 7.1185 14.0249 7.20812 13.9108C7.29773 13.7937 7.34254 13.6302 7.34254 13.4205V11.3113H7.88024V13.4899C7.88024 13.7089 7.83693 13.9031 7.7503 14.0727C7.66665 14.2392 7.54567 14.3703 7.38735 14.4659C7.22903 14.5584 7.03934 14.6047 6.81829 14.6047C6.6271 14.6047 6.45833 14.5599 6.31195 14.4705C6.16857 14.378 6.04908 14.2516 5.95349 14.0912Z" fill="#151515"/>
<path d="M8.75022 14.5491V11.3113H9.95108C10.1662 11.3113 10.3558 11.3576 10.5201 11.4501C10.6874 11.5395 10.8189 11.6659 10.9145 11.8294C11.01 11.9928 11.0578 12.1824 11.0578 12.3983C11.0578 12.608 11.01 12.793 10.9145 12.9534C10.8189 13.1137 10.6874 13.2386 10.5201 13.328C10.3558 13.4174 10.1662 13.4622 9.95108 13.4622H9.28792V14.5491H8.75022ZM9.90627 11.8201H9.28792V12.9765H9.90627C10.0825 12.9765 10.2244 12.9241 10.3319 12.8192C10.4425 12.7144 10.4977 12.5741 10.4977 12.3983C10.4977 12.2225 10.4425 12.0822 10.3319 11.9774C10.2244 11.8725 10.0825 11.8201 9.90627 11.8201Z" fill="#151515"/>
<path d="M11.5027 12.9302C11.5027 12.6928 11.5415 12.4723 11.6192 12.2688C11.6968 12.0653 11.8059 11.888 11.9463 11.7369C12.0867 11.5858 12.2525 11.4686 12.4436 11.3853C12.6348 11.299 12.8439 11.2558 13.071 11.2558C13.3308 11.2558 13.5623 11.3067 13.7655 11.4085C13.9686 11.5071 14.1299 11.6428 14.2494 11.8155L13.8103 12.1393C13.7296 12.019 13.6236 11.9296 13.4921 11.871C13.3607 11.8093 13.2203 11.7785 13.071 11.7785C12.8768 11.7785 12.7035 11.8278 12.5512 11.9265C12.3988 12.0252 12.2793 12.1609 12.1927 12.3335C12.1061 12.5062 12.0628 12.7051 12.0628 12.9302C12.0628 13.1523 12.1046 13.3512 12.1882 13.5269C12.2719 13.6996 12.3899 13.8353 12.5422 13.934C12.6946 14.0326 12.8723 14.082 13.0754 14.082C13.2308 14.082 13.3697 14.0619 13.4921 14.0218C13.6146 13.9787 13.7132 13.9247 13.7879 13.86V13.3465H13.1158V12.8377H14.3256V14.0681C14.1971 14.2192 14.0224 14.3472 13.8013 14.452C13.5833 14.5538 13.3413 14.6047 13.0754 14.6047C12.8424 14.6047 12.6288 14.563 12.4347 14.4798C12.2435 14.3934 12.0777 14.2747 11.9373 14.1236C11.7999 13.9725 11.6924 13.7952 11.6147 13.5917C11.54 13.3882 11.5027 13.1677 11.5027 12.9302Z" fill="#151515"/>
</svg>
