<svg width="24" height="24" viewBox="0 0 24 24" fill="none" xmlns="http://www.w3.org/2000/svg">
<path fill-rule="evenodd" clip-rule="evenodd" d="M7.48387 3.39535C7.20884 3.39535 6.92862 3.51972 6.71004 3.76986C6.48933 4.02242 6.35484 4.3793 6.35484 4.76486V19.2351C6.35484 19.6207 6.48933 19.9776 6.71004 20.2301C6.92862 20.4803 7.20884 20.6047 7.48387 20.6047H16.5161C16.7912 20.6047 17.0714 20.4803 17.29 20.2301C17.5107 19.9776 17.6452 19.6207 17.6452 19.2351V8.56331H14.7097C14.2661 8.56331 13.8571 8.36099 13.5675 8.02962C13.28 7.70067 13.129 7.26886 13.129 6.83204V3.39535H7.48387ZM14.4839 4.51578L16.8015 7.16796H14.7097C14.6742 7.16796 14.6237 7.15248 14.5745 7.09618C14.5232 7.03746 14.4839 6.94347 14.4839 6.83204V4.51578ZM5.70299 2.83642C6.16196 2.31121 6.8007 2 7.48387 2H13.8065C13.9985 2 14.1815 2.08395 14.31 2.23095L18.8261 7.39891C18.9381 7.52702 19 7.69328 19 7.86563V19.2351C19 19.9461 18.7538 20.6408 18.297 21.1636C17.838 21.6888 17.1993 22 16.5161 22H7.48387C6.8007 22 6.16196 21.6888 5.70299 21.1636C5.24615 20.6408 5 19.9461 5 19.2351V4.76486C5 4.05391 5.24615 3.3592 5.70299 2.83642ZM9.29032 11.3023C9.66445 11.3023 9.96774 11.6147 9.96774 12V17.168C9.96774 17.5533 9.66445 17.8656 9.29032 17.8656C8.91619 17.8656 8.6129 17.5533 8.6129 17.168V12C8.6129 11.6147 8.91619 11.3023 9.29032 11.3023ZM14.7097 13.3695C15.0838 13.3695 15.3871 13.6819 15.3871 14.0672V17.168C15.3871 17.5533 15.0838 17.8656 14.7097 17.8656C14.3355 17.8656 14.0323 17.5533 14.0323 17.168V14.0672C14.0323 13.6819 14.3355 13.3695 14.7097 13.3695ZM12 15.4367C12.3741 15.4367 12.6774 15.7491 12.6774 16.1344V17.168C12.6774 17.5533 12.3741 17.8656 12 17.8656C11.6259 17.8656 11.3226 17.5533 11.3226 17.168V16.1344C11.3226 15.7491 11.6259 15.4367 12 15.4367Z" fill="#151515"/>
</svg>
