<svg width="24" height="24" viewBox="0 0 24 24" fill="none" xmlns="http://www.w3.org/2000/svg">
<path fill-rule="evenodd" clip-rule="evenodd" d="M4.73642 2.74926C5.20794 2.26952 5.84746 2 6.51429 2H13.8286C14.0104 2 14.1848 2.0735 14.3134 2.20434L19.7992 7.78574C19.9278 7.91658 20 8.09404 20 8.27907V19.4419C20 20.1203 19.7351 20.771 19.2636 21.2507C18.7921 21.7305 18.1525 22 17.4857 22H6.51429C5.84746 22 5.20794 21.7305 4.73642 21.2507C4.2649 20.771 4 20.1203 4 19.4419V4.55814C4 3.87968 4.2649 3.22901 4.73642 2.74926ZM6.51429 3.39535C6.21118 3.39535 5.92049 3.51786 5.70616 3.73592C5.49184 3.95399 5.37143 4.24975 5.37143 4.55814V19.4419C5.37143 19.7503 5.49184 20.046 5.70616 20.2641C5.92049 20.4821 6.21118 20.6047 6.51429 20.6047H17.4857C17.7888 20.6047 18.0795 20.4821 18.2938 20.2641C18.5082 20.046 18.6286 19.7503 18.6286 19.4419V8.97674H13.8286C13.4499 8.97674 13.1429 8.66438 13.1429 8.27907V3.39535H6.51429ZM14.5143 4.38201L17.6588 7.5814H14.5143V4.38201ZM7.65714 9.2093C7.65714 8.82399 7.96415 8.51163 8.34286 8.51163H10.1714C10.5501 8.51163 10.8571 8.82399 10.8571 9.2093C10.8571 9.59462 10.5501 9.90698 10.1714 9.90698H8.34286C7.96415 9.90698 7.65714 9.59462 7.65714 9.2093ZM7.65714 12.9302C7.65714 12.5449 7.96415 12.2326 8.34286 12.2326H15.6571C16.0359 12.2326 16.3429 12.5449 16.3429 12.9302C16.3429 13.3155 16.0359 13.6279 15.6571 13.6279H8.34286C7.96415 13.6279 7.65714 13.3155 7.65714 12.9302ZM7.65714 16.6512C7.65714 16.2658 7.96415 15.9535 8.34286 15.9535H15.6571C16.0359 15.9535 16.3429 16.2658 16.3429 16.6512C16.3429 17.0365 16.0359 17.3488 15.6571 17.3488H8.34286C7.96415 17.3488 7.65714 17.0365 7.65714 16.6512Z" fill="#151515"/>
</svg>
