<svg width="24" height="24" viewBox="0 0 24 24" fill="none" xmlns="http://www.w3.org/2000/svg">
<path fill-rule="evenodd" clip-rule="evenodd" d="M6.47019 2.74926C6.94994 2.26952 7.60061 2 8.27907 2H16.6512C16.8362 2 17.0137 2.0735 17.1445 2.20434L21.7957 6.85551C21.9265 6.98635 22 7.1638 22 7.34884V19.4419C22 20.1203 21.7305 20.771 21.2507 21.2507C20.771 21.7305 20.1203 22 19.4419 22H8.27907C7.60061 22 6.94994 21.7305 6.47019 21.2507C5.99045 20.771 5.72093 20.1203 5.72093 19.4419V17.4029H7.11628V19.4419C7.11628 19.7503 7.23879 20.046 7.45685 20.2641C7.67492 20.4821 7.97068 20.6047 8.27907 20.6047H19.4419C19.7503 20.6047 20.046 20.4821 20.2641 20.2641C20.4821 20.046 20.6047 19.7503 20.6047 19.4419V8.04651H16.6512C16.2658 8.04651 15.9535 7.73415 15.9535 7.34884V3.39535H8.27907C7.97068 3.39535 7.67492 3.51786 7.45685 3.73592C7.23879 3.95399 7.11628 4.24975 7.11628 4.55814V8.51163H16.186C17.342 8.51163 18.2791 9.44871 18.2791 10.6047V15.2558C18.2791 16.4118 17.342 17.3488 16.186 17.3488H4.09302C2.93708 17.3488 2 16.4118 2 15.2558V10.6047C2 9.44871 2.93708 8.51163 4.09302 8.51163H5.72093V4.55814C5.72093 3.87968 5.99045 3.22901 6.47019 2.74926ZM17.3488 4.38201L19.618 6.65116H17.3488V4.38201ZM4.09302 9.90698C3.70771 9.90698 3.39535 10.2193 3.39535 10.6047V15.2558C3.39535 15.6411 3.70771 15.9535 4.09302 15.9535H16.186C16.5714 15.9535 16.8837 15.6411 16.8837 15.2558V10.6047C16.8837 10.2193 16.5714 9.90698 16.186 9.90698H4.09302Z" fill="#151515"/>
<path d="M5.95349 14.5491V11.3113H8.14917V11.8201H6.52012V12.6666H7.95557V13.1523H6.52012V14.0403H8.17278V14.5491H5.95349Z" fill="#151515"/>
<path d="M8.96967 14.5491V11.3113H10.2351C10.4618 11.3113 10.6617 11.3576 10.8348 11.4501C11.0111 11.5395 11.1496 11.6659 11.2503 11.8294C11.3511 11.9928 11.4014 12.1824 11.4014 12.3983C11.4014 12.608 11.3511 12.793 11.2503 12.9534C11.1496 13.1137 11.0111 13.2386 10.8348 13.328C10.6617 13.4174 10.4618 13.4622 10.2351 13.4622H9.5363V14.5491H8.96967ZM10.1879 11.8201H9.5363V12.9765H10.1879C10.3736 12.9765 10.5232 12.9241 10.6365 12.8192C10.753 12.7144 10.8112 12.5741 10.8112 12.3983C10.8112 12.2225 10.753 12.0822 10.6365 11.9774C10.5232 11.8725 10.3736 11.8201 10.1879 11.8201Z" fill="#151515"/>
<path d="M11.7994 14.1606L12.1488 13.7628C12.2684 13.8615 12.4069 13.9432 12.5643 14.008C12.7249 14.0727 12.8996 14.1051 13.0884 14.1051C13.3308 14.1051 13.504 14.0666 13.6079 13.9895C13.7117 13.9093 13.7637 13.8137 13.7637 13.7027C13.7637 13.6287 13.7448 13.5624 13.707 13.5038C13.6692 13.4452 13.5984 13.3897 13.4945 13.3373C13.3938 13.2849 13.2474 13.234 13.0554 13.1846C12.7721 13.1106 12.5486 13.0243 12.3849 12.9256C12.2212 12.8238 12.1047 12.7113 12.0355 12.5879C11.9662 12.4646 11.9316 12.3305 11.9316 12.1855C11.9316 12.0159 11.9804 11.8617 12.078 11.723C12.1755 11.5811 12.3109 11.4686 12.484 11.3853C12.6572 11.299 12.8571 11.2558 13.0837 11.2558C13.3198 11.2558 13.5244 11.2882 13.6976 11.3529C13.8707 11.4177 14.0313 11.504 14.1792 11.612L13.8345 12.0098C13.7369 11.9358 13.6252 11.8741 13.4993 11.8247C13.3765 11.7754 13.2411 11.7507 13.0932 11.7507C12.8886 11.7507 12.7375 11.7939 12.6399 11.8803C12.5423 11.9635 12.4935 12.0529 12.4935 12.1485C12.4935 12.2195 12.514 12.2842 12.5549 12.3428C12.5989 12.4014 12.6729 12.4569 12.7768 12.5093C12.8838 12.5587 13.0318 12.608 13.2207 12.6573C13.6299 12.7622 13.9164 12.8994 14.08 13.069C14.2437 13.2355 14.3256 13.4329 14.3256 13.6611C14.3256 13.8368 14.2752 13.9956 14.1745 14.1375C14.0737 14.2793 13.9289 14.3934 13.7401 14.4798C13.5543 14.563 13.3308 14.6047 13.0696 14.6047C12.8335 14.6047 12.6068 14.5661 12.3896 14.489C12.1724 14.4088 11.9757 14.2994 11.7994 14.1606Z" fill="#151515"/>
</svg>
