<svg width="24" height="24" viewBox="0 0 24 24" fill="none" xmlns="http://www.w3.org/2000/svg">
<path d="M5.48837 14.5491V11.3113H6.4502C6.68502 11.3113 6.90026 11.3514 7.09594 11.4316C7.29463 11.5118 7.46472 11.6243 7.60621 11.7692C7.75071 11.9142 7.86209 12.0853 7.94037 12.2827C8.02165 12.48 8.06229 12.6959 8.06229 12.9302C8.06229 13.1646 8.02165 13.3804 7.94037 13.5778C7.86209 13.7752 7.75071 13.9463 7.60621 14.0912C7.46472 14.2362 7.29463 14.3487 7.09594 14.4289C6.90026 14.5091 6.68502 14.5491 6.4502 14.5491H5.48837ZM6.42763 11.8201H6.03025V14.0403H6.42763C6.64739 14.0403 6.83704 13.9925 6.9966 13.897C7.15615 13.7983 7.27958 13.6657 7.36688 13.4992C7.45418 13.3326 7.49783 13.143 7.49783 12.9302C7.49783 12.7175 7.45418 12.5278 7.36688 12.3613C7.27958 12.1917 7.15615 12.0591 6.9966 11.9635C6.83704 11.8679 6.64739 11.8201 6.42763 11.8201Z" fill="#151515"/>
<path d="M8.57531 12.9302C8.57531 12.6897 8.61143 12.4677 8.68368 12.2642C8.75894 12.0606 8.86431 11.8833 8.99978 11.7322C9.13525 11.5811 9.29329 11.464 9.47392 11.3807C9.65755 11.2974 9.85775 11.2558 10.0745 11.2558C10.2912 11.2558 10.4899 11.2974 10.6706 11.3807C10.8542 11.464 11.0138 11.5811 11.1492 11.7322C11.2847 11.8833 11.3886 12.0606 11.4608 12.2642C11.5361 12.4677 11.5737 12.6897 11.5737 12.9302C11.5737 13.1708 11.5361 13.3928 11.4608 13.5963C11.3886 13.7998 11.2847 13.9771 11.1492 14.1282C11.0138 14.2793 10.8542 14.3965 10.6706 14.4798C10.4899 14.563 10.2912 14.6047 10.0745 14.6047C9.85775 14.6047 9.65755 14.563 9.47392 14.4798C9.29329 14.3965 9.13525 14.2793 8.99978 14.1282C8.86431 13.9771 8.75894 13.7998 8.68368 13.5963C8.61143 13.3928 8.57531 13.1708 8.57531 12.9302ZM9.13976 12.9302C9.13976 13.1523 9.1789 13.3511 9.25717 13.5269C9.33845 13.6996 9.44833 13.8353 9.58681 13.934C9.7283 14.0326 9.89086 14.082 10.0745 14.082C10.2581 14.082 10.4192 14.0326 10.5577 13.934C10.6992 13.8353 10.809 13.6996 10.8873 13.5269C10.9686 13.3511 11.0092 13.1523 11.0092 12.9302C11.0092 12.7082 10.9686 12.5109 10.8873 12.3382C10.809 12.1624 10.6992 12.0252 10.5577 11.9265C10.4192 11.8278 10.2581 11.7785 10.0745 11.7785C9.89086 11.7785 9.7283 11.8278 9.58681 11.9265C9.44833 12.0252 9.33845 12.1624 9.25717 12.3382C9.1789 12.5109 9.13976 12.7082 9.13976 12.9302Z" fill="#151515"/>
<path d="M12.0903 12.9302C12.0903 12.6928 12.128 12.4723 12.2032 12.2688C12.2815 12.0653 12.3884 11.888 12.5238 11.7369C12.6623 11.5858 12.8249 11.4686 13.0115 11.3853C13.2012 11.299 13.4059 11.2558 13.6257 11.2558C13.8785 11.2558 14.1028 11.3067 14.2985 11.4085C14.4972 11.5071 14.6537 11.6428 14.7681 11.8155L14.3256 12.1393C14.2503 12.019 14.1495 11.9296 14.023 11.871C13.8996 11.8093 13.7672 11.7785 13.6257 11.7785C13.439 11.7785 13.2719 11.8278 13.1244 11.9265C12.9769 12.0252 12.861 12.1609 12.7767 12.3335C12.6954 12.5062 12.6548 12.7051 12.6548 12.9302C12.6548 13.1523 12.6954 13.3511 12.7767 13.5269C12.861 13.6996 12.9769 13.8353 13.1244 13.934C13.2719 14.0326 13.439 14.082 13.6257 14.082C13.7702 14.082 13.9071 14.0511 14.0366 13.9895C14.169 13.9278 14.2729 13.8384 14.3482 13.7212L14.7907 14.045C14.6793 14.2053 14.5213 14.3395 14.3166 14.4474C14.1149 14.5522 13.8846 14.6047 13.6257 14.6047C13.4059 14.6047 13.2012 14.563 13.0115 14.4798C12.8249 14.3934 12.6623 14.2747 12.5238 14.1236C12.3884 13.9725 12.2815 13.7952 12.2032 13.5917C12.128 13.3882 12.0903 13.1677 12.0903 12.9302Z" fill="#151515"/>
<path fill-rule="evenodd" clip-rule="evenodd" d="M6.47019 2.74926C6.94994 2.26952 7.60061 2 8.27907 2H16.6512C16.8362 2 17.0137 2.0735 17.1445 2.20434L21.7957 6.85551C21.9265 6.98635 22 7.1638 22 7.34884V19.4419C22 20.1203 21.7305 20.771 21.2507 21.2507C20.771 21.7305 20.1203 22 19.4419 22H8.27907C7.60061 22 6.94994 21.7305 6.47019 21.2507C5.99045 20.771 5.72093 20.1203 5.72093 19.4419V17.3488H4.09302C2.93708 17.3488 2 16.4118 2 15.2558V10.6047C2 9.44871 2.93708 8.51163 4.09302 8.51163H16.186C17.342 8.51163 18.2791 9.44871 18.2791 10.6047V15.2558C18.2791 16.4118 17.342 17.3488 16.186 17.3488H7.11628V19.4419C7.11628 19.7503 7.23879 20.046 7.45685 20.2641C7.67492 20.4821 7.97068 20.6047 8.27907 20.6047H19.4419C19.7503 20.6047 20.046 20.4821 20.2641 20.2641C20.4821 20.046 20.6047 19.7503 20.6047 19.4419V8.04651H16.6512C16.2658 8.04651 15.9535 7.73415 15.9535 7.34884V3.39535H8.27907C7.97068 3.39535 7.67492 3.51786 7.45685 3.73592C7.23879 3.95399 7.11628 4.24975 7.11628 4.55814V8.36448H5.72093V4.55814C5.72093 3.87968 5.99045 3.22901 6.47019 2.74926ZM17.3488 4.38201L19.618 6.65116H17.3488V4.38201ZM4.09302 9.90698C3.70771 9.90698 3.39535 10.2193 3.39535 10.6047V15.2558C3.39535 15.6411 3.70771 15.9535 4.09302 15.9535H16.186C16.5714 15.9535 16.8837 15.6411 16.8837 15.2558V10.6047C16.8837 10.2193 16.5714 9.90698 16.186 9.90698H4.09302Z" fill="#151515"/>
</svg>
