<svg width="24" height="24" viewBox="0 0 24 24" fill="none" xmlns="http://www.w3.org/2000/svg">
<path fill-rule="evenodd" clip-rule="evenodd" d="M6.47019 2.74926C6.94994 2.26952 7.60061 2 8.27907 2H16.6512C16.8362 2 17.0137 2.0735 17.1445 2.20434L21.7957 6.85551C21.9265 6.98635 22 7.1638 22 7.34884V19.4419C22 20.1203 21.7305 20.771 21.2507 21.2507C20.771 21.7305 20.1203 22 19.4419 22H8.27907C7.60061 22 6.94994 21.7305 6.47019 21.2507C5.99045 20.771 5.72093 20.1203 5.72093 19.4419V17.3488H7.11628V19.4419C7.11628 19.7503 7.23879 20.046 7.45685 20.2641C7.67492 20.4821 7.97068 20.6047 8.27907 20.6047H19.4419C19.7503 20.6047 20.046 20.4821 20.2641 20.2641C20.4821 20.046 20.6047 19.7503 20.6047 19.4419V8.04651H16.6512C16.2658 8.04651 15.9535 7.73415 15.9535 7.34884V3.39535H8.27907C7.97068 3.39535 7.67492 3.51786 7.45685 3.73592C7.23879 3.95399 7.11628 4.24975 7.11628 4.55814V8.51163H16.186C17.342 8.51163 18.2791 9.44871 18.2791 10.6047V15.2558C18.2791 16.4118 17.342 17.3488 16.186 17.3488C11.4634 17.3488 8.81564 17.3488 4.09302 17.3488C2.93708 17.3488 2 16.4118 2 15.2558V10.6047C2 9.44871 2.93708 8.51163 4.09302 8.51163H5.72093V4.55814C5.72093 3.87968 5.99045 3.22901 6.47019 2.74926ZM17.3488 4.38201L19.618 6.65116H17.3488V4.38201ZM4.09302 9.90698C3.70771 9.90698 3.39535 10.2193 3.39535 10.6047V15.2558C3.39535 15.6411 3.70771 15.9535 4.09302 15.9535H16.186C16.5714 15.9535 16.8837 15.6411 16.8837 15.2558V10.6047C16.8837 10.2193 16.5714 9.90698 16.186 9.90698H4.09302Z" fill="#151515"/>
<path d="M7.80875 14.6046V11.782H6.88372V11.2558H9.28878V11.782H8.36376V14.6046H7.80875Z" fill="#151515"/>
<path d="M9.86031 14.6046V11.2558H10.4153V14.6046H9.86031Z" fill="#151515"/>
<path d="M11.3603 14.6046V11.2558H13.3953V11.782H11.9153V12.7532H13.2057V13.2555H11.9153V14.6046H11.3603Z" fill="#151515"/>
</svg>
