<svg width="24" height="24" viewBox="0 0 24 24" fill="none" xmlns="http://www.w3.org/2000/svg">
<path fill-rule="evenodd" clip-rule="evenodd" d="M4.72558 3.39535C3.99091 3.39535 3.39535 3.99091 3.39535 4.72558V6.65116H6.65116V3.39535H4.72558ZM4.72558 2C3.22028 2 2 3.22028 2 4.72558V19.2744C2 20.7797 3.22028 22 4.72558 22H19.2744C20.7797 22 22 20.7797 22 19.2744V4.72558C22 3.22028 20.7797 2 19.2744 2H4.72558ZM8.04651 3.39535V11.3023H15.9535V3.39535H8.04651ZM17.3488 3.39535V6.65116H20.6047V4.72558C20.6047 3.99091 20.0091 3.39535 19.2744 3.39535H17.3488ZM20.6047 8.04651H17.3488V11.3023H20.6047V8.04651ZM20.6047 12.6977H17.3488V15.9535H20.6047V12.6977ZM20.6047 17.3488H17.3488V20.6047H19.2744C20.0091 20.6047 20.6047 20.0091 20.6047 19.2744V17.3488ZM15.9535 20.6047V12.6977H8.04651V20.6047H15.9535ZM6.65116 20.6047V17.3488H3.39535V19.2744C3.39535 20.0091 3.99091 20.6047 4.72558 20.6047H6.65116ZM3.39535 15.9535H6.65116V12.6977H3.39535V15.9535ZM3.39535 11.3023H6.65116V8.04651H3.39535V11.3023Z" fill="#151515"/>
</svg>
