<svg width="24" height="24" viewBox="0 0 24 24" fill="none" xmlns="http://www.w3.org/2000/svg">
<path fill-rule="evenodd" clip-rule="evenodd" d="M2.06481 3.40093C2.17913 3.15643 2.42606 3 2.69768 3H21.3023C21.5739 3 21.8209 3.15643 21.9352 3.40093C22.0495 3.64543 22.0104 3.93354 21.835 4.13935L14.5581 12.6781V20.3077C14.5581 20.5476 14.4329 20.7705 14.2273 20.8966C14.0216 21.0227 13.7647 21.0342 13.5485 20.9269L9.82753 19.0808C9.59117 18.9635 9.44186 18.7238 9.44186 18.4615V12.6781L2.16496 4.13935C1.98957 3.93354 1.95049 3.64543 2.06481 3.40093ZM4.20138 4.38462L10.6723 11.9776C10.7788 12.1026 10.8372 12.2609 10.8372 12.4246V18.0337L13.1628 19.1875V12.4246C13.1628 12.2609 13.2212 12.1026 13.3277 11.9776L19.7986 4.38462H4.20138Z" fill="#151515"/>
</svg>
