<svg width="24" height="24" viewBox="0 0 24 24" fill="none" xmlns="http://www.w3.org/2000/svg">
<path fill-rule="evenodd" clip-rule="evenodd" d="M5.23105 2.51502C5.89222 2.24593 6.89414 2 8.34286 2C9.8468 2 11.0946 2.50792 12.2148 2.9639L12.2547 2.98013C13.4099 3.4503 14.4361 3.86047 15.6571 3.86047C16.9513 3.86047 17.7779 3.64128 18.2596 3.44525C18.5011 3.34698 18.659 3.25329 18.7482 3.19276C18.793 3.1624 18.8209 3.1401 18.8337 3.12932C18.837 3.12656 18.8393 3.12455 18.8407 3.12334C19.0367 2.93283 19.3253 2.87741 19.5767 2.98334C19.8329 3.09133 20 3.34572 20 3.62791V14.7907C20 14.9757 19.9278 15.1532 19.7992 15.284L19.3143 14.7907C19.7992 15.284 19.7988 15.2844 19.7984 15.2848L19.7977 15.2855L19.7961 15.2871L19.7927 15.2905L19.7849 15.2982C19.7791 15.3038 19.7724 15.3102 19.7646 15.3174C19.7491 15.3317 19.7295 15.3492 19.7056 15.3692C19.6577 15.4093 19.5928 15.4597 19.5089 15.5165C19.341 15.6304 19.0989 15.7693 18.769 15.9036C18.1078 16.1727 17.1059 16.4186 15.6571 16.4186C14.1532 16.4186 12.9054 15.9107 11.7852 15.4547L11.7453 15.4385C10.5901 14.9683 9.5639 14.5581 8.34286 14.5581C7.04872 14.5581 6.22207 14.7773 5.74038 14.9734C5.58347 15.0372 5.46185 15.0991 5.37143 15.1513V21.3023C5.37143 21.6876 5.06442 22 4.68571 22C4.307 22 4 21.6876 4 21.3023V3.62791C4 3.44287 4.07224 3.26542 4.20084 3.13458L4.68571 3.62791C4.20084 3.13458 4.2012 3.13421 4.20156 3.13384L4.20231 3.13309L4.20386 3.13152L4.20725 3.12813L4.21513 3.1204C4.22088 3.11482 4.22763 3.1084 4.23539 3.10122C4.25092 3.08686 4.27053 3.06942 4.29444 3.04938C4.34229 3.00929 4.40724 2.95892 4.49106 2.90206C4.65896 2.78817 4.90107 2.64931 5.23105 2.51502ZM5.37143 3.9885V13.623C6.03127 13.3763 6.99316 13.1628 8.34286 13.1628C9.8468 13.1628 11.0946 13.6707 12.2148 14.1267L12.2547 14.1429C13.4099 14.6131 14.4361 15.0233 15.6571 15.0233C16.9513 15.0233 17.7779 14.8041 18.2596 14.608C18.4165 14.5442 18.5381 14.4823 18.6286 14.4301V4.79558C17.9687 5.04235 17.0068 5.25581 15.6571 5.25581C14.1532 5.25581 12.9054 4.74789 11.7852 4.29191L11.7453 4.27568C10.5901 3.80552 9.5639 3.39535 8.34286 3.39535C7.04872 3.39535 6.22207 3.61453 5.74038 3.81057C5.58347 3.87442 5.46185 3.93635 5.37143 3.9885Z" fill="#151515"/>
</svg>
