<svg width="24" height="24" viewBox="0 0 24 24" fill="none" xmlns="http://www.w3.org/2000/svg">
<path fill-rule="evenodd" clip-rule="evenodd" d="M4.55814 4.38462C4.24975 4.38462 3.95399 4.50618 3.73592 4.72257C3.51786 4.93896 3.39535 5.23244 3.39535 5.53846V18.4615C3.39535 18.7676 3.51786 19.061 3.73592 19.2774C3.95399 19.4938 4.24975 19.6154 4.55814 19.6154H19.4419C19.7503 19.6154 20.046 19.4938 20.2641 19.2774C20.4821 19.061 20.6047 18.7676 20.6047 18.4615V8.30769C20.6047 8.00167 20.4821 7.70819 20.2641 7.4918C20.046 7.27541 19.7503 7.15385 19.4419 7.15385H11.0698C10.8365 7.15385 10.6187 7.03816 10.4893 6.84556L8.83592 4.38462H4.55814ZM2.74926 3.7435C3.22901 3.26744 3.87968 3 4.55814 3H9.2093C9.44257 3 9.66041 3.11569 9.7898 3.30828L11.4432 5.76923H19.4419C20.1203 5.76923 20.771 6.03667 21.2507 6.51273C21.7305 6.98878 22 7.63445 22 8.30769V18.4615C22 19.1348 21.7305 19.7804 21.2507 20.2565C20.771 20.7326 20.1203 21 19.4419 21H4.55814C3.87968 21 3.22901 20.7326 2.74926 20.2565C2.26952 19.7804 2 19.1348 2 18.4615V5.53846C2 4.86522 2.26952 4.21955 2.74926 3.7435ZM8.51163 13.8462C8.51163 13.4638 8.82399 13.1538 9.2093 13.1538H14.7907C15.176 13.1538 15.4884 13.4638 15.4884 13.8462C15.4884 14.2285 15.176 14.5385 14.7907 14.5385H9.2093C8.82399 14.5385 8.51163 14.2285 8.51163 13.8462Z" fill="#151515"/>
</svg>
