<svg width="24" height="24" viewBox="0 0 24 24" fill="none" xmlns="http://www.w3.org/2000/svg">
<path fill-rule="evenodd" clip-rule="evenodd" d="M4.43882 3.07614C4.70705 2.94768 5.02544 2.9838 5.25783 3.16904L15.5804 11.3976C15.7641 11.544 15.871 11.7656 15.871 12C15.871 12.2343 15.7641 12.456 15.5804 12.6024L5.25783 20.8309C5.02544 21.0162 4.70705 21.0523 4.43882 20.9238C4.17059 20.7954 4 20.5251 4 20.2286V3.77143C4 3.47489 4.17059 3.2046 4.43882 3.07614ZM5.54839 5.37648V18.6235L13.8575 12L5.54839 5.37648ZM19.2258 4.02857C19.6534 4.02857 20 4.37395 20 4.8V19.2C20 19.626 19.6534 19.9714 19.2258 19.9714C18.7982 19.9714 18.4516 19.626 18.4516 19.2V4.8C18.4516 4.37395 18.7982 4.02857 19.2258 4.02857Z" fill="#151515"/>
</svg>
