<svg width="24" height="24" viewBox="0 0 24 24" fill="none" xmlns="http://www.w3.org/2000/svg">
<path fill-rule="evenodd" clip-rule="evenodd" d="M12 3.39535C7.24778 3.39535 3.39535 7.24778 3.39535 12C3.39535 16.7522 7.24778 20.6047 12 20.6047C16.7522 20.6047 20.6047 16.7522 20.6047 12C20.6047 7.24778 16.7522 3.39535 12 3.39535ZM2 12C2 6.47715 6.47715 2 12 2C17.5228 2 22 6.47715 22 12C22 17.5228 17.5228 22 12 22C6.47715 22 2 17.5228 2 12ZM8.51163 9.2093C8.51163 8.82399 8.82399 8.51163 9.2093 8.51163H9.21861C9.60392 8.51163 9.91628 8.82399 9.91628 9.2093C9.91628 9.59462 9.60392 9.90698 9.21861 9.90698H9.2093C8.82399 9.90698 8.51163 9.59462 8.51163 9.2093ZM14.093 9.2093C14.093 8.82399 14.4054 8.51163 14.7907 8.51163H14.8C15.1853 8.51163 15.4977 8.82399 15.4977 9.2093C15.4977 9.59462 15.1853 9.90698 14.8 9.90698H14.7907C14.4054 9.90698 14.093 9.59462 14.093 9.2093ZM8.85709 14.2265C9.57367 13.7053 10.645 13.1628 12 13.1628C12.9036 13.1628 14.9845 13.5763 16.2791 15.3023C16.5103 15.6106 16.4478 16.0479 16.1395 16.2791C15.8313 16.5103 15.394 16.4478 15.1628 16.1395C14.2248 14.8889 12.6468 14.5581 12 14.5581C11.0294 14.5581 10.2403 14.9459 9.67779 15.3549C9.3979 15.5585 9.1817 15.7621 9.03714 15.913C8.96515 15.9881 8.91177 16.0492 8.87797 16.0895C8.86109 16.1096 8.84917 16.1244 8.84232 16.1331L8.83615 16.1409L8.8369 16.14C8.60563 16.4478 8.16858 16.5102 7.86047 16.2791C7.55221 16.0479 7.48974 15.6106 7.72093 15.3023L7.7225 15.3002L7.72461 15.2975L7.7304 15.2899L7.7483 15.267C7.76303 15.2484 7.78335 15.2232 7.80917 15.1925C7.86076 15.131 7.93456 15.0468 8.02972 14.9475C8.21947 14.7495 8.49745 14.488 8.85709 14.2265Z" fill="#151515"/>
</svg>
