<svg width="24" height="24" viewBox="0 0 24 24" fill="none" xmlns="http://www.w3.org/2000/svg">
<path fill-rule="evenodd" clip-rule="evenodd" d="M7.81395 3.39535C7.38221 3.39535 6.96814 3.56686 6.66285 3.87215C6.35756 4.17744 6.18605 4.59151 6.18605 5.02326C6.18605 5.455 6.35756 5.86907 6.66285 6.17436C6.96814 6.47965 7.38221 6.65116 7.81395 6.65116H11.079C10.9503 6.27258 10.7664 5.81365 10.5166 5.35948C9.9179 4.27094 9.05388 3.39535 7.81395 3.39535ZM11.3023 8.04651V11.3023H3.39535V8.04651H11.3023ZM5.26639 6.65116C4.95817 6.16879 4.7907 5.60466 4.7907 5.02326C4.7907 4.22144 5.10922 3.45246 5.67619 2.88549C6.24316 2.31852 7.01214 2 7.81395 2C9.82984 2 11.0588 3.44999 11.7392 4.68703C11.8345 4.86025 11.9212 5.03299 12 5.20205C12.0788 5.03299 12.1655 4.86025 12.2608 4.68703C12.9412 3.44999 14.1702 2 16.186 2C16.9879 2 17.7568 2.31852 18.3238 2.88549C18.8908 3.45246 19.2093 4.22144 19.2093 5.02326C19.2093 5.60466 19.0418 6.16879 18.7336 6.65116H21.3023C21.6876 6.65116 22 6.96352 22 7.34884V12C22 12.3853 21.6876 12.6977 21.3023 12.6977H20.1395V21.3023C20.1395 21.6876 19.8272 22 19.4419 22H4.55814C4.17282 22 3.86047 21.6876 3.86047 21.3023V12.6977H2.69767C2.31236 12.6977 2 12.3853 2 12V7.34884C2 6.96352 2.31236 6.65116 2.69767 6.65116H5.26639ZM5.25581 12.6977V20.6047H11.3023V12.6977H5.25581ZM12.6977 12.6977V20.6047H18.7442V12.6977H12.6977ZM20.6047 11.3023V8.04651H12.6977V11.3023H20.6047ZM16.186 6.65116C16.6178 6.65116 17.0319 6.47965 17.3372 6.17436C17.6424 5.86907 17.814 5.455 17.814 5.02326C17.814 4.59151 17.6424 4.17744 17.3372 3.87215C17.0319 3.56686 16.6178 3.39535 16.186 3.39535C14.9461 3.39535 14.0821 4.27094 13.4834 5.35948C13.2336 5.81365 13.0497 6.27258 12.921 6.65116H16.186Z" fill="#151515"/>
</svg>
