<svg width="24" height="24" viewBox="0 0 24 24" fill="none" xmlns="http://www.w3.org/2000/svg">
<path fill-rule="evenodd" clip-rule="evenodd" d="M3 3.77143C3 3.34538 3.34538 3 3.77143 3H10.1714C10.5975 3 10.9428 3.34538 10.9428 3.77143V10.1714C10.9428 10.5975 10.5975 10.9428 10.1714 10.9428H3.77143C3.34538 10.9428 3 10.5975 3 10.1714V3.77143ZM4.54285 4.54285V9.39998H9.39998V4.54285H4.54285ZM13.0571 3.77143C13.0571 3.34538 13.4024 3 13.8285 3H20.2285C20.6545 3 20.9999 3.34538 20.9999 3.77143V10.1714C20.9999 10.5975 20.6545 10.9428 20.2285 10.9428H13.8285C13.4024 10.9428 13.0571 10.5975 13.0571 10.1714V3.77143ZM14.5999 4.54285V9.39998H19.457V4.54285H14.5999ZM3 13.8285C3 13.4024 3.34538 13.0571 3.77143 13.0571H10.1714C10.5975 13.0571 10.9428 13.4024 10.9428 13.8285V20.2285C10.9428 20.6545 10.5975 20.9999 10.1714 20.9999H3.77143C3.34538 20.9999 3 20.6545 3 20.2285V13.8285ZM4.54285 14.5999V19.4571H9.39998V14.5999H4.54285ZM13.0572 13.8285C13.0572 13.4024 13.4025 13.0571 13.8286 13.0571H20.2286C20.6546 13.0571 21 13.4024 21 13.8285V20.2285C21 20.6545 20.6546 20.9999 20.2286 20.9999H13.8286C13.4025 20.9999 13.0572 20.6545 13.0572 20.2285V13.8285ZM14.6 14.5999V19.4571H19.4571V14.5999H14.6Z" fill="#151515"/>
</svg>
