<svg width="24" height="24" viewBox="0 0 24 24" fill="none" xmlns="http://www.w3.org/2000/svg">
<path fill-rule="evenodd" clip-rule="evenodd" d="M12 3.53846C9.75586 3.53846 7.60364 4.42994 6.01679 6.01679C4.42994 7.60364 3.53846 9.75586 3.53846 12V13.2821H5.84615C6.5942 13.2821 7.31161 13.5792 7.84056 14.1082C8.36951 14.6371 8.66667 15.3545 8.66667 16.1026V19.1795C8.66667 19.9275 8.36951 20.6449 7.84056 21.1739C7.31161 21.7028 6.5942 22 5.84615 22H4.82051C4.07247 22 3.35506 21.7028 2.82611 21.1739C2.29716 20.6449 2 19.9275 2 19.1795V12C2 9.34784 3.05357 6.8043 4.92893 4.92893C6.8043 3.05357 9.34784 2 12 2C14.6522 2 17.1957 3.05357 19.0711 4.92893C20.9464 6.8043 22 9.34784 22 12V19.1795C22 19.9275 21.7028 20.6449 21.1739 21.1739C20.6449 21.7028 19.9275 22 19.1795 22H18.1538C17.4058 22 16.6884 21.7028 16.1594 21.1739C15.6305 20.6449 15.3333 19.9275 15.3333 19.1795V16.1026C15.3333 15.3545 15.6305 14.6371 16.1594 14.1082C16.6884 13.5792 17.4058 13.2821 18.1538 13.2821H20.4615V12C20.4615 9.75586 19.5701 7.60364 17.9832 6.01679C16.3964 4.42994 14.2441 3.53846 12 3.53846ZM20.4615 14.8205H18.1538C17.8138 14.8205 17.4877 14.9556 17.2473 15.196C17.0069 15.4364 16.8718 15.7625 16.8718 16.1026V19.1795C16.8718 19.5195 17.0069 19.8456 17.2473 20.086C17.4877 20.3265 17.8138 20.4615 18.1538 20.4615H19.1795C19.5195 20.4615 19.8456 20.3265 20.086 20.086C20.3265 19.8456 20.4615 19.5195 20.4615 19.1795V14.8205ZM3.53846 19.1795C3.53846 19.5195 3.67353 19.8456 3.91397 20.086C4.1544 20.3265 4.48049 20.4615 4.82051 20.4615H5.84615C6.18617 20.4615 6.51227 20.3265 6.7527 20.086C6.99313 19.8456 7.12821 19.5195 7.12821 19.1795V16.1026C7.12821 15.7625 6.99313 15.4364 6.7527 15.196C6.51227 14.9556 6.18617 14.8205 5.84615 14.8205H3.53846V19.1795Z" fill="#151515"/>
</svg>
