<svg width="24" height="24" viewBox="0 0 24 24" fill="none" xmlns="http://www.w3.org/2000/svg">
<path fill-rule="evenodd" clip-rule="evenodd" d="M14.2573 3.43751C14.9377 3.14887 15.6677 3 16.4055 3C17.1433 3 17.8733 3.14887 18.5536 3.43751C19.2339 3.72613 19.8505 4.14855 20.3689 4.67955C20.8873 5.2102 21.2974 5.83906 21.5769 6.52967C21.8564 7.22035 22 7.95993 22 8.70634C22 9.45275 21.8564 10.1923 21.5769 10.883C21.2974 11.5737 20.8872 12.2026 20.3687 12.7332L12.5008 20.7895C12.3694 20.924 12.1886 21 11.9998 21C11.8109 21 11.6302 20.924 11.4988 20.7895L3.63079 12.7332C2.58423 11.6616 2 10.2127 2 8.70634C2 7.19994 2.58423 5.75103 3.63079 4.67943C4.67807 3.60709 6.10323 3.00049 7.59405 3.00049C9.08488 3.00049 10.51 3.60709 11.5573 4.67943L11.9998 5.13246L12.4421 4.67955C12.9604 4.14861 13.5771 3.72611 14.2573 3.43751ZM19.3666 5.64291C18.9758 5.24252 18.5129 4.92611 18.005 4.71064C17.4972 4.4952 16.9538 4.38462 16.4055 4.38462C15.8572 4.38462 15.3137 4.4952 14.8059 4.71064C14.298 4.92611 13.8352 5.24252 13.4443 5.64291L12.5008 6.60905C12.3694 6.7436 12.1886 6.81956 11.9998 6.81956C11.8109 6.81956 11.6302 6.7436 11.4988 6.60905L10.5553 5.64303C9.76609 4.83492 8.70043 4.3851 7.59405 4.3851C6.48768 4.3851 5.42201 4.83492 4.6328 5.64303C3.84286 6.45187 3.39535 7.55339 3.39535 8.70634C3.39535 9.85929 3.84286 10.9608 4.6328 11.7697L11.9998 19.3129L19.3667 11.7697C19.7578 11.3694 20.0693 10.8929 20.2821 10.3671C20.4949 9.84117 20.6047 9.27679 20.6047 8.70634C20.6047 8.13589 20.4949 7.57151 20.2821 7.04562C20.0693 6.51977 19.7577 6.04315 19.3666 5.64291Z" fill="#151515"/>
</svg>
