<svg width="24" height="24" viewBox="0 0 24 24" fill="none" xmlns="http://www.w3.org/2000/svg">
<path fill-rule="evenodd" clip-rule="evenodd" d="M12 3.39535C7.24778 3.39535 3.39535 7.24778 3.39535 12C3.39535 16.7522 7.24778 20.6047 12 20.6047C16.7522 20.6047 20.6047 16.7522 20.6047 12C20.6047 7.24778 16.7522 3.39535 12 3.39535ZM2 12C2 6.47715 6.47715 2 12 2C17.5228 2 22 6.47715 22 12C22 17.5228 17.5228 22 12 22C6.47715 22 2 17.5228 2 12ZM12.2794 8.07248C11.7923 7.98892 11.2912 8.08047 10.8651 8.33091C10.4389 8.58136 10.1152 8.97454 9.95116 9.44082C9.8233 9.8043 9.42499 9.99531 9.0615 9.86744C8.69802 9.73958 8.50702 9.34126 8.63488 8.97778C8.90826 8.20065 9.44785 7.54535 10.1581 7.12794C10.8683 6.71053 11.7034 6.55794 12.5153 6.69722C13.3273 6.83649 14.0637 7.25863 14.5943 7.88886C15.1247 8.51894 15.415 9.31637 15.414 10.14C15.4137 11.4403 14.4477 12.3199 13.7079 12.8131C13.3168 13.0738 12.9306 13.2664 12.645 13.3934C12.5012 13.4573 12.3804 13.5056 12.2939 13.5386C12.2506 13.5551 12.2157 13.5678 12.1906 13.5767L12.1606 13.5872L12.1514 13.5904L12.1483 13.5914L12.1471 13.5918C12.1469 13.5919 12.1462 13.5921 11.9256 12.9302L12.1462 13.5921C11.7807 13.714 11.3856 13.5164 11.2637 13.1509C11.142 12.7857 11.339 12.391 11.7039 12.2687C11.704 12.2687 11.7048 12.2684 11.705 12.2684L11.7066 12.2678L11.7232 12.262C11.739 12.2563 11.7641 12.2472 11.7971 12.2347C11.8632 12.2095 11.9605 12.1706 12.0783 12.1183C12.3159 12.0127 12.6274 11.8564 12.9339 11.6521C13.5895 11.215 14.0186 10.6994 14.0186 10.1395L14.0186 10.1385C14.0193 9.64421 13.8451 9.16561 13.5268 8.78747C13.2085 8.40933 12.7666 8.15604 12.2794 8.07248ZM11.3023 16.6512C11.3023 16.2658 11.6147 15.9535 12 15.9535H12.0093C12.3946 15.9535 12.707 16.2658 12.707 16.6512C12.707 17.0365 12.3946 17.3488 12.0093 17.3488H12C11.6147 17.3488 11.3023 17.0365 11.3023 16.6512Z" fill="#151515"/>
</svg>
