<svg width="24" height="24" viewBox="0 0 24 24" fill="none" xmlns="http://www.w3.org/2000/svg">
<path fill-rule="evenodd" clip-rule="evenodd" d="M10.7322 2.34208C11.1178 2.11805 11.555 2.00012 12 2.00012C12.445 2.00012 12.8822 2.11804 13.2677 2.34205C13.2682 2.34234 13.2687 2.34262 13.2692 2.34291L19.7308 6.06455C20.1163 6.2889 20.4365 6.61148 20.6593 6.99994C20.882 7.3884 20.9995 7.82908 21 8.27777V15.7218C20.9995 16.1705 20.882 16.6118 20.6593 17.0003C20.4365 17.3888 20.1163 17.7113 19.7308 17.9357L19.7281 17.9372L13.2692 21.6573C13.2687 21.6576 13.2683 21.6579 13.2678 21.6582C12.8822 21.8822 12.445 22.0001 12 22.0001C11.555 22.0001 11.1177 21.8822 10.7322 21.6582C10.7317 21.6579 10.7312 21.6576 10.7308 21.6573L4.2719 17.9372L4.26923 17.9357C3.88372 17.7113 3.56351 17.3888 3.34074 17.0003C3.11797 16.6118 3.00046 16.1712 3 15.7225L3 8.27848C3.00046 7.82979 3.11797 7.3884 3.34074 6.99994C3.56351 6.61148 3.88372 6.2889 4.26923 6.06455L4.2719 6.063L10.7322 2.34208ZM12 3.39574C11.7975 3.39574 11.5985 3.44948 11.4231 3.55155L11.4204 3.5531L4.96154 7.27319C4.96116 7.27341 4.96078 7.27363 4.96041 7.27385C4.78568 7.3758 4.64054 7.52217 4.5395 7.69837C4.43829 7.87484 4.38488 8.07503 4.38462 8.27886V15.7214C4.38488 15.9252 4.43829 16.1254 4.5395 16.3019C4.64053 16.478 4.78565 16.6244 4.96035 16.7264C4.96075 16.7266 4.96114 16.7268 4.96154 16.7271L11.4231 20.4487C11.5985 20.5508 11.7975 20.6045 12 20.6045C12.2025 20.6045 12.4015 20.5508 12.5769 20.4487L12.5796 20.4471L19.0385 16.7271C19.0389 16.7268 19.0393 16.7266 19.0397 16.7264C19.2144 16.6244 19.3595 16.478 19.4605 16.3019C19.5618 16.1253 19.6152 15.925 19.6154 15.721V8.2792C19.6152 8.07525 19.5618 7.87494 19.4605 7.69837C19.3595 7.52218 19.2143 7.3758 19.0396 7.27386C19.0392 7.27363 19.0388 7.27341 19.0385 7.27319L12.5769 3.55156C12.4015 3.44948 12.2025 3.39574 12 3.39574Z" fill="#151515"/>
</svg>
