<svg width="24" height="24" viewBox="0 0 24 24" fill="none" xmlns="http://www.w3.org/2000/svg">
<path fill-rule="evenodd" clip-rule="evenodd" d="M4.76486 3.39535C4.0085 3.39535 3.39535 4.0085 3.39535 4.76486V19.2351C3.39535 19.9013 3.871 20.4564 4.50122 20.5793L15.641 9.43949C15.7718 9.30865 15.9493 9.23514 16.1343 9.23514C16.3194 9.23514 16.4968 9.30865 16.6276 9.43949L20.6047 13.4165V4.76486C20.6047 4.0085 19.9915 3.39535 19.2351 3.39535H4.76486ZM20.6047 15.3898L16.1343 10.9195L6.44919 20.6047H19.2351C19.9915 20.6047 20.6047 19.9915 20.6047 19.2351V15.3898ZM2 4.76486C2 3.23787 3.23787 2 4.76486 2H19.2351C20.7621 2 22 3.23787 22 4.76486V19.2351C22 20.7621 20.7621 22 19.2351 22H4.76486C3.23787 22 2 20.7621 2 19.2351V4.76486ZM8.74419 8.04651C8.35887 8.04651 8.04651 8.35887 8.04651 8.74419C8.04651 9.1295 8.35887 9.44186 8.74419 9.44186C9.1295 9.44186 9.44186 9.1295 9.44186 8.74419C9.44186 8.35887 9.1295 8.04651 8.74419 8.04651ZM6.65116 8.74419C6.65116 7.58824 7.58824 6.65116 8.74419 6.65116C9.90013 6.65116 10.8372 7.58824 10.8372 8.74419C10.8372 9.90013 9.90013 10.8372 8.74419 10.8372C7.58824 10.8372 6.65116 9.90013 6.65116 8.74419Z" fill="#151515"/>
</svg>
