<svg width="24" height="24" viewBox="0 0 24 24" fill="none" xmlns="http://www.w3.org/2000/svg">
<path fill-rule="evenodd" clip-rule="evenodd" d="M15.0789 3.00024H9.93548C9.50791 3.00024 9.16129 3.34561 9.16129 3.77165C9.16129 4.19769 9.50791 4.54306 9.93548 4.54306H13.9796L8.36671 19.457H4.77419C4.34662 19.457 4 19.8024 4 20.2284C4 20.6544 4.34662 20.9998 4.77419 20.9998H8.88514C8.89715 21.0001 8.90913 21.0001 8.92107 20.9998H14.0645C14.4921 20.9998 14.8387 20.6544 14.8387 20.2284C14.8387 19.8024 14.4921 19.457 14.0645 19.457H10.0204L15.6333 4.54306H19.2258C19.6534 4.54306 20 4.19769 20 3.77165C20 3.34561 19.6534 3.00024 19.2258 3.00024H15.1148C15.1029 2.99996 15.0909 2.99996 15.0789 3.00024Z" fill="#151515"/>
</svg>
