<svg width="24" height="24" viewBox="0 0 24 24" fill="none" xmlns="http://www.w3.org/2000/svg">
<path fill-rule="evenodd" clip-rule="evenodd" d="M20.8506 2.193C21.1294 2.45904 21.1396 2.90067 20.8736 3.17939L19.4666 4.65348L21.807 7.10547C22.0643 7.37507 22.0643 7.79931 21.807 8.0689L18.5401 11.4916C18.4084 11.6295 18.2261 11.7075 18.0354 11.7075C17.8447 11.7075 17.6624 11.6295 17.5307 11.4916L15.2352 9.08659L12.3403 12.1195C12.6822 12.5632 12.9629 13.0552 13.1737 13.581C13.469 14.3174 13.622 15.1067 13.6245 15.9036C13.6271 16.7006 13.4792 17.4908 13.1886 18.2293C12.898 18.9677 12.4701 19.6407 11.9279 20.2087C11.3857 20.7768 10.7398 21.2288 10.0264 21.5368C9.31299 21.845 8.54722 22.0027 7.77349 22C6.99976 21.9973 6.23504 21.8342 5.52367 21.5211C4.81238 21.208 4.16942 20.7516 3.63089 20.1798L3.62579 20.1744C2.56759 19.0265 1.98709 17.4955 2.00022 15.9124C2.01335 14.3293 2.61921 12.8089 3.69664 11.6801C4.77508 10.5503 6.24091 9.90307 7.78047 9.88906C9.08203 9.87721 10.3386 10.3188 11.3591 11.1265L19.8642 2.21596C20.1303 1.93723 20.5719 1.92695 20.8506 2.193ZM18.5021 5.66393L16.1996 8.07614L18.0354 9.9994L20.3378 7.58719L18.5021 5.66393ZM10.9254 12.6096C10.9173 12.6022 10.9094 12.5946 10.9017 12.5867C10.0626 11.7377 8.94568 11.2739 7.79317 11.2843C6.64062 11.2948 5.53124 11.7789 4.70599 12.6435C3.87974 13.5092 3.40578 14.6867 3.39552 15.924C3.38527 17.1601 3.83868 18.3451 4.64917 19.2258C5.0612 19.6626 5.54971 20.008 6.08578 20.244C6.62284 20.4803 7.19798 20.6026 7.77839 20.6046C8.35879 20.6067 8.93466 20.4884 9.47316 20.2559C10.0118 20.0232 10.5033 19.6804 10.9186 19.2453C11.3339 18.8102 11.6646 18.2915 11.8902 17.7183C12.1157 17.1451 12.2312 16.5298 12.2292 15.9081C12.2272 15.2863 12.1078 14.6719 11.8786 14.1003C11.6546 13.5417 11.3304 13.0358 10.9254 12.6096Z" fill="#151515"/>
</svg>
