<svg width="24" height="24" viewBox="0 0 24 24" fill="none" xmlns="http://www.w3.org/2000/svg">
<path fill-rule="evenodd" clip-rule="evenodd" d="M3.68605 7.44444C3.01175 7.44444 2.46512 7.98336 2.46512 8.64815V16.3519C2.46512 17.0166 3.01175 17.5556 3.68605 17.5556H19.314C19.9883 17.5556 20.5349 17.0166 20.5349 16.3519V8.64815C20.5349 7.98336 19.9883 7.44444 19.314 7.44444H3.68605ZM1 8.64815C1 7.18562 2.20258 6 3.68605 6H19.314C20.7974 6 22 7.18562 22 8.64815V16.3519C22 17.8144 20.7974 19 19.314 19H3.68605C2.20258 19 1 17.8144 1 16.3519V8.64815ZM5.63953 9.85185C6.04412 9.85185 6.37209 10.1752 6.37209 10.5741V10.5837C6.37209 10.9826 6.04412 11.3059 5.63953 11.3059C5.23495 11.3059 4.90698 10.9826 4.90698 10.5837V10.5741C4.90698 10.1752 5.23495 9.85185 5.63953 9.85185ZM8.56977 9.85185C8.97435 9.85185 9.30233 10.1752 9.30233 10.5741V10.5837C9.30233 10.9826 8.97435 11.3059 8.56977 11.3059C8.16519 11.3059 7.83721 10.9826 7.83721 10.5837V10.5741C7.83721 10.1752 8.16519 9.85185 8.56977 9.85185ZM11.5 9.85185C11.9046 9.85185 12.2326 10.1752 12.2326 10.5741V10.5837C12.2326 10.9826 11.9046 11.3059 11.5 11.3059C11.0954 11.3059 10.7674 10.9826 10.7674 10.5837V10.5741C10.7674 10.1752 11.0954 9.85185 11.5 9.85185ZM14.4302 9.85185C14.8348 9.85185 15.1628 10.1752 15.1628 10.5741V10.5837C15.1628 10.9826 14.8348 11.3059 14.4302 11.3059C14.0257 11.3059 13.6977 10.9826 13.6977 10.5837V10.5741C13.6977 10.1752 14.0257 9.85185 14.4302 9.85185ZM17.3605 9.85185C17.765 9.85185 18.093 10.1752 18.093 10.5741V10.5837C18.093 10.9826 17.765 11.3059 17.3605 11.3059C16.9559 11.3059 16.6279 10.9826 16.6279 10.5837V10.5741C16.6279 10.1752 16.9559 9.85185 17.3605 9.85185ZM5.63953 13.7037C6.04412 13.7037 6.37209 14.0271 6.37209 14.4259V14.4356C6.37209 14.8344 6.04412 15.1578 5.63953 15.1578C5.23495 15.1578 4.90698 14.8344 4.90698 14.4356V14.4259C4.90698 14.0271 5.23495 13.7037 5.63953 13.7037ZM8.81395 14.4259C8.81395 14.0271 9.14193 13.7037 9.54651 13.7037H13.4535C13.8581 13.7037 14.186 14.0271 14.186 14.4259C14.186 14.8248 13.8581 15.1481 13.4535 15.1481H9.54651C9.14193 15.1481 8.81395 14.8248 8.81395 14.4259ZM17.3605 13.7037C17.765 13.7037 18.093 14.0271 18.093 14.4259V14.4356C18.093 14.8344 17.765 15.1578 17.3605 15.1578C16.9559 15.1578 16.6279 14.8344 16.6279 14.4356V14.4259C16.6279 14.0271 16.9559 13.7037 17.3605 13.7037Z" fill="#151515"/>
</svg>
