<svg width="24" height="24" viewBox="0 0 24 24" fill="none" xmlns="http://www.w3.org/2000/svg">
<path fill-rule="evenodd" clip-rule="evenodd" d="M3.68605 4.46154C3.01175 4.46154 2.46512 5.00683 2.46512 5.67949V13.4744C2.46512 14.147 3.01175 14.6923 3.68605 14.6923H19.314C19.9883 14.6923 20.5349 14.147 20.5349 13.4744V5.67949C20.5349 5.00683 19.9883 4.46154 19.314 4.46154H3.68605ZM1 5.67949C1 4.19965 2.20258 3 3.68605 3H19.314C20.7974 3 22 4.19965 22 5.67949V13.4744C22 14.9542 20.7974 16.1538 19.314 16.1538H3.68605C2.20258 16.1538 1 14.9542 1 13.4744V5.67949ZM5.63953 6.89744C6.04412 6.89744 6.37209 7.22461 6.37209 7.62821V7.63795C6.37209 8.04154 6.04412 8.36872 5.63953 8.36872C5.23495 8.36872 4.90698 8.04154 4.90698 7.63795V7.62821C4.90698 7.22461 5.23495 6.89744 5.63953 6.89744ZM8.56977 6.89744C8.97435 6.89744 9.30233 7.22461 9.30233 7.62821V7.63795C9.30233 8.04154 8.97435 8.36872 8.56977 8.36872C8.16519 8.36872 7.83721 8.04154 7.83721 7.63795V7.62821C7.83721 7.22461 8.16519 6.89744 8.56977 6.89744ZM11.5 6.89744C11.9046 6.89744 12.2326 7.22461 12.2326 7.62821V7.63795C12.2326 8.04154 11.9046 8.36872 11.5 8.36872C11.0954 8.36872 10.7674 8.04154 10.7674 7.63795V7.62821C10.7674 7.22461 11.0954 6.89744 11.5 6.89744ZM14.4302 6.89744C14.8348 6.89744 15.1628 7.22461 15.1628 7.62821V7.63795C15.1628 8.04154 14.8348 8.36872 14.4302 8.36872C14.0257 8.36872 13.6977 8.04154 13.6977 7.63795V7.62821C13.6977 7.22461 14.0257 6.89744 14.4302 6.89744ZM17.3605 6.89744C17.765 6.89744 18.093 7.22461 18.093 7.62821V7.63795C18.093 8.04154 17.765 8.36872 17.3605 8.36872C16.9559 8.36872 16.6279 8.04154 16.6279 7.63795V7.62821C16.6279 7.22461 16.9559 6.89744 17.3605 6.89744ZM5.63953 10.7949C6.04412 10.7949 6.37209 11.122 6.37209 11.5256V11.5354C6.37209 11.939 6.04412 12.2662 5.63953 12.2662C5.23495 12.2662 4.90698 11.939 4.90698 11.5354V11.5256C4.90698 11.122 5.23495 10.7949 5.63953 10.7949ZM8.81395 11.5256C8.81395 11.122 9.14193 10.7949 9.54651 10.7949H13.4535C13.8581 10.7949 14.186 11.122 14.186 11.5256C14.186 11.9292 13.8581 12.2564 13.4535 12.2564H9.54651C9.14193 12.2564 8.81395 11.9292 8.81395 11.5256ZM17.3605 10.7949C17.765 10.7949 18.093 11.122 18.093 11.5256V11.5354C18.093 11.939 17.765 12.2662 17.3605 12.2662C16.9559 12.2662 16.6279 11.939 16.6279 11.5354V11.5256C16.6279 11.122 16.9559 10.7949 17.3605 10.7949ZM9.02851 19.8372C8.74243 19.5519 8.74243 19.0892 9.02851 18.8038C9.3146 18.5184 9.77843 18.5184 10.0645 18.8038L11.5 20.2358L12.9355 18.8038C13.2216 18.5184 13.6854 18.5184 13.9715 18.8038C14.2576 19.0892 14.2576 19.5519 13.9715 19.8372L12.018 21.786C11.7319 22.0713 11.2681 22.0713 10.982 21.786L9.02851 19.8372Z" fill="#151515"/>
</svg>
