<svg width="24" height="24" viewBox="0 0 24 24" fill="none" xmlns="http://www.w3.org/2000/svg">
<path fill-rule="evenodd" clip-rule="evenodd" d="M11.688 2.07365C11.8844 1.97545 12.1156 1.97545 12.312 2.07365L21.6142 6.72475C21.8505 6.84292 21.9998 7.0845 21.9998 7.34876C21.9998 7.61301 21.8505 7.85459 21.6142 7.97276L12.312 12.6239C12.1156 12.7221 11.8844 12.7221 11.688 12.6239L2.38581 7.97276C2.14945 7.85459 2.00015 7.61301 2.00015 7.34876C2.00015 7.0845 2.14945 6.84292 2.38581 6.72475L11.688 2.07365ZM4.25784 7.34876L12 11.2198L19.7422 7.34876L12 3.47768L4.25784 7.34876ZM2.07381 11.6878C2.24612 11.3432 2.66519 11.2035 3.00982 11.3758L12 15.8709L20.9902 11.3758C21.3348 11.2035 21.7539 11.3432 21.9262 11.6878C22.0985 12.0325 21.9588 12.4515 21.6142 12.6239L12.312 17.2749C12.1156 17.3732 11.8844 17.3732 11.688 17.2749L2.38581 12.6239C2.04118 12.4515 1.90149 12.0325 2.07381 11.6878ZM2.07381 16.3389C2.24612 15.9943 2.66519 15.8546 3.00982 16.0269L12 20.522L20.9902 16.0269C21.3348 15.8546 21.7539 15.9943 21.9262 16.3389C22.0985 16.6836 21.9588 17.1026 21.6142 17.2749L12.312 21.926C12.1156 22.0242 11.8844 22.0242 11.688 21.926L2.38581 17.2749C2.04118 17.1026 1.90149 16.6836 2.07381 16.3389Z" fill="#151515"/>
</svg>
