<svg width="24" height="24" viewBox="0 0 24 24" fill="none" xmlns="http://www.w3.org/2000/svg">
<path fill-rule="evenodd" clip-rule="evenodd" d="M5.82857 4.54286C5.11849 4.54286 4.54286 5.11849 4.54286 5.82857V6.85714C4.54286 7.56722 5.11849 8.14286 5.82857 8.14286H7.88571C8.59579 8.14286 9.17143 7.56722 9.17143 6.85714V5.82857C9.17143 5.11849 8.59579 4.54286 7.88571 4.54286H5.82857ZM3 5.82857C3 4.26639 4.26639 3 5.82857 3H7.88571C9.44789 3 10.7143 4.26639 10.7143 5.82857V6.85714C10.7143 8.41932 9.44789 9.68571 7.88571 9.68571H5.82857C4.26639 9.68571 3 8.41932 3 6.85714V5.82857ZM16.1143 4.54286C15.4042 4.54286 14.8286 5.11849 14.8286 5.82857V8.91429C14.8286 9.62437 15.4042 10.2 16.1143 10.2H18.1714C18.8815 10.2 19.4571 9.62437 19.4571 8.91429V5.82857C19.4571 5.11849 18.8815 4.54286 18.1714 4.54286H16.1143ZM13.2857 5.82857C13.2857 4.26639 14.5521 3 16.1143 3H18.1714C19.7336 3 21 4.26639 21 5.82857V8.91429C21 10.4765 19.7336 11.7429 18.1714 11.7429H16.1143C14.5521 11.7429 13.2857 10.4765 13.2857 8.91429V5.82857ZM5.82857 13.8C5.11849 13.8 4.54286 14.3756 4.54286 15.0857V18.1714C4.54286 18.8815 5.11849 19.4571 5.82857 19.4571H7.88571C8.59579 19.4571 9.17143 18.8815 9.17143 18.1714V15.0857C9.17143 14.3756 8.59579 13.8 7.88571 13.8H5.82857ZM3 15.0857C3 13.5235 4.26639 12.2571 5.82857 12.2571H7.88571C9.44789 12.2571 10.7143 13.5235 10.7143 15.0857V18.1714C10.7143 19.7336 9.44789 21 7.88571 21H5.82857C4.26639 21 3 19.7336 3 18.1714V15.0857ZM16.1143 15.8571C15.4042 15.8571 14.8286 16.4328 14.8286 17.1429V18.1714C14.8286 18.8815 15.4042 19.4571 16.1143 19.4571H18.1714C18.8815 19.4571 19.4571 18.8815 19.4571 18.1714V17.1429C19.4571 16.4328 18.8815 15.8571 18.1714 15.8571H16.1143ZM13.2857 17.1429C13.2857 15.5807 14.5521 14.3143 16.1143 14.3143H18.1714C19.7336 14.3143 21 15.5807 21 17.1429V18.1714C21 19.7336 19.7336 21 18.1714 21H16.1143C14.5521 21 13.2857 19.7336 13.2857 18.1714V17.1429Z" fill="#151515"/>
</svg>
