<svg width="24" height="24" viewBox="0 0 24 24" fill="none" xmlns="http://www.w3.org/2000/svg">
<path fill-rule="evenodd" clip-rule="evenodd" d="M4.76486 3.39535C4.0085 3.39535 3.39535 4.0085 3.39535 4.76486V8.20155H20.6047V4.76486C20.6047 4.0085 19.9915 3.39535 19.2351 3.39535H4.76486ZM22 4.76486C22 3.23787 20.7621 2 19.2351 2H4.76486C3.23787 2 2 3.23787 2 4.76486V19.2351C2 20.7621 3.23787 22 4.76486 22H19.2351C20.7621 22 22 20.7621 22 19.2351V4.76486ZM20.6047 9.5969H9.5969V20.6047H19.2351C19.9915 20.6047 20.6047 19.9915 20.6047 19.2351V9.5969ZM8.20155 20.6047V9.5969H3.39535V19.2351C3.39535 19.9915 4.0085 20.6047 4.76486 20.6047H8.20155Z" fill="#151515"/>
</svg>
