<svg width="24" height="24" viewBox="0 0 24 24" fill="none" xmlns="http://www.w3.org/2000/svg">
<path fill-rule="evenodd" clip-rule="evenodd" d="M6.926 8.30435C6.01224 8.30435 5.12075 8.67704 4.45236 9.36432C3.78196 10.0537 3.39535 11.0009 3.39535 12C3.39535 12.9991 3.78196 13.9463 4.45236 14.6357C4.78366 14.9763 5.17332 15.2429 5.59717 15.4234C6.02078 15.6038 6.4721 15.6957 6.926 15.6957H9.463C9.84832 15.6957 10.1607 15.9876 10.1607 16.3478C10.1607 16.708 9.84832 17 9.463 17H6.926C6.26937 17 5.62102 16.8669 5.01862 16.6103C4.41645 16.3539 3.87386 15.9799 3.41989 15.5131C2.50435 14.5717 2 13.3071 2 12C2 10.6929 2.50435 9.42833 3.41989 8.48692C4.33743 7.54345 5.59693 7 6.926 7H9.463C9.84832 7 10.1607 7.29199 10.1607 7.65217C10.1607 8.01236 9.84832 8.30435 9.463 8.30435H6.926ZM13.8393 7.65217C13.8393 7.29199 14.1517 7 14.537 7H17.074C17.7306 7 18.379 7.13309 18.9814 7.38966C19.5835 7.64613 20.1261 8.02011 20.5801 8.48692C21.034 8.95361 21.3909 9.50436 21.6334 10.1063C21.8759 10.7083 22 11.3516 22 12C22 12.6484 21.8759 13.2917 21.6334 13.8937C21.3909 14.4956 21.034 15.0464 20.5801 15.5131C20.1261 15.9799 19.5835 16.3539 18.9814 16.6103C18.379 16.8669 17.7306 17 17.074 17H14.537C14.1517 17 13.8393 16.708 13.8393 16.3478C13.8393 15.9876 14.1517 15.6957 14.537 15.6957H17.074C17.5279 15.6957 17.9792 15.6038 18.4028 15.4234C18.8267 15.2429 19.2163 14.9763 19.5476 14.6357C19.8791 14.2949 20.1451 13.887 20.3275 13.434C20.5101 12.9809 20.6047 12.4935 20.6047 12C20.6047 11.5065 20.5101 11.0191 20.3275 10.566C20.1451 10.113 19.8791 9.7051 19.5476 9.36432C19.2163 9.02366 18.8267 8.75713 18.4028 8.57661C17.9792 8.39618 17.5279 8.30435 17.074 8.30435H14.537C14.1517 8.30435 13.8393 8.01236 13.8393 7.65217ZM7.5814 12C7.5814 11.6398 7.89375 11.3478 8.27907 11.3478H15.7209C16.1062 11.3478 16.4186 11.6398 16.4186 12C16.4186 12.3602 16.1062 12.6522 15.7209 12.6522H8.27907C7.89375 12.6522 7.5814 12.3602 7.5814 12Z" fill="#151515"/>
</svg>
