<svg width="24" height="24" viewBox="0 0 24 24" fill="none" xmlns="http://www.w3.org/2000/svg">
<path fill-rule="evenodd" clip-rule="evenodd" d="M12.8902 3.51045C13.9039 2.53037 15.2618 1.98794 16.6714 2.0002C18.081 2.01246 19.4293 2.57843 20.4259 3.57599C21.4224 4.57353 21.9876 5.92282 21.9998 7.3332C22.012 8.74358 21.4704 10.1025 20.4913 11.1172L20.4829 11.1259L17.6764 13.9351C17.6763 13.9352 17.6764 13.9351 17.6764 13.9351C17.1315 14.4807 16.4756 14.9028 15.7534 15.1724C15.0312 15.4421 14.2594 15.5532 13.4905 15.4981C12.7216 15.4429 11.9735 15.2229 11.2971 14.853C10.6206 14.483 10.0316 13.9718 9.56999 13.3541C9.33934 13.0454 9.40258 12.6082 9.71124 12.3776C10.0199 12.1469 10.4571 12.2102 10.6877 12.5188C11.0296 12.9763 11.4658 13.3549 11.9666 13.6288C12.4674 13.9026 13.0211 14.0655 13.5903 14.1063C14.1594 14.1471 14.7307 14.0649 15.2653 13.8653C15.8 13.6656 16.2855 13.3532 16.689 12.9491L19.4913 10.1441C20.2138 9.39311 20.6136 8.38833 20.6045 7.34531C20.5954 6.30034 20.1767 5.30089 19.4387 4.56216C18.7007 3.82346 17.7026 3.40457 16.6593 3.3955C15.6176 3.38644 14.6138 3.78665 13.8635 4.51028L12.2582 6.1079C11.985 6.3797 11.5433 6.37863 11.2715 6.10552C10.9997 5.8324 11.0008 5.39066 11.2739 5.11886L12.8902 3.51045ZM8.24657 8.82756C8.96882 8.55787 9.74058 8.44681 10.5095 8.50194C11.2784 8.55706 12.0265 8.77707 12.7029 9.14701C13.3794 9.51696 13.9684 10.0282 14.43 10.6459C14.6607 10.9546 14.5974 11.3918 14.2888 11.6224C13.9801 11.8531 13.5429 11.7898 13.3123 11.4812C12.9704 11.0237 12.5342 10.6451 12.0334 10.3712C11.5326 10.0974 10.9789 9.93452 10.4097 9.89371C9.84059 9.85291 9.26933 9.93511 8.73468 10.1347C8.20003 10.3344 7.71447 10.6468 7.31097 11.0509L4.50876 13.8559C3.78625 14.6069 3.38644 15.6117 3.3955 16.6547C3.40457 17.6997 3.8233 18.6991 4.56129 19.4378C5.29926 20.1765 6.2974 20.5954 7.34071 20.6045C8.38208 20.6136 9.38556 20.2136 10.1358 19.4904L11.731 17.8935C12.0034 17.6209 12.4451 17.6207 12.7177 17.893C12.9903 18.1654 12.9905 18.6071 12.7182 18.8797L11.1099 20.4896C10.0961 21.4697 8.73817 22.0121 7.32857 21.9998C5.91897 21.9875 4.57071 21.4216 3.57414 20.424C2.57759 19.4265 2.01245 18.0772 2.0002 16.6668C1.98796 15.2564 2.5296 13.8975 3.50866 12.8828L3.51708 12.8741L6.32364 10.0649C6.32367 10.0648 6.32361 10.0649 6.32364 10.0649C6.86852 9.51928 7.52437 9.09723 8.24657 8.82756Z" fill="#151515"/>
</svg>
