<svg width="24" height="24" viewBox="0 0 24 24" fill="none" xmlns="http://www.w3.org/2000/svg">
<path fill-rule="evenodd" clip-rule="evenodd" d="M3.79487 4.54286C3.65327 4.54286 3.53847 4.65798 3.53847 4.8V8.91429C3.53847 9.05631 3.65327 9.17143 3.79487 9.17143H7.89741C8.039 9.17143 8.15381 9.05631 8.15381 8.91429V4.8C8.15381 4.65798 8.039 4.54286 7.89741 4.54286H3.79487ZM2 4.8C2 3.8059 2.80358 3 3.79487 3H7.89741C8.88869 3 9.69228 3.8059 9.69228 4.8V8.91429C9.69228 9.90839 8.88869 10.7143 7.89741 10.7143H3.79487C2.80358 10.7143 2 9.90839 2 8.91429V4.8ZM12.2565 4.8C12.2565 4.37395 12.6009 4.02857 13.0257 4.02857H21.2308C21.6556 4.02857 22 4.37395 22 4.8C22 5.22605 21.6556 5.57143 21.2308 5.57143H13.0257C12.6009 5.57143 12.2565 5.22605 12.2565 4.8ZM12.2565 8.91429C12.2565 8.48824 12.6009 8.14286 13.0257 8.14286H18.1539C18.5787 8.14286 18.9231 8.48824 18.9231 8.91429C18.9231 9.34033 18.5787 9.68571 18.1539 9.68571H13.0257C12.6009 9.68571 12.2565 9.34033 12.2565 8.91429ZM3.79487 14.8286C3.65327 14.8286 3.53847 14.9437 3.53847 15.0857V19.2C3.53847 19.342 3.65327 19.4571 3.79487 19.4571H7.89741C8.039 19.4571 8.15381 19.342 8.15381 19.2V15.0857C8.15381 14.9437 8.039 14.8286 7.89741 14.8286H3.79487ZM2 15.0857C2 14.0916 2.80358 13.2857 3.79487 13.2857H7.89741C8.88869 13.2857 9.69228 14.0916 9.69228 15.0857V19.2C9.69228 20.1941 8.88869 21 7.89741 21H3.79487C2.80358 21 2 20.1941 2 19.2V15.0857ZM12.2565 15.0857C12.2565 14.6597 12.6009 14.3143 13.0257 14.3143H21.2308C21.6556 14.3143 22 14.6597 22 15.0857C22 15.5118 21.6556 15.8571 21.2308 15.8571H13.0257C12.6009 15.8571 12.2565 15.5118 12.2565 15.0857ZM12.2565 19.2C12.2565 18.774 12.6009 18.4286 13.0257 18.4286H18.1539C18.5787 18.4286 18.9231 18.774 18.9231 19.2C18.9231 19.626 18.5787 19.9714 18.1539 19.9714H13.0257C12.6009 19.9714 12.2565 19.626 12.2565 19.2Z" fill="#151515"/>
</svg>
