<svg width="24" height="24" viewBox="0 0 24 24" fill="none" xmlns="http://www.w3.org/2000/svg">
<path fill-rule="evenodd" clip-rule="evenodd" d="M2 5.77778C2 5.34822 2.3444 5 2.76923 5H2.77949C3.20432 5 3.54872 5.34822 3.54872 5.77778C3.54872 6.20733 3.20432 6.55556 2.77949 6.55556H2.76923C2.3444 6.55556 2 6.20733 2 5.77778ZM7.12821 5.77778C7.12821 5.34822 7.4726 5 7.89744 5H21.2308C21.6556 5 22 5.34822 22 5.77778C22 6.20733 21.6556 6.55556 21.2308 6.55556H7.89744C7.4726 6.55556 7.12821 6.20733 7.12821 5.77778ZM2 12C2 11.5704 2.3444 11.2222 2.76923 11.2222H2.77949C3.20432 11.2222 3.54872 11.5704 3.54872 12C3.54872 12.4296 3.20432 12.7778 2.77949 12.7778H2.76923C2.3444 12.7778 2 12.4296 2 12ZM7.12821 12C7.12821 11.5704 7.4726 11.2222 7.89744 11.2222H21.2308C21.6556 11.2222 22 11.5704 22 12C22 12.4296 21.6556 12.7778 21.2308 12.7778H7.89744C7.4726 12.7778 7.12821 12.4296 7.12821 12ZM2 18.2222C2 17.7927 2.3444 17.4444 2.76923 17.4444H2.77949C3.20432 17.4444 3.54872 17.7927 3.54872 18.2222C3.54872 18.6518 3.20432 19 2.77949 19H2.76923C2.3444 19 2 18.6518 2 18.2222ZM7.12821 18.2222C7.12821 17.7927 7.4726 17.4444 7.89744 17.4444H21.2308C21.6556 17.4444 22 17.7927 22 18.2222C22 18.6518 21.6556 19 21.2308 19H7.89744C7.4726 19 7.12821 18.6518 7.12821 18.2222Z" fill="#151515"/>
</svg>
