<svg width="24" height="24" viewBox="0 0 24 24" fill="none" xmlns="http://www.w3.org/2000/svg">
<path fill-rule="evenodd" clip-rule="evenodd" d="M5.95499 4.05545C6.22767 4.16822 6.40547 4.43388 6.40547 4.72856V10.5571C6.40547 10.9595 6.07875 11.2857 5.67573 11.2857C5.27271 11.2857 4.946 10.9595 4.946 10.5571V6.48749L4.24577 7.18659C3.96079 7.47112 3.49875 7.47112 3.21377 7.18659C2.92879 6.90207 2.92879 6.44076 3.21377 6.15624L5.15973 4.21338C5.36844 4.00501 5.68231 3.94268 5.95499 4.05545ZM9.98763 6.33643C9.98763 5.93406 10.3143 5.60786 10.7174 5.60786H20.2703C20.6733 5.60786 21 5.93406 21 6.33643C21 6.73881 20.6733 7.065 20.2703 7.065H10.7174C10.3143 7.065 9.98763 6.73881 9.98763 6.33643ZM9.98763 12.7679C9.98763 12.3655 10.3143 12.0394 10.7174 12.0394H20.2703C20.6733 12.0394 21 12.3655 21 12.7679C21 13.1703 20.6733 13.4965 20.2703 13.4965H10.7174C10.3143 13.4965 9.98763 13.1703 9.98763 12.7679ZM5.67573 15.1714C5.35317 15.1714 5.04382 15.2993 4.81573 15.5271C4.58765 15.7548 4.45951 16.0636 4.45951 16.3857C4.45951 16.7881 4.13279 17.1143 3.72977 17.1143C3.32675 17.1143 3.00004 16.7881 3.00004 16.3857C3.00004 15.6772 3.28194 14.9977 3.78373 14.4967C4.28552 13.9957 4.96609 13.7143 5.67573 13.7143C6.38537 13.7143 7.06595 13.9957 7.56774 14.4967C8.06953 14.9977 8.35143 15.6772 8.35143 16.3857C8.35143 16.8983 8.128 17.297 7.89143 17.5975C7.7198 17.8156 7.49631 18.0336 7.3084 18.2169C7.25728 18.2667 7.2088 18.314 7.16471 18.358C7.14912 18.3736 7.13282 18.3884 7.11588 18.4025L5.74534 19.5428H7.62169C8.02472 19.5428 8.35143 19.869 8.35143 20.2714C8.35143 20.6738 8.02472 21 7.62169 21H3.72977C3.42254 21 3.14821 20.8078 3.04362 20.5194C2.93903 20.231 3.02658 19.9081 3.26261 19.7117L6.1564 17.3041C6.22262 17.2382 6.28336 17.1788 6.33945 17.124C6.50955 16.9577 6.63677 16.8333 6.74384 16.6973C6.87214 16.5343 6.89196 16.4472 6.89196 16.3857C6.89196 16.0636 6.76382 15.7548 6.53573 15.5271C6.30765 15.2993 5.9983 15.1714 5.67573 15.1714ZM9.98763 19.1994C9.98763 18.797 10.3143 18.4708 10.7174 18.4708H20.2703C20.6733 18.4708 21 18.797 21 19.1994C21 19.6018 20.6733 19.928 20.2703 19.928H10.7174C10.3143 19.928 9.98763 19.6018 9.98763 19.1994Z" fill="#151515"/>
</svg>
