<svg width="24" height="24" viewBox="0 0 24 24" fill="none" xmlns="http://www.w3.org/2000/svg">
<path fill-rule="evenodd" clip-rule="evenodd" d="M7.78562 3.22284C8.08774 3.52238 8.09052 4.01081 7.79184 4.31379L4.99461 7.15124C4.8501 7.29782 4.65311 7.38031 4.44757 7.38031C4.24204 7.38031 4.04505 7.29782 3.90054 7.15124L2.22221 5.44877C1.92352 5.14579 1.9263 4.65735 2.22842 4.35782C2.53054 4.05828 3.01759 4.06107 3.31627 4.36405L4.44757 5.51162L6.69777 3.22907C6.99646 2.92609 7.4835 2.9233 7.78562 3.22284ZM10.3915 5.47389C10.3915 5.04784 10.7359 4.70246 11.1607 4.70246H21.2308C21.6556 4.70246 22 5.04784 22 5.47389C22 5.89994 21.6556 6.24532 21.2308 6.24532H11.1607C10.7359 6.24532 10.3915 5.89994 10.3915 5.47389ZM7.78562 10.0327C8.08774 10.3322 8.09052 10.8207 7.79184 11.1236L4.99461 13.9611C4.8501 14.1077 4.65311 14.1902 4.44757 14.1902C4.24204 14.1902 4.04505 14.1077 3.90054 13.9611L2.22221 12.2586C1.92352 11.9556 1.9263 11.4672 2.22842 11.1677C2.53054 10.8681 3.01759 10.8709 3.31627 11.1739L4.44757 12.3215L6.69777 10.0389C6.99646 9.73594 7.4835 9.73315 7.78562 10.0327ZM10.3915 12.2837C10.3915 11.8577 10.7359 11.5123 11.1607 11.5123H21.2308C21.6556 11.5123 22 11.8577 22 12.2837C22 12.7098 21.6556 13.0552 21.2308 13.0552H11.1607C10.7359 13.0552 10.3915 12.7098 10.3915 12.2837ZM7.78562 16.8425C8.08774 17.1421 8.09052 17.6305 7.79184 17.9335L4.99461 20.7709C4.8501 20.9175 4.65311 21 4.44757 21C4.24204 21 4.04505 20.9175 3.90054 20.7709L2.22221 19.0685C1.92352 18.7655 1.9263 18.277 2.22842 17.9775C2.53054 17.678 3.01759 17.6808 3.31627 17.9837L4.44757 19.1313L6.69777 16.8488C6.99646 16.5458 7.4835 16.543 7.78562 16.8425ZM10.3915 19.0936C10.3915 18.6675 10.7359 18.3222 11.1607 18.3222H21.2308C21.6556 18.3222 22 18.6675 22 19.0936C22 19.5196 21.6556 19.865 21.2308 19.865H11.1607C10.7359 19.865 10.3915 19.5196 10.3915 19.0936Z" fill="#151515"/>
</svg>
