<svg width="24" height="24" viewBox="0 0 24 24" fill="none" xmlns="http://www.w3.org/2000/svg">
<path fill-rule="evenodd" clip-rule="evenodd" d="M12 2C12.3853 2 12.6977 2.31236 12.6977 2.69767V6.4186C12.6977 6.80392 12.3853 7.11628 12 7.11628C11.6147 7.11628 11.3023 6.80392 11.3023 6.4186V2.69767C11.3023 2.31236 11.6147 2 12 2ZM4.92993 4.92993C5.20238 4.65747 5.64413 4.65747 5.91659 4.92993L8.54914 7.56248C8.8216 7.83494 8.8216 8.27669 8.54914 8.54914C8.27669 8.8216 7.83494 8.8216 7.56248 8.54914L4.92993 5.91659C4.65747 5.64413 4.65747 5.20238 4.92993 4.92993ZM19.0701 4.92993C19.3425 5.20238 19.3425 5.64413 19.0701 5.91659L16.4375 8.54914C16.1651 8.8216 15.7233 8.8216 15.4509 8.54914C15.1784 8.27669 15.1784 7.83494 15.4509 7.56248L18.0834 4.92993C18.3559 4.65747 18.7976 4.65747 19.0701 4.92993ZM2 12C2 11.6147 2.31236 11.3023 2.69767 11.3023H6.4186C6.80392 11.3023 7.11628 11.6147 7.11628 12C7.11628 12.3853 6.80392 12.6977 6.4186 12.6977H2.69767C2.31236 12.6977 2 12.3853 2 12ZM16.8837 12C16.8837 11.6147 17.1961 11.3023 17.5814 11.3023H21.3023C21.6876 11.3023 22 11.6147 22 12C22 12.3853 21.6876 12.6977 21.3023 12.6977H17.5814C17.1961 12.6977 16.8837 12.3853 16.8837 12ZM8.54914 15.4509C8.8216 15.7233 8.8216 16.1651 8.54914 16.4375L5.91659 19.0701C5.64413 19.3425 5.20238 19.3425 4.92993 19.0701C4.65747 18.7976 4.65747 18.3559 4.92993 18.0834L7.56248 15.4509C7.83494 15.1784 8.27669 15.1784 8.54914 15.4509ZM15.4509 15.4509C15.7233 15.1784 16.1651 15.1784 16.4375 15.4509L19.0701 18.0834C19.3425 18.3559 19.3425 18.7976 19.0701 19.0701C18.7976 19.3425 18.3559 19.3425 18.0834 19.0701L15.4509 16.4375C15.1784 16.1651 15.1784 15.7233 15.4509 15.4509ZM12 16.8837C12.3853 16.8837 12.6977 17.1961 12.6977 17.5814V21.3023C12.6977 21.6876 12.3853 22 12 22C11.6147 22 11.3023 21.6876 11.3023 21.3023V17.5814C11.3023 17.1961 11.6147 16.8837 12 16.8837Z" fill="#151515"/>
</svg>
