<svg width="24" height="24" viewBox="0 0 24 24" fill="none" xmlns="http://www.w3.org/2000/svg">
<path fill-rule="evenodd" clip-rule="evenodd" d="M22.5303 22.5303C22.7545 22.3062 22.8135 21.9654 22.6778 21.6789L13.2041 1.67894C13.0685 1.39265 12.7677 1.22244 12.4524 1.25365C12.1372 1.28487 11.8756 1.51078 11.7987 1.8181L9.80261 9.80259L1.81812 11.7987C1.51079 11.8755 1.28488 12.1372 1.25367 12.4524C1.22245 12.7677 1.39267 13.0685 1.67895 13.2041L21.679 22.6778C21.9654 22.8135 22.3062 22.7545 22.5303 22.5303ZM4.21503 12.7456L10.603 11.1487C10.8717 11.0815 11.0815 10.8717 11.1487 10.603L12.7457 4.21502L20.4232 20.4232L4.21503 12.7456Z" fill="#151515"/>
</svg>
