<svg width="24" height="24" viewBox="0 0 24 24" fill="none" xmlns="http://www.w3.org/2000/svg">
<path fill-rule="evenodd" clip-rule="evenodd" d="M12 2C12.329 2 12.622 2.18737 12.7307 2.4672L19.9565 21.0718C20.0643 21.3493 19.9674 21.658 19.7144 21.8435C19.4613 22.0291 19.1063 22.0517 18.8267 21.9002L12 18.1997L5.17328 21.9002C4.89371 22.0517 4.53871 22.0291 4.28564 21.8435C4.03256 21.658 3.93573 21.3493 4.04351 21.0718L11.2693 2.4672C11.378 2.18737 11.671 2 12 2ZM6.21373 19.7079L11.6009 16.7877C11.8465 16.6546 12.1535 16.6546 12.399 16.7877L17.7863 19.7079L12 4.8096L6.21373 19.7079Z" fill="#151515"/>
</svg>
