<svg width="24" height="24" viewBox="0 0 24 24" fill="none" xmlns="http://www.w3.org/2000/svg">
<path fill-rule="evenodd" clip-rule="evenodd" d="M12 22C12.329 22 12.622 21.8126 12.7307 21.5328L19.9565 2.92816C20.0643 2.65065 19.9674 2.34204 19.7144 2.15649C19.4613 1.97095 19.1063 1.94828 18.8267 2.09982L12 5.80029L5.17328 2.09982C4.89371 1.94828 4.53871 1.97095 4.28564 2.15649C4.03256 2.34204 3.93573 2.65065 4.04351 2.92816L11.2693 21.5328C11.378 21.8126 11.671 22 12 22ZM6.21373 4.29213L11.6009 7.2123C11.8465 7.3454 12.1535 7.3454 12.399 7.2123L17.7863 4.29213L12 19.1904L6.21373 4.29213Z" fill="#151515"/>
</svg>
