<svg width="24" height="24" viewBox="0 0 24 24" fill="none" xmlns="http://www.w3.org/2000/svg">
<path fill-rule="evenodd" clip-rule="evenodd" d="M2.20436 2.20435C1.99588 2.41284 1.94096 2.72988 2.06718 2.99634L10.8799 21.601C11.006 21.8673 11.2859 22.0256 11.5792 21.9966C11.8724 21.9675 12.1158 21.7574 12.1872 21.4715L14.0441 14.0441L21.4715 12.1872C21.7574 12.1158 21.9676 11.8724 21.9966 11.5791C22.0256 11.2859 21.8673 11.006 21.601 10.8799L2.99636 2.06716C2.72989 1.94094 2.41285 1.99586 2.20436 2.20435ZM19.2418 11.3064L13.2996 12.7919C13.0496 12.8544 12.8544 13.0496 12.7919 13.2996L11.3064 19.2418L4.16447 4.16445L19.2418 11.3064Z" fill="#151515"/>
</svg>
