<svg width="24" height="24" viewBox="0 0 24 24" fill="none" xmlns="http://www.w3.org/2000/svg">
<path fill-rule="evenodd" clip-rule="evenodd" d="M2.20436 21.7957C1.99588 21.5872 1.94096 21.2701 2.06718 21.0037L10.8799 2.39906C11.006 2.13274 11.2859 1.97441 11.5792 2.00344C11.8724 2.03248 12.1158 2.24263 12.1872 2.52851L14.0441 9.95593L21.4715 11.8128C21.7574 11.8843 21.9676 12.1276 21.9966 12.4209C22.0256 12.7141 21.8673 12.994 21.601 13.1201L2.99636 21.9329C2.72989 22.0591 2.41285 22.0042 2.20436 21.7957ZM19.2418 12.6937L13.2996 11.2081C13.0496 11.1456 12.8544 10.9504 12.7919 10.7005L11.3064 4.75819L4.16447 19.8356L19.2418 12.6937Z" fill="#151515"/>
</svg>
