<svg width="24" height="24" viewBox="0 0 24 24" fill="none" xmlns="http://www.w3.org/2000/svg">
<path fill-rule="evenodd" clip-rule="evenodd" d="M21.7956 2.20433C22.0041 2.41282 22.059 2.72986 21.9328 2.99633L13.1201 21.6009C12.994 21.8673 12.7141 22.0256 12.4208 21.9966C12.1276 21.9675 11.8842 21.7574 11.8128 21.4715L9.9559 14.0441L2.52848 12.1872C2.2426 12.1157 2.03245 11.8724 2.00341 11.5791C1.97438 11.2859 2.13271 11.006 2.39903 10.8799L21.0036 2.06715C21.2701 1.94093 21.5871 1.99585 21.7956 2.20433ZM4.75816 11.3063L10.7004 12.7919C10.9504 12.8544 11.1456 13.0496 11.2081 13.2995L12.6936 19.2418L19.8355 4.16444L4.75816 11.3063Z" fill="#151515"/>
</svg>
