<svg width="24" height="24" viewBox="0 0 24 24" fill="none" xmlns="http://www.w3.org/2000/svg">
<path fill-rule="evenodd" clip-rule="evenodd" d="M12 3.39535C10.9595 3.39535 9.96169 3.81188 9.22597 4.5533C8.49025 5.29472 8.07692 6.30031 8.07692 7.34884V10.3721H15.9231V7.34884C15.9231 6.30031 15.5098 5.29472 14.774 4.5533C14.0383 3.81188 13.0405 3.39535 12 3.39535ZM17.3077 10.3721V7.34884C17.3077 5.93024 16.7485 4.56974 15.7531 3.56664C14.7577 2.56354 13.4077 2 12 2C10.5923 2 9.24228 2.56354 8.24689 3.56664C7.25151 4.56974 6.69231 5.93024 6.69231 7.34884V10.3721H5.53846C4.13651 10.3721 3 11.5174 3 12.9302V19.4419C3 20.8547 4.13651 22 5.53846 22H18.4615C19.8635 22 21 20.8547 21 19.4419V12.9302C21 11.5174 19.8635 10.3721 18.4615 10.3721H17.3077ZM5.53846 11.7674C4.90121 11.7674 4.38462 12.288 4.38462 12.9302V19.4419C4.38462 20.0841 4.90121 20.6047 5.53846 20.6047H18.4615C19.0988 20.6047 19.6154 20.0841 19.6154 19.4419V12.9302C19.6154 12.288 19.0988 11.7674 18.4615 11.7674H5.53846Z" fill="#151515"/>
</svg>
