<svg width="24" height="24" viewBox="0 0 24 24" fill="none" xmlns="http://www.w3.org/2000/svg">
<path fill-rule="evenodd" clip-rule="evenodd" d="M5.82857 4.54286C5.48758 4.54286 5.16055 4.67832 4.91943 4.91943C4.67832 5.16055 4.54286 5.48758 4.54286 5.82857V7.88571C4.54286 8.31176 4.19748 8.65714 3.77143 8.65714C3.34538 8.65714 3 8.31176 3 7.88571V5.82857C3 5.07839 3.29801 4.35893 3.82847 3.82847C4.35893 3.29801 5.07839 3 5.82857 3H7.88571C8.31176 3 8.65714 3.34538 8.65714 3.77143C8.65714 4.19748 8.31176 4.54286 7.88571 4.54286H5.82857ZM15.3429 3.77143C15.3429 3.34538 15.6882 3 16.1143 3H18.1714C18.9216 3 19.6411 3.29801 20.1715 3.82847C20.702 4.35893 21 5.07839 21 5.82857V7.88571C21 8.31176 20.6546 8.65714 20.2286 8.65714C19.8025 8.65714 19.4571 8.31176 19.4571 7.88571V5.82857C19.4571 5.48758 19.3217 5.16055 19.0806 4.91943C18.8394 4.67832 18.5124 4.54286 18.1714 4.54286H16.1143C15.6882 4.54286 15.3429 4.19748 15.3429 3.77143ZM12 7.62857C11.659 7.62857 11.332 7.76403 11.0909 8.00515C10.8497 8.24627 10.7143 8.57329 10.7143 8.91429V10.2H13.2857V8.91429C13.2857 8.57329 13.1503 8.24627 12.9091 8.00515C12.668 7.76403 12.341 7.62857 12 7.62857ZM14.8286 10.2V8.91429C14.8286 8.1641 14.5306 7.44464 14.0001 6.91418C13.4696 6.38372 12.7502 6.08571 12 6.08571C11.2498 6.08571 10.5304 6.38372 9.9999 6.91418C9.46944 7.44464 9.17143 8.1641 9.17143 8.91429V10.2H8.91429C7.92017 10.2 7.11429 11.0059 7.11429 12V15.0857C7.11429 16.0798 7.92017 16.8857 8.91429 16.8857H15.0857C16.0798 16.8857 16.8857 16.0798 16.8857 15.0857V12C16.8857 11.0059 16.0798 10.2 15.0857 10.2H14.8286ZM8.91429 11.7429C8.77227 11.7429 8.65714 11.858 8.65714 12V15.0857C8.65714 15.2277 8.77227 15.3429 8.91429 15.3429H15.0857C15.2277 15.3429 15.3429 15.2277 15.3429 15.0857V12C15.3429 11.858 15.2277 11.7429 15.0857 11.7429H8.91429ZM3.77143 15.3429C4.19748 15.3429 4.54286 15.6882 4.54286 16.1143V18.1714C4.54286 18.5124 4.67832 18.8394 4.91943 19.0806C5.16055 19.3217 5.48758 19.4571 5.82857 19.4571H7.88571C8.31176 19.4571 8.65714 19.8025 8.65714 20.2286C8.65714 20.6546 8.31176 21 7.88571 21H5.82857C5.07839 21 4.35893 20.702 3.82847 20.1715C3.29801 19.6411 3 18.9216 3 18.1714V16.1143C3 15.6882 3.34538 15.3429 3.77143 15.3429ZM20.2286 15.3429C20.6546 15.3429 21 15.6882 21 16.1143V18.1714C21 18.9216 20.702 19.6411 20.1715 20.1715C19.6411 20.702 18.9216 21 18.1714 21H16.1143C15.6882 21 15.3429 20.6546 15.3429 20.2286C15.3429 19.8025 15.6882 19.4571 16.1143 19.4571H18.1714C18.5124 19.4571 18.8394 19.3217 19.0806 19.0806C19.3217 18.8394 19.4571 18.5124 19.4571 18.1714V16.1143C19.4571 15.6882 19.8025 15.3429 20.2286 15.3429Z" fill="#151515"/>
</svg>
