<svg width="24" height="24" viewBox="0 0 24 24" fill="none" xmlns="http://www.w3.org/2000/svg">
<path fill-rule="evenodd" clip-rule="evenodd" d="M4.82051 3.53846C4.48049 3.53846 4.1544 3.67353 3.91397 3.91397C3.67353 4.1544 3.53846 4.48049 3.53846 4.82051V19.1795C3.53846 19.5195 3.67353 19.8456 3.91397 20.086C4.1544 20.3265 4.48049 20.4615 4.82051 20.4615H8.92308C9.34791 20.4615 9.69231 20.8059 9.69231 21.2308C9.69231 21.6556 9.34791 22 8.92308 22H4.82051C4.07247 22 3.35506 21.7028 2.82611 21.1739C2.29716 20.6449 2 19.9275 2 19.1795V4.82051C2 4.07247 2.29716 3.35506 2.82611 2.82611C3.35506 2.29716 4.07247 2 4.82051 2H8.92308C9.34791 2 9.69231 2.3444 9.69231 2.76923C9.69231 3.19407 9.34791 3.53846 8.92308 3.53846H4.82051ZM15.5586 6.32787C15.859 6.02746 16.3461 6.02746 16.6465 6.32787L21.7747 11.4561C22.0751 11.7565 22.0751 12.2435 21.7747 12.5439L16.6465 17.6721C16.3461 17.9725 15.859 17.9725 15.5586 17.6721C15.2582 17.3717 15.2582 16.8847 15.5586 16.5843L19.3737 12.7692H8.92308C8.49824 12.7692 8.15385 12.4248 8.15385 12C8.15385 11.5752 8.49824 11.2308 8.92308 11.2308H19.3737L15.5586 7.41572C15.2582 7.11532 15.2582 6.62827 15.5586 6.32787Z" fill="#151515"/>
</svg>
