<svg width="24" height="24" viewBox="0 0 24 24" fill="none" xmlns="http://www.w3.org/2000/svg">
<path fill-rule="evenodd" clip-rule="evenodd" d="M14.3077 2.75C14.3077 2.33579 14.6521 2 15.0769 2H19.1795C19.9275 2 20.6449 2.28973 21.1739 2.80546C21.7028 3.32118 22 4.02065 22 4.75V18.75C22 19.4793 21.7028 20.1788 21.1739 20.6945C20.6449 21.2103 19.9275 21.5 19.1795 21.5H15.0769C14.6521 21.5 14.3077 21.1642 14.3077 20.75C14.3077 20.3358 14.6521 20 15.0769 20H19.1795C19.5195 20 19.8456 19.8683 20.086 19.6339C20.3265 19.3995 20.4615 19.0815 20.4615 18.75V4.75C20.4615 4.41848 20.3265 4.10054 20.086 3.86612C19.8456 3.6317 19.5195 3.5 19.1795 3.5H15.0769C14.6521 3.5 14.3077 3.16421 14.3077 2.75ZM9.40479 6.21967C9.70519 5.92678 10.1922 5.92678 10.4926 6.21967L15.6209 11.2197C15.9213 11.5126 15.9213 11.9874 15.6209 12.2803L10.4926 17.2803C10.1922 17.5732 9.70519 17.5732 9.40479 17.2803C9.10439 16.9874 9.10439 16.5126 9.40479 16.2197L13.2198 12.5H2.76923C2.3444 12.5 2 12.1642 2 11.75C2 11.3358 2.3444 11 2.76923 11H13.2198L9.40479 7.28033C9.10439 6.98744 9.10439 6.51256 9.40479 6.21967Z" fill="#151515"/>
</svg>
