<svg width="24" height="24" viewBox="0 0 24 24" fill="none" xmlns="http://www.w3.org/2000/svg">
<path fill-rule="evenodd" clip-rule="evenodd" d="M3.4435 6.32729L12 12.5821L20.5565 6.32729C20.413 5.82648 19.9655 5.45714 19.4419 5.45714H4.55814C4.03446 5.45714 3.58699 5.82648 3.4435 6.32729ZM20.6047 8.07076L12.4001 14.0683C12.1599 14.2439 11.8401 14.2439 11.5999 14.0683L3.39535 8.07076V18.3286C3.39535 18.9948 3.9202 19.5429 4.55814 19.5429H19.4419C20.0798 19.5429 20.6047 18.9948 20.6047 18.3286V8.07076ZM2 6.67143C2 5.20048 3.14957 4 4.55814 4H19.4419C20.8504 4 22 5.20048 22 6.67143V18.3286C22 19.7995 20.8504 21 19.4419 21H4.55814C3.14957 21 2 19.7995 2 18.3286V6.67143Z" fill="#151515"/>
</svg>
