<svg width="24" height="24" viewBox="0 0 24 24" fill="none" xmlns="http://www.w3.org/2000/svg">
<path fill-rule="evenodd" clip-rule="evenodd" d="M12.6668 3.63919C12.2664 3.35306 11.7336 3.35306 11.3332 3.63919L3.97863 8.89527L11.4017 13.4425C11.77 13.668 12.23 13.668 12.5983 13.4425L20.0214 8.89527L12.6668 3.63919ZM20.6047 10.1993L13.3162 14.6641C12.506 15.1603 11.494 15.1603 10.6838 14.6641L3.39535 10.1993V19.3883C3.39535 20.0396 3.9202 20.5754 4.55814 20.5754H19.4419C20.0798 20.5754 20.6047 20.0396 20.6047 19.3883V10.1993ZM10.533 2.47212C11.4138 1.84263 12.5862 1.84263 13.467 2.47212L21.7024 8.35772C21.8889 8.49101 22 8.70883 22 8.94126V19.3883C22 20.8263 20.8504 22 19.4419 22H4.55814C3.14957 22 2 20.8263 2 19.3883V8.94126C2 8.70883 2.11108 8.49101 2.29758 8.35772L10.533 2.47212Z" fill="#151515"/>
</svg>
