<svg width="24" height="24" viewBox="0 0 24 24" fill="none" xmlns="http://www.w3.org/2000/svg">
<path fill-rule="evenodd" clip-rule="evenodd" d="M12 3.39535C9.99133 3.39535 8.07027 4.12993 6.6581 5.42953C5.24687 6.72826 4.45946 8.48392 4.45946 10.3087C4.45946 12.978 6.34398 15.5534 8.38495 17.536C9.38872 18.5111 10.3952 19.3089 11.1517 19.8633C11.4954 20.1151 11.7862 20.3158 12 20.4591C12.2138 20.3158 12.5046 20.1151 12.8483 19.8633C13.6048 19.3089 14.6113 18.5111 15.615 17.536C17.656 15.5534 19.5405 12.978 19.5405 10.3087C19.5405 8.48392 18.7531 6.72826 17.3419 5.42953C15.9297 4.12993 14.0087 3.39535 12 3.39535ZM12 21.3023C11.6059 21.8895 11.6057 21.8894 11.6055 21.8892L11.6049 21.8889L11.6031 21.8878L11.5973 21.8842L11.577 21.8715C11.5595 21.8606 11.5345 21.8449 11.5023 21.8244C11.438 21.7834 11.3453 21.7235 11.2281 21.6456C10.9938 21.4899 10.6615 21.2622 10.2638 20.9707C9.46968 20.3888 8.40857 19.5481 7.34478 18.5148C5.25062 16.4805 3 13.559 3 10.3087C3 8.0963 3.95525 5.98018 5.64597 4.42423C7.33575 2.86916 9.62184 2 12 2C14.3782 2 16.6642 2.86916 18.354 4.42423C20.0448 5.98018 21 8.0963 21 10.3087C21 13.559 18.7494 16.4805 16.6552 18.5148C15.5914 19.5481 14.5303 20.3888 13.7362 20.9707C13.3385 21.2622 13.0062 21.4899 12.7719 21.6456C12.6547 21.7235 12.562 21.7834 12.4977 21.8244C12.4655 21.8449 12.4405 21.8606 12.423 21.8715L12.4027 21.8842L12.3969 21.8878L12.3951 21.8889L12.3945 21.8892C12.3943 21.8894 12.3941 21.8895 12 21.3023ZM12 21.3023L12.3941 21.8895C12.154 22.0368 11.846 22.0368 11.6059 21.8895L12 21.3023ZM12 8.04651C10.7909 8.04651 9.81081 8.98359 9.81081 10.1395C9.81081 11.2955 10.7909 12.2326 12 12.2326C13.2091 12.2326 14.1892 11.2955 14.1892 10.1395C14.1892 8.98359 13.2091 8.04651 12 8.04651ZM8.35135 10.1395C8.35135 8.21296 9.98491 6.65116 12 6.65116C14.0151 6.65116 15.6486 8.21296 15.6486 10.1395C15.6486 12.0661 14.0151 13.6279 12 13.6279C9.98491 13.6279 8.35135 12.0661 8.35135 10.1395Z" fill="#151515"/>
</svg>
