<svg width="24" height="24" viewBox="0 0 24 24" fill="none" xmlns="http://www.w3.org/2000/svg">
<path fill-rule="evenodd" clip-rule="evenodd" d="M8.27381 3.08974C8.47505 2.97677 8.71963 2.97007 8.92684 3.07185L15.3609 6.2322L20.9588 3.08974C21.1748 2.96849 21.4394 2.97021 21.6538 3.09428C21.8682 3.21834 22 3.44605 22 3.69231V16.9846C22 17.2341 21.8647 17.4643 21.6459 17.5872L15.7262 20.9103C15.5249 21.0232 15.2804 21.0299 15.0732 20.9281L8.63912 17.7678L3.0412 20.9103C2.8252 21.0315 2.56056 21.0298 2.34619 20.9057C2.13182 20.7817 2 20.5539 2 20.3077V7.01538C2 6.76588 2.1353 6.53567 2.35415 6.41282L8.27381 3.08974ZM9.31501 16.5548L14.685 19.1925V7.44517L9.31501 4.80748V16.5548ZM7.91966 4.87937V16.5809L3.39535 19.1206V7.41915L7.91966 4.87937ZM16.0803 7.41915V19.1206L20.6047 16.5809V4.87937L16.0803 7.41915Z" fill="#151515"/>
</svg>
