<svg width="24" height="24" viewBox="0 0 24 24" fill="none" xmlns="http://www.w3.org/2000/svg">
<path fill-rule="evenodd" clip-rule="evenodd" d="M13.9714 3.77143C13.9714 3.34538 14.3168 3 14.7429 3H20.2286C20.6546 3 21 3.34538 21 3.77143V9.25714C21 9.68319 20.6546 10.0286 20.2286 10.0286C19.8025 10.0286 19.4571 9.68319 19.4571 9.25714V5.63382L14.3741 10.7169C14.0728 11.0182 13.5844 11.0182 13.2831 10.7169C12.9818 10.4156 12.9818 9.92721 13.2831 9.62595L18.3662 4.54286H14.7429C14.3168 4.54286 13.9714 4.19748 13.9714 3.77143ZM10.7169 13.2831C11.0182 13.5844 11.0182 14.0728 10.7169 14.3741L5.63382 19.4571H9.25714C9.68319 19.4571 10.0286 19.8025 10.0286 20.2286C10.0286 20.6546 9.68319 21 9.25714 21H3.77143C3.34538 21 3 20.6546 3 20.2286V14.7429C3 14.3168 3.34538 13.9714 3.77143 13.9714C4.19748 13.9714 4.54286 14.3168 4.54286 14.7429V18.3662L9.62595 13.2831C9.92721 12.9818 10.4156 12.9818 10.7169 13.2831Z" fill="#151515"/>
</svg>
