<svg width="24" height="24" viewBox="0 0 24 24" fill="none" xmlns="http://www.w3.org/2000/svg">
<path fill-rule="evenodd" clip-rule="evenodd" d="M3.76152 3.76152C4.24912 3.27393 4.91044 3 5.6 3H8.34286C8.76891 3 9.11429 3.34538 9.11429 3.77143C9.11429 4.19748 8.76891 4.54286 8.34286 4.54286H5.6C5.31963 4.54286 5.05074 4.65423 4.85249 4.85249C4.65423 5.05074 4.54286 5.31963 4.54286 5.6V8.34286C4.54286 8.76891 4.19748 9.11429 3.77143 9.11429C3.34538 9.11429 3 8.76891 3 8.34286V5.6C3 4.91044 3.27393 4.24912 3.76152 3.76152ZM14.8857 3.77143C14.8857 3.34538 15.2311 3 15.6571 3H18.4C19.0896 3 19.7509 3.27393 20.2385 3.76152C20.7261 4.24912 21 4.91044 21 5.6V8.34286C21 8.76891 20.6546 9.11429 20.2286 9.11429C19.8025 9.11429 19.4571 8.76891 19.4571 8.34286V5.6C19.4571 5.31963 19.3458 5.05074 19.1475 4.85249C18.9493 4.65423 18.6804 4.54286 18.4 4.54286H15.6571C15.2311 4.54286 14.8857 4.19748 14.8857 3.77143ZM3.77143 14.8857C4.19748 14.8857 4.54286 15.2311 4.54286 15.6571V18.4C4.54286 18.6804 4.65423 18.9493 4.85249 19.1475C5.05074 19.3458 5.31963 19.4571 5.6 19.4571H8.34286C8.76891 19.4571 9.11429 19.8025 9.11429 20.2286C9.11429 20.6546 8.76891 21 8.34286 21H5.6C4.91044 21 4.24912 20.7261 3.76152 20.2385C3.27393 19.7509 3 19.0896 3 18.4V15.6571C3 15.2311 3.34538 14.8857 3.77143 14.8857ZM20.2286 14.8857C20.6546 14.8857 21 15.2311 21 15.6571V18.4C21 19.0896 20.7261 19.7509 20.2385 20.2385C19.7509 20.7261 19.0896 21 18.4 21H15.6571C15.2311 21 14.8857 20.6546 14.8857 20.2286C14.8857 19.8025 15.2311 19.4571 15.6571 19.4571H18.4C18.6804 19.4571 18.9493 19.3458 19.1475 19.1475C19.3458 18.9493 19.4571 18.6804 19.4571 18.4V15.6571C19.4571 15.2311 19.8025 14.8857 20.2286 14.8857Z" fill="#151515"/>
</svg>
