<svg width="24" height="24" viewBox="0 0 24 24" fill="none" xmlns="http://www.w3.org/2000/svg">
<path fill-rule="evenodd" clip-rule="evenodd" d="M3.77143 3H9.25714C9.68319 3 10.0286 3.34538 10.0286 3.77143C10.0286 4.19748 9.68319 4.54286 9.25714 4.54286H5.63382L10.7169 9.62595C11.0182 9.92721 11.0182 10.4156 10.7169 10.7169C10.4157 11.0182 9.92721 11.0182 9.62595 10.7169L4.54286 5.63382V9.25714C4.54286 9.68319 4.19748 10.0286 3.77143 10.0286C3.34538 10.0286 3 9.68319 3 9.25714V3.77143C3 3.34538 3.34538 3 3.77143 3ZM13.2831 13.2831C13.5844 12.9818 14.0728 12.9818 14.3741 13.2831L19.4571 18.3662V14.7429C19.4571 14.3168 19.8025 13.9714 20.2286 13.9714C20.6546 13.9714 21 14.3168 21 14.7429V20.2286C21 20.6546 20.6546 21 20.2286 21H14.7429C14.3168 21 13.9714 20.6546 13.9714 20.2286C13.9714 19.8025 14.3168 19.4571 14.7429 19.4571H18.3662L13.2831 14.3741C12.9818 14.0728 12.9818 13.5844 13.2831 13.2831Z" fill="#151515"/>
</svg>
