<svg width="24" height="24" viewBox="0 0 24 24" fill="none" xmlns="http://www.w3.org/2000/svg">
<path fill-rule="evenodd" clip-rule="evenodd" d="M3.77143 3H7.88571C8.31176 3 8.65714 3.34538 8.65714 3.77143C8.65714 4.19748 8.31176 4.54286 7.88571 4.54286H5.63382L10.4883 9.39738C10.7896 9.69864 10.7896 10.1871 10.4883 10.4883C10.1871 10.7896 9.69864 10.7896 9.39738 10.4883L4.54286 5.63382V7.88571C4.54286 8.31176 4.19748 8.65714 3.77143 8.65714C3.34538 8.65714 3 8.31176 3 7.88571V3.77143C3 3.34538 3.34538 3 3.77143 3ZM15.3429 3.77143C15.3429 3.34538 15.6882 3 16.1143 3H20.2286C20.6546 3 21 3.34538 21 3.77143V7.88571C21 8.31176 20.6546 8.65714 20.2286 8.65714C19.8025 8.65714 19.4571 8.31176 19.4571 7.88571V5.63382L14.6026 10.4883C14.3014 10.7896 13.8129 10.7896 13.5117 10.4883C13.2104 10.1871 13.2104 9.69864 13.5117 9.39738L18.3662 4.54286H16.1143C15.6882 4.54286 15.3429 4.19748 15.3429 3.77143ZM10.4883 13.5117C10.7896 13.8129 10.7896 14.3014 10.4883 14.6026L5.63382 19.4571H7.88571C8.31176 19.4571 8.65714 19.8025 8.65714 20.2286C8.65714 20.6546 8.31176 21 7.88571 21H3.77143C3.34538 21 3 20.6546 3 20.2286V16.1143C3 15.6882 3.34538 15.3429 3.77143 15.3429C4.19748 15.3429 4.54286 15.6882 4.54286 16.1143V18.3662L9.39738 13.5117C9.69864 13.2104 10.1871 13.2104 10.4883 13.5117ZM13.5117 13.5117C13.8129 13.2104 14.3014 13.2104 14.6026 13.5117L19.4571 18.3662V16.1143C19.4571 15.6882 19.8025 15.3429 20.2286 15.3429C20.6546 15.3429 21 15.6882 21 16.1143V20.2286C21 20.6546 20.6546 21 20.2286 21H16.1143C15.6882 21 15.3429 20.6546 15.3429 20.2286C15.3429 19.8025 15.6882 19.4571 16.1143 19.4571H18.3662L13.5117 14.6026C13.2104 14.3014 13.2104 13.8129 13.5117 13.5117Z" fill="#151515"/>
</svg>
