<svg width="24" height="24" viewBox="0 0 24 24" fill="none" xmlns="http://www.w3.org/2000/svg">
<path fill-rule="evenodd" clip-rule="evenodd" d="M12 3.39535C7.24778 3.39535 3.39535 7.24778 3.39535 12C3.39535 16.7522 7.24778 20.6047 12 20.6047C16.7522 20.6047 20.6047 16.7522 20.6047 12C20.6047 7.24778 16.7522 3.39535 12 3.39535ZM2 12C2 6.47715 6.47715 2 12 2C17.5228 2 22 6.47715 22 12C22 17.5228 17.5228 22 12 22C6.47715 22 2 17.5228 2 12ZM8.51163 9.2093C8.51163 8.82399 8.82399 8.51163 9.2093 8.51163H9.21861C9.60392 8.51163 9.91628 8.82399 9.91628 9.2093C9.91628 9.59462 9.60392 9.90698 9.21861 9.90698H9.2093C8.82399 9.90698 8.51163 9.59462 8.51163 9.2093ZM14.093 9.2093C14.093 8.82399 14.4054 8.51163 14.7907 8.51163H14.8C15.1853 8.51163 15.4977 8.82399 15.4977 9.2093C15.4977 9.59462 15.1853 9.90698 14.8 9.90698H14.7907C14.4054 9.90698 14.093 9.59462 14.093 9.2093ZM7.5814 14.7907C7.5814 14.4054 7.89375 14.093 8.27907 14.093H15.7209C16.1062 14.093 16.4186 14.4054 16.4186 14.7907C16.4186 15.176 16.1062 15.4884 15.7209 15.4884H8.27907C7.89375 15.4884 7.5814 15.176 7.5814 14.7907Z" fill="#151515"/>
</svg>
