<svg width="24" height="24" viewBox="0 0 24 24" fill="none" xmlns="http://www.w3.org/2000/svg">
<path fill-rule="evenodd" clip-rule="evenodd" d="M3 6.66667C3 6.29848 3.30996 6 3.69231 6H20.3077C20.69 6 21 6.29848 21 6.66667C21 7.03486 20.69 7.33333 20.3077 7.33333H3.69231C3.30996 7.33333 3 7.03486 3 6.66667ZM3 12C3 11.6318 3.30996 11.3333 3.69231 11.3333H20.3077C20.69 11.3333 21 11.6318 21 12C21 12.3682 20.69 12.6667 20.3077 12.6667H3.69231C3.30996 12.6667 3 12.3682 3 12ZM3 17.3333C3 16.9651 3.30996 16.6667 3.69231 16.6667H20.3077C20.69 16.6667 21 16.9651 21 17.3333C21 17.7015 20.69 18 20.3077 18H3.69231C3.30996 18 3 17.7015 3 17.3333Z" fill="#151515"/>
</svg>
