<svg width="24" height="24" viewBox="0 0 24 24" fill="none" xmlns="http://www.w3.org/2000/svg">
<path fill-rule="evenodd" clip-rule="evenodd" d="M4.82051 3.53846C4.48049 3.53846 4.1544 3.67353 3.91397 3.91397C3.67353 4.1544 3.53846 4.48049 3.53846 4.82051V19.3737L6.32787 16.5843C6.47213 16.44 6.66778 16.359 6.8718 16.359H19.1795C19.5195 16.359 19.8456 16.2239 20.086 15.9835C20.3265 15.743 20.4615 15.4169 20.4615 15.0769V4.82051C20.4615 4.48049 20.3265 4.1544 20.086 3.91397C19.8456 3.67353 19.5195 3.53846 19.1795 3.53846H4.82051ZM2.82611 2.82611C3.35506 2.29716 4.07247 2 4.82051 2H19.1795C19.9275 2 20.6449 2.29716 21.1739 2.82611C21.7028 3.35506 22 4.07247 22 4.82051V15.0769C22 15.825 21.7028 16.5424 21.1739 17.0713C20.6449 17.6003 19.9275 17.8974 19.1795 17.8974H7.19042L3.31316 21.7747C3.09316 21.9947 2.7623 22.0605 2.47486 21.9414C2.18742 21.8224 2 21.5419 2 21.2308V4.82051C2 4.07247 2.29716 3.35506 2.82611 2.82611Z" fill="#151515"/>
</svg>
