<svg width="24" height="24" viewBox="0 0 24 24" fill="none" xmlns="http://www.w3.org/2000/svg">
<path fill-rule="evenodd" clip-rule="evenodd" d="M10.0815 2.63035C10.7274 2.15458 11.527 1.93577 12.3251 2.01638C13.1232 2.097 13.8629 2.4713 14.4006 3.06662C14.9383 3.66194 15.2355 4.43581 15.2347 5.238V9.75311C15.2347 10.1385 14.9223 10.4509 14.537 10.4509C14.1516 10.4509 13.8392 10.1385 13.8392 9.75311V5.23729C13.8397 4.78119 13.6706 4.34048 13.3649 4.00199C13.0592 3.66351 12.6386 3.45069 12.1848 3.40485C11.731 3.35901 11.2764 3.48342 10.9092 3.75394C10.542 4.02445 10.2883 4.42177 10.1976 4.86875C10.1209 5.24641 9.75257 5.4904 9.37492 5.41371C8.99726 5.33702 8.75327 4.96871 8.82996 4.59105C8.98959 3.80491 9.43563 3.10612 10.0815 2.63035ZM2.20437 2.20721C2.47686 1.93472 2.91866 1.93472 3.19116 2.20721L9.94441 8.96046C9.94845 8.96432 9.95246 8.96823 9.95642 8.97219L14.2862 13.302C14.2901 13.3059 14.294 13.3099 14.2979 13.3139L16.5565 15.5725C16.6139 15.6031 16.6679 15.6423 16.7168 15.6902C16.7692 15.7415 16.8118 15.7991 16.8445 15.8606L21.7956 20.8117C22.0681 21.0842 22.0681 21.526 21.7956 21.7985C21.5231 22.071 21.0813 22.071 20.8088 21.7985L16.1835 17.1731C15.3582 17.8465 14.3795 18.3131 13.329 18.5284C13.1196 18.5714 12.909 18.604 12.6978 18.6264V20.6071H15.3826C15.768 20.6071 16.0804 20.9195 16.0804 21.3048C16.0804 21.6902 15.768 22.0026 15.3826 22.0026H8.61737C8.232 22.0026 7.9196 21.6902 7.9196 21.3048C7.9196 20.9195 8.232 20.6071 8.61737 20.6071H11.3022V18.6264C10.6781 18.5602 10.0632 18.4052 9.47659 18.1632C8.25754 17.6604 7.21654 16.8048 6.48712 15.7062C5.75819 14.6083 5.37367 13.3178 5.38279 12.0001V10.3113C5.38279 9.9259 5.69519 9.6135 6.08055 9.6135C6.46592 9.6135 6.77832 9.9259 6.77832 10.3113V12.0077C6.77071 13.0483 7.07414 14.0674 7.64973 14.9343C8.22532 15.8012 9.04679 16.4763 10.0088 16.8732C10.5723 17.1056 11.1689 17.2363 11.7714 17.2627C11.843 17.2379 11.9199 17.2244 12 17.2244C12.0801 17.2244 12.157 17.2379 12.2286 17.2627C12.503 17.2507 12.7772 17.217 13.0487 17.1613C13.8311 17.001 14.563 16.664 15.1903 16.1799L13.7385 14.7282C13.4016 14.9429 13.0261 15.0944 12.6303 15.1731C12.0032 15.2976 11.3532 15.2336 10.7625 14.989C10.1718 14.7444 9.6668 14.3302 9.31132 13.7988C8.95584 13.2674 8.76582 12.6425 8.76526 12.0032L8.76526 9.75489L2.20437 3.194C1.93188 2.92151 1.93188 2.47971 2.20437 2.20721ZM10.1608 11.1504V12.0019C10.1611 12.3655 10.2692 12.7207 10.4713 13.0229C10.6734 13.3251 10.9605 13.5606 11.2964 13.6996C11.6323 13.8387 12.0018 13.8751 12.3584 13.8043C12.4788 13.7804 12.5959 13.7446 12.7081 13.6978L10.1608 11.1504ZM17.9198 9.6135C18.3051 9.6135 18.6175 9.9259 18.6175 10.3113V12.0026C18.6172 12.3925 18.5824 12.7822 18.5135 13.166C18.4455 13.5453 18.0828 13.7976 17.7035 13.7295C17.3242 13.6615 17.0719 13.2988 17.1399 12.9195C17.1943 12.6167 17.2217 12.3096 17.222 12.002V10.3113C17.222 9.9259 17.5344 9.6135 17.9198 9.6135Z" fill="#151515"/>
</svg>
