<svg width="24" height="24" viewBox="0 0 24 24" fill="none" xmlns="http://www.w3.org/2000/svg">
<path fill-rule="evenodd" clip-rule="evenodd" d="M9.58334 2.99331C10.225 2.35683 11.0943 2 11.9999 2C12.9055 2 13.7748 2.35683 14.4164 2.99331C15.0582 3.62993 15.4194 4.49427 15.4194 5.3964V12.5C15.4194 13.4021 15.0582 14.2665 14.4164 14.9031C13.7748 15.5396 12.9055 15.8964 11.9999 15.8964C11.0943 15.8964 10.225 15.5396 9.58334 14.9031C8.94159 14.2665 8.58029 13.4021 8.58029 12.5V5.3964C8.58029 4.49427 8.94159 3.62993 9.58334 2.99331ZM11.9999 3.46512C11.4811 3.46512 10.9844 3.6696 10.6188 4.03225C10.2534 4.39476 10.0488 4.88555 10.0488 5.3964V12.5C10.0488 13.0109 10.2534 13.5016 10.6188 13.8641C10.9844 14.2268 11.4811 14.4313 11.9999 14.4313C12.5187 14.4313 13.0154 14.2268 13.3809 13.8641C13.7464 13.5016 13.9509 13.0109 13.9509 12.5V5.3964C13.9509 4.88555 13.7464 4.39476 13.3809 4.03225C13.0154 3.6696 12.5187 3.46512 11.9999 3.46512ZM5.73427 9.99154C6.13979 9.99154 6.46853 10.3195 6.46853 10.7241V12.5C6.46853 13.9528 7.05029 15.347 8.08718 16.3756C9.12421 17.4044 10.5316 17.9831 12 17.9831C13.4684 17.9831 14.8758 17.4044 15.9128 16.3756C16.9497 15.347 17.5315 13.9528 17.5315 12.5V10.7241C17.5315 10.3195 17.8602 9.99154 18.2657 9.99154C18.6713 9.99154 19 10.3195 19 10.7241V12.5C19 14.3441 18.2615 16.1119 16.9483 17.4146C15.8096 18.5442 14.3198 19.2439 12.7343 19.4099L12.7344 21.5349H15.5802C15.9857 21.5349 16.3145 21.8629 16.3145 22.2674C16.3145 22.672 15.9857 23 15.5802 23H12.0042C12.0029 23 12.0015 23 12.0002 23C11.9988 23 11.9974 23 11.996 23H8.41936C8.01384 23 7.6851 22.672 7.6851 22.2674C7.6851 21.8629 8.01384 21.5349 8.41936 21.5349H11.2658L11.2658 19.4099C9.68027 19.2439 8.19042 18.5442 7.05173 17.4146C5.73852 16.1119 5 14.3441 5 12.5V10.7241C5 10.3195 5.32874 9.99154 5.73427 9.99154Z" fill="#151515"/>
</svg>
