<svg width="24" height="24" viewBox="0 0 24 24" fill="none" xmlns="http://www.w3.org/2000/svg">
<path fill-rule="evenodd" clip-rule="evenodd" d="M8.34286 3C8.76891 3 9.11429 3.34538 9.11429 3.77143V6.51429C9.11429 7.20385 8.84036 7.86517 8.35276 8.35276C7.86517 8.84036 7.20385 9.11429 6.51429 9.11429H3.77143C3.34538 9.11429 3 8.76891 3 8.34286C3 7.91681 3.34538 7.57143 3.77143 7.57143H6.51429C6.79466 7.57143 7.06355 7.46005 7.2618 7.2618C7.46005 7.06355 7.57143 6.79466 7.57143 6.51429V3.77143C7.57143 3.34538 7.91681 3 8.34286 3ZM15.6571 3C16.0832 3 16.4286 3.34538 16.4286 3.77143V6.51429C16.4286 6.79466 16.5399 7.06355 16.7382 7.2618C16.9365 7.46005 17.2053 7.57143 17.4857 7.57143H20.2286C20.6546 7.57143 21 7.91681 21 8.34286C21 8.76891 20.6546 9.11429 20.2286 9.11429H17.4857C16.7962 9.11429 16.1348 8.84036 15.6472 8.35276C15.1596 7.86517 14.8857 7.20385 14.8857 6.51429V3.77143C14.8857 3.34538 15.2311 3 15.6571 3ZM3 15.6571C3 15.2311 3.34538 14.8857 3.77143 14.8857H6.51429C7.20385 14.8857 7.86517 15.1596 8.35276 15.6472C8.84036 16.1348 9.11429 16.7962 9.11429 17.4857V20.2286C9.11429 20.6546 8.76891 21 8.34286 21C7.91681 21 7.57143 20.6546 7.57143 20.2286V17.4857C7.57143 17.2053 7.46005 16.9365 7.2618 16.7382C7.06355 16.5399 6.79466 16.4286 6.51429 16.4286H3.77143C3.34538 16.4286 3 16.0832 3 15.6571ZM17.4857 16.4286C17.2053 16.4286 16.9365 16.5399 16.7382 16.7382C16.5399 16.9365 16.4286 17.2053 16.4286 17.4857V20.2286C16.4286 20.6546 16.0832 21 15.6571 21C15.2311 21 14.8857 20.6546 14.8857 20.2286V17.4857C14.8857 16.7962 15.1596 16.1348 15.6472 15.6472C16.1348 15.1596 16.7962 14.8857 17.4857 14.8857H20.2286C20.6546 14.8857 21 15.2311 21 15.6571C21 16.0832 20.6546 16.4286 20.2286 16.4286H17.4857Z" fill="#151515"/>
</svg>
