<svg width="24" height="24" viewBox="0 0 24 24" fill="none" xmlns="http://www.w3.org/2000/svg">
<path fill-rule="evenodd" clip-rule="evenodd" d="M20.7741 3.22594C21.0753 3.5272 21.0753 4.01565 20.7741 4.31691L15.691 9.4H19.3143C19.7404 9.4 20.0858 9.74538 20.0858 10.1714C20.0858 10.5975 19.7404 10.9429 19.3143 10.9429H13.8286C13.4026 10.9429 13.0572 10.5975 13.0572 10.1714V4.68571C13.0572 4.25967 13.4026 3.91429 13.8286 3.91429C14.2547 3.91429 14.6001 4.25967 14.6001 4.68571V8.30902L19.6831 3.22595C19.9843 2.92469 20.4728 2.92468 20.7741 3.22594ZM3.91406 13.8286C3.91406 13.4025 4.25944 13.0571 4.68549 13.0571H10.1712C10.5973 13.0571 10.9426 13.4025 10.9426 13.8286V19.3143C10.9426 19.7403 10.5973 20.0857 10.1712 20.0857C9.74516 20.0857 9.39978 19.7403 9.39978 19.3143V15.691L4.31692 20.774C4.01566 21.0753 3.52722 21.0753 3.22596 20.7741C2.92469 20.4728 2.92468 19.9844 3.22594 19.6831L8.30886 14.6H4.68549C4.25944 14.6 3.91406 14.2546 3.91406 13.8286Z" fill="#151515"/>
</svg>
