<svg width="24" height="24" viewBox="0 0 24 24" fill="none" xmlns="http://www.w3.org/2000/svg">
<path fill-rule="evenodd" clip-rule="evenodd" d="M3.22595 3.22594C3.52721 2.92468 4.01565 2.92469 4.31691 3.22595L9.39994 8.30902V4.68571C9.39994 4.25967 9.74532 3.91429 10.1714 3.91429C10.5974 3.91429 10.9428 4.25967 10.9428 4.68571V10.1714C10.9428 10.5975 10.5974 10.9429 10.1714 10.9429H4.68566C4.25961 10.9429 3.91423 10.5975 3.91423 10.1714C3.91423 9.74538 4.25961 9.4 4.68566 9.4H8.30899L3.22594 4.31691C2.92468 4.01565 2.92469 3.5272 3.22595 3.22594ZM13.0574 13.8286C13.0574 13.4025 13.4027 13.0571 13.8288 13.0571H19.3145C19.7406 13.0571 20.0859 13.4025 20.0859 13.8286C20.0859 14.2546 19.7406 14.6 19.3145 14.6H15.6911L20.7741 19.6831C21.0753 19.9844 21.0753 20.4728 20.774 20.7741C20.4728 21.0753 19.9843 21.0753 19.6831 20.774L14.6002 15.691V19.3143C14.6002 19.7403 14.2548 20.0857 13.8288 20.0857C13.4027 20.0857 13.0574 19.7403 13.0574 19.3143V13.8286Z" fill="#151515"/>
</svg>
