<svg width="24" height="24" viewBox="0 0 24 24" fill="none" xmlns="http://www.w3.org/2000/svg">
<path fill-rule="evenodd" clip-rule="evenodd" d="M4.76486 3.39535C4.0085 3.39535 3.39535 4.0085 3.39535 4.76486V19.2351C3.39535 19.9915 4.0085 20.6047 4.76486 20.6047H19.2351C19.9915 20.6047 20.6047 19.9915 20.6047 19.2351V4.76486C20.6047 4.0085 19.9915 3.39535 19.2351 3.39535H4.76486ZM2 4.76486C2 3.23787 3.23787 2 4.76486 2H19.2351C20.7621 2 22 3.23787 22 4.76486V19.2351C22 20.7621 20.7621 22 19.2351 22H4.76486C3.23787 22 2 20.7621 2 19.2351V4.76486ZM7.5814 12C7.5814 11.6147 7.89375 11.3023 8.27907 11.3023H15.7209C16.1062 11.3023 16.4186 11.6147 16.4186 12C16.4186 12.3853 16.1062 12.6977 15.7209 12.6977H8.27907C7.89375 12.6977 7.5814 12.3853 7.5814 12Z" fill="#151515"/>
</svg>
