<svg width="24" height="24" viewBox="0 0 24 24" fill="none" xmlns="http://www.w3.org/2000/svg">
<path fill-rule="evenodd" clip-rule="evenodd" d="M11.8385 2.39157C11.9874 2.65571 11.9672 2.98266 11.787 3.22648C10.8722 4.4641 10.432 5.98895 10.5464 7.52369C10.6609 9.05844 11.3224 10.5011 12.4106 11.5894C13.4989 12.6776 14.9416 13.3391 16.4763 13.4536C18.0111 13.568 19.5359 13.1278 20.7735 12.213C21.0173 12.0328 21.3443 12.0126 21.6084 12.1615C21.8726 12.3103 22.0246 12.6005 21.9967 12.9024C21.8216 14.7974 21.1104 16.6034 19.9463 18.109C18.7822 19.6146 17.2135 20.7575 15.4235 21.4041C13.6336 22.0506 11.6965 22.174 9.83903 21.7598C7.98153 21.3457 6.28039 20.411 4.93468 19.0653C3.58897 17.7196 2.65434 16.0185 2.24016 14.161C1.82598 12.3035 1.94938 10.3664 2.59592 8.57648C3.24245 6.78654 4.38539 5.21775 5.89098 4.05368C7.39658 2.88961 9.20256 2.1784 11.0976 2.00328C11.3995 1.97538 11.6897 2.12743 11.8385 2.39157ZM9.66747 3.83192C8.64461 4.12718 7.68178 4.61377 6.832 5.27079C5.55758 6.25612 4.59014 7.58403 4.04288 9.09913C3.49561 10.6142 3.39116 12.2539 3.74175 13.8261C4.09233 15.3984 4.88345 16.8384 6.02254 17.9775C7.16162 19.1165 8.60155 19.9077 10.1739 20.2583C11.7461 20.6088 13.3858 20.5044 14.9009 19.9571C16.416 19.4099 17.7439 18.4424 18.7292 17.168C19.3862 16.3182 19.8728 15.3554 20.1681 14.3325C18.9804 14.8564 17.6741 15.0856 16.3619 14.9878C14.4597 14.8459 12.6716 14.026 11.3228 12.6772C9.97396 11.3284 9.15408 9.54031 9.01222 7.6381C8.91437 6.32593 9.14365 5.01959 9.66747 3.83192Z" fill="#151515"/>
</svg>
