<svg width="24" height="24" viewBox="0 0 24 24" fill="none" xmlns="http://www.w3.org/2000/svg">
<path fill-rule="evenodd" clip-rule="evenodd" d="M12 3.71429C11.8422 3.71429 11.7143 3.8422 11.7143 4C11.7143 4.1578 11.8422 4.28571 12 4.28571C12.1578 4.28571 12.2857 4.1578 12.2857 4C12.2857 3.8422 12.1578 3.71429 12 3.71429ZM10 4C10 2.89543 10.8954 2 12 2C13.1046 2 14 2.89543 14 4C14 5.10457 13.1046 6 12 6C10.8954 6 10 5.10457 10 4ZM12 11.7143C11.8422 11.7143 11.7143 11.8422 11.7143 12C11.7143 12.1578 11.8422 12.2857 12 12.2857C12.1578 12.2857 12.2857 12.1578 12.2857 12C12.2857 11.8422 12.1578 11.7143 12 11.7143ZM10 12C10 10.8954 10.8954 10 12 10C13.1046 10 14 10.8954 14 12C14 13.1046 13.1046 14 12 14C10.8954 14 10 13.1046 10 12ZM12 19.7143C11.8422 19.7143 11.7143 19.8422 11.7143 20C11.7143 20.1578 11.8422 20.2857 12 20.2857C12.1578 20.2857 12.2857 20.1578 12.2857 20C12.2857 19.8422 12.1578 19.7143 12 19.7143ZM10 20C10 18.8954 10.8954 18 12 18C13.1046 18 14 18.8954 14 20C14 21.1046 13.1046 22 12 22C10.8954 22 10 21.1046 10 20Z" fill="#151515"/>
</svg>
