<svg width="24" height="24" viewBox="0 0 24 24" fill="none" xmlns="http://www.w3.org/2000/svg">
<path fill-rule="evenodd" clip-rule="evenodd" d="M4 11.7143C3.8422 11.7143 3.71429 11.8422 3.71429 12C3.71429 12.1578 3.8422 12.2857 4 12.2857C4.1578 12.2857 4.28571 12.1578 4.28571 12C4.28571 11.8422 4.1578 11.7143 4 11.7143ZM2 12C2 10.8954 2.89543 10 4 10C5.10457 10 6 10.8954 6 12C6 13.1046 5.10457 14 4 14C2.89543 14 2 13.1046 2 12ZM12 11.7143C11.8422 11.7143 11.7143 11.8422 11.7143 12C11.7143 12.1578 11.8422 12.2857 12 12.2857C12.1578 12.2857 12.2857 12.1578 12.2857 12C12.2857 11.8422 12.1578 11.7143 12 11.7143ZM10 12C10 10.8954 10.8954 10 12 10C13.1046 10 14 10.8954 14 12C14 13.1046 13.1046 14 12 14C10.8954 14 10 13.1046 10 12ZM20 11.7143C19.8422 11.7143 19.7143 11.8422 19.7143 12C19.7143 12.1578 19.8422 12.2857 20 12.2857C20.1578 12.2857 20.2857 12.1578 20.2857 12C20.2857 11.8422 20.1578 11.7143 20 11.7143ZM18 12C18 10.8954 18.8954 10 20 10C21.1046 10 22 10.8954 22 12C22 13.1046 21.1046 14 20 14C18.8954 14 18 13.1046 18 12Z" fill="#151515"/>
</svg>
