<svg width="24" height="24" viewBox="0 0 24 24" fill="none" xmlns="http://www.w3.org/2000/svg">
<path fill-rule="evenodd" clip-rule="evenodd" d="M9.92593 3.53846C8.06452 3.53846 6.55556 5.03085 6.55556 6.8718V17.1282C6.55556 18.9692 8.06452 20.4615 9.92593 20.4615H14.0741C15.9355 20.4615 17.4444 18.9692 17.4444 17.1282V6.8718C17.4444 5.03085 15.9355 3.53846 14.0741 3.53846H9.92593ZM5 6.8718C5 4.18118 7.20541 2 9.92593 2H14.0741C16.7946 2 19 4.18118 19 6.8718V17.1282C19 19.8188 16.7946 22 14.0741 22H9.92593C7.20541 22 5 19.8188 5 17.1282V6.8718ZM12 6.10256C12.4296 6.10256 12.7778 6.44696 12.7778 6.8718V10.9744C12.7778 11.3992 12.4296 11.7436 12 11.7436C11.5704 11.7436 11.2222 11.3992 11.2222 10.9744V6.8718C11.2222 6.44696 11.5704 6.10256 12 6.10256Z" fill="#151515"/>
</svg>
