<svg width="24" height="24" viewBox="0 0 24 24" fill="none" xmlns="http://www.w3.org/2000/svg">
<path fill-rule="evenodd" clip-rule="evenodd" d="M2.22532 2.2253C2.44573 2.0049 2.77735 1.93929 3.06508 2.05916L21.5266 9.75055C21.822 9.87361 22.0103 10.1667 21.9996 10.4865C21.9888 10.8063 21.7812 11.0861 21.4782 11.189L14.6097 13.5218L20.7194 19.6316C21.0198 19.932 21.0198 20.419 20.7194 20.7194C20.419 21.0198 19.932 21.0198 19.6316 20.7194L13.5219 14.6097L11.189 21.4781C11.0861 21.7811 10.8064 21.9888 10.4865 21.9995C10.1667 22.0103 9.87364 21.822 9.75057 21.5266L2.05918 3.06506C1.93931 2.77733 2.00492 2.44571 2.22532 2.2253ZM4.19768 4.19765L10.3874 19.0546L12.4629 12.9438C12.5398 12.7175 12.7175 12.5397 12.9439 12.4629L19.0547 10.3873L4.19768 4.19765Z" fill="#151515"/>
</svg>
