<svg width="24" height="24" viewBox="0 0 24 24" fill="none" xmlns="http://www.w3.org/2000/svg">
<path fill-rule="evenodd" clip-rule="evenodd" d="M12 3C12.2045 3 12.4008 3.08127 12.5454 3.22594L15.014 5.6945C15.3152 5.99576 15.3152 6.4842 15.014 6.78546C14.7127 7.08672 14.2243 7.08672 13.923 6.78546L12.7714 5.63382L12.7714 11.2285H18.3662L17.2145 10.0769C16.9133 9.77561 16.9133 9.28717 17.2145 8.98591C17.5158 8.68465 18.0042 8.68465 18.3055 8.98591L20.7741 11.4545C21.0753 11.7557 21.0753 12.2442 20.7741 12.5454L18.3055 15.014C18.0042 15.3152 17.5158 15.3152 17.2145 15.014C16.9133 14.7127 16.9133 14.2243 17.2145 13.923L18.3662 12.7714H12.7714L12.7715 18.3661L13.9231 17.2144C14.2244 16.9132 14.7128 16.9132 15.0141 17.2144C15.3153 17.5157 15.3153 18.0041 15.0141 18.3054L12.5455 20.774C12.2443 21.0752 11.7558 21.0752 11.4546 20.774L8.98601 18.3054C8.68475 18.0041 8.68475 17.5157 8.98601 17.2144C9.28727 16.9132 9.77571 16.9132 10.077 17.2144L11.2286 18.3661L11.2286 12.7714H5.63381L6.78546 13.923C7.08672 14.2243 7.08672 14.7127 6.78546 15.014C6.4842 15.3152 5.99576 15.3152 5.6945 15.014L3.22594 12.5454C3.08127 12.4008 3 12.2045 3 12C3 11.7954 3.08127 11.5991 3.22594 11.4545L5.6945 8.98591C5.99576 8.68465 6.4842 8.68465 6.78546 8.98591C7.08672 9.28717 7.08672 9.77561 6.78546 10.0769L5.63381 11.2285H11.2286L11.2285 5.6338L10.0769 6.78546C9.77561 7.08672 9.28717 7.08672 8.98591 6.78546C8.68465 6.4842 8.68465 5.99576 8.98591 5.6945L11.4545 3.22594C11.5991 3.08127 11.7954 3 12 3Z" fill="#151515"/>
</svg>
