<svg width="24" height="24" viewBox="0 0 24 24" fill="none" xmlns="http://www.w3.org/2000/svg">
<path fill-rule="evenodd" clip-rule="evenodd" d="M21.728 2.18229C21.9005 2.32845 22 2.54311 22 2.76923V16.1026C22 18.2267 20.278 19.9487 18.1538 19.9487C16.0297 19.9487 14.3077 18.2267 14.3077 16.1026C14.3077 13.9784 16.0297 12.2564 18.1538 12.2564C19.0197 12.2564 19.8187 12.5425 20.4615 13.0254V3.67728L9.69231 5.47215V18.1538C9.69231 20.278 7.97033 22 5.84615 22C3.72198 22 2 20.278 2 18.1538C2 16.0297 3.72198 14.3077 5.84615 14.3077C6.712 14.3077 7.51103 14.5938 8.15385 15.0766V4.82051C8.15385 4.44448 8.4257 4.12357 8.79662 4.06175L21.1043 2.01046C21.3274 1.97329 21.5555 2.03613 21.728 2.18229ZM8.15385 18.1538C8.15385 16.8793 7.12066 15.8462 5.84615 15.8462C4.57165 15.8462 3.53846 16.8793 3.53846 18.1538C3.53846 19.4283 4.57165 20.4615 5.84615 20.4615C7.12066 20.4615 8.15385 19.4283 8.15385 18.1538ZM20.4615 16.1026C20.4615 14.8281 19.4284 13.7949 18.1538 13.7949C16.8793 13.7949 15.8462 14.8281 15.8462 16.1026C15.8462 17.3771 16.8793 18.4103 18.1538 18.4103C19.4284 18.4103 20.4615 17.3771 20.4615 16.1026Z" fill="#151515"/>
</svg>
