<svg width="24" height="24" viewBox="0 0 24 24" fill="none" xmlns="http://www.w3.org/2000/svg">
<path fill-rule="evenodd" clip-rule="evenodd" d="M2.90121 2.90121C3.47824 2.32417 4.26087 2 5.07692 2H18.9231C19.7391 2 20.5218 2.32417 21.0988 2.90121C21.6758 3.47824 22 4.26087 22 5.07692V13.1538C22 13.3579 21.919 13.5535 21.7747 13.6978L13.6978 21.7747C13.5535 21.919 13.3579 22 13.1538 22H5.07692C4.26087 22 3.47824 21.6758 2.90121 21.0988C2.32417 20.5218 2 19.7391 2 18.9231V5.07692C2 4.26087 2.32417 3.47824 2.90121 2.90121ZM5.07692 3.53846C4.6689 3.53846 4.27758 3.70055 3.98907 3.98907C3.70055 4.27758 3.53846 4.6689 3.53846 5.07692V18.9231C3.53846 19.3311 3.70055 19.7224 3.98907 20.0109C4.27758 20.2995 4.6689 20.4615 5.07692 20.4615H12.3846V14.3077C12.3846 13.7977 12.5872 13.3085 12.9479 12.9479C13.3085 12.5872 13.7977 12.3846 14.3077 12.3846H20.4615V5.07692C20.4615 4.6689 20.2995 4.27758 20.0109 3.98907C19.7224 3.70055 19.3311 3.53846 18.9231 3.53846H5.07692ZM19.3737 13.9231H14.3077C14.2057 13.9231 14.1079 13.9636 14.0357 14.0357C13.9636 14.1079 13.9231 14.2057 13.9231 14.3077V19.3737L19.3737 13.9231Z" fill="#151515"/>
</svg>
