<svg width="24" height="24" viewBox="0 0 24 24" fill="none" xmlns="http://www.w3.org/2000/svg">
<path fill-rule="evenodd" clip-rule="evenodd" d="M7.65551 2.20434C7.78635 2.0735 7.9638 2 8.14884 2H15.8512C16.0362 2 16.2137 2.0735 16.3445 2.20434L21.7957 7.65551C21.9265 7.78635 22 7.9638 22 8.14884V15.8512C22 16.0362 21.9265 16.2137 21.7957 16.3445L16.3445 21.7957C16.2137 21.9265 16.0362 22 15.8512 22H8.14884C7.9638 22 7.78635 21.9265 7.65551 21.7957L2.20434 16.3445C2.0735 16.2137 2 16.0362 2 15.8512V8.14884C2 7.9638 2.0735 7.78635 2.20434 7.65551L7.65551 2.20434ZM8.43782 3.39535L3.39535 8.43782V15.5622L8.43782 20.6047H15.5622L20.6047 15.5622V8.43782L15.5622 3.39535H8.43782Z" fill="#151515"/>
</svg>
