<svg width="24" height="24" viewBox="0 0 24 24" fill="none" xmlns="http://www.w3.org/2000/svg">
<path fill-rule="evenodd" clip-rule="evenodd" d="M10.7322 2.34078C11.1178 2.11761 11.555 2.00012 12 2.00012C12.445 2.00012 12.8822 2.11759 13.2677 2.34075C13.2682 2.34104 13.2687 2.34132 13.2692 2.34161L19.7308 6.04909C20.0497 6.23396 20.3239 6.48579 20.5352 6.78633C20.5822 6.83115 20.6236 6.8834 20.6577 6.94258C20.6875 6.9943 20.7099 7.04826 20.7253 7.10325C20.9052 7.45927 20.9996 7.85338 21 8.2539V15.6696C20.9995 16.1166 20.882 16.5563 20.6593 16.9433C20.4365 17.3302 20.1163 17.6516 19.7308 17.8751L19.7281 17.8766L13.2692 21.5826C13.2687 21.5829 13.2683 21.5832 13.2678 21.5834C12.9873 21.7458 12.6795 21.8522 12.3612 21.8981C12.256 21.9628 12.1324 22.0001 12 22.0001C11.8676 22.0001 11.744 21.9628 11.6388 21.8981C11.3205 21.8522 11.0127 21.7458 10.7322 21.5834C10.7317 21.5831 10.7312 21.5829 10.7308 21.5826L4.2719 17.8766L4.26923 17.8751C3.88372 17.6516 3.56351 17.3302 3.34074 16.9433C3.11797 16.5563 3.00046 16.1173 3 15.6703L3 8.25461C3.00041 7.85409 3.0948 7.45927 3.27469 7.10325C3.29006 7.04826 3.31248 6.9943 3.34227 6.94258C3.37637 6.8834 3.41782 6.83115 3.46481 6.78633C3.67614 6.48579 3.95034 6.23396 4.26923 6.0491L4.2719 6.04755L7.30619 4.30655C7.41814 4.16615 7.57716 4.07861 7.74671 4.05379L10.7322 2.34078ZM7.89282 5.57124L5.11147 7.16712L12 11.1683L14.7751 9.55636L7.89282 5.57124ZM16.1588 8.75266L9.28499 4.77245L11.4204 3.54719L11.4231 3.54565C11.5985 3.44396 11.7975 3.39043 12 3.39043C12.2025 3.39043 12.4015 3.44396 12.5769 3.54565L18.8885 7.16712L16.1588 8.75266ZM19.6154 8.3511L12.6923 12.3723V20.3123L19.0385 16.6711C19.0389 16.6708 19.0393 16.6706 19.0397 16.6704C19.2144 16.5688 19.3595 16.423 19.4605 16.2475C19.5618 16.0716 19.6152 15.872 19.6154 15.6689V8.3511ZM11.3077 20.3123V12.3723L4.38462 8.3511V15.6692C4.38488 15.8723 4.43829 16.0717 4.5395 16.2475C4.64053 16.423 4.78565 16.5688 4.96035 16.6704C4.96075 16.6706 4.96114 16.6708 4.96154 16.6711L11.3077 20.3123Z" fill="#151515"/>
</svg>
