<svg width="24" height="24" viewBox="0 0 24 24" fill="none" xmlns="http://www.w3.org/2000/svg">
<path fill-rule="evenodd" clip-rule="evenodd" d="M15.8661 3.3954C15.0294 3.40011 14.2356 3.71594 13.6551 4.26337L4.85928 12.559C3.91666 13.448 3.39535 14.6447 3.39535 15.8833C3.39535 17.1218 3.91666 18.3186 4.85928 19.2076C5.80329 20.0979 7.09192 20.6046 8.44353 20.6046C9.79515 20.6046 11.0838 20.0979 12.0278 19.2076L20.8236 10.912C21.104 10.6476 21.5455 10.6605 21.8099 10.9408C22.0742 11.2212 22.0613 11.6627 21.781 11.9271L12.9852 20.2227C11.774 21.3649 10.1397 22 8.44353 22C6.74736 22 5.11302 21.3649 3.90191 20.2227C2.68942 19.0791 2 17.5191 2 15.8833C2 14.2474 2.68942 12.6874 3.90191 11.5438L12.6978 3.24826C13.5497 2.44479 14.6969 2 15.8851 2C15.8976 2 15.9101 2.00034 15.9226 2.00101C16.6647 2.04102 17.7597 2.30532 18.6883 2.98797C19.5749 3.63968 20.2902 4.6626 20.3938 6.14602C20.4066 6.19872 20.4133 6.25377 20.4133 6.31038C20.4133 6.39552 20.4107 6.4804 20.4054 6.56493C20.3394 7.62819 19.8627 8.62719 19.0724 9.37251L10.267 17.6681C9.77422 18.1328 9.11421 18.3873 8.43396 18.3873C7.75372 18.3873 7.0937 18.1328 6.60097 17.6681C6.10684 17.2021 5.821 16.561 5.821 15.8833C5.821 15.2055 6.10684 14.5644 6.60097 14.0984L14.7271 6.44345C15.0076 6.17924 15.4492 6.19243 15.7134 6.4729C15.9776 6.75337 15.9644 7.19491 15.6839 7.45912L7.55834 15.1135C7.33409 15.325 7.21635 15.6028 7.21635 15.8833C7.21635 16.1637 7.33409 16.4415 7.55834 16.653C7.78397 16.8658 8.09828 16.9919 8.43396 16.9919C8.76965 16.9919 9.08396 16.8658 9.30959 16.653L18.115 8.3574C18.65 7.8528 18.963 7.19092 19.0114 6.49966C19.0051 5.30663 18.4918 4.57531 17.8619 4.11224C17.2049 3.62928 16.399 3.42773 15.8661 3.3954Z" fill="#151515"/>
</svg>
