<svg width="24" height="24" viewBox="0 0 24 24" fill="none" xmlns="http://www.w3.org/2000/svg">
<path fill-rule="evenodd" clip-rule="evenodd" d="M12 3.39535C7.24778 3.39535 3.39535 7.24778 3.39535 12C3.39535 16.7522 7.24778 20.6047 12 20.6047C16.7522 20.6047 20.6047 16.7522 20.6047 12C20.6047 7.24778 16.7522 3.39535 12 3.39535ZM2 12C2 6.47715 6.47715 2 12 2C17.5228 2 22 6.47715 22 12C22 17.5228 17.5228 22 12 22C6.47715 22 2 17.5228 2 12ZM10.1395 8.51163C10.5248 8.51163 10.8372 8.82399 10.8372 9.2093V14.7907C10.8372 15.176 10.5248 15.4884 10.1395 15.4884C9.75422 15.4884 9.44186 15.176 9.44186 14.7907V9.2093C9.44186 8.82399 9.75422 8.51163 10.1395 8.51163ZM13.8605 8.51163C14.2458 8.51163 14.5581 8.82399 14.5581 9.2093V14.7907C14.5581 15.176 14.2458 15.4884 13.8605 15.4884C13.4752 15.4884 13.1628 15.176 13.1628 14.7907V9.2093C13.1628 8.82399 13.4752 8.51163 13.8605 8.51163Z" fill="#151515"/>
</svg>
