<svg width="24" height="24" viewBox="0 0 24 24" fill="none" xmlns="http://www.w3.org/2000/svg">
<path fill-rule="evenodd" clip-rule="evenodd" d="M5 3.77143C5 3.34538 5.34822 3 5.77778 3H9.92593C10.3555 3 10.7037 3.34538 10.7037 3.77143V20.2286C10.7037 20.6546 10.3555 21 9.92593 21H5.77778C5.34822 21 5 20.6546 5 20.2286V3.77143ZM6.55556 4.54286V19.4571H9.14815V4.54286H6.55556ZM13.2963 3.77143C13.2963 3.34538 13.6445 3 14.0741 3H18.2222C18.6518 3 19 3.34538 19 3.77143V20.2286C19 20.6546 18.6518 21 18.2222 21H14.0741C13.6445 21 13.2963 20.6546 13.2963 20.2286V3.77143ZM14.8519 4.54286V19.4571H17.4444V4.54286H14.8519Z" fill="#151515"/>
</svg>
