<svg width="24" height="24" viewBox="0 0 24 24" fill="none" xmlns="http://www.w3.org/2000/svg">
<path fill-rule="evenodd" clip-rule="evenodd" d="M18.5681 3.53846C18.1986 3.53846 17.8357 3.68856 17.5618 3.96934L4.55923 17.2975L3.8609 20.1607L6.57949 19.464L19.5743 6.14386C19.7103 6.0045 19.8201 5.83699 19.8957 5.64996C19.9712 5.46289 20.0106 5.26116 20.0106 5.0566C20.0106 4.85204 19.9712 4.65031 19.8957 4.46324C19.8201 4.27622 19.7103 4.1087 19.5743 3.96934C19.4384 3.83006 19.2793 3.72174 19.107 3.64861C18.9349 3.57552 18.7519 3.53846 18.5681 3.53846ZM16.4185 2.90903C16.9815 2.33188 17.7539 2 18.5681 2C18.9703 2 19.3677 2.08127 19.737 2.23809C20.1062 2.39485 20.4391 2.62351 20.7176 2.90903C20.9961 3.19447 21.215 3.53128 21.3637 3.89929C21.5124 4.26725 21.5885 4.6604 21.5885 5.0566C21.5885 5.4528 21.5124 5.84595 21.3637 6.21392C21.215 6.58193 20.9961 6.91873 20.7176 7.20417L7.56838 20.6826C7.46743 20.7861 7.33893 20.8601 7.19728 20.8964L2.98952 21.9747C2.72142 22.0434 2.43601 21.9699 2.23771 21.781C2.0394 21.5922 1.95729 21.3157 2.02142 21.0528L3.07336 16.7397C3.1056 16.6075 3.1732 16.486 3.26926 16.3875L16.4185 2.90903ZM11.4675 21.2308C11.4675 20.8059 11.8207 20.4615 12.2564 20.4615H21.7239C22.1596 20.4615 22.5128 20.8059 22.5128 21.2308C22.5128 21.6556 22.1596 22 21.7239 22H12.2564C11.8207 22 11.4675 21.6556 11.4675 21.2308Z" fill="#151515"/>
</svg>
