<svg width="24" height="24" viewBox="0 0 24 24" fill="none" xmlns="http://www.w3.org/2000/svg">
<path fill-rule="evenodd" clip-rule="evenodd" d="M2.20436 2.20436C2.37622 2.0325 2.62513 1.96246 2.86139 2.01949L16.3498 5.2753C16.6138 5.33905 16.8169 5.55029 16.8702 5.81667L18.0099 11.5151L18.0183 11.5067C18.2908 11.2342 18.7325 11.2342 19.005 11.5067L21.7957 14.2974C22.0681 14.5698 22.0681 15.0116 21.7957 15.284L15.284 21.7957C15.0116 22.0681 14.5698 22.0681 14.2974 21.7957L11.5067 19.005C11.2342 18.7325 11.2342 18.2908 11.5067 18.0183L11.5151 18.0099L5.81667 16.8702C5.55029 16.8169 5.33905 16.6138 5.2753 16.3498L2.01949 2.86139C1.96246 2.62513 2.0325 2.37622 2.20436 2.20436ZM12.7009 16.824L16.824 12.7009L15.5893 6.52717L4.94436 3.9577L9.82246 8.8358C10.1915 8.62933 10.6169 8.51164 11.0698 8.51164C12.4826 8.51164 13.6279 9.65695 13.6279 11.0698C13.6279 12.4826 12.4826 13.6279 11.0698 13.6279C9.65695 13.6279 8.51164 12.4826 8.51164 11.0698C8.51164 10.6169 8.62933 10.1915 8.8358 9.82246L3.9577 4.94436L6.52717 15.5893L12.7009 16.824ZM10.2365 10.2588C10.0326 10.4683 9.90699 10.7544 9.90699 11.0698C9.90699 11.712 10.4276 12.2326 11.0698 12.2326C11.712 12.2326 12.2326 11.712 12.2326 11.0698C12.2326 10.4276 11.712 9.90699 11.0698 9.90699C10.7544 9.90699 10.4683 10.0326 10.2588 10.2365C10.2552 10.2403 10.2515 10.244 10.2478 10.2478C10.244 10.2515 10.2403 10.2552 10.2365 10.2588ZM12.9867 18.5116L14.7907 20.3157L20.3157 14.7907L18.5116 12.9867L12.9867 18.5116Z" fill="#151515"/>
</svg>
