<svg width="24" height="24" viewBox="0 0 24 24" fill="none" xmlns="http://www.w3.org/2000/svg">
<path fill-rule="evenodd" clip-rule="evenodd" d="M18.6485 3.39535C18.3916 3.39535 18.1372 3.44595 17.8999 3.54425C17.6625 3.64256 17.4469 3.78665 17.2652 3.9683L4.72945 16.5041L3.69203 20.308L7.49591 19.2705L20.0317 6.73477C20.2133 6.55312 20.3574 6.33747 20.4557 6.10013C20.5541 5.8628 20.6047 5.60843 20.6047 5.35153C20.6047 5.09464 20.5541 4.84027 20.4557 4.60293C20.3574 4.3656 20.2134 4.14995 20.0317 3.9683C19.85 3.78665 19.6344 3.64256 19.3971 3.54425C19.1597 3.44595 18.9054 3.39535 18.6485 3.39535ZM17.3659 2.25512C17.7725 2.08669 18.2083 2 18.6485 2C19.0886 2 19.5244 2.08669 19.931 2.25512C20.3377 2.42355 20.7071 2.67042 21.0184 2.98164C21.3296 3.29286 21.5765 3.66233 21.7449 4.06896C21.9133 4.47559 22 4.91141 22 5.35153C22 5.79166 21.9133 6.22748 21.7449 6.63411C21.5765 7.04074 21.3296 7.41021 21.0184 7.72143L8.35157 20.3882C8.26571 20.4741 8.15894 20.536 8.04181 20.568L2.88126 21.9754C2.63972 22.0413 2.38139 21.9727 2.20436 21.7956C2.02733 21.6186 1.95872 21.3603 2.0246 21.1187L3.43202 15.9582C3.46397 15.8411 3.52593 15.7343 3.61178 15.6484L16.2786 2.98164C16.5898 2.67042 16.9593 2.42355 17.3659 2.25512Z" fill="#151515"/>
</svg>
