<svg width="24" height="24" viewBox="0 0 24 24" fill="none" xmlns="http://www.w3.org/2000/svg">
<path fill-rule="evenodd" clip-rule="evenodd" d="M6.34286 4.54286C5.34874 4.54286 4.54286 5.34874 4.54286 6.34286C4.54286 7.33697 5.34874 8.14286 6.34286 8.14286C7.33697 8.14286 8.14286 7.33697 8.14286 6.34286C8.14286 5.34874 7.33697 4.54286 6.34286 4.54286ZM3 6.34286C3 4.49665 4.49665 3 6.34286 3C8.18907 3 9.68571 4.49665 9.68571 6.34286C9.68571 8.18907 8.18907 9.68571 6.34286 9.68571C4.49665 9.68571 3 8.18907 3 6.34286ZM19.7455 4.25452C20.0467 4.55578 20.0467 5.04422 19.7455 5.34548L5.34548 19.7455C5.04422 20.0467 4.55578 20.0467 4.25452 19.7455C3.95326 19.4442 3.95326 18.9558 4.25452 18.6545L18.6545 4.25452C18.9558 3.95326 19.4442 3.95326 19.7455 4.25452ZM17.6571 15.8571C16.663 15.8571 15.8571 16.663 15.8571 17.6571C15.8571 18.6513 16.663 19.4571 17.6571 19.4571C18.6513 19.4571 19.4571 18.6513 19.4571 17.6571C19.4571 16.663 18.6513 15.8571 17.6571 15.8571ZM14.3143 17.6571C14.3143 15.8109 15.8109 14.3143 17.6571 14.3143C19.5034 14.3143 21 15.8109 21 17.6571C21 19.5034 19.5034 21 17.6571 21C15.8109 21 14.3143 19.5034 14.3143 17.6571Z" fill="#151515"/>
</svg>
