<svg width="24" height="24" viewBox="0 0 24 24" fill="none" xmlns="http://www.w3.org/2000/svg">
<path fill-rule="evenodd" clip-rule="evenodd" d="M5.71429 3.71429C4.60972 3.71429 3.71429 4.60972 3.71429 5.71429C3.71429 6.81886 4.60972 7.71429 5.71429 7.71429C6.81886 7.71429 7.71429 6.81886 7.71429 5.71429C7.71429 4.60972 6.81886 3.71429 5.71429 3.71429ZM2 5.71429C2 3.66294 3.66294 2 5.71429 2C7.76563 2 9.42857 3.66294 9.42857 5.71429C9.42857 7.76563 7.76563 9.42857 5.71429 9.42857C3.66294 9.42857 2 7.76563 2 5.71429ZM20.6061 3.39391C20.9408 3.72864 20.9408 4.27136 20.6061 4.60609L4.60609 20.6061C4.27136 20.9408 3.72864 20.9408 3.39391 20.6061C3.05917 20.2714 3.05917 19.7286 3.39391 19.3939L19.3939 3.39391C19.7286 3.05917 20.2714 3.05917 20.6061 3.39391ZM18.2857 16.2857C17.1811 16.2857 16.2857 17.1811 16.2857 18.2857C16.2857 19.3903 17.1811 20.2857 18.2857 20.2857C19.3903 20.2857 20.2857 19.3903 20.2857 18.2857C20.2857 17.1811 19.3903 16.2857 18.2857 16.2857ZM14.5714 18.2857C14.5714 16.2344 16.2344 14.5714 18.2857 14.5714C20.3371 14.5714 22 16.2344 22 18.2857C22 20.3371 20.3371 22 18.2857 22C16.2344 22 14.5714 20.3371 14.5714 18.2857Z" fill="#151515"/>
</svg>
