<svg width="24" height="24" viewBox="0 0 24 24" fill="none" xmlns="http://www.w3.org/2000/svg">
<path fill-rule="evenodd" clip-rule="evenodd" d="M13.528 2.62078C13.5704 2.23782 13.9153 1.96179 14.2983 2.00425C16.2627 2.22206 18.0947 3.10008 19.4935 4.49445C20.8923 5.88884 21.7747 7.71672 21.9956 9.67806C22.0387 10.061 21.7632 10.4063 21.3803 10.4494C20.9974 10.4925 20.6521 10.2171 20.609 9.83416C20.4237 8.18807 19.683 6.65356 18.5084 5.48267C17.3338 4.31176 15.795 3.57409 14.1445 3.39109C13.7616 3.34863 13.4855 3.00375 13.528 2.62078ZM7.87408 4.54588C7.67474 4.37478 7.41964 4.28169 7.1563 4.28428L7.14944 4.28435L4.47777 4.28431C4.32723 4.2845 4.17841 4.31594 4.04079 4.37662C3.90308 4.43733 3.77964 4.52595 3.67829 4.63677C3.57694 4.74758 3.49989 4.87816 3.45197 5.02016C3.40457 5.16062 3.38668 5.30927 3.39938 5.45686C3.68085 8.0933 4.58012 10.6267 6.02456 12.8522L6.02789 12.8573C7.34032 14.9187 9.09146 16.6666 11.1571 17.9767L11.1625 17.9801C13.3821 19.4168 15.9082 20.3143 18.5382 20.6006C18.6868 20.6133 18.8365 20.5952 18.9778 20.5475C19.1045 20.5047 19.2219 20.439 19.3244 20.3539C19.3368 20.3405 19.3499 20.3275 19.3637 20.315C19.3983 20.2833 19.494 20.1768 19.5782 20.0172C19.6605 19.8614 19.7139 19.6892 19.7139 19.517V16.8501L19.7141 16.8328C19.7207 16.5683 19.6297 16.3104 19.458 16.1082C19.2869 15.9066 19.0475 15.7744 18.785 15.7367C17.8791 15.6172 16.9895 15.3959 16.1333 15.077L16.1318 15.0764C15.9376 15.0036 15.7266 14.9878 15.5237 15.031C15.3214 15.0741 15.1358 15.1739 14.9888 15.3186L14.9876 15.3198L13.8592 16.446C13.6372 16.6676 13.2947 16.7138 13.022 16.559C10.6831 15.2316 8.74626 13.2986 7.41611 10.9638C7.26042 10.6905 7.30683 10.3468 7.52945 10.1246L8.65903 8.9972C8.80397 8.85045 8.90374 8.66554 8.94673 8.46433C8.98984 8.26259 8.97411 8.05273 8.90137 7.85958L8.90077 7.85801C8.58121 7.00326 8.35942 6.1152 8.23962 5.21073C8.20238 4.9526 8.07267 4.71635 7.87408 4.54588ZM20.3676 21.2845C20.3486 21.307 20.3279 21.3285 20.3057 21.3489C20.0512 21.5819 19.751 21.7592 19.4241 21.8695C19.0972 21.9799 18.7509 22.0208 18.4072 21.9898L18.3947 21.9887C15.5467 21.6798 12.8109 20.7086 10.407 19.1532C8.17059 17.7343 6.27425 15.8416 4.85249 13.6093C3.28848 11.1988 2.31509 8.45441 2.01122 5.59842L2.01006 5.58752C1.97905 5.24503 2.01992 4.89986 2.12988 4.57402C2.23983 4.24818 2.41653 3.94885 2.64864 3.69506C2.88075 3.44128 3.16318 3.2386 3.47791 3.09985C3.79263 2.9611 4.1328 2.8893 4.47676 2.88897L7.1463 2.88897C7.74614 2.88398 8.32768 3.09637 8.78289 3.4871C9.23907 3.87866 9.53728 4.42267 9.62157 5.01785L9.62248 5.02427C9.72835 5.82548 9.92467 6.61219 10.2078 7.36937L10.2072 7.36779C10.3741 7.81101 10.4102 8.29276 10.3113 8.75591C10.2123 9.21904 9.98243 9.64399 9.64907 9.98045L9.64632 9.98323L8.89981 10.7283C9.99829 12.492 11.4892 13.9798 13.2567 15.076L14.0074 14.3267C14.3445 13.994 14.7699 13.7649 15.2332 13.6662C15.6963 13.5677 16.1779 13.6036 16.6212 13.7697C17.3798 14.0522 18.1679 14.2481 18.9707 14.3538L18.9769 14.3546C19.5787 14.4393 20.1285 14.7419 20.5218 15.2052C20.913 15.666 21.122 16.2539 21.1093 16.8581V19.517C21.1093 20.3445 20.656 20.9922 20.3676 21.2845ZM13.5366 6.12021C13.6102 5.742 13.9765 5.4951 14.3548 5.56875C15.3607 5.76465 16.2855 6.25574 17.0105 6.97937C17.7355 7.70303 18.2279 8.62632 18.4243 9.63116C18.4982 10.0093 18.2516 10.3758 17.8734 10.4497C17.4953 10.5236 17.1288 10.277 17.0549 9.89885C16.9118 9.1671 16.5532 8.49442 16.0248 7.96697C15.4963 7.43951 14.822 7.08128 14.088 6.93837C13.7098 6.86472 13.4629 6.49841 13.5366 6.12021Z" fill="#151515"/>
</svg>
