<svg width="24" height="24" viewBox="0 0 24 24" fill="none" xmlns="http://www.w3.org/2000/svg">
<path fill-rule="evenodd" clip-rule="evenodd" d="M8.15705 3.67847C7.94125 3.49324 7.66508 3.39248 7.38 3.39528L7.37315 3.39535L4.56724 3.39531C4.40426 3.3955 4.24313 3.42954 4.09412 3.49523C3.94504 3.56095 3.8114 3.65689 3.70168 3.77685C3.59195 3.89681 3.50853 4.03818 3.45665 4.19191C3.4053 4.34409 3.38594 4.50515 3.39974 4.66506C3.6959 7.43938 4.64223 10.1053 6.16232 12.4471L6.16565 12.4523C7.5468 14.6215 9.38962 16.4607 11.5634 17.8393L11.5688 17.8427C13.9047 19.3545 16.5631 20.299 19.3308 20.6002C19.4919 20.6139 19.654 20.5944 19.8071 20.5427C19.962 20.4904 20.1042 20.4064 20.2245 20.2963C20.2389 20.2831 20.2539 20.2705 20.2693 20.2586C20.2693 20.2586 20.2709 20.2574 20.2747 20.254C20.2786 20.2506 20.2838 20.2458 20.2903 20.2394C20.3034 20.2266 20.3199 20.2089 20.3388 20.1862C20.3766 20.1406 20.4196 20.0797 20.4597 20.0051C20.5395 19.8567 20.6039 19.6623 20.6041 19.427V16.6267L20.6043 16.6093C20.6114 16.3229 20.5128 16.0437 20.327 15.8248C20.1417 15.6066 19.8825 15.4634 19.5982 15.4227C18.6493 15.2975 17.7176 15.0658 16.8208 14.7318L16.8192 14.7312C16.609 14.6524 16.3806 14.6353 16.161 14.682C15.942 14.7286 15.7411 14.8367 15.5819 14.9934L15.5805 14.9947L14.3953 16.1776C14.1734 16.3991 13.8309 16.4453 13.5581 16.2905C11.1071 14.8996 9.07756 12.8741 7.68369 10.4276C7.52798 10.1543 7.5744 9.81063 7.79704 9.58844L8.98348 8.40435C9.14044 8.24547 9.24849 8.04526 9.29504 7.82739C9.34172 7.60897 9.32469 7.38178 9.24592 7.17267L9.24533 7.17109C8.91062 6.27587 8.67831 5.34575 8.55284 4.39844C8.51256 4.11889 8.37211 3.86305 8.15705 3.67847ZM7.37 1.99997C7.99155 1.99476 8.59415 2.2148 9.06583 2.61965C9.53848 3.02532 9.84747 3.58893 9.9348 4.20557L9.93571 4.21199C10.0472 5.05602 10.2541 5.88477 10.5523 6.68242L10.5517 6.68085C10.7247 7.14004 10.7621 7.63915 10.6596 8.11898C10.557 8.59881 10.3189 9.03907 9.97347 9.38766L9.97072 9.39044L9.16702 10.1925C10.3298 12.0675 11.9133 13.6476 13.7924 14.8079L14.6004 14.0015C14.9497 13.6568 15.3905 13.4194 15.8705 13.3173C16.3502 13.2151 16.8493 13.2523 17.3086 13.4245C18.1078 13.722 18.9381 13.9285 19.7839 14.0398L19.7901 14.0406C20.4136 14.1284 20.9833 14.4419 21.3907 14.9218C21.7962 15.3994 22.0127 16.0086 21.9994 16.6347V19.4274C21.9988 20.3884 21.4897 21.0654 21.1474 21.343C20.888 21.5757 20.5838 21.7532 20.2534 21.8648C19.9147 21.9791 19.5559 22.0215 19.1998 21.9894L19.1873 21.9883C16.2017 21.6645 13.3336 20.6464 10.8135 19.016C8.46887 17.5286 6.48079 15.5444 4.99026 13.2043C3.35061 10.6774 2.33014 7.80054 2.01158 4.80666L2.01042 4.79577C1.9783 4.44094 2.02064 4.08333 2.13457 3.74574C2.24849 3.40816 2.43157 3.09804 2.67206 2.83511C2.91255 2.57218 3.20518 2.36219 3.53127 2.21844C3.85736 2.07469 4.20981 2.0003 4.5662 1.99997L7.37 1.99997ZM15.2276 2.20433C15.5001 1.93188 15.9418 1.93188 16.2143 2.20433L18.5116 4.50169L20.809 2.20433C21.0815 1.93188 21.5232 1.93188 21.7957 2.20433C22.0681 2.47679 22.0681 2.91853 21.7957 3.19099L19.4983 5.48835L21.7957 7.78571C22.0681 8.05817 22.0681 8.49991 21.7957 8.77237C21.5232 9.04482 21.0815 9.04482 20.809 8.77237L18.5116 6.47501L16.2143 8.77237C15.9418 9.04482 15.5001 9.04482 15.2276 8.77237C14.9552 8.49991 14.9552 8.05817 15.2276 7.78571L17.525 5.48835L15.2276 3.19099C14.9552 2.91853 14.9552 2.47679 15.2276 2.20433Z" fill="#151515"/>
</svg>
