<svg width="24" height="24" viewBox="0 0 24 24" fill="none" xmlns="http://www.w3.org/2000/svg">
<path fill-rule="evenodd" clip-rule="evenodd" d="M8.15684 3.67881C7.94099 3.49328 7.66495 3.39248 7.38015 3.39528L7.37329 3.39534L4.56727 3.39531C4.40444 3.39551 4.24345 3.42957 4.09452 3.49531C3.9455 3.5611 3.81185 3.65717 3.70206 3.77739C3.59227 3.8976 3.50874 4.03932 3.45678 4.19353C3.40542 4.34595 3.386 4.50727 3.39971 4.66746C3.70151 7.43353 4.64772 10.0905 6.16249 12.4251C6.37221 12.7483 6.28019 13.1804 5.95695 13.3901C5.63372 13.5998 5.20167 13.5078 4.99194 13.1846C3.35709 10.6649 2.33636 7.79696 2.01178 4.81131L2.01041 4.79874C1.97831 4.44367 2.02064 4.08581 2.13449 3.74795C2.24834 3.4101 2.43132 3.09966 2.67175 2.83641C2.91219 2.57315 3.20481 2.36283 3.53098 2.21884C3.85714 2.07484 4.20972 2.0003 4.56627 1.99997L7.37013 1.99997C7.992 1.99475 8.59473 2.21524 9.06639 2.62066C9.53899 3.02689 9.84774 3.59109 9.935 4.20813L9.93591 4.21454C10.0475 5.06 10.2543 5.89014 10.5526 6.68911L10.552 6.68754C10.7249 7.14709 10.7623 7.64655 10.6598 8.12672C10.5574 8.60689 10.3194 9.0476 9.97403 9.39663L9.97128 9.39941L8.78324 10.5868C8.51072 10.8592 8.06898 10.8591 7.79659 10.5866C7.5242 10.3141 7.52431 9.87232 7.79684 9.59993L8.98333 8.41403C9.14037 8.25483 9.24857 8.05411 9.2952 7.83555C9.34196 7.61641 9.32489 7.38847 9.24601 7.17872L9.24542 7.17714C8.91073 6.28068 8.67846 5.34929 8.55301 4.4007C8.51265 4.12021 8.37196 3.86372 8.15684 3.67881ZM20.809 2.20433C21.0815 1.93188 21.5232 1.93188 21.7957 2.20433C22.0681 2.47679 22.0681 2.91853 21.7957 3.19099L11.7193 13.2674C12.3615 13.849 13.0555 14.3711 13.7926 14.827L14.6004 14.0197C14.9496 13.6745 15.3904 13.4367 15.8706 13.3343C16.3506 13.232 16.8498 13.2693 17.3092 13.4417C18.1084 13.7397 18.9387 13.9464 19.7844 14.0579L19.7908 14.0588C20.4079 14.1459 20.9723 14.4545 21.3788 14.9268C21.7844 15.3983 22.0051 16.0009 21.9999 16.6228V19.4245C21.9998 20.3849 21.4891 21.0635 21.1491 21.3411C20.8895 21.5745 20.585 21.7526 20.2541 21.8645C19.9153 21.979 19.5564 22.0215 19.2002 21.9894L19.1876 21.9882C16.2017 21.6639 13.3335 20.6443 10.8133 19.0114C9.84014 18.3935 8.92612 17.6881 8.08253 16.9041L3.1911 21.7955C2.91864 22.068 2.4769 22.068 2.20444 21.7955C1.93199 21.5231 1.93199 21.0814 2.20444 20.8089L7.97386 15.0395L10.2179 12.7806C10.2471 12.7513 10.2786 12.7248 10.312 12.7013L20.809 2.20433ZM9.0699 15.9168C9.84141 16.6295 10.676 17.2717 11.5638 17.835L11.5694 17.8386C13.9053 19.3527 16.5637 20.2985 19.3313 20.6002C19.4922 20.6139 19.6543 20.5943 19.8073 20.5426C19.9621 20.4903 20.1042 20.4062 20.2246 20.2959C20.2383 20.2833 20.2525 20.2713 20.2672 20.2598C20.2672 20.2598 20.2691 20.2583 20.2732 20.2547C20.2771 20.2512 20.2825 20.2462 20.2891 20.2397C20.3024 20.2265 20.3193 20.2084 20.3383 20.1854C20.3765 20.1391 20.4198 20.0776 20.4601 20.0024C20.5403 19.8529 20.6045 19.6582 20.6046 19.4245V16.6127C20.6074 16.3284 20.5067 16.0526 20.3211 15.8369C20.1361 15.6219 19.8794 15.4812 19.5985 15.4408C18.6495 15.3154 17.7177 15.0833 16.8208 14.7488L16.8192 14.7482C16.6092 14.6693 16.381 14.6522 16.1615 14.699C15.9427 14.7457 15.7418 14.8539 15.5825 15.0109L15.5812 15.0121L14.396 16.1967C14.1739 16.4187 13.831 16.465 13.5581 16.3099C12.5415 15.7321 11.5935 15.0428 10.7315 14.2551L9.0699 15.9168Z" fill="#151515"/>
</svg>
