<svg width="24" height="24" viewBox="0 0 24 24" fill="none" xmlns="http://www.w3.org/2000/svg">
<path fill-rule="evenodd" clip-rule="evenodd" d="M12 3.39535C7.24778 3.39535 3.39535 7.24778 3.39535 12C3.39535 16.7522 7.24778 20.6047 12 20.6047C16.7522 20.6047 20.6047 16.7522 20.6047 12C20.6047 7.24778 16.7522 3.39535 12 3.39535ZM2 12C2 6.47715 6.47715 2 12 2C17.5228 2 22 6.47715 22 12C22 17.5228 17.5228 22 12 22C6.47715 22 2 17.5228 2 12ZM9.81033 7.66395C10.0372 7.54254 10.3124 7.55585 10.5265 7.69857L16.1079 11.4195C16.302 11.5489 16.4186 11.7667 16.4186 12C16.4186 12.2333 16.302 12.4511 16.1079 12.5805L10.5265 16.3014C10.3124 16.4442 10.0372 16.4575 9.81033 16.3361C9.58348 16.2146 9.44186 15.9782 9.44186 15.7209V8.27907C9.44186 8.02177 9.58348 7.78536 9.81033 7.66395ZM10.8372 9.58269V14.4173L14.4632 12L10.8372 9.58269Z" fill="#151515"/>
</svg>
