<svg width="24" height="24" viewBox="0 0 24 24" fill="none" xmlns="http://www.w3.org/2000/svg">
<path fill-rule="evenodd" clip-rule="evenodd" d="M12 4C12.4276 4 12.7742 4.34662 12.7742 4.77419V11.2258H19.2258C19.6534 11.2258 20 11.5724 20 12C20 12.4276 19.6534 12.7742 19.2258 12.7742H12.7742V19.2258C12.7742 19.6534 12.4276 20 12 20C11.5724 20 11.2258 19.6534 11.2258 19.2258V12.7742H4.77419C4.34662 12.7742 4 12.4276 4 12C4 11.5724 4.34662 11.2258 4.77419 11.2258H11.2258V4.77419C11.2258 4.34662 11.5724 4 12 4Z" fill="#151515"/>
</svg>
