<svg width="24" height="24" viewBox="0 0 24 24" fill="none" xmlns="http://www.w3.org/2000/svg">
<path fill-rule="evenodd" clip-rule="evenodd" d="M5.72093 2.69767C5.72093 2.31236 6.03329 2 6.4186 2H17.5814C17.9667 2 18.2791 2.31236 18.2791 2.69767V8.51163H19.4419C20.1203 8.51163 20.771 8.78115 21.2507 9.26089C21.7305 9.74063 22 10.3913 22 11.0698V15.7209C22 16.3994 21.7305 17.0501 21.2507 17.5298C20.771 18.0096 20.1203 18.2791 19.4419 18.2791H18.2791V21.3023C18.2791 21.6876 17.9667 22 17.5814 22H6.4186C6.03329 22 5.72093 21.6876 5.72093 21.3023V18.2791H4.55814C3.87968 18.2791 3.22901 18.0096 2.74926 17.5298C2.26952 17.0501 2 16.3994 2 15.7209V11.0698C2 10.3913 2.26952 9.74063 2.74926 9.26089C3.22901 8.78115 3.87968 8.51163 4.55814 8.51163H5.72093V2.69767ZM4.55814 9.90698C4.24975 9.90698 3.95399 10.0295 3.73592 10.2476C3.51786 10.4656 3.39535 10.7614 3.39535 11.0698V15.7209C3.39535 16.0293 3.51786 16.3251 3.73592 16.5431C3.95399 16.7612 4.24975 16.8837 4.55814 16.8837H5.72093V13.8605C5.72093 13.4752 6.03329 13.1628 6.4186 13.1628H17.5814C17.9667 13.1628 18.2791 13.4752 18.2791 13.8605V16.8837H19.4419C19.7503 16.8837 20.046 16.7612 20.2641 16.5431C20.4821 16.3251 20.6047 16.0293 20.6047 15.7209V11.0698C20.6047 10.7614 20.4821 10.4656 20.2641 10.2476C20.046 10.0295 19.7503 9.90698 19.4419 9.90698H4.55814ZM16.8837 8.51163H7.11628V3.39535H16.8837V8.51163ZM16.8837 14.5581H7.11628V20.6047H16.8837V14.5581Z" fill="#151515"/>
</svg>
