<svg width="24" height="24" viewBox="0 0 24 24" fill="none" xmlns="http://www.w3.org/2000/svg">
<path fill-rule="evenodd" clip-rule="evenodd" d="M6.77551 3.39535C6.39699 3.39535 6.03773 3.54427 5.7758 3.80337C5.51453 4.06181 5.37143 4.40808 5.37143 4.76486V20.0187L7.44745 18.6497C7.71591 18.4726 8.06902 18.508 8.29841 18.7349L9.9102 20.3293L11.522 18.7349C11.7881 18.4717 12.2119 18.4717 12.478 18.7349L14.0898 20.3293L15.7016 18.7349C15.931 18.508 16.2841 18.4726 16.5525 18.6497L18.6286 20.0187V4.76486C18.6286 4.40808 18.4855 4.06181 18.2242 3.80337C17.9623 3.54427 17.603 3.39535 17.2245 3.39535H6.77551ZM4.8198 2.80291C5.3417 2.28666 6.04553 2 6.77551 2H17.2245C17.9545 2 18.6583 2.28666 19.1802 2.80291C19.7027 3.31981 20 4.02513 20 4.76486V21.3023C20 21.558 19.8625 21.7932 19.6417 21.9153C19.421 22.0374 19.1522 22.0268 18.9413 21.8878L16.2655 20.1232L14.5678 21.8026C14.3017 22.0658 13.8779 22.0658 13.6118 21.8026L12 20.2082L10.3882 21.8026C10.1221 22.0658 9.69835 22.0658 9.43221 21.8026L7.73449 20.1232L5.05867 21.8878C4.84779 22.0268 4.57904 22.0374 4.35825 21.9153C4.13746 21.7932 4 21.558 4 21.3023V4.76486C4 4.02513 4.29725 3.31981 4.8198 2.80291ZM8.17959 6.83204C8.17959 6.44673 8.4866 6.13437 8.86531 6.13437H15.1347C15.5134 6.13437 15.8204 6.44673 15.8204 6.83204C15.8204 7.21736 15.5134 7.52972 15.1347 7.52972H8.86531C8.4866 7.52972 8.17959 7.21736 8.17959 6.83204ZM8.17959 10.9664C8.17959 10.5811 8.4866 10.2687 8.86531 10.2687H15.1347C15.5134 10.2687 15.8204 10.5811 15.8204 10.9664C15.8204 11.3517 15.5134 11.6641 15.1347 11.6641H8.86531C8.4866 11.6641 8.17959 11.3517 8.17959 10.9664ZM12.3592 15.1008C12.3592 14.7155 12.6662 14.4031 13.0449 14.4031H15.1347C15.5134 14.4031 15.8204 14.7155 15.8204 15.1008C15.8204 15.4861 15.5134 15.7984 15.1347 15.7984H13.0449C12.6662 15.7984 12.3592 15.4861 12.3592 15.1008Z" fill="#151515"/>
</svg>
