<svg width="24" height="24" viewBox="0 0 24 24" fill="none" xmlns="http://www.w3.org/2000/svg">
<path fill-rule="evenodd" clip-rule="evenodd" d="M7.42293 4.22293C9.15181 3.22242 11.1611 2.81908 13.1413 3.07503C15.1216 3.33098 16.9629 4.23204 18.3816 5.63938C19.8003 7.04673 20.7177 8.88231 20.9926 10.8633C21.0512 11.2861 20.7567 11.6764 20.3347 11.7351C19.9127 11.7939 19.5231 11.4988 19.4644 11.0761C19.2362 9.43081 18.4742 7.90635 17.296 6.73754C16.1177 5.56872 14.5885 4.82039 12.9439 4.60782C11.2993 4.39525 9.63056 4.73023 8.19471 5.56116C7.10767 6.19024 6.19978 7.07716 5.54611 8.13631H7.88576C8.3118 8.13631 8.65718 8.48228 8.65718 8.90905C8.65718 9.33583 8.3118 9.6818 7.88576 9.6818H4.30304C4.29136 9.68207 4.27965 9.68207 4.26793 9.6818H3.77152C3.34547 9.6818 3.00009 9.33583 3.00009 8.90905V4.78773C3.00009 4.36095 3.34547 4.01498 3.77152 4.01498C4.19756 4.01498 4.54294 4.36095 4.54294 4.78773V6.85556C5.29737 5.78633 6.27756 4.88577 7.42293 4.22293ZM3.66533 12.265C4.08732 12.2062 4.47695 12.5013 4.53559 12.924C4.76385 14.5693 5.52578 16.0937 6.70404 17.2626C7.8823 18.4314 9.4115 19.1797 11.0561 19.3923C12.7007 19.6048 14.3694 19.2699 15.8053 18.4389C16.8923 17.8099 17.8002 16.9229 18.4539 15.8638H16.1142C15.6882 15.8638 15.3428 15.5178 15.3428 15.091C15.3428 14.6643 15.6882 14.3183 16.1142 14.3183H19.697C19.7086 14.318 19.7204 14.318 19.7321 14.3183H20.2285C20.6545 14.3183 20.9999 14.6643 20.9999 15.091V19.2124C20.9999 19.6391 20.6545 19.9851 20.2285 19.9851C19.8024 19.9851 19.4571 19.6391 19.4571 19.2124V17.1445C18.7026 18.2138 17.7224 19.1143 16.5771 19.7772C14.8482 20.7777 12.8389 21.181 10.8587 20.9251C8.87843 20.6691 7.03714 19.7681 5.61843 18.3607C4.19971 16.9534 3.28227 15.1178 3.00744 13.1367C2.94879 12.714 3.24334 12.3237 3.66533 12.265Z" fill="#151515"/>
</svg>
