<svg width="24" height="24" viewBox="0 0 24 24" fill="none" xmlns="http://www.w3.org/2000/svg">
<path fill-rule="evenodd" clip-rule="evenodd" d="M16.0319 2.19883C16.3365 1.92945 16.8249 1.93442 17.1228 2.20992L20.7799 5.59258C21.0731 5.86372 21.0731 6.29696 20.7799 6.5681L17.1228 9.95076C16.8249 10.2263 16.3365 10.2312 16.0319 9.96184C15.7273 9.69246 15.7218 9.25075 16.0196 8.97525L18.3952 6.77801H7.42857C6.6689 6.77801 5.93674 7.057 5.39416 7.55886C4.851 8.06125 4.54286 8.7459 4.54286 9.463V11.1543C4.54286 11.5396 4.19748 11.852 3.77143 11.852C3.34538 11.852 3 11.5396 3 11.1543V9.463C3 8.38583 3.46247 7.3497 4.291 6.58334C5.12012 5.81646 6.24838 5.38266 7.42857 5.38266L18.3952 5.38266L16.0196 3.18543C15.7218 2.90993 15.7273 2.46821 16.0319 2.19883ZM20.2286 12.148C20.6546 12.148 21 12.4604 21 12.8457V14.537C21 15.6142 20.5375 16.6503 19.709 17.4167C18.8799 18.1835 17.7516 18.6173 16.5714 18.6173H5.60462L7.98015 20.8146C8.27801 21.0901 8.27252 21.5318 7.96789 21.8012C7.66326 22.0705 7.17485 22.0656 6.877 21.7901L3.21985 18.4074C2.92672 18.1363 2.92672 17.703 3.21985 17.4319L6.877 14.0492C7.17485 13.7737 7.66326 13.7688 7.96789 14.0382C8.27252 14.3075 8.27801 14.7493 7.98015 15.0248L5.60463 17.222H16.5714C17.3311 17.222 18.0633 16.943 18.6058 16.4411C19.149 15.9388 19.4571 15.2541 19.4571 14.537V12.8457C19.4571 12.4604 19.8025 12.148 20.2286 12.148Z" fill="#151515"/>
</svg>
