<svg width="24" height="24" viewBox="0 0 24 24" fill="none" xmlns="http://www.w3.org/2000/svg">
<path fill-rule="evenodd" clip-rule="evenodd" d="M4.8 4.54286C4.7318 4.54286 4.6664 4.56995 4.61817 4.61817C4.56995 4.6664 4.54286 4.7318 4.54286 4.8V5.82857C4.54286 6.25462 4.19748 6.6 3.77143 6.6C3.34538 6.6 3 6.25462 3 5.82857V4.8C3 4.32261 3.18964 3.86477 3.52721 3.52721C3.86477 3.18964 4.32261 3 4.8 3H5.82857C6.25462 3 6.6 3.34538 6.6 3.77143C6.6 4.19748 6.25462 4.54286 5.82857 4.54286H4.8ZM10.2 3.77143C10.2 3.34538 10.5454 3 10.9714 3H13.0286C13.4546 3 13.8 3.34538 13.8 3.77143C13.8 4.19748 13.4546 4.54286 13.0286 4.54286H10.9714C10.5454 4.54286 10.2 4.19748 10.2 3.77143ZM17.4 3.77143C17.4 3.34538 17.7454 3 18.1714 3H19.2C19.6774 3 20.1352 3.18964 20.4728 3.52721C20.8104 3.86477 21 4.32261 21 4.8V5.82857C21 6.25462 20.6546 6.6 20.2286 6.6C19.8025 6.6 19.4571 6.25462 19.4571 5.82857V4.8C19.4571 4.7318 19.4301 4.6664 19.3818 4.61817C19.3336 4.56995 19.2682 4.54286 19.2 4.54286H18.1714C17.7454 4.54286 17.4 4.19748 17.4 3.77143ZM3.77143 10.2C4.19748 10.2 4.54286 10.5454 4.54286 10.9714V11.2286H10.9714C11.4488 11.2286 11.9067 11.4182 12.2442 11.7558C12.5818 12.0933 12.7714 12.5512 12.7714 13.0286V19.4571H13.0286C13.4546 19.4571 13.8 19.8025 13.8 20.2286C13.8 20.6546 13.4546 21 13.0286 21H4.8C4.32261 21 3.86477 20.8104 3.52721 20.4728C3.18964 20.1352 3 19.6774 3 19.2V10.9714C3 10.5454 3.34538 10.2 3.77143 10.2ZM4.54286 12.7714V19.2C4.54286 19.2682 4.56995 19.3336 4.61817 19.3818C4.6664 19.4301 4.7318 19.4571 4.8 19.4571H11.2286V13.0286C11.2286 12.9604 11.2015 12.895 11.1533 12.8467C11.105 12.7985 11.0396 12.7714 10.9714 12.7714H4.54286ZM20.2286 10.2C20.6546 10.2 21 10.5454 21 10.9714V13.0286C21 13.4546 20.6546 13.8 20.2286 13.8C19.8025 13.8 19.4571 13.4546 19.4571 13.0286V10.9714C19.4571 10.5454 19.8025 10.2 20.2286 10.2ZM20.2286 17.4C20.6546 17.4 21 17.7454 21 18.1714V19.2C21 19.6774 20.8104 20.1352 20.4728 20.4728C20.1352 20.8104 19.6774 21 19.2 21H18.1714C17.7454 21 17.4 20.6546 17.4 20.2286C17.4 19.8025 17.7454 19.4571 18.1714 19.4571H19.2C19.2682 19.4571 19.3336 19.4301 19.3818 19.3818C19.4301 19.3336 19.4571 19.2682 19.4571 19.2V18.1714C19.4571 17.7454 19.8025 17.4 20.2286 17.4Z" fill="#151515"/>
</svg>
