<svg width="24" height="24" viewBox="0 0 24 24" fill="none" xmlns="http://www.w3.org/2000/svg">
<path fill-rule="evenodd" clip-rule="evenodd" d="M3 3.77143C3 3.34538 3.34538 3 3.77143 3C8.34073 3 12.7229 4.81515 15.9539 8.04613C19.1849 11.2771 21 15.6593 21 20.2286C21 20.6546 20.6546 21 20.2286 21C19.8025 21 19.4571 20.6546 19.4571 20.2286C19.4571 16.0685 17.8045 12.0787 14.8629 9.1371C11.9213 6.19545 7.93154 4.54286 3.77143 4.54286C3.34538 4.54286 3 4.19748 3 3.77143ZM3 10.9714C3 10.5454 3.34538 10.2 3.77143 10.2C6.43117 10.2 8.98198 11.2566 10.8627 13.1373C12.7434 15.018 13.8 17.5688 13.8 20.2286C13.8 20.6546 13.4546 21 13.0286 21C12.6025 21 12.2571 20.6546 12.2571 20.2286C12.2571 17.978 11.3631 15.8196 9.77174 14.2283C8.18036 12.6369 6.02198 11.7429 3.77143 11.7429C3.34538 11.7429 3 11.3975 3 10.9714ZM4.8 18.9429C4.65798 18.9429 4.54286 19.058 4.54286 19.2C4.54286 19.342 4.65798 19.4571 4.8 19.4571C4.94202 19.4571 5.05714 19.342 5.05714 19.2C5.05714 19.058 4.94202 18.9429 4.8 18.9429ZM3 19.2C3 18.2059 3.80589 17.4 4.8 17.4C5.79411 17.4 6.6 18.2059 6.6 19.2C6.6 20.1941 5.79411 21 4.8 21C3.80589 21 3 20.1941 3 19.2Z" fill="#151515"/>
</svg>
