<svg width="24" height="24" viewBox="0 0 24 24" fill="none" xmlns="http://www.w3.org/2000/svg">
<g clip-path="url(#clip0_4859_122633)">
<path fill-rule="evenodd" clip-rule="evenodd" d="M12.0044 2C10.9197 2 9.86302 2.37767 9.07021 3.07419C8.27428 3.77346 7.80482 4.74432 7.80482 5.78072H7.88809L7.80811 5.79514L9.41976 14.7366H3.25171C2.56041 14.7366 2 15.297 2 15.9883V18.5983C2 19.2896 2.56041 19.85 3.25171 19.85H4.05518V20.7483C4.05518 21.4396 4.61559 22 5.30689 22H18.6928C19.3841 22 19.9445 21.4396 19.9445 20.7483V19.85H20.7483C21.4396 19.85 22 19.2896 22 18.5983V15.9883C22 15.297 21.4396 14.7366 20.7483 14.7366H14.5807L16.1924 5.79514L16.1124 5.78072H16.2039C16.2039 4.74432 15.7345 3.77346 14.9385 3.07419C14.1457 2.37767 13.089 2 12.0044 2ZM14.6959 5.63007C14.6547 5.11066 14.4008 4.60122 13.9471 4.20262C13.4465 3.76279 12.7489 3.50206 12.0044 3.50206C11.2598 3.50206 10.5622 3.76278 10.0616 4.20262C9.59833 4.60961 9.34343 5.13217 9.31053 5.6629L10.946 14.7366H13.0545L14.6959 5.63007ZM3.50206 16.2386V18.348H20.4979V16.2386H3.50206ZM5.55723 19.8501V20.4979H18.4425V19.8501H5.55723Z" fill="#151515"/>
</g>
<defs>
<clipPath id="clip0_4859_122633">
<rect width="24" height="24" fill="white"/>
</clipPath>
</defs>
</svg>
