<svg width="24" height="24" viewBox="0 0 24 24" fill="none" xmlns="http://www.w3.org/2000/svg">
<path fill-rule="evenodd" clip-rule="evenodd" d="M4.76486 3.39535C4.40164 3.39535 4.0533 3.53964 3.79647 3.79647C3.53964 4.0533 3.39535 4.40164 3.39535 4.76486V19.2351C3.39535 19.5984 3.53964 19.9467 3.79647 20.2035C4.0533 20.4604 4.40164 20.6047 4.76486 20.6047H6.13427V13.0336C6.13427 12.6483 6.44663 12.3359 6.83194 12.3359H17.1679C17.5532 12.3359 17.8655 12.6483 17.8655 13.0336V20.6047H19.2351C19.5984 20.6047 19.9467 20.4604 20.2035 20.2035C20.4604 19.9467 20.6047 19.5984 20.6047 19.2351V8.15462L15.8454 3.39535H7.52972V7.16796H15.1008C15.4861 7.16796 15.7985 7.48032 15.7985 7.86563C15.7985 8.25095 15.4861 8.56331 15.1008 8.56331H6.83204C6.44673 8.56331 6.13437 8.25095 6.13437 7.86563V3.39535H4.76486ZM4.76486 2C4.03157 2 3.32832 2.2913 2.80981 2.80981C2.2913 3.32832 2 4.03157 2 4.76486V19.2351C2 19.9684 2.2913 20.6717 2.80981 21.1902C3.32832 21.7087 4.03157 22 4.76486 22H19.2351C19.9684 22 20.6717 21.7087 21.1902 21.1902C21.7087 20.6717 22 19.9684 22 19.2351V7.86563C22 7.6806 21.9265 7.50314 21.7957 7.3723L16.6277 2.20434C16.4969 2.0735 16.3194 2 16.1344 2H4.76486ZM16.4702 20.6047V13.7313H7.52961V20.6047H16.4702Z" fill="#151515"/>
</svg>
