<svg width="24" height="24" viewBox="0 0 24 24" fill="none" xmlns="http://www.w3.org/2000/svg">
<path fill-rule="evenodd" clip-rule="evenodd" d="M5.98075 4.38461C4.44227 4.38461 3.39535 5.4157 3.39535 6.46153C3.39535 7.50737 4.44227 8.53845 5.98075 8.53845C6.7305 8.53845 7.36351 8.29358 7.8155 7.92146C7.83609 7.9016 7.85766 7.88323 7.88007 7.86635C8.31582 7.48084 8.56616 6.97295 8.56616 6.46153C8.56616 5.4157 7.51924 4.38461 5.98075 4.38461ZM9.31343 8.3635C9.71963 7.82856 9.96151 7.18111 9.96151 6.46153C9.96151 4.44857 8.06866 3 5.98075 3C3.89285 3 2 4.44857 2 6.46153C2 8.4745 3.89285 9.92306 5.98075 9.92306C6.80784 9.92306 7.60431 9.69576 8.26464 9.2961L11.4702 12L8.26458 14.7039C7.60426 14.3042 6.80781 14.0769 5.98075 14.0769C3.89285 14.0769 2 15.5255 2 17.5385C2 19.5514 3.89285 21 5.98075 21C8.06866 21 9.96151 19.5514 9.96151 17.5385C9.96151 16.8189 9.71961 16.1714 9.31339 15.6364L12.9899 12.5354C12.9958 12.5306 13.0016 12.5256 13.0074 12.5206L21.7542 5.14285C22.0478 4.89522 22.0834 4.45831 21.8339 4.16698C21.5843 3.87566 21.144 3.84024 20.8505 4.08787L12.5474 11.0913L9.31343 8.3635ZM7.8162 16.0791C7.83634 16.0985 7.85744 16.1165 7.87933 16.133C8.31554 16.5186 8.56616 17.0268 8.56616 17.5385C8.56616 18.5843 7.51924 19.6154 5.98075 19.6154C4.44227 19.6154 3.39535 18.5843 3.39535 17.5385C3.39535 16.4926 4.44227 15.4615 5.98075 15.4615C6.73089 15.4615 7.36416 15.7067 7.8162 16.0791ZM14.7184 13.8413C14.9676 13.5497 15.4079 13.5139 15.7017 13.7613L21.7535 18.8566C22.0473 19.104 22.0834 19.5409 21.8341 19.8324C21.5848 20.124 21.1446 20.1598 20.8508 19.9124L14.799 14.817C14.5051 14.5697 14.4691 14.1328 14.7184 13.8413Z" fill="#151515"/>
</svg>
