<svg width="24" height="24" viewBox="0 0 24 24" fill="none" xmlns="http://www.w3.org/2000/svg">
<path fill-rule="evenodd" clip-rule="evenodd" d="M4.55826 5.45713C4.24987 5.45713 3.95411 5.58506 3.73605 5.81278C3.51798 6.0405 3.39548 6.34936 3.39548 6.67141V8.61425C3.39548 9.01662 3.08312 9.34281 2.69781 9.34281C2.31249 9.34281 2.00014 9.01662 2.00014 8.61425V6.67141C2.00014 5.96291 2.26965 5.28342 2.74939 4.78244C3.22913 4.28145 3.8798 4 4.55826 4H19.4419C20.1203 4 20.771 4.28145 21.2507 4.78244C21.7305 5.28342 22 5.9629 22 6.67141V18.3284C22 19.037 21.7305 19.7164 21.2507 20.2174C20.771 20.7184 20.1203 20.9999 19.4419 20.9999H13.8605C13.4752 20.9999 13.1629 20.6737 13.1629 20.2713C13.1629 19.8689 13.4752 19.5427 13.8605 19.5427H19.4419C19.7503 19.5427 20.046 19.4148 20.2641 19.1871C20.4822 18.9594 20.6047 18.6505 20.6047 18.3284V6.67141C20.6047 6.34936 20.4822 6.0405 20.2641 5.81278C20.046 5.58506 19.7503 5.45713 19.4419 5.45713H4.55826ZM2.00441 12.468C2.047 12.0681 2.39198 11.7799 2.77493 11.8244C4.82144 12.0621 6.7296 13.0199 8.18563 14.5405C9.64165 16.061 10.5589 18.0536 10.7865 20.1908C10.8291 20.5907 10.5532 20.9509 10.1702 20.9954C9.78727 21.0399 9.4423 20.7517 9.39971 20.3518C9.20711 18.5435 8.431 16.8574 7.19897 15.5708C5.96695 14.2842 4.35236 13.4737 2.62069 13.2726C2.23774 13.2281 1.96182 12.8679 2.00441 12.468ZM2.01421 16.3372C2.09121 15.9429 2.45968 15.6885 2.83722 15.7689C3.86515 15.9878 4.80873 16.5176 5.55054 17.2922C6.29236 18.0669 6.79965 19.0523 7.00929 20.1257C7.08628 20.52 6.84265 20.9048 6.46511 20.9852C6.08756 21.0656 5.71909 20.8111 5.64209 20.4169C5.48714 19.6235 5.11219 18.8951 4.56389 18.3226C4.01559 17.75 3.31816 17.3584 2.55839 17.1966C2.18085 17.1162 1.93721 16.7314 2.01421 16.3372ZM2.00014 20.2713C2.00014 19.8689 2.31249 19.5427 2.69781 19.5427H2.70711C3.09242 19.5427 3.40478 19.8689 3.40478 20.2713C3.40478 20.6737 3.09242 20.9999 2.70711 20.9999H2.69781C2.31249 20.9999 2.00014 20.6737 2.00014 20.2713Z" fill="#151515"/>
</svg>
