<svg width="24" height="24" viewBox="0 0 24 24" fill="none" xmlns="http://www.w3.org/2000/svg">
<path fill-rule="evenodd" clip-rule="evenodd" d="M9.94872 3.53846C6.40843 3.53846 3.53846 6.40843 3.53846 9.94872C3.53846 13.489 6.40843 16.359 9.94872 16.359C13.489 16.359 16.359 13.489 16.359 9.94872C16.359 6.40843 13.489 3.53846 9.94872 3.53846ZM2 9.94872C2 5.55876 5.55876 2 9.94872 2C14.3387 2 17.8974 5.55876 17.8974 9.94872C17.8974 11.8667 17.2181 13.626 16.087 14.9992L21.7747 20.6868C22.0751 20.9872 22.0751 21.4743 21.7747 21.7747C21.4743 22.0751 20.9872 22.0751 20.6868 21.7747L14.9992 16.087C13.626 17.2181 11.8667 17.8974 9.94872 17.8974C5.55876 17.8974 2 14.3387 2 9.94872Z" fill="#151515"/>
</svg>
