<svg width="24" height="24" viewBox="0 0 24 24" fill="none" xmlns="http://www.w3.org/2000/svg">
<path fill-rule="evenodd" clip-rule="evenodd" d="M21.7956 2.20433C21.9852 2.39385 22.0494 2.67517 21.9608 2.92814L15.4492 21.5328C15.3547 21.8028 15.1049 21.9877 14.8191 21.9994C14.5333 22.011 14.2693 21.847 14.1531 21.5856L10.5412 13.4588L2.41433 9.84682C2.15292 9.73065 1.98892 9.46667 2.00058 9.18084C2.01224 8.89502 2.1972 8.64528 2.4672 8.55078L21.0718 2.03916C21.3248 1.95062 21.6061 2.01482 21.7956 2.20433ZM11.9019 13.0847L14.7135 19.4108L19.6338 5.35279L11.9019 13.0847ZM18.6472 4.36613L4.58912 9.28645L10.9152 12.0981L18.6472 4.36613Z" fill="#151515"/>
</svg>
