<svg width="24" height="24" viewBox="0 0 24 24" fill="none" xmlns="http://www.w3.org/2000/svg">
<path fill-rule="evenodd" clip-rule="evenodd" d="M12 3.39535C11.7365 3.39535 11.4837 3.50004 11.2974 3.68638C11.111 3.87273 11.0063 4.12547 11.0063 4.38901V4.53277L11.0063 4.53555C11.0047 4.94374 10.8838 5.34254 10.6584 5.68287C10.433 6.02319 10.113 6.29019 9.73784 6.45099C9.67426 6.47823 9.60712 6.49582 9.53864 6.50329C9.19352 6.62708 8.82102 6.65834 8.45854 6.59262C8.04704 6.518 7.66734 6.32183 7.36838 6.0294L7.36288 6.02402L7.31217 5.97325C7.21988 5.88086 7.11002 5.80729 6.98939 5.75729C6.86876 5.70728 6.73946 5.68155 6.60888 5.68155C6.4783 5.68155 6.349 5.70728 6.22837 5.75729C6.10774 5.80729 5.99815 5.88058 5.90587 5.97297C5.81348 6.06526 5.73964 6.17539 5.68964 6.29602C5.63963 6.41665 5.61389 6.54595 5.61389 6.67653C5.61389 6.80712 5.63963 6.93642 5.68964 7.05704C5.73964 7.17767 5.81293 7.28726 5.90532 7.37955L5.96177 7.436C6.25421 7.73496 6.45035 8.1147 6.52496 8.52619C6.59826 8.93045 6.55094 9.34718 6.38914 9.72448C6.24276 10.1099 5.98572 10.4437 5.6501 10.6838C5.3085 10.9281 4.9013 11.064 4.48143 11.0738L4.46512 11.074H4.38901C4.12547 11.074 3.87273 11.1787 3.68638 11.365C3.50004 11.5514 3.39535 11.8041 3.39535 12.0677C3.39535 12.3312 3.50004 12.5839 3.68638 12.7703C3.87273 12.9566 4.12547 13.0613 4.38901 13.0613H4.53555C4.94374 13.0629 5.34254 13.1839 5.68287 13.4093C6.02214 13.634 6.28854 13.9527 6.44949 14.3263C6.61715 14.7081 6.66701 15.1312 6.59262 15.5415C6.518 15.953 6.32183 16.3327 6.0294 16.6316L6.02401 16.6371L5.97324 16.6878C5.88086 16.7801 5.80729 16.89 5.75729 17.0106C5.70728 17.1312 5.68155 17.2605 5.68155 17.3911C5.68155 17.5217 5.70728 17.651 5.75729 17.7716C5.80729 17.8923 5.88058 18.0019 5.97297 18.0941C6.06525 18.1865 6.17539 18.2604 6.29602 18.3104C6.41665 18.3604 6.54595 18.3861 6.67653 18.3861C6.80712 18.3861 6.93642 18.3604 7.05704 18.3104C7.17767 18.2604 7.28726 18.1871 7.37955 18.0947L7.436 18.0382C7.73496 17.7458 8.1147 17.5497 8.52619 17.475C8.93046 17.4017 9.3472 17.4491 9.72451 17.6109C10.1099 17.7573 10.4437 18.0143 10.6838 18.3499C10.9281 18.6915 11.064 19.0987 11.0738 19.5186L11.074 19.5349V19.611C11.074 19.8745 11.1787 20.1273 11.365 20.3136C11.5514 20.5 11.8041 20.6047 12.0677 20.6047C12.3312 20.6047 12.5839 20.5 12.7703 20.3136C12.9566 20.1273 13.0613 19.8745 13.0613 19.611V19.4672L13.0613 19.4644C13.0629 19.0563 13.1839 18.6575 13.4093 18.3171C13.634 17.9778 13.9527 17.7114 14.3264 17.5505C14.7081 17.3828 15.1312 17.333 15.5415 17.4074C15.953 17.482 16.3327 17.6782 16.6316 17.9706L16.6371 17.976L16.6878 18.0268C16.7801 18.1191 16.89 18.1927 17.0106 18.2427C17.1312 18.2927 17.2605 18.3185 17.3911 18.3185C17.5217 18.3185 17.651 18.2927 17.7716 18.2427C17.8923 18.1927 18.0019 18.1194 18.0941 18.027C18.1865 17.9347 18.2604 17.8246 18.3104 17.704C18.3604 17.5834 18.3861 17.4541 18.3861 17.3235C18.3861 17.1929 18.3604 17.0636 18.3104 16.943C18.2604 16.8223 18.1871 16.7127 18.0947 16.6205L18.0382 16.564C17.7458 16.265 17.5497 15.8853 17.475 15.4738C17.4006 15.0635 17.4505 14.6403 17.6182 14.2585C17.7792 13.8849 18.0456 13.5663 18.3848 13.3416C18.7251 13.1162 19.1239 12.9953 19.5321 12.9937L19.5349 12.9937L19.611 12.9937C19.8745 12.9937 20.1273 12.889 20.3136 12.7026C20.5 12.5163 20.6047 12.2635 20.6047 12C20.6047 11.7365 20.5 11.4837 20.3136 11.2974C20.1273 11.111 19.8745 11.0063 19.611 11.0063H19.4672L19.4644 11.0063C19.0563 11.0047 18.6575 10.8838 18.3171 10.6584C17.9768 10.433 17.7098 10.113 17.549 9.73784C17.5218 9.67426 17.5042 9.60712 17.4967 9.53864C17.3729 9.19352 17.3417 8.82102 17.4074 8.45854C17.482 8.04704 17.6782 7.66734 17.9706 7.36838L17.976 7.36288L18.0268 7.31217C18.1191 7.21989 18.1927 7.11002 18.2427 6.98939C18.2927 6.86876 18.3185 6.73946 18.3185 6.60888C18.3185 6.4783 18.2927 6.349 18.2427 6.22837C18.1927 6.10774 18.1194 5.99815 18.027 5.90587C17.9347 5.81348 17.8246 5.73964 17.704 5.68964C17.5834 5.63963 17.4541 5.61389 17.3235 5.61389C17.1929 5.61389 17.0636 5.63963 16.943 5.68964C16.8223 5.73964 16.7127 5.81293 16.6205 5.90532L16.564 5.96177C16.265 6.25421 15.8853 6.45035 15.4738 6.52496C15.0635 6.59935 14.6404 6.5495 14.2587 6.38185C13.885 6.2209 13.5663 5.95449 13.3416 5.61521C13.1162 5.27489 12.9953 4.87609 12.9937 4.4679L12.9937 4.46512V4.38901C12.9937 4.12547 12.889 3.87273 12.7026 3.68638C12.5163 3.50004 12.2635 3.39535 12 3.39535ZM10.3107 2.69972C10.7587 2.2517 11.3664 2 12 2C12.6336 2 13.2413 2.2517 13.6893 2.69972C14.1373 3.14775 14.389 3.7554 14.389 4.38901V4.46345C14.3898 4.59912 14.4301 4.73164 14.505 4.84477C14.5801 4.95821 14.6868 5.04721 14.8118 5.10081L14.8187 5.10376C14.9462 5.16004 15.0877 5.17687 15.2249 5.152C15.361 5.12732 15.4867 5.06274 15.586 4.96649L15.6332 4.91921C15.8551 4.69708 16.1186 4.52087 16.4086 4.40065C16.6986 4.28042 17.0095 4.21854 17.3235 4.21854C17.6374 4.21854 17.9483 4.28042 18.2383 4.40065C18.5281 4.52078 18.7914 4.6968 19.0131 4.91866C19.2353 5.14053 19.4115 5.40401 19.5317 5.69403C19.6519 5.98405 19.7138 6.29493 19.7138 6.60888C19.7138 6.92283 19.6519 7.2337 19.5317 7.52373C19.4115 7.81375 19.2353 8.07723 19.0131 8.2991L18.9659 8.34639C18.8696 8.44569 18.805 8.57137 18.7803 8.70748C18.7555 8.84465 18.7723 8.98612 18.8286 9.11365C18.8518 9.16632 18.8684 9.22153 18.878 9.27799C18.931 9.3644 19.0024 9.4386 19.0876 9.49501C19.2007 9.56992 19.3332 9.61022 19.4688 9.61099H19.611C20.2446 9.61099 20.8523 9.86269 21.3003 10.3107C21.7483 10.7587 22 11.3664 22 12C22 12.6336 21.7483 13.2413 21.3003 13.6893C20.8523 14.1373 20.2446 14.389 19.611 14.389H19.5366C19.4009 14.3898 19.2684 14.4301 19.1552 14.505C19.0418 14.5801 18.9528 14.6868 18.8992 14.8118L18.8962 14.8187C18.84 14.9462 18.8231 15.0877 18.848 15.2249C18.8727 15.361 18.9373 15.4866 19.0335 15.5859L19.0808 15.6332C19.3029 15.8551 19.4791 16.1186 19.5994 16.4086C19.7196 16.6986 19.7815 17.0095 19.7815 17.3235C19.7815 17.6374 19.7196 17.9483 19.5994 18.2383C19.4792 18.5282 19.3031 18.7916 19.0811 19.0134C18.8593 19.2354 18.5959 19.4115 18.306 19.5317C18.0159 19.6519 17.7051 19.7138 17.3911 19.7138C17.0772 19.7138 16.7663 19.6519 16.4763 19.5317C16.1863 19.4115 15.9228 19.2353 15.7009 19.0131L15.6536 18.9658C15.5543 18.8696 15.4286 18.805 15.2925 18.7803C15.1554 18.7555 15.0139 18.7723 14.8863 18.8286L14.8795 18.8316C14.7544 18.8852 14.6478 18.9741 14.5726 19.0876C14.4977 19.2007 14.4574 19.3332 14.4567 19.4689V19.611C14.4567 20.2446 14.205 20.8523 13.7569 21.3003C13.3089 21.7483 12.7013 22 12.0677 22C11.434 22 10.8264 21.7483 10.3784 21.3003C9.93035 20.8523 9.67865 20.2446 9.67865 19.611V19.5444C9.6741 19.4069 9.62895 19.2737 9.54882 19.1616C9.46738 19.0478 9.35357 18.961 9.22218 18.9127C9.20838 18.9076 9.19475 18.9021 9.18131 18.8962C9.05377 18.8399 8.9123 18.8231 8.77514 18.848C8.63902 18.8727 8.51334 18.9373 8.41404 19.0335L8.36675 19.0808C8.14488 19.3029 7.8814 19.4791 7.59138 19.5994C7.30136 19.7196 6.99048 19.7815 6.67653 19.7815C6.36258 19.7815 6.05171 19.7196 5.76169 19.5994C5.47167 19.4791 5.20819 19.3029 4.98631 19.0808C4.76445 18.859 4.58843 18.5958 4.4683 18.306C4.34808 18.0159 4.2862 17.7051 4.2862 17.3911C4.2862 17.0772 4.34808 16.7663 4.4683 16.4763C4.58853 16.1863 4.76474 15.9228 4.98686 15.7009L5.03414 15.6536C5.13039 15.5543 5.19497 15.4286 5.21965 15.2925C5.24452 15.1554 5.22773 15.0139 5.17145 14.8863L5.16843 14.8795C5.11483 14.7544 5.02587 14.6478 4.91243 14.5726C4.79929 14.4977 4.66677 14.4574 4.5311 14.4567H4.38901C3.7554 14.4567 3.14775 14.205 2.69972 13.7569C2.2517 13.3089 2 12.7013 2 12.0677C2 11.434 2.2517 10.8264 2.69972 10.3784C3.14775 9.93035 3.7554 9.67865 4.38901 9.67865H4.45556C4.59312 9.6741 4.72632 9.62895 4.83836 9.54882C4.95222 9.46738 5.03896 9.35357 5.08728 9.22218C5.09235 9.20838 5.09786 9.19475 5.1038 9.18131C5.16008 9.05377 5.17687 8.9123 5.152 8.77514C5.12732 8.63902 5.06274 8.51333 4.96649 8.41404L4.91921 8.36675C4.91911 8.36666 4.9193 8.36685 4.91921 8.36675C4.69721 8.14494 4.52082 7.88128 4.40065 7.59138C4.28042 7.30136 4.21854 6.99049 4.21854 6.67653C4.21854 6.36258 4.28042 6.05171 4.40065 5.76169C4.52082 5.47179 4.69694 5.2084 4.91893 4.98659C5.14075 4.76459 5.40413 4.58848 5.69403 4.4683C5.98405 4.34808 6.29493 4.2862 6.60888 4.2862C6.92283 4.2862 7.23371 4.34808 7.52373 4.4683C7.81363 4.58848 8.07701 4.76459 8.29883 4.98659C8.29892 4.98668 8.29874 4.98649 8.29883 4.98659L8.34638 5.03414C8.44568 5.13039 8.57137 5.19497 8.70748 5.21965C8.84465 5.24452 8.98612 5.22773 9.11365 5.17145C9.16633 5.1482 9.22153 5.13163 9.27799 5.12199C9.36441 5.06901 9.4386 4.99761 9.49501 4.91243C9.56992 4.79931 9.61022 4.66683 9.61099 4.53118V4.38901C9.61099 3.7554 9.86269 3.14775 10.3107 2.69972ZM12 9.90698C10.8441 9.90698 9.90698 10.8441 9.90698 12C9.90698 13.1559 10.8441 14.093 12 14.093C13.1559 14.093 14.093 13.1559 14.093 12C14.093 10.8441 13.1559 9.90698 12 9.90698ZM8.51163 12C8.51163 10.0734 10.0734 8.51163 12 8.51163C13.9266 8.51163 15.4884 10.0734 15.4884 12C15.4884 13.9266 13.9266 15.4884 12 15.4884C10.0734 15.4884 8.51163 13.9266 8.51163 12Z" fill="#151515"/>
</svg>
