<svg width="24" height="24" viewBox="0 0 24 24" fill="none" xmlns="http://www.w3.org/2000/svg">
<path fill-rule="evenodd" clip-rule="evenodd" d="M17.5385 3.39535C16.3914 3.39535 15.4615 4.33243 15.4615 5.48837C15.4615 5.85605 15.5556 6.20158 15.7208 6.50186C15.7294 6.51467 15.7376 6.52784 15.7455 6.54138C15.7533 6.55482 15.7605 6.56841 15.7673 6.58213C16.1326 7.18159 16.7892 7.5814 17.5385 7.5814C18.6855 7.5814 19.6154 6.64432 19.6154 5.48837C19.6154 4.33243 18.6855 3.39535 17.5385 3.39535ZM14.9573 7.81273C15.5911 8.5271 16.5127 8.97674 17.5385 8.97674C19.4502 8.97674 21 7.41495 21 5.48837C21 3.5618 19.4502 2 17.5385 2C15.6267 2 14.0769 3.5618 14.0769 5.48837C14.0769 5.87993 14.1409 6.25643 14.259 6.6078L9.04266 9.67554C8.4088 8.96123 7.48727 8.51163 6.46154 8.51163C4.54978 8.51163 3 10.0734 3 12C3 13.9266 4.54978 15.4884 6.46154 15.4884C7.48741 15.4884 8.40905 15.0386 9.04292 14.3242L14.2604 17.3881C14.1414 17.7406 14.0769 18.1185 14.0769 18.5116C14.0769 20.4382 15.6267 22 17.5385 22C19.4502 22 21 20.4382 21 18.5116C21 16.5851 19.4502 15.0233 17.5385 15.0233C16.5142 15.0233 15.5939 15.4715 14.9601 16.184L9.74108 13.1192C9.85909 12.7679 9.92308 12.3915 9.92308 12C9.92308 11.6084 9.85904 11.2319 9.74095 10.8804L14.9573 7.81273ZM8.23111 10.9037C8.23826 10.9183 8.24597 10.9327 8.25423 10.947C8.26256 10.9614 8.27133 10.9754 8.2805 10.9889C8.44489 11.2886 8.53846 11.6333 8.53846 12C8.53846 12.3667 8.44487 12.7114 8.28044 13.0112C8.27121 13.0248 8.26238 13.0389 8.254 13.0534C8.24584 13.0675 8.23823 13.0818 8.23116 13.0962C7.86556 13.6943 7.20975 14.093 6.46154 14.093C5.31449 14.093 4.38462 13.1559 4.38462 12C4.38462 10.8441 5.31449 9.90698 6.46154 9.90698C7.20972 9.90698 7.86551 10.3057 8.23111 10.9037ZM15.6959 17.5448C15.7174 17.5179 15.7372 17.489 15.7549 17.4583C15.7721 17.4286 15.7868 17.3981 15.7992 17.3672C16.1701 16.796 16.8105 16.4186 17.5385 16.4186C18.6855 16.4186 19.6154 17.3557 19.6154 18.5116C19.6154 19.6676 18.6855 20.6047 17.5385 20.6047C16.3914 20.6047 15.4615 19.6676 15.4615 18.5116C15.4615 18.1628 15.5462 17.834 15.6959 17.5448Z" fill="#151515"/>
</svg>
