<svg width="24" height="24" viewBox="0 0 24 24" fill="none" xmlns="http://www.w3.org/2000/svg">
<path fill-rule="evenodd" clip-rule="evenodd" d="M2.20434 2.20434C2.4768 1.93189 2.91855 1.93189 3.191 2.20434L5.72002 4.73336C5.72739 4.74041 5.7346 4.74762 5.74167 4.75501L17.7182 16.7315C17.7205 16.7338 17.7229 16.7362 17.7252 16.7385L21.7957 20.809C22.0681 21.0815 22.0681 21.5232 21.7957 21.7957C21.5232 22.0681 21.0815 22.0681 20.809 21.7957L17.2451 18.2317C15.8108 19.7113 14.1508 20.9563 12.3256 21.9194C12.1266 22.0244 11.8892 22.027 11.688 21.9263L12 21.3023C11.688 21.9263 11.6882 21.9265 11.688 21.9263L11.6852 21.9249L11.6796 21.9221L11.6606 21.9125C11.6445 21.9042 11.6215 21.8923 11.5921 21.8769C11.5333 21.846 11.4488 21.8009 11.3423 21.7419C11.1294 21.6241 10.828 21.4507 10.4674 21.2253C9.74782 20.7756 8.78538 20.1143 7.81965 19.2692C5.9175 17.6049 3.86047 15.1022 3.86047 12V5.48837C3.86047 5.31321 3.9259 5.14915 4.0374 5.02406L2.20434 3.191C1.93189 2.91855 1.93189 2.4768 2.20434 2.20434ZM5.25581 6.24248V12C5.25581 14.4792 6.91971 16.6277 8.73849 18.2191C9.63322 19.002 10.5312 19.6198 11.207 20.0421C11.5328 20.2457 11.8052 20.4029 11.9983 20.5102C13.5725 19.6383 15.0081 18.5378 16.2583 17.2449L5.25581 6.24248ZM11.7559 2.04408C11.9137 1.98519 12.0873 1.98531 12.245 2.04442L19.6868 4.83512C19.9591 4.93723 20.1395 5.19755 20.1395 5.48837V12.0046C20.1349 12.7041 20.0272 13.3992 19.8198 14.0673C19.7056 14.4353 19.3147 14.641 18.9467 14.5268C18.5787 14.4126 18.373 14.0216 18.4872 13.6536C18.6537 13.1173 18.7403 12.5593 18.7442 11.9978V5.97186L11.9995 3.4426L9.30453 4.44894C8.94356 4.58373 8.54167 4.40038 8.40687 4.03941C8.27208 3.67844 8.45543 3.27655 8.8164 3.14176L11.7559 2.04408Z" fill="#151515"/>
</svg>
