<svg width="24" height="24" viewBox="0 0 24 24" fill="none" xmlns="http://www.w3.org/2000/svg">
<path fill-rule="evenodd" clip-rule="evenodd" d="M11.7592 2.04442C11.9145 1.98519 12.0855 1.98519 12.2408 2.04442L19.5551 4.83513C19.8227 4.93725 20 5.19757 20 5.48839V12.0001C20 15.1022 17.9782 17.6049 16.1087 19.2693C15.1595 20.1144 14.2136 20.7757 13.5063 21.2255C13.1519 21.4508 12.8556 21.6242 12.6464 21.742C12.5417 21.801 12.4587 21.8461 12.4009 21.877C12.372 21.8924 12.3494 21.9043 12.3335 21.9126L12.3149 21.9222L12.3094 21.925L12.3077 21.9259C12.3075 21.926 12.3067 21.9265 12 21.3024C11.6933 21.9265 11.6931 21.9263 11.6929 21.9262L11.6906 21.925L11.6851 21.9222L11.6665 21.9126C11.6506 21.9043 11.628 21.8924 11.5991 21.877C11.5413 21.8461 11.4583 21.801 11.3536 21.742C11.1444 21.6242 10.8481 21.4508 10.4937 21.2255C9.78643 20.7757 8.84049 20.1144 7.89131 19.2693C6.02177 17.6049 4 15.1022 4 12.0001V5.48839C4 5.19757 4.17731 4.93725 4.44494 4.83513L11.7592 2.04442ZM12 21.3024L11.6929 21.9262C11.8859 22.0244 12.1136 22.0247 12.3067 21.9265L12 21.3024ZM12 20.5112C12.1899 20.4039 12.4583 20.2464 12.7794 20.0422C13.4436 19.6199 14.3262 19.0021 15.2056 18.2192C16.9932 16.6278 18.6286 14.4793 18.6286 12.0001V5.97188L12 3.4428L5.37143 5.97188V12.0001C5.37143 14.4793 7.0068 16.6278 8.7944 18.2192C9.6738 19.0021 10.5564 19.6199 11.2206 20.0422C11.5417 20.2464 11.8101 20.4039 12 20.5112ZM12 10.8373C11.8738 10.8373 11.7714 10.9414 11.7714 11.0698C11.7714 11.1983 11.8738 11.3024 12 11.3024C12.1262 11.3024 12.2286 11.1983 12.2286 11.0698C12.2286 10.9414 12.1262 10.8373 12 10.8373ZM10.4 11.0698C10.4 10.1707 11.1163 9.4419 12 9.4419C12.8837 9.4419 13.6 10.1707 13.6 11.0698C13.6 11.7192 13.2263 12.2798 12.6857 12.5411V14.3257C12.6857 14.711 12.3787 15.0233 12 15.0233C11.6213 15.0233 11.3143 14.711 11.3143 14.3257V12.5411C10.7737 12.2798 10.4 11.7192 10.4 11.0698Z" fill="#151515"/>
</svg>
