<svg width="24" height="24" viewBox="0 0 24 24" fill="none" xmlns="http://www.w3.org/2000/svg">
<path fill-rule="evenodd" clip-rule="evenodd" d="M5.90769 2.27907C6.03844 2.10339 6.24363 2 6.46154 2H17.5385C17.7564 2 17.9616 2.10339 18.0923 2.27907L20.8615 6C20.9514 6.12077 21 6.26765 21 6.4186V19.4419C21 20.1203 20.7326 20.771 20.2565 21.2507C19.7804 21.7305 19.1348 22 18.4615 22H5.53846C4.86522 22 4.21955 21.7305 3.7435 21.2507C3.26744 20.771 3 20.1203 3 19.4419V6.4186C3 6.26765 3.04858 6.12077 3.13846 6L5.90769 2.27907ZM6.80769 3.39535L5.07692 5.72093H18.9231L17.1923 3.39535H6.80769ZM19.6154 7.11628H4.38462V19.4419C4.38462 19.7503 4.50618 20.046 4.72257 20.2641C4.93896 20.4821 5.23244 20.6047 5.53846 20.6047H18.4615C18.7676 20.6047 19.061 20.4821 19.2774 20.2641C19.4938 20.046 19.6154 19.7503 19.6154 19.4419V7.11628ZM8.30769 9.44186C8.69004 9.44186 9 9.75422 9 10.1395C9 10.9414 9.31607 11.7103 9.87868 12.2773C10.4413 12.8443 11.2044 13.1628 12 13.1628C12.7956 13.1628 13.5587 12.8443 14.1213 12.2773C14.6839 11.7103 15 10.9414 15 10.1395C15 9.75422 15.31 9.44186 15.6923 9.44186C16.0747 9.44186 16.3846 9.75422 16.3846 10.1395C16.3846 11.3114 15.9227 12.4353 15.1004 13.264C14.2781 14.0926 13.1629 14.5581 12 14.5581C10.8371 14.5581 9.72188 14.0926 8.89961 13.264C8.07733 12.4353 7.61538 11.3114 7.61538 10.1395C7.61538 9.75422 7.92534 9.44186 8.30769 9.44186Z" fill="#151515"/>
</svg>
