<svg width="24" height="24" viewBox="0 0 24 24" fill="none" xmlns="http://www.w3.org/2000/svg">
<path fill-rule="evenodd" clip-rule="evenodd" d="M2 2.73171C2 2.3276 2.31236 2 2.69767 2H6.08034C6.41263 2 6.6988 2.24579 6.76432 2.58744L7.49797 6.41347H21.3023C21.5104 6.41347 21.7075 6.51084 21.8401 6.67901C21.9726 6.84717 22.0267 7.0686 21.9875 7.28288L20.6335 14.6942C20.5239 15.2698 20.224 15.7862 19.7871 16.1533C19.3522 16.5187 18.809 16.7132 18.2518 16.7038H10.0441C9.48699 16.7132 8.94377 16.5187 8.50885 16.1533C8.07212 15.7863 7.77228 15.2702 7.66265 14.6948C7.66261 14.6946 7.66268 14.6949 7.66265 14.6948L6.24915 7.32333C6.24395 7.30152 6.23968 7.27933 6.23639 7.25679L5.509 3.46341H2.69767C2.31236 3.46341 2 3.13582 2 2.73171ZM7.77858 7.87689L9.0309 14.4078C9.07603 14.6449 9.19975 14.8587 9.38129 15.0112C9.5629 15.1638 9.79067 15.2452 10.0247 15.2406L10.0381 15.2404H18.2579L18.2712 15.2406C18.5053 15.2452 18.7331 15.1638 18.9147 15.0112C19.0956 14.8592 19.2191 14.6463 19.2646 14.4101C19.2648 14.4093 19.2649 14.4086 19.2651 14.4078L20.4583 7.87689H7.77858ZM9.46312 20.2346C9.37825 20.2346 9.31513 20.3055 9.31513 20.3856C9.31513 20.4657 9.37825 20.5366 9.46312 20.5366C9.548 20.5366 9.61112 20.4657 9.61112 20.3856C9.61112 20.3055 9.548 20.2346 9.46312 20.2346ZM7.91978 20.3856C7.91978 19.4907 8.6139 18.7712 9.46312 18.7712C10.3123 18.7712 11.0065 19.4907 11.0065 20.3856C11.0065 21.2805 10.3123 22 9.46312 22C8.6139 22 7.91978 21.2805 7.91978 20.3856ZM18.7654 20.2346C18.6806 20.2346 18.6175 20.3055 18.6175 20.3856C18.6175 20.4657 18.6806 20.5366 18.7654 20.5366C18.8503 20.5366 18.9134 20.4657 18.9134 20.3856C18.9134 20.3055 18.8503 20.2346 18.7654 20.2346ZM17.2221 20.3856C17.2221 19.4907 17.9162 18.7712 18.7654 18.7712C19.6147 18.7712 20.3088 19.4907 20.3088 20.3856C20.3088 21.2805 19.6147 22 18.7654 22C17.9162 22 17.2221 21.2805 17.2221 20.3856Z" fill="#151515"/>
</svg>
