<svg width="24" height="24" viewBox="0 0 24 24" fill="none" xmlns="http://www.w3.org/2000/svg">
<path fill-rule="evenodd" clip-rule="evenodd" d="M3 3.77143C3 3.34538 3.34538 3 3.77143 3H8.61176C9.03781 3 9.38319 3.34538 9.38319 3.77143C9.38319 4.19748 9.03781 4.54286 8.61176 4.54286H5.71175L20.7583 18.7534C21.068 19.046 21.0819 19.5342 20.7894 19.844C20.4969 20.1537 20.0086 20.1677 19.6989 19.8751L4.54286 5.56109V8.34286C4.54286 8.76891 4.19748 9.11429 3.77143 9.11429C3.34538 9.11429 3 8.76891 3 8.34286V3.77143ZM20.7894 4.15603C21.0819 4.46578 21.068 4.95402 20.7583 5.24655L15.9179 9.81798C15.6082 10.1105 15.1199 10.0966 14.8274 9.78682C14.5349 9.47708 14.5488 8.98884 14.8586 8.6963L19.6989 4.12488C20.0086 3.83234 20.4969 3.84629 20.7894 4.15603ZM10.1406 14.2132C10.4331 14.5229 10.4192 15.0111 10.1094 15.3037L5.71186 19.4571H8.61194C9.03799 19.4571 9.38337 19.8025 9.38337 20.2286C9.38337 20.6546 9.03799 21 8.61194 21H3.77161C3.34556 21 3.00018 20.6546 3.00018 20.2286V15.6571C3.00018 15.2311 3.34556 14.8857 3.77161 14.8857C4.19765 14.8857 4.54303 15.2311 4.54303 15.6571V18.4388L9.05005 14.182C9.35979 13.8895 9.84803 13.9034 10.1406 14.2132Z" fill="#151515"/>
</svg>
