<svg width="24" height="24" viewBox="0 0 24 24" fill="none" xmlns="http://www.w3.org/2000/svg">
<path fill-rule="evenodd" clip-rule="evenodd" d="M14.6168 3.77143C14.6168 3.34538 14.9622 3 15.3882 3H20.2286C20.6546 3 21 3.34538 21 3.77143V8.34286C21 8.76891 20.6546 9.11429 20.2286 9.11429C19.8025 9.11429 19.4571 8.76891 19.4571 8.34286V5.56109L4.30111 19.8751C3.99137 20.1677 3.50313 20.1537 3.21059 19.844C2.91806 19.5342 2.93201 19.046 3.24175 18.7534L18.2883 4.54286H15.3882C14.9622 4.54286 14.6168 4.19748 14.6168 3.77143ZM3.21059 4.15603C3.50313 3.84629 3.99137 3.83234 4.30111 4.12488L9.14145 8.6963C9.45119 8.98884 9.46514 9.47708 9.17261 9.78682C8.88007 10.0966 8.39183 10.1105 8.08209 9.81798L3.24175 5.24655C2.93201 4.95402 2.91806 4.46578 3.21059 4.15603ZM13.8594 14.2132C14.152 13.9034 14.6402 13.8895 14.95 14.182L19.457 18.4388V15.6571C19.457 15.2311 19.8023 14.8857 20.2284 14.8857C20.6544 14.8857 20.9998 15.2311 20.9998 15.6571V20.2286C20.9998 20.6546 20.6544 21 20.2284 21H15.3881C14.962 21 14.6166 20.6546 14.6166 20.2286C14.6166 19.8025 14.962 19.4571 15.3881 19.4571H18.2881L13.8906 15.3037C13.5808 15.0111 13.5669 14.5229 13.8594 14.2132Z" fill="#151515"/>
</svg>
