<svg width="24" height="24" viewBox="0 0 24 24" fill="none" xmlns="http://www.w3.org/2000/svg">
<path fill-rule="evenodd" clip-rule="evenodd" d="M5.88397 4.18256C6.17279 4.44897 6.20007 4.9094 5.9449 5.21095C4.32043 7.13071 3.39563 9.75139 3.39563 12.5C3.39563 15.2486 4.32043 17.8693 5.9449 19.789C6.20007 20.0906 6.17279 20.551 5.88397 20.8174C5.59515 21.0838 5.15416 21.0553 4.899 20.7538C3.03494 18.5509 2 15.5808 2 12.5C2 9.41915 3.03494 6.44907 4.899 4.24618C5.15416 3.94463 5.59515 3.91615 5.88397 4.18256ZM18.116 4.18256C18.4049 3.91615 18.8458 3.94463 19.101 4.24618C20.9651 6.44907 22 9.41915 22 12.5C22 15.5808 20.9651 18.5509 19.101 20.7538C18.8458 21.0553 18.4049 21.0838 18.116 20.8174C17.8272 20.551 17.7999 20.0906 18.0551 19.789C19.6796 17.8693 20.6044 15.2486 20.6044 12.5C20.6044 9.75139 19.6796 7.13071 18.0551 5.21095C17.7999 4.9094 17.8272 4.44897 18.116 4.18256ZM8.51742 7.28267C8.80606 7.5493 8.83303 8.00974 8.57766 8.31111C8.11874 8.85267 7.75081 9.50051 7.49852 10.2195C7.24622 10.9386 7.11557 11.7118 7.11557 12.4945C7.11557 13.2771 7.24622 14.0504 7.49852 14.7695C7.75081 15.4885 8.11874 16.1363 8.57766 16.6779C8.83303 16.9792 8.80606 17.4397 8.51742 17.7063C8.22878 17.9729 7.78777 17.9448 7.5324 17.6434C6.95324 16.9599 6.49765 16.153 6.18807 15.2707C5.87849 14.3884 5.71994 13.4453 5.71994 12.4945C5.71994 11.5437 5.87849 10.6005 6.18807 9.71827C6.49765 8.83598 6.95324 8.02905 7.5324 7.34557C7.78777 7.04421 8.22878 7.01605 8.51742 7.28267ZM15.4826 7.29367C15.7712 7.02704 16.2122 7.0552 16.4676 7.35656C17.0468 8.04004 17.5024 8.84697 17.8119 9.72927C18.1215 10.6115 18.2801 11.5547 18.2801 12.5055C18.2801 13.4563 18.1215 14.3994 17.8119 15.2817C17.5024 16.164 17.0468 16.9709 16.4676 17.6544C16.2122 17.9558 15.7712 17.9839 15.4826 17.7173C15.1939 17.4507 15.167 16.9902 15.4223 16.6889C15.8813 16.1473 16.2492 15.4995 16.5015 14.7805C16.7538 14.0614 16.8844 13.2881 16.8844 12.5055C16.8844 11.7228 16.7538 10.9495 16.5015 10.2305C16.2492 9.5115 15.8813 8.86367 15.4223 8.3221C15.167 8.02074 15.1939 7.56029 15.4826 7.29367ZM12.0002 11.2857C11.3579 11.2857 10.8371 11.8294 10.8371 12.5C10.8371 13.1706 11.3579 13.7143 12.0002 13.7143C12.6425 13.7143 13.1632 13.1706 13.1632 12.5C13.1632 11.8294 12.6425 11.2857 12.0002 11.2857ZM9.44152 12.5C9.44152 11.0246 10.5871 9.82856 12.0002 9.82856C13.4133 9.82856 14.5588 11.0246 14.5588 12.5C14.5588 13.9754 13.4133 15.1714 12.0002 15.1714C10.5871 15.1714 9.44152 13.9754 9.44152 12.5Z" fill="#151515"/>
</svg>
