<svg width="24" height="24" viewBox="0 0 24 24" fill="none" xmlns="http://www.w3.org/2000/svg">
<path fill-rule="evenodd" clip-rule="evenodd" d="M5.44217 6.42883C4.16562 7.93 3.39535 9.87505 3.39535 12C3.39535 16.7522 7.24778 20.6047 12 20.6047C14.125 20.6047 16.07 19.8344 17.5712 18.5578L5.44217 6.42883ZM6.42883 5.44217L18.5578 17.5712C19.8344 16.07 20.6047 14.125 20.6047 12C20.6047 7.24778 16.7522 3.39535 12 3.39535C9.87505 3.39535 7.93 4.16562 6.42883 5.44217ZM2 12C2 6.47715 6.47715 2 12 2C17.5228 2 22 6.47715 22 12C22 17.5228 17.5228 22 12 22C6.47715 22 2 17.5228 2 12Z" fill="#151515"/>
</svg>
