<svg width="24" height="24" viewBox="0 0 24 24" fill="none" xmlns="http://www.w3.org/2000/svg">
<path fill-rule="evenodd" clip-rule="evenodd" d="M12 3.39535C7.24778 3.39535 3.39535 7.24778 3.39535 12C3.39535 16.7522 7.24778 20.6047 12 20.6047C16.7522 20.6047 20.6047 16.7522 20.6047 12C20.6047 7.24778 16.7522 3.39535 12 3.39535ZM2 12C2 6.47715 6.47715 2 12 2C17.5228 2 22 6.47715 22 12C22 17.5228 17.5228 22 12 22C6.47715 22 2 17.5228 2 12ZM8.51163 9.2093C8.51163 8.82399 8.82399 8.51163 9.2093 8.51163H9.21861C9.60392 8.51163 9.91628 8.82399 9.91628 9.2093C9.91628 9.59462 9.60392 9.90698 9.21861 9.90698H9.2093C8.82399 9.90698 8.51163 9.59462 8.51163 9.2093ZM14.093 9.2093C14.093 8.82399 14.4054 8.51163 14.7907 8.51163H14.8C15.1853 8.51163 15.4977 8.82399 15.4977 9.2093C15.4977 9.59462 15.1853 9.90698 14.8 9.90698H14.7907C14.4054 9.90698 14.093 9.59462 14.093 9.2093ZM8.27907 13.8605C7.72093 14.2791 7.7211 14.2793 7.72127 14.2795L7.7225 14.2812L7.72461 14.2839L7.7304 14.2915L7.7483 14.3144C7.76303 14.333 7.78335 14.3582 7.80917 14.3889C7.86076 14.4504 7.93456 14.5346 8.02972 14.6339C8.21947 14.8319 8.49745 15.0934 8.85709 15.3549C9.57367 15.8761 10.645 16.4186 12 16.4186C13.355 16.4186 14.4263 15.8761 15.1429 15.3549C15.5025 15.0934 15.7805 14.8319 15.9703 14.6339C16.0654 14.5346 16.1392 14.4504 16.1908 14.3889C16.2167 14.3582 16.237 14.333 16.2517 14.3144L16.2696 14.2915L16.2754 14.2839L16.2775 14.2812L16.2783 14.28C16.2785 14.2798 16.2791 14.2791 15.7209 13.8605L16.2791 14.2791C16.5103 13.9708 16.4478 13.5335 16.1395 13.3023C15.8314 13.0712 15.3944 13.1336 15.1631 13.4414L15.1639 13.4404L15.1577 13.4483C15.1508 13.457 15.1389 13.4718 15.122 13.4919C15.0882 13.5322 15.0348 13.5933 14.9629 13.6684C14.8183 13.8193 14.6021 14.0229 14.3222 14.2265C13.7597 14.6355 12.9706 15.0233 12 15.0233C11.0294 15.0233 10.2403 14.6355 9.67779 14.2265C9.3979 14.0229 9.1817 13.8193 9.03714 13.6684C8.96515 13.5933 8.91177 13.5322 8.87797 13.4919C8.86109 13.4718 8.84917 13.457 8.84232 13.4483L8.83615 13.4404C8.60474 13.1331 8.16835 13.0714 7.86047 13.3023C7.55221 13.5335 7.49009 13.9713 7.72127 14.2795L8.27907 13.8605Z" fill="#151515"/>
</svg>
