<svg width="24" height="24" viewBox="0 0 24 24" fill="none" xmlns="http://www.w3.org/2000/svg">
<path fill-rule="evenodd" clip-rule="evenodd" d="M18.7722 8.7724C18.4685 9.04486 17.976 9.04486 17.6723 8.7724L12 3.68433L6.32775 8.7724C6.02401 9.04486 5.53155 9.04486 5.22781 8.7724C4.92406 8.49994 4.92406 8.0582 5.22781 7.78574L11.45 2.20434C11.7538 1.93188 12.2462 1.93189 12.55 2.20434L18.7722 7.78574C19.0759 8.0582 19.0759 8.49994 18.7722 8.7724ZM18.7722 15.2276C19.0759 15.5001 19.0759 15.9418 18.7722 16.2143L12.55 21.7957C12.2462 22.0681 11.7538 22.0681 11.45 21.7957L5.22781 16.2143C4.92406 15.9418 4.92406 15.5001 5.22781 15.2276C5.53155 14.9551 6.02401 14.9551 6.32775 15.2276L12 20.3157L17.6722 15.2276C17.976 14.9551 18.4685 14.9551 18.7722 15.2276Z" fill="#151515"/>
</svg>
