<svg width="24" height="24" viewBox="0 0 24 24" fill="none" xmlns="http://www.w3.org/2000/svg">
<path fill-rule="evenodd" clip-rule="evenodd" d="M3.77143 9C4.19748 9 4.54286 9.36631 4.54286 9.81818V13.0909C4.54286 13.1632 4.56995 13.2326 4.61817 13.2838C4.6664 13.3349 4.7318 13.3636 4.8 13.3636H19.2C19.2682 13.3636 19.3336 13.3349 19.3818 13.2838C19.4301 13.2326 19.4571 13.1632 19.4571 13.0909V9.81818C19.4571 9.36631 19.8025 9 20.2286 9C20.6546 9 21 9.36631 21 9.81818V13.0909C21 13.5972 20.8104 14.0828 20.4728 14.4408C20.1352 14.7989 19.6774 15 19.2 15H4.8C4.32261 15 3.86477 14.7989 3.52721 14.4408C3.18964 14.0828 3 13.5972 3 13.0909V9.81818C3 9.36631 3.34538 9 3.77143 9Z" fill="#151515"/>
</svg>
