<svg width="24" height="24" viewBox="0 0 24 24" fill="none" xmlns="http://www.w3.org/2000/svg">
<path fill-rule="evenodd" clip-rule="evenodd" d="M12 2C12.2705 2 12.5166 2.15635 12.6316 2.40121L15.3479 8.18787L21.4083 9.11933C21.6667 9.15904 21.8812 9.33988 21.964 9.58783C22.0469 9.83579 21.9841 10.1092 21.8015 10.2963L17.3964 14.8079L18.4374 21.19C18.4804 21.4537 18.369 21.7188 18.1506 21.8727C17.9322 22.0265 17.645 22.0421 17.4112 21.9128L12 18.9205L6.58879 21.9128C6.35497 22.0421 6.06784 22.0265 5.8494 21.8727C5.63096 21.7188 5.51959 21.4537 5.5626 21.19L6.60356 14.8079L2.1985 10.2963C2.01587 10.1092 1.95313 9.83579 2.03597 9.58783C2.1188 9.33988 2.33331 9.15904 2.59171 9.11933L8.65205 8.18787L11.3684 2.40121C11.4834 2.15635 11.7295 2 12 2ZM12 4.33951L9.75714 9.11742C9.65837 9.32783 9.46131 9.47523 9.23157 9.51054L4.1448 10.2924L7.84803 14.0851C8.00279 14.2436 8.07308 14.4662 8.03742 14.6849L7.17107 19.9964L11.6624 17.5127C11.8725 17.3966 12.1275 17.3966 12.3376 17.5127L16.8289 19.9964L15.9626 14.6849C15.9269 14.4662 15.9972 14.2436 16.152 14.0851L19.8552 10.2924L14.7684 9.51054C14.5387 9.47523 14.3416 9.32783 14.2429 9.11742L12 4.33951Z" fill="#151515"/>
</svg>
