<svg width="24" height="24" viewBox="0 0 24 24" fill="none" xmlns="http://www.w3.org/2000/svg">
<path fill-rule="evenodd" clip-rule="evenodd" d="M12 3.39535C7.24778 3.39535 3.39535 7.24778 3.39535 12C3.39535 16.7522 7.24778 20.6047 12 20.6047C16.7522 20.6047 20.6047 16.7522 20.6047 12C20.6047 7.24778 16.7522 3.39535 12 3.39535ZM2 12C2 6.47715 6.47715 2 12 2C17.5228 2 22 6.47715 22 12C22 17.5228 17.5228 22 12 22C6.47715 22 2 17.5228 2 12ZM8.51163 9.2093C8.51163 8.82399 8.82399 8.51163 9.2093 8.51163H14.7907C15.176 8.51163 15.4884 8.82399 15.4884 9.2093V14.7907C15.4884 15.176 15.176 15.4884 14.7907 15.4884H9.2093C8.82399 15.4884 8.51163 15.176 8.51163 14.7907V9.2093ZM9.90698 9.90698V14.093H14.093V9.90698H9.90698Z" fill="#151515"/>
</svg>
