<svg width="24" height="24" viewBox="0 0 24 24" fill="none" xmlns="http://www.w3.org/2000/svg">
<path fill-rule="evenodd" clip-rule="evenodd" d="M12.0001 2C12.3854 2 12.6978 2.31236 12.6978 2.69768V4.38903C12.6978 4.77434 12.3854 5.08671 12.0001 5.08671C11.6148 5.08671 11.3024 4.77434 11.3024 4.38903V2.69768C11.3024 2.31236 11.6148 2 12.0001 2ZM4.92739 4.92739C5.19985 4.65493 5.6416 4.65493 5.91406 4.92739L7.11491 6.12824C7.38737 6.4007 7.38737 6.84245 7.11491 7.11491C6.84245 7.38737 6.4007 7.38737 6.12824 7.11491L4.92739 5.91406C4.65493 5.6416 4.65493 5.19985 4.92739 4.92739ZM19.0727 4.92739C19.3451 5.19985 19.3451 5.6416 19.0727 5.91406L17.8718 7.11491C17.5994 7.38737 17.1576 7.38737 16.8852 7.11491C16.6127 6.84245 16.6127 6.4007 16.8852 6.12824L18.086 4.92739C18.3585 4.65493 18.8002 4.65493 19.0727 4.92739ZM12.0001 8.4694C10.0502 8.4694 8.46944 10.0501 8.46944 12.0001C8.46944 13.95 10.0502 15.5308 12.0001 15.5308C13.9501 15.5308 15.5308 13.95 15.5308 12.0001C15.5308 10.0501 13.9501 8.4694 12.0001 8.4694ZM7.07408 12.0001C7.07408 9.2795 9.27954 7.07404 12.0001 7.07404C14.7207 7.07404 16.9262 9.2795 16.9262 12.0001C16.9262 14.7207 14.7207 16.9261 12.0001 16.9261C9.27954 16.9261 7.07408 14.7207 7.07408 12.0001ZM2 12.0001C2 11.6148 2.31236 11.3024 2.69768 11.3024H4.38903C4.77434 11.3024 5.08671 11.6148 5.08671 12.0001C5.08671 12.3854 4.77434 12.6978 4.38903 12.6978H2.69768C2.31236 12.6978 2 12.3854 2 12.0001ZM18.9133 12.0001C18.9133 11.6148 19.2257 11.3024 19.611 11.3024H21.3023C21.6876 11.3024 22 11.6148 22 12.0001C22 12.3854 21.6876 12.6978 21.3023 12.6978H19.611C19.2257 12.6978 18.9133 12.3854 18.9133 12.0001ZM7.11491 16.8852C7.38737 17.1577 7.38737 17.5994 7.11491 17.8719L5.91406 19.0727C5.6416 19.3452 5.19985 19.3452 4.92739 19.0727C4.65493 18.8003 4.65493 18.3585 4.92739 18.0861L6.12824 16.8852C6.4007 16.6128 6.84245 16.6128 7.11491 16.8852ZM16.8852 16.8852C17.1576 16.6128 17.5994 16.6128 17.8718 16.8852L19.0727 18.0861C19.3451 18.3585 19.3451 18.8003 19.0727 19.0727C18.8002 19.3452 18.3585 19.3452 18.086 19.0727L16.8852 17.8719C16.6127 17.5994 16.6127 17.1577 16.8852 16.8852ZM12.0001 18.9135C12.3854 18.9135 12.6978 19.2258 12.6978 19.6111V21.3025C12.6978 21.6878 12.3854 22.0002 12.0001 22.0002C11.6148 22.0002 11.3024 21.6878 11.3024 21.3025V19.6111C11.3024 19.2258 11.6148 18.9135 12.0001 18.9135Z" fill="#151515"/>
</svg>
