<svg width="24" height="24" viewBox="0 0 24 24" fill="none" xmlns="http://www.w3.org/2000/svg">
<path fill-rule="evenodd" clip-rule="evenodd" d="M11.5092 3.21145C11.781 2.92952 12.219 2.92952 12.4908 3.21145L15.8735 6.71915C16.1473 7.0031 16.1496 7.46579 15.8785 7.7526C15.6074 8.03942 15.1656 8.04174 14.8918 7.7578L12.6977 5.48255V9.86925C12.6977 10.2728 12.3853 10.6 12 10.6C11.6147 10.6 11.3023 10.2728 11.3023 9.86925V5.48255L9.10818 7.7578C8.83436 8.04174 8.39262 8.03942 8.12153 7.7526C7.85045 7.46579 7.85267 7.0031 8.12649 6.71915L11.5092 3.21145ZM4.92489 10.4249C5.19598 10.1381 5.63771 10.1358 5.91154 10.4197L7.11239 11.6649C7.38621 11.9489 7.38843 12.4116 7.11734 12.6984C6.84626 12.9852 6.40452 12.9875 6.13069 12.7036L4.92985 11.4584C4.65602 11.1744 4.6538 10.7117 4.92489 10.4249ZM19.075 10.4249C19.3461 10.7117 19.3439 11.1744 19.0701 11.4584L17.8692 12.7036C17.5954 12.9875 17.1536 12.9852 16.8826 12.6984C16.6115 12.4116 16.6137 11.9489 16.8875 11.6649L18.0884 10.4197C18.3622 10.1358 18.8039 10.1381 19.075 10.4249ZM8.51932 14.1419C9.44365 13.1834 10.6958 12.6462 12 12.6462C13.3042 12.6462 14.5564 13.1834 15.4808 14.1419C16.4053 15.1006 16.926 16.4025 16.926 17.7616C16.926 18.1652 16.6137 18.4924 16.2284 18.4924C15.8431 18.4924 15.5307 18.1652 15.5307 17.7616C15.5307 16.7949 15.1604 15.8663 14.4991 15.1805C13.8375 14.4944 12.9387 14.1077 12 14.1077C11.0614 14.1077 10.1626 14.4944 9.50101 15.1805C8.83964 15.8663 8.46939 16.7949 8.46939 17.7616C8.46939 18.1652 8.15703 18.4924 7.77171 18.4924C7.3864 18.4924 7.07404 18.1652 7.07404 17.7616C7.07404 16.4025 7.59475 15.1006 8.51932 14.1419ZM2 17.7615C2 17.3579 2.31236 17.0308 2.69767 17.0308H4.38901C4.77432 17.0308 5.08668 17.3579 5.08668 17.7615C5.08668 18.1651 4.77432 18.4923 4.38901 18.4923H2.69767C2.31236 18.4923 2 18.1651 2 17.7615ZM18.9132 17.7615C18.9132 17.3579 19.2255 17.0308 19.6108 17.0308H21.3022C21.6875 17.0308 21.9998 17.3579 21.9998 17.7615C21.9998 18.1651 21.6875 18.4923 21.3022 18.4923H19.6108C19.2255 18.4923 18.9132 18.1651 18.9132 17.7615ZM2 21.2692C2 20.8656 2.31236 20.5385 2.69767 20.5385H21.3023C21.6876 20.5385 22 20.8656 22 21.2692C22 21.6728 21.6876 22 21.3023 22H2.69767C2.31236 22 2 21.6728 2 21.2692Z" fill="#151515"/>
</svg>
