<svg width="24" height="24" viewBox="0 0 24 24" fill="none" xmlns="http://www.w3.org/2000/svg">
<path fill-rule="evenodd" clip-rule="evenodd" d="M2 2.69767C2 2.31236 2.31236 2 2.69767 2H12.402C12.587 2 12.7645 2.07353 12.8954 2.20441L21.2328 10.544C21.7242 11.0385 22 11.7074 22 12.4045C22 13.1016 21.7242 13.7705 21.2328 14.265L21.2313 14.2664L14.2736 21.2259C14.0286 21.4713 13.7376 21.666 13.4173 21.7988C13.0969 21.9316 12.7536 22 12.4068 22C12.06 22 11.7167 21.9316 11.3964 21.7988C11.076 21.666 10.785 21.4713 10.54 21.2259L2.20457 12.8981C2.07359 12.7672 2 12.5896 2 12.4045V2.69767ZM3.39535 3.39535V12.1153L11.5268 20.2394C11.6422 20.355 11.7799 20.4473 11.9308 20.5099C12.0817 20.5724 12.2435 20.6047 12.4068 20.6047C12.5702 20.6047 12.7319 20.5724 12.8828 20.5099C13.0337 20.4473 13.1708 20.3556 13.2863 20.24L20.2431 13.2814C20.2433 13.2812 20.2429 13.2816 20.2431 13.2814C20.4743 13.0484 20.6047 12.7328 20.6047 12.4045C20.6047 12.0762 20.4749 11.7612 20.2437 11.5282C20.2435 11.528 20.2439 11.5284 20.2437 11.5282L12.1129 3.39535H3.39535ZM6.65116 7.34884C6.65116 6.96352 6.96352 6.65116 7.34884 6.65116H7.35814C7.74346 6.65116 8.05581 6.96352 8.05581 7.34884C8.05581 7.73415 7.74346 8.04651 7.35814 8.04651H7.34884C6.96352 8.04651 6.65116 7.73415 6.65116 7.34884Z" fill="#151515"/>
</svg>
