<svg width="24" height="24" viewBox="0 0 24 24" fill="none" xmlns="http://www.w3.org/2000/svg">
<path fill-rule="evenodd" clip-rule="evenodd" d="M12 3.39535C7.24778 3.39535 3.39535 7.24778 3.39535 12C3.39535 16.7522 7.24778 20.6047 12 20.6047C16.7522 20.6047 20.6047 16.7522 20.6047 12C20.6047 7.24778 16.7522 3.39535 12 3.39535ZM2 12C2 6.47715 6.47715 2 12 2C17.5228 2 22 6.47715 22 12C22 17.5228 17.5228 22 12 22C6.47715 22 2 17.5228 2 12ZM12 7.11628C9.3028 7.11628 7.11628 9.3028 7.11628 12C7.11628 14.6972 9.3028 16.8837 12 16.8837C14.6972 16.8837 16.8837 14.6972 16.8837 12C16.8837 9.3028 14.6972 7.11628 12 7.11628ZM5.72093 12C5.72093 8.53217 8.53217 5.72093 12 5.72093C15.4678 5.72093 18.2791 8.53217 18.2791 12C18.2791 15.4678 15.4678 18.2791 12 18.2791C8.53217 18.2791 5.72093 15.4678 5.72093 12ZM12 10.8372C11.3578 10.8372 10.8372 11.3578 10.8372 12C10.8372 12.6422 11.3578 13.1628 12 13.1628C12.6422 13.1628 13.1628 12.6422 13.1628 12C13.1628 11.3578 12.6422 10.8372 12 10.8372ZM9.44186 12C9.44186 10.5872 10.5872 9.44186 12 9.44186C13.4128 9.44186 14.5581 10.5872 14.5581 12C14.5581 13.4128 13.4128 14.5581 12 14.5581C10.5872 14.5581 9.44186 13.4128 9.44186 12Z" fill="#151515"/>
</svg>
