<svg width="24" height="24" viewBox="0 0 24 24" fill="none" xmlns="http://www.w3.org/2000/svg">
<path fill-rule="evenodd" clip-rule="evenodd" d="M9.87905 2.77687C10.4598 2.26859 11.2241 2 12 2C12.7759 2 13.5402 2.26859 14.1209 2.77687C14.7054 3.28833 15.0676 4.0156 15.0676 4.81168V13.9381C15.7918 14.4437 16.3617 15.1296 16.6912 15.9356C17.0726 16.8685 17.102 17.8923 16.7721 18.8442C16.4438 19.7914 15.7867 20.5928 14.9283 21.1499C14.0705 21.7068 13.0441 22 12 22C10.9559 22 9.92951 21.7068 9.07168 21.1499C8.21333 20.5928 7.55616 19.7914 7.22789 18.8442C6.89796 17.8923 6.92742 16.8685 7.30883 15.9356C7.63833 15.1296 8.20823 14.4437 8.93237 13.9381V4.81168C8.93237 4.0156 9.29465 3.28833 9.87905 2.77687ZM12 3.39535C11.4947 3.39535 11.0302 3.57221 10.705 3.85684C10.3834 4.13828 10.2367 4.48642 10.2367 4.81168V14.3332C10.2367 14.5882 10.1066 14.823 9.89736 14.9453C9.23154 15.3347 8.75297 15.8854 8.50387 16.4947C8.25678 17.0991 8.23928 17.7486 8.45087 18.3591C8.66412 18.9744 9.10824 19.5416 9.7483 19.957C10.3889 20.3728 11.1785 20.6047 12 20.6047C12.8215 20.6047 13.6111 20.3728 14.2517 19.957C14.8918 19.5416 15.3359 18.9744 15.5491 18.3591C15.7607 17.7486 15.7432 17.0991 15.4961 16.4947C15.247 15.8854 14.7685 15.3347 14.1026 14.9453C13.8934 14.823 13.7633 14.5882 13.7633 14.3332V4.81168C13.7633 4.48642 13.6166 4.13828 13.295 3.85684C12.9698 3.57221 12.5053 3.39535 12 3.39535Z" fill="#151515"/>
</svg>
