<svg width="24" height="24" viewBox="0 0 24 24" fill="none" xmlns="http://www.w3.org/2000/svg">
<path fill-rule="evenodd" clip-rule="evenodd" d="M20.1105 3.74895C19.8346 3.51585 19.4793 3.38919 19.1121 3.39558L19.0999 3.39579L17.2738 3.39569V12.2329H19.1121C19.4793 12.2393 19.8346 12.1127 20.1105 11.8796C20.3749 11.6562 20.5486 11.3505 20.6047 11.0176V4.61098C20.5486 4.27803 20.3749 3.97233 20.1105 3.74895ZM15.8785 12.7803L12.3642 20.562C11.9552 20.4796 11.5772 20.281 11.2795 19.988C10.8797 19.5946 10.6572 19.0634 10.6572 18.512V14.791C10.6572 14.4057 10.3449 14.0934 9.95955 14.0934H4.60954L4.60177 14.0934C4.42716 14.0953 4.25452 14.0599 4.09595 13.9898C3.9374 13.9198 3.79713 13.8171 3.68441 13.6895C3.57171 13.562 3.48918 13.4126 3.4418 13.252C3.39448 13.0916 3.38317 12.9232 3.40853 12.7583C3.40851 12.7585 3.40855 12.7582 3.40853 12.7583L4.71304 4.38566C4.75532 4.11129 4.89726 3.8588 5.11588 3.67593C5.33477 3.49282 5.61539 3.39241 5.9062 3.39564L15.8785 3.39569V12.7803ZM19.0943 2.00034C19.7947 1.9897 20.4765 2.23158 21.0109 2.68302C21.5473 3.13609 21.8981 3.76924 21.9935 4.46348C21.9978 4.49496 22 4.5267 22 4.55848V11.0701C22 11.1019 21.9978 11.1336 21.9935 11.1651C21.8981 11.8593 21.5473 12.4925 21.0109 12.9456C20.4765 13.397 19.7947 13.6389 19.0943 13.6282H17.0266L13.4311 21.5898C13.3182 21.8397 13.0694 22.0003 12.7952 22.0003C11.8617 22.0003 10.9642 21.6355 10.3007 20.9825C9.6369 20.3292 9.26188 19.4408 9.26188 18.512V15.4887H4.61312C4.24109 15.4923 3.87237 15.4165 3.53218 15.2662C3.19068 15.1154 2.88568 14.8929 2.63876 14.6134C2.3918 14.334 2.20891 14.0042 2.10347 13.6468C1.99803 13.2894 1.97276 12.9134 2.02956 12.5452L3.33396 4.17315C3.334 4.17295 3.33393 4.17336 3.33396 4.17315C3.42853 3.56049 3.74457 3.00386 4.22059 2.60566C4.69543 2.20845 5.298 1.99443 5.91754 2.00034H19.0943Z" fill="#151515"/>
</svg>
