<svg width="24" height="24" viewBox="0 0 24 24" fill="none" xmlns="http://www.w3.org/2000/svg">
<path fill-rule="evenodd" clip-rule="evenodd" d="M8.61734 6.35484C5.7944 6.35484 3.39535 8.82006 3.39535 12C3.39535 15.1799 5.7944 17.6452 8.61734 17.6452H15.3827C18.2056 17.6452 20.6047 15.1799 20.6047 12C20.6047 8.82006 18.2056 6.35484 15.3827 6.35484H8.61734ZM2 12C2 8.19621 4.9016 5 8.61734 5H15.3827C19.0984 5 22 8.19621 22 12C22 15.8038 19.0984 19 15.3827 19H8.61734C4.9016 19 2 15.8038 2 12ZM15.7209 9.96774C14.565 9.96774 13.6279 10.8776 13.6279 12C13.6279 13.1224 14.565 14.0323 15.7209 14.0323C16.8769 14.0323 17.814 13.1224 17.814 12C17.814 10.8776 16.8769 9.96774 15.7209 9.96774ZM12.2326 12C12.2326 10.1294 13.7944 8.6129 15.7209 8.6129C17.6475 8.6129 19.2093 10.1294 19.2093 12C19.2093 13.8706 17.6475 15.3871 15.7209 15.3871C13.7944 15.3871 12.2326 13.8706 12.2326 12Z" fill="#151515"/>
</svg>
