<svg width="24" height="24" viewBox="0 0 24 24" fill="none" xmlns="http://www.w3.org/2000/svg">
<path fill-rule="evenodd" clip-rule="evenodd" d="M8.61734 6.35484C5.7944 6.35484 3.39535 8.82006 3.39535 12C3.39535 15.1799 5.7944 17.6452 8.61734 17.6452H15.3827C18.2056 17.6452 20.6047 15.1799 20.6047 12C20.6047 8.82006 18.2056 6.35484 15.3827 6.35484H8.61734ZM2 12C2 8.19621 4.9016 5 8.61734 5H15.3827C19.0984 5 22 8.19621 22 12C22 15.8038 19.0984 19 15.3827 19H8.61734C4.9016 19 2 15.8038 2 12ZM8.27907 9.96774C7.12313 9.96774 6.18605 10.8776 6.18605 12C6.18605 13.1224 7.12313 14.0323 8.27907 14.0323C9.43501 14.0323 10.3721 13.1224 10.3721 12C10.3721 10.8776 9.43501 9.96774 8.27907 9.96774ZM4.7907 12C4.7907 10.1294 6.3525 8.6129 8.27907 8.6129C10.2056 8.6129 11.7674 10.1294 11.7674 12C11.7674 13.8706 10.2056 15.3871 8.27907 15.3871C6.3525 15.3871 4.7907 13.8706 4.7907 12Z" fill="#151515"/>
</svg>
