<svg width="24" height="24" viewBox="0 0 24 24" fill="none" xmlns="http://www.w3.org/2000/svg">
<path d="M7 5C7 5.55228 6.55228 6 6 6C5.44772 6 5 5.55228 5 5C5 4.44772 5.44772 4 6 4C6.55228 4 7 4.44772 7 5Z" fill="#151515"/>
<path d="M11 5C11 5.55228 10.5523 6 10 6C9.44772 6 9 5.55228 9 5C9 4.44772 9.44772 4 10 4C10.5523 4 11 4.44772 11 5Z" fill="#151515"/>
<path fill-rule="evenodd" clip-rule="evenodd" d="M4 2C2.89543 2 2 2.89543 2 4V5.71429C2 6.81886 2.89543 7.71429 4 7.71429H5.8709V10.0064C4.84147 10.0882 4.0316 10.9495 4.0316 12V18H4C2.89543 18 2 18.8954 2 20V21C2 21.5523 2.44772 22 3 22H13.1892C13.7415 22 14.1892 21.5523 14.1892 21V20C14.1892 18.8954 13.2938 18 12.1892 18H12.1578V13.7476H20.2997C21.2385 13.7476 21.9997 12.9865 21.9997 12.0476C21.9997 11.1087 21.2385 10.3476 20.2997 10.3476H11.2849C11.1439 10.2512 10.9899 10.1724 10.8261 10.1144V7.71429H12.1892C13.2938 7.71429 14.1892 6.81885 14.1892 5.71428V4C14.1892 2.89543 13.2938 2 12.1892 2H4ZM12.1892 3.4H4C3.66863 3.4 3.4 3.66863 3.4 4V5.71429C3.4 6.04566 3.66863 6.31429 4 6.31429H12.1892C12.5206 6.31429 12.7892 6.04566 12.7892 5.71428V4C12.7892 3.66863 12.5206 3.4 12.1892 3.4ZM7.2709 10V7.71429H9.4261V10H7.2709ZM12.7711 12.3476H12.1578V12C12.1578 11.9145 12.1524 11.8303 12.142 11.7476H12.9539L12.7711 12.3476ZM14.2346 12.3476H15.383L15.5659 11.7476H14.4175L14.2346 12.3476ZM17.0294 11.7476L16.8466 12.3476H17.995L18.1779 11.7476H17.0294ZM19.6414 11.7476L19.4586 12.3476H20.2997C20.4653 12.3476 20.5997 12.2133 20.5997 12.0476C20.5997 11.8819 20.4653 11.7476 20.2997 11.7476H19.6414ZM12.1892 19.4H4C3.66863 19.4 3.4 19.6686 3.4 20V20.6H12.7892V20C12.7892 19.6686 12.5206 19.4 12.1892 19.4ZM6.0316 11.4H10.1578C10.4891 11.4 10.7578 11.6686 10.7578 12V14.1571H5.4316V12C5.4316 11.6686 5.70023 11.4 6.0316 11.4ZM10.7578 17.9916V15.5571H5.4316V17.9916H10.7578Z" fill="#151515"/>
</svg>
