<svg width="24" height="24" viewBox="0 0 24 24" fill="none" xmlns="http://www.w3.org/2000/svg">
<path fill-rule="evenodd" clip-rule="evenodd" d="M16.5555 3.52107C15.8814 3.36975 15.1804 3.35409 14.4938 3.47919C13.4587 3.66779 12.5056 4.16737 11.7616 4.91135C11.0176 5.65534 10.5181 6.60839 10.3295 7.6435C10.1409 8.67862 10.2722 9.74663 10.706 10.7052C10.8257 10.9698 10.769 11.2808 10.5637 11.4862L3.79924 18.2506C3.54063 18.5092 3.39535 18.86 3.39535 19.2257C3.39535 19.5914 3.54063 19.9422 3.79924 20.2008C4.05784 20.4594 4.40859 20.6047 4.77431 20.6047C5.14004 20.6047 5.49078 20.4594 5.74939 20.2008L12.5138 13.4363C12.7192 13.231 13.0302 13.1743 13.2948 13.294C14.2534 13.7278 15.3214 13.8591 16.3565 13.6705C17.3916 13.4819 18.3447 12.9824 19.0886 12.2384C19.8326 11.4944 20.3322 10.5413 20.5208 9.50622C20.6459 8.81962 20.6302 8.11855 20.4789 7.44454L17.5777 10.3457C17.2643 10.6529 16.8429 10.825 16.4041 10.825C15.9652 10.825 15.5439 10.6529 15.2304 10.3457L15.2255 10.3408L13.6543 8.76958C13.3471 8.45617 13.175 8.03478 13.175 7.59592C13.175 7.15706 13.3471 6.7357 13.6543 6.4223L13.6592 6.41731L16.5555 3.52107ZM14.2437 2.10644C15.5578 1.86699 16.9138 2.03374 18.1307 2.58445C18.3394 2.67888 18.4884 2.8697 18.5295 3.09502C18.5705 3.32034 18.4984 3.55146 18.3364 3.71341L14.6491 7.4008C14.5986 7.45319 14.5704 7.52312 14.5704 7.59592C14.5704 7.66873 14.5986 7.73866 14.6491 7.79105L16.2089 9.35092C16.2613 9.4014 16.3313 9.42964 16.4041 9.42964C16.4769 9.42964 16.5468 9.40141 16.5992 9.35093L20.2866 5.66356C20.4485 5.50161 20.6797 5.42946 20.905 5.47051C21.1303 5.51157 21.3211 5.66059 21.4155 5.86925C21.9663 7.08625 22.133 8.44217 21.8936 9.75633C21.6541 11.0705 21.0199 12.2805 20.0753 13.225C19.1308 14.1696 17.9208 14.8038 16.6066 15.0433C15.4536 15.2534 14.2683 15.1508 13.173 14.7504L6.73605 21.1874C6.21576 21.7077 5.51011 22 4.77431 22C4.03852 22 3.33286 21.7077 2.81258 21.1874C2.29229 20.6671 2 19.9615 2 19.2257C2 18.4899 2.29229 17.7842 2.81258 17.264L9.24956 10.827C8.84924 9.73167 8.74663 8.54645 8.95672 7.39339C9.19616 6.07922 9.83042 4.86924 10.775 3.92469C11.7195 2.98014 12.9295 2.34588 14.2437 2.10644Z" fill="#151515"/>
</svg>
