<svg width="24" height="24" viewBox="0 0 24 24" fill="none" xmlns="http://www.w3.org/2000/svg">
<path fill-rule="evenodd" clip-rule="evenodd" d="M15.5307 6.72C15.5307 6.32235 15.843 6 16.2283 6H21.3023C21.6876 6 22 6.32235 22 6.72L22 12C22 12.3976 21.6876 12.72 21.3023 12.72C20.917 12.72 20.6047 12.3976 20.6047 12L20.6046 8.46848L13.7639 15.587C13.6329 15.7233 13.4545 15.8 13.2685 15.8C13.0825 15.8 12.9041 15.7233 12.7731 15.587L9.04017 11.7025L3.19305 17.787C2.92172 18.0693 2.47998 18.0712 2.2064 17.7912C1.93281 17.5112 1.93098 17.0553 2.2023 16.773L8.5448 10.173C8.6758 10.0367 8.85413 9.96 9.04017 9.96C9.22621 9.96 9.40454 10.0367 9.53554 10.173L13.2685 14.0575L19.6278 7.44H16.2283C15.843 7.44 15.5307 7.11765 15.5307 6.72Z" fill="#151515"/>
</svg>
