<svg width="24" height="24" viewBox="0 0 24 24" fill="none" xmlns="http://www.w3.org/2000/svg">
<path fill-rule="evenodd" clip-rule="evenodd" d="M2.2064 6.20877C2.47998 5.92877 2.92172 5.93066 3.19305 6.213L9.04017 12.2975L12.7731 8.41299C12.9041 8.27667 13.0825 8.19999 13.2685 8.19999C13.4545 8.19999 13.6329 8.27667 13.7639 8.41299L20.6046 15.5315L20.6046 12C20.6046 11.6024 20.917 11.28 21.3023 11.28C21.6876 11.28 22 11.6024 22 12L22 17.28C22 17.6776 21.6876 18 21.3023 18L16.2283 18C15.843 18 15.5306 17.6777 15.5306 17.28C15.5306 16.8824 15.843 16.56 16.2283 16.56L19.6278 16.56L13.2685 9.94247L9.53554 13.827C9.40454 13.9633 9.22621 14.04 9.04017 14.04C8.85413 14.04 8.6758 13.9633 8.5448 13.827L2.2023 7.227C1.93098 6.94465 1.93281 6.48878 2.2064 6.20877Z" fill="#151515"/>
</svg>
