<svg width="24" height="24" viewBox="0 0 24 24" fill="none" xmlns="http://www.w3.org/2000/svg">
<path fill-rule="evenodd" clip-rule="evenodd" d="M2 4.68571C2 4.307 2.31236 4 2.69768 4H15.3827C15.5678 4 15.7452 4.07225 15.8761 4.20085C16.0069 4.32945 16.0804 4.50387 16.0804 4.68573L16.0803 8.06349H18.7653C18.9476 8.06349 19.1227 8.13364 19.2531 8.25892L21.7901 10.697C21.9243 10.826 22 11.0028 22 11.1873V15.2508C22 15.6295 21.6876 15.9365 21.3023 15.9365H19.9406C20.1745 16.3319 20.3087 16.7908 20.3087 17.2825C20.3087 18.7978 19.0349 20 17.4968 20C15.9587 20 14.6849 18.7978 14.6849 17.2825C14.6849 16.7908 14.8191 16.3319 15.053 15.9365H8.94721C9.18105 16.3319 9.31522 16.7908 9.31522 17.2825C9.31522 18.7978 8.04145 20 6.50336 20C4.96528 20 3.69151 18.7978 3.69151 17.2825C3.69151 16.7908 3.82568 16.3319 4.05952 15.9365H2.69768C2.31236 15.9365 2 15.6295 2 15.2508V4.68571ZM14.6851 14.5651L14.685 5.37143H3.39536V14.5651H14.6851ZM16.0804 14.5651L16.0803 9.43492H18.4809L20.6046 11.4759V14.5651H16.0804ZM6.50336 15.9365C5.70619 15.9365 5.08686 16.5536 5.08686 17.2825C5.08686 18.0115 5.70619 18.6286 6.50336 18.6286C7.30054 18.6286 7.91986 18.0115 7.91986 17.2825C7.91986 16.5536 7.30054 15.9365 6.50336 15.9365ZM17.4968 15.9365C16.6996 15.9365 16.0803 16.5536 16.0803 17.2825C16.0803 18.0115 16.6996 18.6286 17.4968 18.6286C18.294 18.6286 18.9133 18.0115 18.9133 17.2825C18.9133 16.5536 18.294 15.9365 17.4968 15.9365Z" fill="#151515"/>
</svg>
