<svg width="24" height="24" viewBox="0 0 24 24" fill="none" xmlns="http://www.w3.org/2000/svg">
<path fill-rule="evenodd" clip-rule="evenodd" d="M3 3.77143C3 3.34538 3.34538 3 3.77143 3H20.2286C20.6546 3 21 3.34538 21 3.77143V6.85714C21 7.28319 20.6546 7.62857 20.2286 7.62857C19.8025 7.62857 19.4571 7.28319 19.4571 6.85714V4.54286H12.7714V19.4571H15.0857C15.5118 19.4571 15.8571 19.8025 15.8571 20.2286C15.8571 20.6546 15.5118 21 15.0857 21H8.91429C8.48824 21 8.14286 20.6546 8.14286 20.2286C8.14286 19.8025 8.48824 19.4571 8.91429 19.4571H11.2286V4.54286H4.54286V6.85714C4.54286 7.28319 4.19748 7.62857 3.77143 7.62857C3.34538 7.62857 3 7.28319 3 6.85714V3.77143Z" fill="#151515"/>
</svg>
