<svg width="24" height="24" viewBox="0 0 24 24" fill="none" xmlns="http://www.w3.org/2000/svg">
<path fill-rule="evenodd" clip-rule="evenodd" d="M5.24742 5.56507C7.09625 3.91392 9.50389 3 12 3C14.4961 3 16.9038 3.91392 18.7526 5.56507C20.6016 7.21639 21.759 9.48679 21.9968 11.9336C22.0157 12.1278 21.951 12.321 21.8188 12.4655C21.6866 12.6099 21.499 12.6923 21.3023 12.6923H12.6977V17.8154C12.6977 18.2905 12.8897 18.7476 13.2339 19.0857C13.5783 19.4241 14.0469 19.6154 14.537 19.6154C15.0271 19.6154 15.4957 19.4241 15.8401 19.0857C16.1843 18.7476 16.3763 18.2905 16.3763 17.8154C16.3763 17.433 16.6887 17.1231 17.074 17.1231C17.4593 17.1231 17.7717 17.433 17.7717 17.8154C17.7717 18.6623 17.4292 19.473 16.8218 20.0697C16.2146 20.6662 15.3926 21 14.537 21C13.6814 21 12.8594 20.6662 12.2522 20.0697C11.6448 19.473 11.3023 18.6623 11.3023 17.8154V12.6923H2.69768C2.50099 12.6923 2.31345 12.6099 2.18122 12.4655C2.04898 12.321 1.98435 12.1278 2.00322 11.9336C2.24097 9.48679 3.3984 7.21639 5.24742 5.56507ZM20.4988 11.3077C20.1534 9.49983 19.2168 7.84246 17.8191 6.59425C16.2278 5.17307 14.1531 4.38462 12 4.38462C9.84687 4.38462 7.77218 5.17307 6.18086 6.59425C4.7832 7.84246 3.84663 9.49983 3.50124 11.3077H20.4988Z" fill="#151515"/>
</svg>
