<svg width="24" height="24" viewBox="0 0 24 24" fill="none" xmlns="http://www.w3.org/2000/svg">
<path fill-rule="evenodd" clip-rule="evenodd" d="M6.51429 3C6.893 3 7.2 3.30996 7.2 3.69231V10.1538C7.2 11.4391 7.70571 12.6718 8.60589 13.5806C9.50606 14.4894 10.727 15 12 15C13.273 15 14.4939 14.4894 15.3941 13.5806C16.2943 12.6718 16.8 11.4391 16.8 10.1538V3.69231C16.8 3.30996 17.107 3 17.4857 3C17.8644 3 18.1714 3.30996 18.1714 3.69231V10.1538C18.1714 11.8063 17.5212 13.3912 16.3639 14.5597C15.2065 15.7282 13.6368 16.3846 12 16.3846C10.3632 16.3846 8.79351 15.7282 7.63614 14.5597C6.47877 13.3912 5.82857 11.8063 5.82857 10.1538V3.69231C5.82857 3.30996 6.13558 3 6.51429 3ZM4 20.3077C4 19.9253 4.307 19.6154 4.68571 19.6154H19.3143C19.693 19.6154 20 19.9253 20 20.3077C20 20.69 19.693 21 19.3143 21H4.68571C4.307 21 4 20.69 4 20.3077Z" fill="#151515"/>
</svg>
