<svg width="24" height="24" viewBox="0 0 24 24" fill="none" xmlns="http://www.w3.org/2000/svg">
<path fill-rule="evenodd" clip-rule="evenodd" d="M14.3268 4.16577C13.5435 3.58428 12.5737 3.31684 11.6057 3.41538C10.1716 3.56136 9.34392 4.10087 8.85173 4.73113C8.2733 5.47184 8.07692 6.44407 8.07693 7.35352V10.3721H18.4615C19.8635 10.3721 21 11.5174 21 12.9302V19.4419C21 20.8547 19.8635 22 18.4615 22H5.53846C4.13651 22 3 20.8547 3 19.4419V12.9302C3 11.5174 4.13651 10.3721 5.53846 10.3721H6.69231V7.35352C6.69231 6.27746 6.9193 4.94943 7.76365 3.8682C8.52174 2.89744 9.71602 2.20529 11.4666 2.02709C12.7762 1.89378 14.0882 2.25561 15.148 3.04233C16.2077 3.82904 16.9396 4.98452 17.2015 6.28446C17.2776 6.66207 17.0355 7.03034 16.6608 7.10701C16.2861 7.18369 15.9207 6.93973 15.8446 6.56212C15.651 5.60131 15.1101 4.74725 14.3268 4.16577ZM7.30395 11.7674H5.53846C4.90121 11.7674 4.38462 12.288 4.38462 12.9302V19.4419C4.38462 20.0841 4.90121 20.6047 5.53846 20.6047H18.4615C19.0988 20.6047 19.6154 20.0841 19.6154 19.4419V12.9302C19.6154 12.288 19.0988 11.7674 18.4615 11.7674H7.46528C7.43882 11.7705 7.4119 11.7721 7.38462 11.7721C7.35733 11.7721 7.33042 11.7705 7.30395 11.7674Z" fill="#151515"/>
</svg>
