<svg width="24" height="24" viewBox="0 0 24 24" fill="none" xmlns="http://www.w3.org/2000/svg">
<path fill-rule="evenodd" clip-rule="evenodd" d="M10.1395 4.38462C8.46984 4.38462 7.11628 5.72776 7.11628 7.38461C7.11628 9.04147 8.46984 10.3846 10.1395 10.3846C11.8092 10.3846 13.1628 9.04147 13.1628 7.38461C13.1628 5.72776 11.8092 4.38462 10.1395 4.38462ZM5.72093 7.38461C5.72093 4.96306 7.69921 3 10.1395 3C12.5799 3 14.5581 4.96306 14.5581 7.38461C14.5581 9.80617 12.5799 11.7692 10.1395 11.7692C7.69921 11.7692 5.72093 9.80617 5.72093 7.38461ZM14.1148 3.64059C14.2104 3.27019 14.5905 3.0468 14.9637 3.14164C15.9142 3.38312 16.7566 3.93164 17.3582 4.70071C17.9598 5.46978 18.2864 6.41566 18.2864 7.38923C18.2864 8.36281 17.9598 9.30869 17.3582 10.0778C16.7566 10.8468 15.9142 11.3953 14.9637 11.6368C14.5905 11.7317 14.2104 11.5083 14.1148 11.1379C14.0193 10.7675 14.2444 10.3903 14.6176 10.2955C15.268 10.1303 15.8444 9.75496 16.256 9.22875C16.6676 8.70254 16.891 8.05536 16.891 7.38923C16.891 6.72311 16.6676 6.07592 16.256 5.54972C15.8444 5.02351 15.268 4.64821 14.6176 4.48299C14.2444 4.38815 14.0193 4.011 14.1148 3.64059ZM3.29418 15.3611C4.12283 14.5389 5.24672 14.0769 6.4186 14.0769H13.8605C15.0324 14.0769 16.1562 14.5389 16.9849 15.3611C17.8135 16.1834 18.2791 17.2987 18.2791 18.4615V20.3077C18.2791 20.69 17.9667 21 17.5814 21C17.1961 21 16.8837 20.69 16.8837 20.3077V18.4615C16.8837 17.6659 16.5652 16.9028 15.9982 16.3402C15.4313 15.7776 14.6623 15.4615 13.8605 15.4615H6.4186C5.61679 15.4615 4.84781 15.7776 4.28084 16.3402C3.71387 16.9028 3.39535 17.6659 3.39535 18.4615V20.3077C3.39535 20.69 3.08299 21 2.69767 21C2.31236 21 2 20.69 2 20.3077V18.4615C2 17.2987 2.46553 16.1834 3.29418 15.3611ZM17.8361 14.7162C17.9324 14.3459 18.313 14.1233 18.686 14.2189C19.634 14.4618 20.4738 15.0102 21.0736 15.778C21.6734 16.5458 21.9993 17.4895 22 18.461V20.3077C22 20.69 21.6876 21 21.3023 21C20.917 21 20.6047 20.69 20.6047 20.3077V18.4621C20.6042 17.7974 20.3812 17.1516 19.9708 16.6263C19.5604 16.101 18.9858 15.7257 18.3372 15.5596C17.9641 15.464 17.7398 15.0864 17.8361 14.7162Z" fill="#151515"/>
</svg>
