<svg width="24" height="24" viewBox="0 0 24 24" fill="none" xmlns="http://www.w3.org/2000/svg">
<path fill-rule="evenodd" clip-rule="evenodd" d="M9.67442 4.38462C8.00472 4.38462 6.65116 5.72776 6.65116 7.38462C6.65116 9.04147 8.00472 10.3846 9.67442 10.3846C11.3441 10.3846 12.6977 9.04147 12.6977 7.38462C12.6977 5.72776 11.3441 4.38462 9.67442 4.38462ZM5.25581 7.38462C5.25581 4.96306 7.23409 3 9.67442 3C12.1147 3 14.093 4.96306 14.093 7.38462C14.093 9.80617 12.1147 11.7692 9.67442 11.7692C7.23409 11.7692 5.25581 9.80617 5.25581 7.38462ZM21.7957 8.74123C22.0681 9.0116 22.0681 9.44994 21.7957 9.7203L18.6949 12.7972C18.564 12.9271 18.3866 13 18.2015 13C18.0165 13 17.8391 12.9271 17.7082 12.7972L16.1578 11.2588C15.8854 10.9884 15.8854 10.5501 16.1578 10.2797C16.4303 10.0093 16.872 10.0093 17.1445 10.2797L18.2015 11.3286L20.809 8.74123C21.0815 8.47087 21.5232 8.47087 21.7957 8.74123ZM3.29418 15.3611C4.12283 14.5389 5.24672 14.0769 6.4186 14.0769H12.9302C14.1021 14.0769 15.226 14.5389 16.0547 15.3611C16.8833 16.1834 17.3488 17.2987 17.3488 18.4615V20.3077C17.3488 20.69 17.0365 21 16.6512 21C16.2658 21 15.9535 20.69 15.9535 20.3077V18.4615C15.9535 17.6659 15.635 16.9028 15.068 16.3402C14.501 15.7776 13.732 15.4615 12.9302 15.4615H6.4186C5.61679 15.4615 4.84781 15.7776 4.28084 16.3402C3.71387 16.9028 3.39535 17.6659 3.39535 18.4615V20.3077C3.39535 20.69 3.08299 21 2.69767 21C2.31236 21 2 20.69 2 20.3077V18.4615C2 17.2987 2.46553 16.1834 3.29418 15.3611Z" fill="#151515"/>
</svg>
