<svg width="24" height="24" viewBox="0 0 24 24" fill="none" xmlns="http://www.w3.org/2000/svg">
<path fill-rule="evenodd" clip-rule="evenodd" d="M12 4.38462C10.3589 4.38462 9.02857 5.72776 9.02857 7.38462C9.02857 9.04147 10.3589 10.3846 12 10.3846C13.6411 10.3846 14.9714 9.04147 14.9714 7.38462C14.9714 5.72776 13.6411 4.38462 12 4.38462ZM7.65714 7.38462C7.65714 4.96306 9.60151 3 12 3C14.3985 3 16.3429 4.96306 16.3429 7.38462C16.3429 9.80617 14.3985 11.7692 12 11.7692C9.60151 11.7692 7.65714 9.80617 7.65714 7.38462ZM5.27199 15.3611C6.08644 14.5389 7.19106 14.0769 8.34286 14.0769H15.6571C16.8089 14.0769 17.9136 14.5389 18.728 15.3611C19.5424 16.1834 20 17.2987 20 18.4615V20.3077C20 20.69 19.693 21 19.3143 21C18.9356 21 18.6286 20.69 18.6286 20.3077V18.4615C18.6286 17.6659 18.3155 16.9028 17.7583 16.3402C17.201 15.7776 16.4452 15.4615 15.6571 15.4615H8.34286C7.55479 15.4615 6.79899 15.7776 6.24174 16.3402C5.68449 16.9028 5.37143 17.6659 5.37143 18.4615V20.3077C5.37143 20.69 5.06442 21 4.68571 21C4.307 21 4 20.69 4 20.3077V18.4615C4 17.2987 4.45755 16.1834 5.27199 15.3611Z" fill="#151515"/>
</svg>
