<svg width="24" height="24" viewBox="0 0 24 24" fill="none" xmlns="http://www.w3.org/2000/svg">
<path fill-rule="evenodd" clip-rule="evenodd" d="M2.20434 2.20434C2.4768 1.93189 2.91855 1.93189 3.191 2.20434L21.7957 20.809C22.0681 21.0815 22.0681 21.5232 21.7957 21.7957C21.5232 22.0681 21.0815 22.0681 20.809 21.7957L16.0657 17.0523C16.0064 17.5929 15.7692 18.1021 15.3858 18.4937C14.939 18.9501 14.3298 19.2093 13.6913 19.2093H4.38901C3.75057 19.2093 3.14135 18.9501 2.69452 18.4937C2.24818 18.0378 2 17.4226 2 16.7841V8.14618C2 7.50768 2.24818 6.89243 2.69452 6.43653C3.14135 5.98012 3.75057 5.72093 4.38901 5.72093H4.73427L2.20434 3.191C1.93189 2.91855 1.93189 2.4768 2.20434 2.20434ZM5.78701 7.11628H4.38901C4.1303 7.11628 3.87913 7.22111 3.69159 7.41267C3.50355 7.60474 3.39535 7.86832 3.39535 8.14618V16.7841C3.39535 17.0619 3.50355 17.3255 3.69159 17.5176C3.87913 17.7091 4.1303 17.814 4.38901 17.814H13.6913C13.95 17.814 14.2012 17.7091 14.3888 17.5176C14.5768 17.3255 14.685 17.0619 14.685 16.7841V16.2049L5.78701 7.11628ZM10.1691 6.4186C10.1691 6.03329 10.4815 5.72093 10.8668 5.72093H13.6913C14.3298 5.72093 14.939 5.98012 15.3858 6.43653C15.8322 6.89243 16.0803 7.50768 16.0803 8.14618V10.7466L16.3021 10.9731L20.8877 7.58505C21.0996 7.42855 21.3814 7.40466 21.6166 7.52329C21.8517 7.64191 22 7.88282 22 8.14618V16.7841C22 17.1694 21.6876 17.4817 21.3023 17.4817C20.917 17.4817 20.6047 17.1694 20.6047 16.7841V9.52909L16.6429 12.4562C16.3629 12.663 15.9733 12.6318 15.7298 12.3831L14.8841 11.5193C14.7565 11.3889 14.685 11.2137 14.685 11.0312V8.14618C14.685 7.86832 14.5768 7.60474 14.3888 7.41267C14.2012 7.22111 13.95 7.11628 13.6913 7.11628H10.8668C10.4815 7.11628 10.1691 6.80392 10.1691 6.4186Z" fill="#151515"/>
</svg>
