<svg width="24" height="24" viewBox="0 0 24 24" fill="none" xmlns="http://www.w3.org/2000/svg">
<path fill-rule="evenodd" clip-rule="evenodd" d="M4.38902 6.44828C3.85411 6.44828 3.39536 6.91232 3.39536 7.51724V16.4828C3.39536 17.0877 3.85411 17.5517 4.38902 17.5517H13.6914C14.2263 17.5517 14.6851 17.0877 14.6851 16.4828V12.0137C14.685 12.0092 14.6849 12.0046 14.6849 12.0001C14.6849 11.9955 14.685 11.9909 14.6851 11.9864V7.51724C14.6851 6.91232 14.2263 6.44828 13.6914 6.44828H4.38902ZM16.0804 10.5753V7.51724C16.0804 6.14156 15.0247 5 13.6914 5H4.38902C3.05573 5 2 6.14156 2 7.51724V16.4828C2 17.8584 3.05573 19 4.38902 19H13.6914C15.0247 19 16.0804 17.8584 16.0804 16.4828V13.4249L20.8911 17.0678C21.1033 17.2285 21.3843 17.2519 21.6184 17.1284C21.8525 17.0049 22 16.7554 22 16.4828V7.5173C22 7.24473 21.8525 6.99526 21.6184 6.87176C21.3843 6.74826 21.1033 6.77166 20.8911 6.93231L16.0804 10.5753ZM16.5663 12.0001L20.6046 15.0581V8.942L16.5663 12.0001Z" fill="#151515"/>
</svg>
