<svg width="24" height="24" viewBox="0 0 24 24" fill="none" xmlns="http://www.w3.org/2000/svg">
<path fill-rule="evenodd" clip-rule="evenodd" d="M6.50317 9.42105C4.7719 9.42105 3.39535 10.8145 3.39535 12.5C3.39535 14.1855 4.7719 15.5789 6.50317 15.5789C8.23444 15.5789 9.61099 14.1855 9.61099 12.5C9.61099 10.8145 8.23444 9.42105 6.50317 9.42105ZM9.78745 15.5789C10.5421 14.7762 11.0063 13.6953 11.0063 12.5C11.0063 9.99975 8.97534 8 6.50317 8C4.031 8 2 9.99975 2 12.5C2 15.0002 4.031 17 6.50317 17H17.4968C19.969 17 22 15.0002 22 12.5C22 9.99975 19.969 8 17.4968 8C15.0247 8 12.9937 9.99975 12.9937 12.5C12.9937 13.6953 13.4579 14.7762 14.2126 15.5789H9.78745ZM17.4968 15.5789C19.2281 15.5789 20.6047 14.1855 20.6047 12.5C20.6047 10.8145 19.2281 9.42105 17.4968 9.42105C15.7656 9.42105 14.389 10.8145 14.389 12.5C14.389 14.1855 15.7656 15.5789 17.4968 15.5789Z" fill="#151515"/>
</svg>
