<svg width="24" height="24" viewBox="0 0 24 24" fill="none" xmlns="http://www.w3.org/2000/svg">
<path fill-rule="evenodd" clip-rule="evenodd" d="M11.372 4.07642C11.6137 4.20534 11.7674 4.4766 11.7674 4.7742V19.2258C11.7674 19.5234 11.6137 19.7947 11.372 19.9236C11.1303 20.0525 10.8434 20.0163 10.6339 19.8303L6.17387 15.871H2.69767C2.31236 15.871 2 15.5243 2 15.0968V8.90323C2 8.47565 2.31236 8.12904 2.69767 8.12904H6.17387L10.6339 4.16966C10.8434 3.98375 11.1303 3.9475 11.372 4.07642ZM10.3721 6.385L6.85444 9.50777C6.73073 9.61759 6.57703 9.67742 6.4186 9.67742H3.39535V14.3226H6.4186C6.57703 14.3226 6.73073 14.3824 6.85444 14.4922L10.3721 17.615V6.385ZM15.2276 8.35579C15.5001 8.05345 15.9418 8.05345 16.2143 8.35579L18.5116 10.9051L20.809 8.35579C21.0815 8.05345 21.5232 8.05345 21.7957 8.35579C22.0681 8.65813 22.0681 9.14832 21.7957 9.45067L19.4983 12L21.7957 14.5493C22.0681 14.8517 22.0681 15.3419 21.7957 15.6442C21.5232 15.9465 21.0815 15.9465 20.809 15.6442L18.5116 13.0949L16.2143 15.6442C15.9418 15.9465 15.5001 15.9465 15.2276 15.6442C14.9551 15.3419 14.9551 14.8517 15.2276 14.5493L17.525 12L15.2276 9.45067C14.9551 9.14832 14.9551 8.65813 15.2276 8.35579Z" fill="#151515"/>
</svg>
