<svg width="24" height="24" viewBox="0 0 24 24" fill="none" xmlns="http://www.w3.org/2000/svg">
<path fill-rule="evenodd" clip-rule="evenodd" d="M16.5951 4.07642C16.8426 4.20534 17 4.4766 17 4.7742V19.2258C17 19.5234 16.8426 19.7947 16.5951 19.9236C16.3477 20.0525 16.0539 20.0163 15.8395 19.8303L11.2733 15.871H7.71429C7.3198 15.871 7 15.5243 7 15.0968V8.90323C7 8.47565 7.3198 8.12904 7.71429 8.12904H11.2733L15.8395 4.16966C16.0539 3.98375 16.3477 3.9475 16.5951 4.07642ZM15.5714 6.385L11.97 9.50777C11.8434 9.61759 11.686 9.67742 11.5238 9.67742H8.42857V14.3226H11.5238C11.686 14.3226 11.8434 14.3824 11.97 14.4922L15.5714 17.615V6.385Z" fill="#151515"/>
</svg>
