<svg width="24" height="24" viewBox="0 0 24 24" fill="none" xmlns="http://www.w3.org/2000/svg">
<path fill-rule="evenodd" clip-rule="evenodd" d="M18.0851 4.22471C18.3576 3.92512 18.7994 3.92519 19.0718 4.22487C20.9467 6.28719 22 9.08393 22 12.0001C22 14.9162 20.9467 17.7129 19.0718 19.7753C18.7994 20.0749 18.3576 20.075 18.0851 19.7754C17.8126 19.4758 17.8125 18.99 18.0849 18.6903C19.6982 16.9158 20.6045 14.5093 20.6045 12.0001C20.6045 9.49083 19.6982 7.08434 18.0849 5.30978C17.8125 5.0101 17.8126 4.5243 18.0851 4.22471ZM11.3729 4.1474C11.6147 4.27516 11.7684 4.544 11.7684 4.83894V19.1612C11.7684 19.4561 11.6147 19.725 11.3729 19.8527C11.1312 19.9805 10.8442 19.9446 10.6348 19.7603L6.17429 15.8364H2.69774C2.31239 15.8364 2 15.4929 2 15.0691V8.93101C2 8.50726 2.31239 8.16374 2.69774 8.16374H6.17429L10.6348 4.2398C10.8442 4.05556 11.1312 4.01963 11.3729 4.1474ZM10.3729 6.43532L6.85492 9.53014C6.7312 9.63898 6.57748 9.69827 6.41904 9.69827H3.39549V14.3019H6.41904C6.57748 14.3019 6.7312 14.3611 6.85492 14.47L10.3729 17.5648V6.43532ZM14.801 7.83596C15.0736 7.53637 15.5154 7.53644 15.7878 7.83612C16.7906 8.93923 17.354 10.4352 17.354 11.9949C17.354 13.5547 16.7906 15.0507 15.7878 16.1538C15.5154 16.4535 15.0736 16.4535 14.801 16.1539C14.5285 15.8543 14.5284 15.3685 14.8009 15.0689C15.5421 14.2535 15.9585 13.1478 15.9585 11.9949C15.9585 10.8421 15.5421 9.73637 14.8009 8.92103C14.5284 8.62135 14.5285 8.13555 14.801 7.83596Z" fill="#151515"/>
</svg>
