<svg width="24" height="24" viewBox="0 0 24 24" fill="none" xmlns="http://www.w3.org/2000/svg">
<path fill-rule="evenodd" clip-rule="evenodd" d="M13.7673 5.07164C14.0192 5.1925 14.1794 5.44681 14.1794 5.72581V19.2742C14.1794 19.5532 14.0192 19.8075 13.7673 19.9284C13.5153 20.0492 13.2163 20.0152 12.9981 19.8409L8.34991 16.129H4.7271C4.32553 16.129 4 15.8041 4 15.4032V9.59678C4 9.19593 4.32553 8.87097 4.7271 8.87097H8.34991L12.9981 5.15905C13.2163 4.98476 13.5153 4.95078 13.7673 5.07164ZM12.7252 7.23594L9.05918 10.1635C8.93025 10.2665 8.77007 10.3226 8.60496 10.3226H5.4542V14.6774H8.60496C8.77007 14.6774 8.93025 14.7335 9.05918 14.8365L12.7252 17.7641V7.23594ZM17.3396 8.5609C17.6236 8.27749 18.084 8.27756 18.3679 8.56105C19.4129 9.60455 20 11.0197 20 12.4952C20 13.9707 19.4129 15.3858 18.3679 16.4293C18.084 16.7128 17.6236 16.7128 17.3396 16.4294C17.0556 16.146 17.0555 15.6865 17.3395 15.403C18.1119 14.6317 18.5458 13.5858 18.5458 12.4952C18.5458 11.4046 18.1119 10.3586 17.3395 9.58734C17.0555 9.30385 17.0556 8.8443 17.3396 8.5609Z" fill="#151515"/>
</svg>
