<svg width="24" height="24" viewBox="0 0 24 24" fill="none" xmlns="http://www.w3.org/2000/svg">
<path fill-rule="evenodd" clip-rule="evenodd" d="M12 5.45478C8.75635 5.45478 5.61753 6.75983 3.17351 9.1362C2.89172 9.41019 2.45025 9.39414 2.18745 9.10034C1.92465 8.80655 1.94005 8.34627 2.22184 8.07228C4.91682 5.4519 8.39316 4 12 4C15.6068 4 19.0832 5.4519 21.7782 8.07228C22.0599 8.34627 22.0753 8.80655 21.8125 9.10034C21.5497 9.39414 21.1083 9.41019 20.8265 9.1362C18.3825 6.75983 15.2436 5.45478 12 5.45478ZM12.0352 10.3035C9.94779 10.3035 7.92051 11.1101 6.30668 12.5929C6.0176 12.8585 5.57673 12.8295 5.32198 12.5281C5.06723 12.2267 5.09506 11.767 5.38414 11.5014C7.24605 9.79075 9.5992 8.84868 12.0352 8.84868C14.4713 8.84868 16.8244 9.79075 18.6863 11.5014C18.9754 11.767 19.0032 12.2267 18.7485 12.5281C18.4937 12.8295 18.0529 12.8585 17.7638 12.5929C16.15 11.1101 14.1227 10.3035 12.0352 10.3035ZM12.0043 15.1519C11.0637 15.1519 10.1424 15.4745 9.36812 16.0813C9.06012 16.3227 8.62275 16.258 8.39123 15.9369C8.15972 15.6158 8.22173 15.1598 8.52973 14.9184C9.54062 14.1262 10.7549 13.6971 12.0043 13.6971C13.2536 13.6971 14.4679 14.1262 15.4788 14.9184C15.7868 15.1598 15.8488 15.6158 15.6173 15.9369C15.3858 16.258 14.9484 16.3227 14.6404 16.0813C13.8661 15.4745 12.9448 15.1519 12.0043 15.1519ZM11.3023 19.2726C11.3023 18.8709 11.6147 18.5452 12 18.5452H12.0093C12.3946 18.5452 12.707 18.8709 12.707 19.2726C12.707 19.6743 12.3946 20 12.0093 20H12C11.6147 20 11.3023 19.6743 11.3023 19.2726Z" fill="#151515"/>
</svg>
