<svg width="24" height="24" viewBox="0 0 24 24" fill="none" xmlns="http://www.w3.org/2000/svg">
<path fill-rule="evenodd" clip-rule="evenodd" d="M3.14739 2.19186C3.42674 1.92648 3.86834 1.9378 4.13372 2.21715L7.3054 5.55576C7.32639 5.57526 7.34626 5.59615 7.36488 5.61837L21.8081 20.8218C22.0735 21.1012 22.0622 21.5428 21.7828 21.8081C21.5035 22.0735 21.0619 22.0622 20.7965 21.7828L15.3124 16.0101C15.095 16.0943 14.8404 16.0677 14.6404 15.9174C13.8661 15.3354 12.9448 15.026 12.0043 15.026C11.0637 15.026 10.1424 15.3354 9.36811 15.9174C9.06011 16.1489 8.62274 16.0869 8.39122 15.7789C8.15971 15.4709 8.22171 15.0335 8.52972 14.802C9.54061 14.0422 10.7549 13.6306 12.0043 13.6306C12.3966 13.6306 12.7855 13.6712 13.1657 13.7504L10.1578 10.5842C8.74606 10.9036 7.42374 11.5834 6.30766 12.5707C6.01906 12.826 5.57814 12.799 5.32285 12.5104C5.06755 12.2218 5.09455 11.7809 5.38315 11.5256C6.46429 10.5692 7.7182 9.85858 9.06591 9.43484L6.66066 6.903C5.39206 7.48858 4.21535 8.28168 3.17422 9.25534C2.89279 9.51852 2.4513 9.50374 2.18811 9.22231C1.92492 8.94089 1.93971 8.49939 2.22113 8.23621C3.25287 7.27133 4.40772 6.46505 5.65137 5.84059L3.1221 3.1782C2.85671 2.89885 2.86803 2.45725 3.14739 2.19186ZM16.2059 6.44274C14.5055 5.84408 12.7097 5.61435 10.9251 5.76649C10.5411 5.79922 10.2034 5.51453 10.1707 5.1306C10.1379 4.74668 10.4226 4.40892 10.8065 4.37619C12.7893 4.20716 14.7834 4.46263 16.6693 5.12658C18.555 5.7905 20.2923 6.84867 21.7784 8.23573C22.06 8.49864 22.0753 8.94012 21.8123 9.22181C21.5494 9.50349 21.108 9.5187 20.8263 9.25579C19.4781 7.99741 17.9064 7.04144 16.2059 6.44274ZM15.5303 10.342C15.7071 9.99965 16.1279 9.86541 16.4703 10.0422C17.2439 10.4417 17.9663 10.9413 18.621 11.529C18.9077 11.7864 18.9314 12.2275 18.674 12.5142C18.4166 12.801 17.9755 12.8247 17.6888 12.5673C17.1214 12.0579 16.4969 11.6263 15.8301 11.282C15.4878 11.1052 15.3535 10.6844 15.5303 10.342ZM11.3024 18.9783C11.3024 18.593 11.6147 18.2807 12.0001 18.2807H12.0094C12.3947 18.2807 12.707 18.593 12.707 18.9783C12.707 19.3636 12.3947 19.676 12.0094 19.676H12.0001C11.6147 19.676 11.3024 19.3636 11.3024 18.9783Z" fill="#151515"/>
</svg>
