<svg width="24" height="24" viewBox="0 0 24 24" fill="none" xmlns="http://www.w3.org/2000/svg">
<path fill-rule="evenodd" clip-rule="evenodd" d="M11.305 5.39313C11.1171 5.35661 10.9228 5.3663 10.7396 5.42133C10.5563 5.47636 10.3897 5.57503 10.2546 5.70856C9.98294 5.97715 9.54111 5.97843 9.26779 5.71144C8.99446 5.44444 8.99315 5.01027 9.26486 4.74169C9.56206 4.44792 9.92852 4.23085 10.3317 4.10978C10.7348 3.98871 11.1622 3.9674 11.5757 4.04774C11.9892 4.12808 12.3762 4.30757 12.7021 4.57028C13.0281 4.83298 13.2829 5.17074 13.444 5.55355C13.6051 5.93635 13.6674 6.35234 13.6254 6.76452C13.5835 7.1767 13.4385 7.57231 13.2035 7.91619C12.9685 8.26006 12.6506 8.54154 12.2782 8.7356C11.9062 8.92942 11.4913 9.03004 11.0703 9.02857L11.0687 9.02856L11.0717 9.02857H11.0703H2.69782C2.31242 9.02857 2 8.72156 2 8.34285C2 7.96414 2.31242 7.65713 2.69782 7.65713H11.0717L11.0746 7.65714C11.2662 7.65793 11.455 7.61219 11.6243 7.52398C11.7936 7.43577 11.9381 7.30782 12.0449 7.15152C12.1518 6.99521 12.2177 6.81539 12.2367 6.62803C12.2558 6.44068 12.2275 6.25159 12.1542 6.07759C12.081 5.90359 11.9652 5.75006 11.817 5.63065C11.6689 5.51124 11.493 5.42965 11.305 5.39313ZM19.2946 8.14518C19.0322 8.09376 18.7609 8.10667 18.5048 8.18277C18.2487 8.25886 18.0157 8.39581 17.8262 8.58148C17.5534 8.84893 17.1115 8.84838 16.8394 8.58025C16.5672 8.31212 16.5678 7.87795 16.8406 7.6105C17.1924 7.26568 17.6253 7.01136 18.1009 6.87004C18.5765 6.72871 19.0802 6.70474 19.5675 6.80024C20.0548 6.89573 20.5107 7.10776 20.8947 7.41756C21.2788 7.72736 21.5792 8.12539 21.7695 8.57645C21.9598 9.0275 22.034 9.51768 21.9856 10.0036C21.9372 10.4896 21.7677 10.9563 21.4921 11.3626C21.2165 11.7689 20.8432 12.1021 20.4053 12.3329C19.9674 12.5637 19.4784 12.6848 18.9815 12.6857L18.9803 12.6857H2.69782C2.31242 12.6857 2 12.3787 2 12C2 11.6213 2.31242 11.3143 2.69782 11.3143H18.9797C19.247 11.3137 19.5101 11.2485 19.7457 11.1243C19.9815 11 20.1825 10.8206 20.3309 10.6018C20.4793 10.3831 20.5706 10.1318 20.5966 9.87009C20.6227 9.60842 20.5827 9.34448 20.4803 9.1016C20.3778 8.85873 20.216 8.6444 20.0092 8.47759C19.8024 8.31077 19.557 8.1966 19.2946 8.14518ZM13.8616 14.9714C14.2826 14.97 14.6975 15.0706 15.0694 15.2644C15.4419 15.4585 15.7597 15.7399 15.9948 16.0838C16.2298 16.4277 16.3748 16.8233 16.4167 17.2355C16.4587 17.6477 16.3963 18.0636 16.2353 18.4465C16.0742 18.8293 15.8193 19.167 15.4934 19.4297C15.1675 19.6924 14.7805 19.8719 14.367 19.9523C13.9534 20.0326 13.5261 20.0113 13.1229 19.8902C12.7198 19.7692 12.3533 19.5521 12.0561 19.2583C11.7844 18.9897 11.7857 18.5556 12.0591 18.2886C12.3324 18.0216 12.7742 18.0229 13.0459 18.2914C13.181 18.425 13.3476 18.5236 13.5308 18.5787C13.7141 18.6337 13.9083 18.6434 14.0963 18.6069C14.2843 18.5704 14.4602 18.4888 14.6083 18.3694C14.7565 18.2499 14.8723 18.0964 14.9455 17.9224C15.0187 17.7484 15.0471 17.5593 15.028 17.372C15.0089 17.1846 14.9431 17.0048 14.8362 16.8485C14.7294 16.6922 14.5849 16.5642 14.4156 16.476C14.2463 16.3878 14.0575 16.3421 13.8659 16.3429L13.8629 16.3429H2.69782C2.31242 16.3429 2 16.0359 2 15.6572C2 15.2784 2.31242 14.9714 2.69782 14.9714H13.8616Z" fill="#151515"/>
</svg>
