<svg width="24" height="24" viewBox="0 0 24 24" fill="none" xmlns="http://www.w3.org/2000/svg">
<path fill-rule="evenodd" clip-rule="evenodd" d="M7.65551 2.20434C7.78635 2.0735 7.9638 2 8.14884 2H15.8512C16.0362 2 16.2137 2.0735 16.3445 2.20434L21.7957 7.65551C21.9265 7.78635 22 7.9638 22 8.14884V15.8512C22 16.0362 21.9265 16.2137 21.7957 16.3445L16.3445 21.7957C16.2137 21.9265 16.0362 22 15.8512 22H8.14884C7.9638 22 7.78635 21.9265 7.65551 21.7957L2.20434 16.3445C2.0735 16.2137 2 16.0362 2 15.8512V8.14884C2 7.9638 2.0735 7.78635 2.20434 7.65551L7.65551 2.20434ZM8.43782 3.39535L3.39535 8.43782V15.5622L8.43782 20.6047H15.5622L20.6047 15.5622V8.43782L15.5622 3.39535H8.43782ZM8.71597 8.71597C8.98843 8.44351 9.43017 8.44351 9.70263 8.71597L12 11.0133L14.2974 8.71597C14.5698 8.44351 15.0116 8.44351 15.284 8.71597C15.5565 8.98843 15.5565 9.43017 15.284 9.70263L12.9867 12L15.284 14.2974C15.5565 14.5698 15.5565 15.0116 15.284 15.284C15.0116 15.5565 14.5698 15.5565 14.2974 15.284L12 12.9867L9.70263 15.284C9.43017 15.5565 8.98843 15.5565 8.71597 15.284C8.44351 15.0116 8.44351 14.5698 8.71597 14.2974L11.0133 12L8.71597 9.70263C8.44351 9.43017 8.44351 8.98843 8.71597 8.71597Z" fill="#151515"/>
</svg>
