<svg width="24" height="24" viewBox="0 0 24 24" fill="none" xmlns="http://www.w3.org/2000/svg">
<path fill-rule="evenodd" clip-rule="evenodd" d="M2 4.55814C2 3.14532 3.14532 2 4.55814 2H19.4419C20.8547 2 22 3.14532 22 4.55814V19.4419C22 20.8547 20.8547 22 19.4419 22H4.55814C3.14532 22 2 20.8547 2 19.4419V4.55814ZM4.55814 3.39535C3.91595 3.39535 3.39535 3.91595 3.39535 4.55814V19.4419C3.39535 20.0841 3.91595 20.6047 4.55814 20.6047H19.4419C20.0841 20.6047 20.6047 20.0841 20.6047 19.4419V4.55814C20.6047 3.91595 20.0841 3.39535 19.4419 3.39535H4.55814ZM8.71597 8.71597C8.98843 8.44351 9.43017 8.44351 9.70263 8.71597L12 11.0133L14.2974 8.71597C14.5698 8.44351 15.0116 8.44351 15.284 8.71597C15.5565 8.98843 15.5565 9.43017 15.284 9.70263L12.9867 12L15.284 14.2974C15.5565 14.5698 15.5565 15.0116 15.284 15.284C15.0116 15.5565 14.5698 15.5565 14.2974 15.284L12 12.9867L9.70263 15.284C9.43017 15.5565 8.98843 15.5565 8.71597 15.284C8.44351 15.0116 8.44351 14.5698 8.71597 14.2974L11.0133 12L8.71597 9.70263C8.44351 9.43017 8.44351 8.98843 8.71597 8.71597Z" fill="#151515"/>
</svg>
