<svg width="24" height="24" viewBox="0 0 24 24" fill="none" xmlns="http://www.w3.org/2000/svg">
<path fill-rule="evenodd" clip-rule="evenodd" d="M13.2074 2.05749C13.4916 2.1806 13.6606 2.47632 13.6224 2.78367L13.0736 7.20227C13.0261 7.58465 12.6776 7.85612 12.2952 7.80863C11.9129 7.76113 11.6414 7.41265 11.6889 7.03028L11.9444 4.97272L11.2059 5.86023C10.9594 6.1564 10.5195 6.19669 10.2233 5.95022C9.92715 5.70374 9.88686 5.26384 10.1333 4.96767L12.3938 2.25139C12.5919 2.01333 12.9232 1.93437 13.2074 2.05749ZM2.20434 2.20434C2.4768 1.93188 2.91855 1.93188 3.191 2.20434L8.76738 7.78071C8.77116 7.78441 8.77489 7.78814 8.77857 7.7919L16.2093 15.2226C16.213 15.2263 16.2167 15.23 16.2204 15.2337L21.7957 20.809C22.0681 21.0814 22.0681 21.5232 21.7957 21.7957C21.5232 22.0681 21.0815 22.0681 20.809 21.7957L15.7678 16.7545L11.6057 21.749C11.4075 21.9869 11.0761 22.0656 10.792 21.9423C10.5079 21.819 10.3391 21.5231 10.3775 21.2158L11.2097 14.5581H3.62791C3.3572 14.5581 3.11092 14.4015 2.9961 14.1564C2.88128 13.9112 2.91863 13.6218 3.09194 13.4138L7.33522 8.32188L2.20434 3.191C1.93189 2.91854 1.93189 2.4768 2.20434 2.20434ZM8.32595 9.31261L5.11747 13.1628H12C12.0712 13.1628 12.1412 13.1737 12.2078 13.1944L8.32595 9.31261ZM12.666 13.6527C12.6954 13.7467 12.7048 13.847 12.6923 13.947L12.0572 19.0276L14.7771 15.7637L12.666 13.6527ZM14.7071 10.1395C14.7071 9.75421 15.0195 9.44185 15.4048 9.44185H20.3722C20.6431 9.44185 20.8894 9.5986 21.0042 9.84393C21.1189 10.0893 21.0814 10.3788 20.9078 10.5867L18.6473 13.2937C18.4003 13.5894 17.9603 13.629 17.6646 13.382C17.3688 13.135 17.3293 12.6951 17.5763 12.3993L18.8807 10.8372H15.4048C15.0195 10.8372 14.7071 10.5248 14.7071 10.1395Z" fill="#151515"/>
</svg>
