<svg width="24" height="24" viewBox="0 0 24 24" fill="none" xmlns="http://www.w3.org/2000/svg">
<path fill-rule="evenodd" clip-rule="evenodd" d="M13.1987 2.05769C13.4807 2.18102 13.6482 2.47688 13.61 2.7842L12.7842 9.44182H20.3077C20.5763 9.44182 20.8207 9.59842 20.9346 9.84358C21.0486 10.0887 21.0115 10.3782 20.8395 10.5861L11.6088 21.7489C11.412 21.9868 11.0832 22.0655 10.8013 21.9422C10.5193 21.8189 10.3518 21.523 10.39 21.2157L11.2158 14.5581H3.69232C3.42369 14.5581 3.17931 14.4015 3.06537 14.1563C2.95143 13.9112 2.9885 13.6217 3.16047 13.4138L12.3912 2.25103C12.588 2.0131 12.9168 1.93436 13.1987 2.05769ZM5.17042 13.1627H12C12.1986 13.1627 12.3876 13.2487 12.519 13.3987C12.6504 13.5487 12.7116 13.7484 12.687 13.9469L12.0568 19.0275L18.8296 10.8372H12C11.8014 10.8372 11.6124 10.7512 11.481 10.6012C11.3496 10.4512 11.2884 10.2515 11.313 10.053L11.9432 4.97239L5.17042 13.1627Z" fill="#151515"/>
</svg>
